G04 #@! TF.GenerationSoftware,KiCad,Pcbnew,(6.0.5)*
G04 #@! TF.CreationDate,2023-01-30T16:32:02-08:00*
G04 #@! TF.ProjectId,12V_Converter_TPS611781,3132565f-436f-46e7-9665-727465725f54,rev?*
G04 #@! TF.SameCoordinates,Original*
G04 #@! TF.FileFunction,Copper,L1,Top*
G04 #@! TF.FilePolarity,Positive*
%FSLAX46Y46*%
G04 Gerber Fmt 4.6, Leading zero omitted, Abs format (unit mm)*
G04 Created by KiCad (PCBNEW (6.0.5)) date 2023-01-30 16:32:02*
%MOMM*%
%LPD*%
G01*
G04 APERTURE LIST*
G04 Aperture macros list*
%AMRoundRect*
0 Rectangle with rounded corners*
0 $1 Rounding radius*
0 $2 $3 $4 $5 $6 $7 $8 $9 X,Y pos of 4 corners*
0 Add a 4 corners polygon primitive as box body*
4,1,4,$2,$3,$4,$5,$6,$7,$8,$9,$2,$3,0*
0 Add four circle primitives for the rounded corners*
1,1,$1+$1,$2,$3*
1,1,$1+$1,$4,$5*
1,1,$1+$1,$6,$7*
1,1,$1+$1,$8,$9*
0 Add four rect primitives between the rounded corners*
20,1,$1+$1,$2,$3,$4,$5,0*
20,1,$1+$1,$4,$5,$6,$7,0*
20,1,$1+$1,$6,$7,$8,$9,0*
20,1,$1+$1,$8,$9,$2,$3,0*%
G04 Aperture macros list end*
G04 #@! TA.AperFunction,SMDPad,CuDef*
%ADD10RoundRect,0.250000X0.262500X0.450000X-0.262500X0.450000X-0.262500X-0.450000X0.262500X-0.450000X0*%
G04 #@! TD*
G04 #@! TA.AperFunction,ComponentPad*
%ADD11R,1.700000X1.700000*%
G04 #@! TD*
G04 #@! TA.AperFunction,SMDPad,CuDef*
%ADD12R,1.400000X2.100000*%
G04 #@! TD*
G04 #@! TA.AperFunction,SMDPad,CuDef*
%ADD13RoundRect,0.250000X0.250000X0.475000X-0.250000X0.475000X-0.250000X-0.475000X0.250000X-0.475000X0*%
G04 #@! TD*
G04 #@! TA.AperFunction,ComponentPad*
%ADD14O,1.700000X1.700000*%
G04 #@! TD*
G04 #@! TA.AperFunction,SMDPad,CuDef*
%ADD15RoundRect,0.250000X-0.250000X-0.475000X0.250000X-0.475000X0.250000X0.475000X-0.250000X0.475000X0*%
G04 #@! TD*
G04 #@! TA.AperFunction,SMDPad,CuDef*
%ADD16RoundRect,0.250000X-0.325000X-0.650000X0.325000X-0.650000X0.325000X0.650000X-0.325000X0.650000X0*%
G04 #@! TD*
G04 #@! TA.AperFunction,SMDPad,CuDef*
%ADD17RoundRect,0.225000X-0.250000X0.225000X-0.250000X-0.225000X0.250000X-0.225000X0.250000X0.225000X0*%
G04 #@! TD*
G04 #@! TA.AperFunction,SMDPad,CuDef*
%ADD18RoundRect,0.250000X0.625000X-0.312500X0.625000X0.312500X-0.625000X0.312500X-0.625000X-0.312500X0*%
G04 #@! TD*
G04 #@! TA.AperFunction,SMDPad,CuDef*
%ADD19R,1.955432X0.420766*%
G04 #@! TD*
G04 #@! TA.AperFunction,SMDPad,CuDef*
%ADD20R,1.819999X2.859999*%
G04 #@! TD*
G04 #@! TA.AperFunction,SMDPad,CuDef*
%ADD21RoundRect,0.250000X1.100000X-0.325000X1.100000X0.325000X-1.100000X0.325000X-1.100000X-0.325000X0*%
G04 #@! TD*
G04 #@! TA.AperFunction,SMDPad,CuDef*
%ADD22R,2.997200X4.648200*%
G04 #@! TD*
G04 #@! TA.AperFunction,SMDPad,CuDef*
%ADD23RoundRect,0.050000X-0.837500X0.500000X-0.837500X-0.500000X0.837500X-0.500000X0.837500X0.500000X0*%
G04 #@! TD*
G04 #@! TA.AperFunction,SMDPad,CuDef*
%ADD24RoundRect,0.050000X-0.175000X0.337500X-0.175000X-0.337500X0.175000X-0.337500X0.175000X0.337500X0*%
G04 #@! TD*
G04 #@! TA.AperFunction,SMDPad,CuDef*
%ADD25RoundRect,0.031429X-1.218571X0.518571X-1.218571X-0.518571X1.218571X-0.518571X1.218571X0.518571X0*%
G04 #@! TD*
G04 #@! TA.AperFunction,SMDPad,CuDef*
%ADD26RoundRect,0.050000X-1.150000X0.175000X-1.150000X-0.175000X1.150000X-0.175000X1.150000X0.175000X0*%
G04 #@! TD*
G04 #@! TA.AperFunction,SMDPad,CuDef*
%ADD27RoundRect,0.050000X-0.175000X0.225000X-0.175000X-0.225000X0.175000X-0.225000X0.175000X0.225000X0*%
G04 #@! TD*
G04 #@! TA.AperFunction,SMDPad,CuDef*
%ADD28R,1.099998X0.449986*%
G04 #@! TD*
G04 #@! TA.AperFunction,SMDPad,CuDef*
%ADD29RoundRect,0.200000X-0.200000X-0.275000X0.200000X-0.275000X0.200000X0.275000X-0.200000X0.275000X0*%
G04 #@! TD*
G04 #@! TA.AperFunction,ViaPad*
%ADD30C,1.250000*%
G04 #@! TD*
G04 #@! TA.AperFunction,ViaPad*
%ADD31C,1.000000*%
G04 #@! TD*
G04 #@! TA.AperFunction,ViaPad*
%ADD32C,0.800000*%
G04 #@! TD*
G04 #@! TA.AperFunction,Conductor*
%ADD33C,0.250000*%
G04 #@! TD*
G04 #@! TA.AperFunction,Conductor*
%ADD34C,0.750000*%
G04 #@! TD*
G04 #@! TA.AperFunction,Conductor*
%ADD35C,2.000000*%
G04 #@! TD*
G04 #@! TA.AperFunction,Conductor*
%ADD36C,0.400000*%
G04 #@! TD*
G04 #@! TA.AperFunction,Conductor*
%ADD37C,1.000000*%
G04 #@! TD*
G04 #@! TA.AperFunction,Conductor*
%ADD38C,1.500000*%
G04 #@! TD*
G04 #@! TA.AperFunction,Conductor*
%ADD39C,0.500000*%
G04 #@! TD*
G04 #@! TA.AperFunction,Conductor*
%ADD40C,1.250000*%
G04 #@! TD*
G04 APERTURE END LIST*
D10*
X75588500Y-109220000D03*
X73763500Y-109220000D03*
D11*
X81915000Y-97917000D03*
D12*
X76581000Y-116713000D03*
X72181000Y-116713000D03*
D13*
X90799742Y-112125999D03*
X88899742Y-112125999D03*
D11*
X79380000Y-121920000D03*
D14*
X76840000Y-121920000D03*
D15*
X79441000Y-108331000D03*
X81341000Y-108331000D03*
D16*
X83106742Y-108188999D03*
X86056742Y-108188999D03*
D17*
X77786024Y-107923217D03*
X77786024Y-109473217D03*
D18*
X71628000Y-109412500D03*
X71628000Y-106487500D03*
D10*
X76985500Y-111252000D03*
X75160500Y-111252000D03*
D13*
X75626000Y-106807000D03*
X73726000Y-106807000D03*
D19*
X80294308Y-110175998D03*
X80294308Y-110825999D03*
X80294308Y-111475998D03*
X80294308Y-112125999D03*
X80294308Y-112776000D03*
X80294308Y-113425999D03*
X80294308Y-114076000D03*
X86045076Y-114076000D03*
X86045076Y-113425999D03*
X86045076Y-112776000D03*
X86045076Y-112125999D03*
X86045076Y-111475998D03*
X86045076Y-110825999D03*
X86045076Y-110175998D03*
D20*
X83169692Y-112125999D03*
D10*
X90804742Y-109966999D03*
X88979742Y-109966999D03*
D21*
X82930742Y-119061999D03*
X82930742Y-116111999D03*
D15*
X88838742Y-105648999D03*
X90738742Y-105648999D03*
D22*
X63373000Y-114427000D03*
X63373000Y-104775000D03*
D11*
X79380000Y-97917000D03*
D14*
X76840000Y-97917000D03*
D15*
X87822742Y-107807999D03*
X89722742Y-107807999D03*
D21*
X86359742Y-119061999D03*
X86359742Y-116111999D03*
D23*
X72027500Y-112599000D03*
D24*
X73364999Y-111086499D03*
D25*
X72390000Y-111949000D03*
D24*
X72715001Y-111086499D03*
X72064999Y-111086499D03*
X71415001Y-111086499D03*
D26*
X72390000Y-113924000D03*
D27*
X71415001Y-114323501D03*
X72064999Y-114323501D03*
X72715001Y-114323501D03*
X73364999Y-114323501D03*
D28*
X73740000Y-113044000D03*
D21*
X79501742Y-119061999D03*
X79501742Y-116111999D03*
D29*
X85662000Y-105918000D03*
X87312000Y-105918000D03*
D15*
X75504000Y-114046000D03*
X77404000Y-114046000D03*
D29*
X88899742Y-116189999D03*
X90549742Y-116189999D03*
X88899742Y-114030999D03*
X90549742Y-114030999D03*
D30*
X69204018Y-107483748D03*
D31*
X79501742Y-117586999D03*
X86359742Y-117586999D03*
D32*
X83180652Y-109949288D03*
X83180652Y-111100720D03*
X83169692Y-112125999D03*
X83197152Y-113145694D03*
D31*
X82930742Y-117586999D03*
D32*
X91185742Y-107807999D03*
X87428364Y-114652366D03*
X78598550Y-111990950D03*
X75184000Y-112649000D03*
X84581742Y-108315999D03*
D33*
X80294308Y-109758308D02*
X80137000Y-109601000D01*
X80137000Y-109601000D02*
X79756000Y-109601000D01*
X79441000Y-109286000D02*
X79441000Y-108331000D01*
D34*
X76840000Y-101859000D02*
X79441000Y-104460000D01*
D35*
X66167000Y-104775000D02*
X63373000Y-104775000D01*
D34*
X76840000Y-97917000D02*
X76840000Y-101859000D01*
D35*
X76840000Y-97917000D02*
X73025000Y-97917000D01*
D33*
X79756000Y-109601000D02*
X79441000Y-109286000D01*
X80294308Y-110175998D02*
X80294308Y-109758308D01*
D34*
X79441000Y-104460000D02*
X79441000Y-108331000D01*
D35*
X73025000Y-97917000D02*
X66167000Y-104775000D01*
D33*
X77851000Y-112268000D02*
X77851000Y-109538193D01*
D34*
X73786827Y-105497451D02*
X72618049Y-105497451D01*
X77730332Y-109473217D02*
X76700520Y-108443405D01*
D35*
X70631752Y-107483748D02*
X71628000Y-106487500D01*
D34*
X77786024Y-109473217D02*
X77730332Y-109473217D01*
D36*
X81869692Y-113425999D02*
X83169692Y-112125999D01*
D34*
X76700520Y-108443405D02*
X76700520Y-105990473D01*
D33*
X79008999Y-113425999D02*
X77851000Y-112268000D01*
D36*
X84469692Y-113425999D02*
X83169692Y-112125999D01*
D37*
X79501742Y-116111999D02*
X82930742Y-116111999D01*
D34*
X73726000Y-106807000D02*
X73726000Y-105558278D01*
D36*
X80294308Y-113425999D02*
X81869692Y-113425999D01*
D34*
X73726000Y-105558278D02*
X73786827Y-105497451D01*
D37*
X82930742Y-116111999D02*
X82930742Y-117586999D01*
D34*
X72618049Y-105497451D02*
X71628000Y-106487500D01*
D36*
X86045076Y-113425999D02*
X84469692Y-113425999D01*
D34*
X76207498Y-105497451D02*
X73786827Y-105497451D01*
D37*
X82930742Y-116111999D02*
X86359742Y-116111999D01*
X86359742Y-116111999D02*
X86359742Y-117586999D01*
D36*
X80294308Y-112776000D02*
X82519691Y-112776000D01*
D35*
X69204018Y-107483748D02*
X70631752Y-107483748D01*
D33*
X80294308Y-113425999D02*
X79008999Y-113425999D01*
D37*
X77435743Y-114046000D02*
X79501742Y-116111999D01*
D34*
X76700520Y-105990473D02*
X76207498Y-105497451D01*
D33*
X77851000Y-109538193D02*
X77786024Y-109473217D01*
D37*
X79501742Y-116111999D02*
X79501742Y-117586999D01*
D36*
X82519691Y-112776000D02*
X83169692Y-112125999D01*
D37*
X77404000Y-114046000D02*
X77435743Y-114046000D01*
D33*
X87822742Y-107807999D02*
X87822742Y-106999742D01*
X87822742Y-106999742D02*
X87312000Y-106489000D01*
X87312000Y-106489000D02*
X87312000Y-105918000D01*
D36*
X91185742Y-107807999D02*
X89722742Y-107807999D01*
X90738742Y-106725999D02*
X90738742Y-105648999D01*
X86621442Y-114652366D02*
X86045076Y-114076000D01*
X87428364Y-114652366D02*
X86621442Y-114652366D01*
X91185742Y-107172999D02*
X90738742Y-106725999D01*
X91185742Y-107807999D02*
X91185742Y-107172999D01*
D33*
X75588500Y-110085500D02*
X75160500Y-110513500D01*
X75588500Y-106844500D02*
X75626000Y-106807000D01*
X75160500Y-110513500D02*
X75160500Y-111252000D01*
X75588500Y-109220000D02*
X75588500Y-110085500D01*
X75588500Y-109220000D02*
X75588500Y-106844500D01*
D38*
X76581000Y-116713000D02*
X76581000Y-118745000D01*
D37*
X79501742Y-119061999D02*
X76897999Y-119061999D01*
D39*
X90549742Y-116825999D02*
X88313742Y-119061999D01*
X90549742Y-116189999D02*
X90549742Y-116825999D01*
D37*
X76897999Y-119061999D02*
X76840000Y-119004000D01*
X86359742Y-119061999D02*
X82930742Y-119061999D01*
X82930742Y-119061999D02*
X79501742Y-119061999D01*
X75504000Y-115636000D02*
X75504000Y-114046000D01*
D38*
X76840000Y-119004000D02*
X76840000Y-121920000D01*
X76581000Y-118745000D02*
X76840000Y-119004000D01*
D37*
X76581000Y-116713000D02*
X75504000Y-115636000D01*
D39*
X88313742Y-119061999D02*
X86359742Y-119061999D01*
D36*
X86045076Y-112125999D02*
X88899742Y-112125999D01*
D33*
X78332217Y-107923217D02*
X77737783Y-107923217D01*
X78992081Y-111360893D02*
X78613000Y-110981812D01*
X78613000Y-108204000D02*
X78332217Y-107923217D01*
X78613000Y-110981812D02*
X78613000Y-108204000D01*
X80179203Y-111360893D02*
X78992081Y-111360893D01*
X80294308Y-111475998D02*
X80179203Y-111360893D01*
D40*
X73364999Y-114323501D02*
X72715001Y-114323501D01*
X72715001Y-114323501D02*
X72064999Y-114323501D01*
X72064999Y-114323501D02*
X71415001Y-114323501D01*
D36*
X87629742Y-113649999D02*
X88010742Y-114030999D01*
X87629742Y-113141999D02*
X87629742Y-113649999D01*
X86045076Y-112776000D02*
X87263743Y-112776000D01*
D34*
X88899742Y-116189999D02*
X88899742Y-114030999D01*
D36*
X87263743Y-112776000D02*
X87629742Y-113141999D01*
X88010742Y-114030999D02*
X88899742Y-114030999D01*
D33*
X76985500Y-112038218D02*
X76985500Y-111252000D01*
X80294308Y-114076000D02*
X79023282Y-114076000D01*
X79023282Y-114076000D02*
X76985500Y-112038218D01*
D36*
X88010742Y-109966999D02*
X88979742Y-109966999D01*
X87263743Y-111475998D02*
X87629742Y-111109999D01*
X87629742Y-110347999D02*
X88010742Y-109966999D01*
X86045076Y-111475998D02*
X87263743Y-111475998D01*
X87629742Y-111109999D02*
X87629742Y-110347999D01*
D37*
X73301999Y-111086499D02*
X71628000Y-109412500D01*
D33*
X73763500Y-108307500D02*
X73763500Y-109220000D01*
D37*
X73364999Y-111086499D02*
X73301999Y-111086499D01*
D33*
X72136000Y-108077000D02*
X73533000Y-108077000D01*
X72064999Y-109849499D02*
X71628000Y-109412500D01*
D37*
X72064999Y-111086499D02*
X72064999Y-109849499D01*
X72715001Y-111086499D02*
X72715001Y-110499501D01*
X73364999Y-111086499D02*
X72715001Y-111086499D01*
X72064999Y-111086499D02*
X71415001Y-111086499D01*
D33*
X71628000Y-109412500D02*
X71628000Y-108585000D01*
X73533000Y-108077000D02*
X73763500Y-108307500D01*
X71628000Y-108585000D02*
X72136000Y-108077000D01*
D37*
X72715001Y-110499501D02*
X71628000Y-109412500D01*
D33*
X71415001Y-109625499D02*
X71628000Y-109412500D01*
D37*
X72715001Y-111086499D02*
X72064999Y-111086499D01*
X71415001Y-111086499D02*
X71415001Y-109625499D01*
D33*
X74803000Y-113030000D02*
X73754000Y-113030000D01*
X75184000Y-112649000D02*
X74803000Y-113030000D01*
X78733599Y-112125999D02*
X78598550Y-111990950D01*
X73754000Y-113030000D02*
X73740000Y-113044000D01*
X80294308Y-112125999D02*
X78733599Y-112125999D01*
D36*
X84581742Y-108315999D02*
X84581742Y-109839999D01*
X85929742Y-108315999D02*
X86056742Y-108188999D01*
X84917741Y-110175998D02*
X86045076Y-110175998D01*
X84581742Y-108315999D02*
X85929742Y-108315999D01*
X84581742Y-109839999D02*
X84917741Y-110175998D01*
G04 #@! TA.AperFunction,Conductor*
G36*
X83667600Y-109778800D02*
G01*
X81353326Y-109778800D01*
X81350255Y-109776748D01*
X81338086Y-109774327D01*
X81338085Y-109774327D01*
X81297840Y-109766322D01*
X81291772Y-109765115D01*
X80924400Y-109765115D01*
X80924400Y-106730800D01*
X83667600Y-106730800D01*
X83667600Y-109778800D01*
G37*
G04 #@! TD.AperFunction*
G04 #@! TA.AperFunction,Conductor*
G36*
X70046121Y-108986002D02*
G01*
X70092614Y-109039658D01*
X70104000Y-109092000D01*
X70104000Y-113665000D01*
X73534000Y-113665000D01*
X73602121Y-113685002D01*
X73648614Y-113738658D01*
X73660000Y-113791000D01*
X73660000Y-123825000D01*
X73639998Y-123893121D01*
X73586342Y-123939614D01*
X73534000Y-123951000D01*
X56388000Y-123951000D01*
X56319879Y-123930998D01*
X56273386Y-123877342D01*
X56262000Y-123825000D01*
X56262000Y-109092000D01*
X56282002Y-109023879D01*
X56335658Y-108977386D01*
X56388000Y-108966000D01*
X69978000Y-108966000D01*
X70046121Y-108986002D01*
G37*
G04 #@! TD.AperFunction*
G04 #@! TA.AperFunction,Conductor*
G36*
X96461121Y-95525002D02*
G01*
X96507614Y-95578658D01*
X96519000Y-95631000D01*
X96519000Y-123825000D01*
X96498998Y-123893121D01*
X96445342Y-123939614D01*
X96393000Y-123951000D01*
X73991500Y-123951000D01*
X73923379Y-123930998D01*
X73876886Y-123877342D01*
X73865500Y-123825000D01*
X73865500Y-115040633D01*
X73885502Y-114972512D01*
X73904927Y-114949085D01*
X73972623Y-114885068D01*
X73997356Y-114861679D01*
X74004640Y-114850962D01*
X74094335Y-114718978D01*
X74098170Y-114713335D01*
X74100702Y-114707005D01*
X74100704Y-114707001D01*
X74162244Y-114553140D01*
X74162245Y-114553135D01*
X74164778Y-114546803D01*
X74165892Y-114540076D01*
X74165893Y-114540071D01*
X74192957Y-114376591D01*
X74192957Y-114376587D01*
X74194072Y-114369853D01*
X74193540Y-114359690D01*
X74185042Y-114197554D01*
X74184685Y-114190741D01*
X74182874Y-114184165D01*
X74138869Y-114024403D01*
X74138868Y-114024400D01*
X74137056Y-114017822D01*
X74053405Y-113859165D01*
X74049000Y-113853952D01*
X74048997Y-113853948D01*
X73942043Y-113727386D01*
X73937637Y-113722172D01*
X73902866Y-113695588D01*
X73860900Y-113638324D01*
X73856555Y-113567461D01*
X73891211Y-113505497D01*
X73953866Y-113472107D01*
X73979397Y-113469493D01*
X74309747Y-113469493D01*
X74315815Y-113468286D01*
X74356060Y-113460281D01*
X74356061Y-113460281D01*
X74368230Y-113457860D01*
X74434551Y-113413545D01*
X74441442Y-113403232D01*
X74450221Y-113394453D01*
X74452996Y-113397228D01*
X74490379Y-113365978D01*
X74540684Y-113355500D01*
X74680310Y-113355500D01*
X74748431Y-113375502D01*
X74794924Y-113429158D01*
X74805751Y-113493358D01*
X74803500Y-113517166D01*
X74803500Y-115607359D01*
X74803208Y-115615929D01*
X74799322Y-115672930D01*
X74800627Y-115680406D01*
X74800627Y-115680409D01*
X74810178Y-115735132D01*
X74811141Y-115741658D01*
X74815885Y-115780857D01*
X74818724Y-115804320D01*
X74821409Y-115811427D01*
X74822218Y-115814720D01*
X74826177Y-115829191D01*
X74827166Y-115832467D01*
X74828473Y-115839954D01*
X74831528Y-115846913D01*
X74831528Y-115846914D01*
X74853847Y-115897760D01*
X74856339Y-115903866D01*
X74866841Y-115931657D01*
X74878655Y-115962923D01*
X74882954Y-115969178D01*
X74884535Y-115972203D01*
X74891825Y-115985299D01*
X74893566Y-115988243D01*
X74896621Y-115995202D01*
X74901246Y-116001230D01*
X74901247Y-116001231D01*
X74935042Y-116045273D01*
X74938919Y-116050609D01*
X74970381Y-116096386D01*
X74970386Y-116096392D01*
X74974688Y-116102651D01*
X74980362Y-116107706D01*
X75020648Y-116143600D01*
X75025925Y-116148581D01*
X75593596Y-116716253D01*
X75627621Y-116778565D01*
X75630500Y-116805348D01*
X75630500Y-118729568D01*
X75630451Y-118733086D01*
X75628164Y-118814972D01*
X75638075Y-118871179D01*
X75639343Y-118880322D01*
X75645112Y-118937110D01*
X75651704Y-118958145D01*
X75653166Y-118962811D01*
X75657016Y-118978607D01*
X75660585Y-118998847D01*
X75660587Y-118998856D01*
X75661695Y-119005137D01*
X75664044Y-119011070D01*
X75682706Y-119058206D01*
X75685788Y-119066909D01*
X75702856Y-119121373D01*
X75705950Y-119126956D01*
X75705951Y-119126957D01*
X75715918Y-119144938D01*
X75722862Y-119159629D01*
X75732779Y-119184675D01*
X75764028Y-119232428D01*
X75768798Y-119240336D01*
X75796472Y-119290261D01*
X75800626Y-119295107D01*
X75800627Y-119295109D01*
X75814001Y-119310712D01*
X75823766Y-119323718D01*
X75838513Y-119346254D01*
X75842758Y-119350968D01*
X75852595Y-119360805D01*
X75886621Y-119423117D01*
X75889500Y-119449900D01*
X75889500Y-121435932D01*
X75874858Y-121492960D01*
X75875173Y-121493095D01*
X75874300Y-121495131D01*
X75873915Y-121496632D01*
X75872745Y-121498760D01*
X75872742Y-121498766D01*
X75869776Y-121504162D01*
X75807484Y-121700532D01*
X75806798Y-121706649D01*
X75806797Y-121706653D01*
X75785207Y-121899137D01*
X75784520Y-121905262D01*
X75801759Y-122110553D01*
X75803458Y-122116478D01*
X75825147Y-122192115D01*
X75858544Y-122308586D01*
X75861359Y-122314063D01*
X75861360Y-122314066D01*
X75927650Y-122443052D01*
X75952712Y-122491818D01*
X76080677Y-122653270D01*
X76237564Y-122786791D01*
X76417398Y-122887297D01*
X76512238Y-122918113D01*
X76607471Y-122949056D01*
X76607475Y-122949057D01*
X76613329Y-122950959D01*
X76817894Y-122975351D01*
X76824029Y-122974879D01*
X76824031Y-122974879D01*
X76880039Y-122970569D01*
X77023300Y-122959546D01*
X77029230Y-122957890D01*
X77029232Y-122957890D01*
X77215797Y-122905800D01*
X77215796Y-122905800D01*
X77221725Y-122904145D01*
X77227214Y-122901372D01*
X77227220Y-122901370D01*
X77400116Y-122814033D01*
X77405610Y-122811258D01*
X77567951Y-122684424D01*
X77702564Y-122528472D01*
X77723387Y-122491818D01*
X77786445Y-122380815D01*
X77837484Y-122331464D01*
X77907102Y-122317542D01*
X77973196Y-122343468D01*
X78014781Y-122401011D01*
X78022001Y-122443052D01*
X78022001Y-122814669D01*
X78022371Y-122821490D01*
X78027895Y-122872352D01*
X78031521Y-122887604D01*
X78076676Y-123008054D01*
X78085214Y-123023649D01*
X78161715Y-123125724D01*
X78174276Y-123138285D01*
X78276351Y-123214786D01*
X78291946Y-123223324D01*
X78412394Y-123268478D01*
X78427649Y-123272105D01*
X78478514Y-123277631D01*
X78485328Y-123278000D01*
X79107885Y-123278000D01*
X79123124Y-123273525D01*
X79124329Y-123272135D01*
X79126000Y-123264452D01*
X79126000Y-123259884D01*
X79634000Y-123259884D01*
X79638475Y-123275123D01*
X79639865Y-123276328D01*
X79647548Y-123277999D01*
X80274669Y-123277999D01*
X80281490Y-123277629D01*
X80332352Y-123272105D01*
X80347604Y-123268479D01*
X80468054Y-123223324D01*
X80483649Y-123214786D01*
X80585724Y-123138285D01*
X80598285Y-123125724D01*
X80674786Y-123023649D01*
X80683324Y-123008054D01*
X80728478Y-122887606D01*
X80732105Y-122872351D01*
X80737631Y-122821486D01*
X80738000Y-122814672D01*
X80738000Y-122192115D01*
X80733525Y-122176876D01*
X80732135Y-122175671D01*
X80724452Y-122174000D01*
X79652115Y-122174000D01*
X79636876Y-122178475D01*
X79635671Y-122179865D01*
X79634000Y-122187548D01*
X79634000Y-123259884D01*
X79126000Y-123259884D01*
X79126000Y-121647885D01*
X79634000Y-121647885D01*
X79638475Y-121663124D01*
X79639865Y-121664329D01*
X79647548Y-121666000D01*
X80719884Y-121666000D01*
X80735123Y-121661525D01*
X80736328Y-121660135D01*
X80737999Y-121652452D01*
X80737999Y-121025331D01*
X80737629Y-121018510D01*
X80732105Y-120967648D01*
X80728479Y-120952396D01*
X80683324Y-120831946D01*
X80674786Y-120816351D01*
X80598285Y-120714276D01*
X80585724Y-120701715D01*
X80483649Y-120625214D01*
X80468054Y-120616676D01*
X80347606Y-120571522D01*
X80332351Y-120567895D01*
X80281486Y-120562369D01*
X80274672Y-120562000D01*
X79652115Y-120562000D01*
X79636876Y-120566475D01*
X79635671Y-120567865D01*
X79634000Y-120575548D01*
X79634000Y-121647885D01*
X79126000Y-121647885D01*
X79126000Y-120580116D01*
X79121525Y-120564877D01*
X79120135Y-120563672D01*
X79112452Y-120562001D01*
X78485331Y-120562001D01*
X78478510Y-120562371D01*
X78427648Y-120567895D01*
X78412396Y-120571521D01*
X78291946Y-120616676D01*
X78276351Y-120625214D01*
X78174276Y-120701715D01*
X78161715Y-120714276D01*
X78085214Y-120816351D01*
X78076676Y-120831946D01*
X78034482Y-120944498D01*
X77991840Y-121001262D01*
X77925279Y-121025962D01*
X77855930Y-121010755D01*
X77805812Y-120960469D01*
X77790500Y-120900268D01*
X77790500Y-119888499D01*
X77810502Y-119820378D01*
X77864158Y-119773885D01*
X77916500Y-119762499D01*
X78110334Y-119762499D01*
X78172122Y-119780641D01*
X78172657Y-119779630D01*
X78177612Y-119782253D01*
X78178455Y-119782501D01*
X78179697Y-119783357D01*
X78180983Y-119784038D01*
X78188558Y-119789633D01*
X78316373Y-119834518D01*
X78324019Y-119835241D01*
X78324020Y-119835241D01*
X78329990Y-119835805D01*
X78347908Y-119837499D01*
X80655576Y-119837499D01*
X80673494Y-119835805D01*
X80679464Y-119835241D01*
X80679465Y-119835241D01*
X80687111Y-119834518D01*
X80814926Y-119789633D01*
X80822500Y-119784039D01*
X80830827Y-119779630D01*
X80832129Y-119782089D01*
X80884962Y-119762765D01*
X80893150Y-119762499D01*
X81539334Y-119762499D01*
X81601122Y-119780641D01*
X81601657Y-119779630D01*
X81606612Y-119782253D01*
X81607455Y-119782501D01*
X81608697Y-119783357D01*
X81609983Y-119784038D01*
X81617558Y-119789633D01*
X81745373Y-119834518D01*
X81753019Y-119835241D01*
X81753020Y-119835241D01*
X81758990Y-119835805D01*
X81776908Y-119837499D01*
X84084576Y-119837499D01*
X84102494Y-119835805D01*
X84108464Y-119835241D01*
X84108465Y-119835241D01*
X84116111Y-119834518D01*
X84243926Y-119789633D01*
X84251500Y-119784039D01*
X84259827Y-119779630D01*
X84261129Y-119782089D01*
X84313962Y-119762765D01*
X84322150Y-119762499D01*
X84968334Y-119762499D01*
X85030122Y-119780641D01*
X85030657Y-119779630D01*
X85035612Y-119782253D01*
X85036455Y-119782501D01*
X85037697Y-119783357D01*
X85038983Y-119784038D01*
X85046558Y-119789633D01*
X85174373Y-119834518D01*
X85182019Y-119835241D01*
X85182020Y-119835241D01*
X85187990Y-119835805D01*
X85205908Y-119837499D01*
X87513576Y-119837499D01*
X87531494Y-119835805D01*
X87537464Y-119835241D01*
X87537465Y-119835241D01*
X87545111Y-119834518D01*
X87672926Y-119789633D01*
X87680496Y-119784041D01*
X87680499Y-119784040D01*
X87774321Y-119714741D01*
X87781892Y-119709149D01*
X87794407Y-119692205D01*
X87856783Y-119607756D01*
X87856784Y-119607753D01*
X87862376Y-119600183D01*
X87865495Y-119591301D01*
X87869905Y-119582972D01*
X87872501Y-119584346D01*
X87905019Y-119539110D01*
X87971047Y-119513017D01*
X87982464Y-119512499D01*
X88279522Y-119512499D01*
X88294331Y-119513372D01*
X88328052Y-119517363D01*
X88337316Y-119515671D01*
X88337317Y-119515671D01*
X88385743Y-119506827D01*
X88389646Y-119506177D01*
X88438387Y-119498849D01*
X88438388Y-119498849D01*
X88447704Y-119497448D01*
X88454217Y-119494320D01*
X88461315Y-119493024D01*
X88513389Y-119465974D01*
X88516879Y-119464231D01*
X88569821Y-119438808D01*
X88575107Y-119433922D01*
X88575155Y-119433889D01*
X88581530Y-119430578D01*
X88586570Y-119426274D01*
X88623797Y-119389047D01*
X88627363Y-119385617D01*
X88669298Y-119346853D01*
X88672991Y-119340497D01*
X88678509Y-119334336D01*
X90844097Y-117168748D01*
X90855186Y-117158893D01*
X90856438Y-117157906D01*
X90881852Y-117137871D01*
X90891275Y-117124238D01*
X90915194Y-117089629D01*
X90917495Y-117086409D01*
X90946783Y-117046756D01*
X90946783Y-117046755D01*
X90952377Y-117039182D01*
X90954771Y-117032365D01*
X90958873Y-117026430D01*
X90976554Y-116970524D01*
X90977802Y-116966784D01*
X90994142Y-116920254D01*
X90994143Y-116920251D01*
X90997262Y-116911368D01*
X90997545Y-116904183D01*
X90997559Y-116904110D01*
X90999722Y-116897269D01*
X91000242Y-116890662D01*
X91000242Y-116838010D01*
X91000340Y-116833053D01*
X91000542Y-116827922D01*
X91023208Y-116760641D01*
X91037349Y-116743784D01*
X91077792Y-116703341D01*
X91135388Y-116590303D01*
X91150242Y-116496518D01*
X91150241Y-115883481D01*
X91149373Y-115878001D01*
X91136940Y-115799493D01*
X91136939Y-115799489D01*
X91135388Y-115789695D01*
X91077792Y-115676657D01*
X91033830Y-115632695D01*
X90999804Y-115570383D01*
X91004869Y-115499568D01*
X91047416Y-115442732D01*
X91113936Y-115417921D01*
X91122925Y-115417600D01*
X93624400Y-115417600D01*
X93624400Y-102311200D01*
X80467200Y-102311200D01*
X80467200Y-107238800D01*
X80472519Y-107238800D01*
X80474863Y-107246782D01*
X80501506Y-107288239D01*
X80501506Y-107359236D01*
X80487870Y-107389853D01*
X80403186Y-107527238D01*
X80397037Y-107540424D01*
X80348389Y-107687092D01*
X80307958Y-107745451D01*
X80242394Y-107772688D01*
X80172512Y-107760154D01*
X80120500Y-107711830D01*
X80109913Y-107689172D01*
X80101252Y-107664510D01*
X80093634Y-107642816D01*
X80088042Y-107635246D01*
X80088041Y-107635243D01*
X80041149Y-107571758D01*
X80016766Y-107505080D01*
X80016500Y-107496898D01*
X80016500Y-104505972D01*
X80017578Y-104489526D01*
X80020387Y-104468189D01*
X80020387Y-104468188D01*
X80021465Y-104460000D01*
X80016500Y-104422285D01*
X80016500Y-104422280D01*
X80001687Y-104309764D01*
X79943698Y-104169767D01*
X79884115Y-104092117D01*
X79874612Y-104079732D01*
X79874609Y-104079729D01*
X79874606Y-104079724D01*
X79856479Y-104056101D01*
X79856477Y-104056099D01*
X79851451Y-104049549D01*
X79827821Y-104031417D01*
X79815430Y-104020550D01*
X77452405Y-101657525D01*
X77418379Y-101595213D01*
X77415500Y-101568430D01*
X77415500Y-99048289D01*
X77435502Y-98980168D01*
X77470582Y-98945830D01*
X77469947Y-98944980D01*
X77642109Y-98816420D01*
X77642110Y-98816420D01*
X77646733Y-98812967D01*
X77796501Y-98650949D01*
X77797207Y-98649831D01*
X77853376Y-98608817D01*
X77924247Y-98604595D01*
X77986150Y-98639359D01*
X78019431Y-98702072D01*
X78022001Y-98727388D01*
X78022001Y-98811669D01*
X78022371Y-98818490D01*
X78027895Y-98869352D01*
X78031521Y-98884604D01*
X78076676Y-99005054D01*
X78085214Y-99020649D01*
X78161715Y-99122724D01*
X78174276Y-99135285D01*
X78276351Y-99211786D01*
X78291946Y-99220324D01*
X78412394Y-99265478D01*
X78427649Y-99269105D01*
X78478514Y-99274631D01*
X78485328Y-99275000D01*
X79107885Y-99275000D01*
X79123124Y-99270525D01*
X79124329Y-99269135D01*
X79126000Y-99261452D01*
X79126000Y-99256884D01*
X79634000Y-99256884D01*
X79638475Y-99272123D01*
X79639865Y-99273328D01*
X79647548Y-99274999D01*
X80274669Y-99274999D01*
X80281490Y-99274629D01*
X80332352Y-99269105D01*
X80347604Y-99265479D01*
X80468054Y-99220324D01*
X80483649Y-99211786D01*
X80585724Y-99135285D01*
X80598285Y-99122724D01*
X80674786Y-99020649D01*
X80683323Y-99005056D01*
X80705712Y-98945335D01*
X80748354Y-98888571D01*
X80814916Y-98863872D01*
X80884265Y-98879080D01*
X80912789Y-98900471D01*
X80913557Y-98901239D01*
X80920448Y-98911552D01*
X80986769Y-98955867D01*
X80998938Y-98958288D01*
X80998939Y-98958288D01*
X81039184Y-98966293D01*
X81045252Y-98967500D01*
X82784748Y-98967500D01*
X82790816Y-98966293D01*
X82831061Y-98958288D01*
X82831062Y-98958288D01*
X82843231Y-98955867D01*
X82909552Y-98911552D01*
X82953867Y-98845231D01*
X82965500Y-98786748D01*
X82965500Y-97047252D01*
X82953867Y-96988769D01*
X82909552Y-96922448D01*
X82843231Y-96878133D01*
X82831062Y-96875712D01*
X82831061Y-96875712D01*
X82790816Y-96867707D01*
X82784748Y-96866500D01*
X81045252Y-96866500D01*
X81039184Y-96867707D01*
X80998939Y-96875712D01*
X80998938Y-96875712D01*
X80986769Y-96878133D01*
X80920448Y-96922448D01*
X80913557Y-96932761D01*
X80912789Y-96933529D01*
X80850477Y-96967555D01*
X80779662Y-96962490D01*
X80722826Y-96919943D01*
X80705712Y-96888665D01*
X80683323Y-96828944D01*
X80674786Y-96813351D01*
X80598285Y-96711276D01*
X80585724Y-96698715D01*
X80483649Y-96622214D01*
X80468054Y-96613676D01*
X80347606Y-96568522D01*
X80332351Y-96564895D01*
X80281486Y-96559369D01*
X80274672Y-96559000D01*
X79652115Y-96559000D01*
X79636876Y-96563475D01*
X79635671Y-96564865D01*
X79634000Y-96572548D01*
X79634000Y-99256884D01*
X79126000Y-99256884D01*
X79126000Y-96577116D01*
X79121525Y-96561877D01*
X79120135Y-96560672D01*
X79112452Y-96559001D01*
X78485331Y-96559001D01*
X78478510Y-96559371D01*
X78427648Y-96564895D01*
X78412396Y-96568521D01*
X78291946Y-96613676D01*
X78276351Y-96622214D01*
X78174276Y-96698715D01*
X78161715Y-96711276D01*
X78085214Y-96813351D01*
X78076676Y-96828946D01*
X78031522Y-96949394D01*
X78027895Y-96964649D01*
X78022369Y-97015514D01*
X78022000Y-97022328D01*
X78022000Y-97109165D01*
X78001998Y-97177286D01*
X77948342Y-97223779D01*
X77878068Y-97233883D01*
X77813488Y-97204389D01*
X77801268Y-97192243D01*
X77669910Y-97042457D01*
X77496640Y-96905863D01*
X77301380Y-96803131D01*
X77090667Y-96737703D01*
X77074944Y-96735842D01*
X76915211Y-96716936D01*
X76915205Y-96716936D01*
X76911524Y-96716500D01*
X73069740Y-96716500D01*
X73061499Y-96716230D01*
X73049165Y-96715422D01*
X72993440Y-96711769D01*
X72978111Y-96713583D01*
X72901060Y-96722703D01*
X72897780Y-96723047D01*
X72811043Y-96731017D01*
X72811040Y-96731018D01*
X72805289Y-96731546D01*
X72799728Y-96733115D01*
X72799725Y-96733115D01*
X72799597Y-96733151D01*
X72780218Y-96737006D01*
X72780074Y-96737023D01*
X72780068Y-96737024D01*
X72774333Y-96737703D01*
X72688516Y-96764350D01*
X72685549Y-96765271D01*
X72682386Y-96766208D01*
X72598488Y-96789869D01*
X72598486Y-96789870D01*
X72592936Y-96791435D01*
X72587765Y-96793985D01*
X72587752Y-96793990D01*
X72587621Y-96794055D01*
X72569278Y-96801373D01*
X72569142Y-96801415D01*
X72569136Y-96801418D01*
X72563621Y-96803130D01*
X72514553Y-96828946D01*
X72481351Y-96846414D01*
X72478420Y-96847907D01*
X72395053Y-96889020D01*
X72390310Y-96892562D01*
X72373600Y-96903105D01*
X72368360Y-96905862D01*
X72295359Y-96963412D01*
X72292758Y-96965408D01*
X72218267Y-97021033D01*
X72159570Y-97084531D01*
X72156140Y-97088097D01*
X65706642Y-103537595D01*
X65644330Y-103571621D01*
X65617547Y-103574500D01*
X65198100Y-103574500D01*
X65129979Y-103554498D01*
X65083486Y-103500842D01*
X65072100Y-103448500D01*
X65072100Y-102431152D01*
X65060467Y-102372669D01*
X65016152Y-102306348D01*
X64984258Y-102285037D01*
X64960147Y-102268926D01*
X64949831Y-102262033D01*
X64937662Y-102259612D01*
X64937661Y-102259612D01*
X64897416Y-102251607D01*
X64891348Y-102250400D01*
X61854652Y-102250400D01*
X61848584Y-102251607D01*
X61808339Y-102259612D01*
X61808338Y-102259612D01*
X61796169Y-102262033D01*
X61785853Y-102268926D01*
X61761742Y-102285037D01*
X61729848Y-102306348D01*
X61685533Y-102372669D01*
X61673900Y-102431152D01*
X61673900Y-107118848D01*
X61675107Y-107124916D01*
X61678401Y-107141474D01*
X61685533Y-107177331D01*
X61729848Y-107243652D01*
X61796169Y-107287967D01*
X61808338Y-107290388D01*
X61808339Y-107290388D01*
X61848584Y-107298393D01*
X61854652Y-107299600D01*
X64891348Y-107299600D01*
X64897416Y-107298393D01*
X64937661Y-107290388D01*
X64937662Y-107290388D01*
X64949831Y-107287967D01*
X65016152Y-107243652D01*
X65060467Y-107177331D01*
X65067600Y-107141474D01*
X65070893Y-107124916D01*
X65072100Y-107118848D01*
X65072100Y-106847095D01*
X70245001Y-106847095D01*
X70245338Y-106853614D01*
X70255257Y-106949206D01*
X70258149Y-106962600D01*
X70309588Y-107116784D01*
X70315761Y-107129962D01*
X70401063Y-107267807D01*
X70410099Y-107279208D01*
X70524829Y-107393739D01*
X70536240Y-107402751D01*
X70674243Y-107487816D01*
X70687424Y-107493963D01*
X70841710Y-107545138D01*
X70855086Y-107548005D01*
X70949438Y-107557672D01*
X70955854Y-107558000D01*
X71355885Y-107558000D01*
X71371124Y-107553525D01*
X71372329Y-107552135D01*
X71374000Y-107544452D01*
X71374000Y-106759615D01*
X71369525Y-106744376D01*
X71368135Y-106743171D01*
X71360452Y-106741500D01*
X70263116Y-106741500D01*
X70247877Y-106745975D01*
X70246672Y-106747365D01*
X70245001Y-106755048D01*
X70245001Y-106847095D01*
X65072100Y-106847095D01*
X65072100Y-106215385D01*
X70245000Y-106215385D01*
X70249475Y-106230624D01*
X70250865Y-106231829D01*
X70258548Y-106233500D01*
X71355885Y-106233500D01*
X71371124Y-106229025D01*
X71372329Y-106227635D01*
X71374000Y-106219952D01*
X71374000Y-105435116D01*
X71369525Y-105419877D01*
X71368135Y-105418672D01*
X71360452Y-105417001D01*
X70955905Y-105417001D01*
X70949386Y-105417338D01*
X70853794Y-105427257D01*
X70840400Y-105430149D01*
X70686216Y-105481588D01*
X70673038Y-105487761D01*
X70535193Y-105573063D01*
X70523792Y-105582099D01*
X70409261Y-105696829D01*
X70400249Y-105708240D01*
X70315184Y-105846243D01*
X70309037Y-105859424D01*
X70257862Y-106013710D01*
X70254995Y-106027086D01*
X70245328Y-106121438D01*
X70245000Y-106127855D01*
X70245000Y-106215385D01*
X65072100Y-106215385D01*
X65072100Y-106101500D01*
X65092102Y-106033379D01*
X65145758Y-105986886D01*
X65198100Y-105975500D01*
X66122271Y-105975500D01*
X66130513Y-105975770D01*
X66198560Y-105980230D01*
X66290927Y-105969298D01*
X66294149Y-105968960D01*
X66386711Y-105960454D01*
X66392278Y-105958884D01*
X66392282Y-105958883D01*
X66392406Y-105958848D01*
X66411789Y-105954992D01*
X66411929Y-105954975D01*
X66417667Y-105954296D01*
X66506459Y-105926726D01*
X66509535Y-105925814D01*
X66599064Y-105900565D01*
X66604241Y-105898012D01*
X66604251Y-105898008D01*
X66604376Y-105897946D01*
X66622737Y-105890621D01*
X66622860Y-105890583D01*
X66622864Y-105890581D01*
X66628379Y-105888869D01*
X66710634Y-105845593D01*
X66713565Y-105844099D01*
X66796947Y-105802980D01*
X66801693Y-105799436D01*
X66818405Y-105788892D01*
X66823641Y-105786137D01*
X66896663Y-105728572D01*
X66899265Y-105726575D01*
X66969109Y-105674420D01*
X66973733Y-105670967D01*
X67032418Y-105607482D01*
X67035847Y-105603917D01*
X73485359Y-99154405D01*
X73547671Y-99120379D01*
X73574454Y-99117500D01*
X76138500Y-99117500D01*
X76206621Y-99137502D01*
X76253114Y-99191158D01*
X76264500Y-99243500D01*
X76264500Y-101813028D01*
X76263422Y-101829474D01*
X76259535Y-101859000D01*
X76264500Y-101896714D01*
X76264500Y-101896720D01*
X76279313Y-102009235D01*
X76337302Y-102149233D01*
X76406388Y-102239268D01*
X76406391Y-102239271D01*
X76429549Y-102269451D01*
X76436099Y-102274477D01*
X76453179Y-102287583D01*
X76465570Y-102298450D01*
X78828595Y-104661475D01*
X78862621Y-104723787D01*
X78865500Y-104750570D01*
X78865500Y-107496898D01*
X78845498Y-107565019D01*
X78840851Y-107571758D01*
X78793959Y-107635243D01*
X78793958Y-107635246D01*
X78788366Y-107642816D01*
X78785247Y-107651699D01*
X78785246Y-107651700D01*
X78782998Y-107658101D01*
X78741553Y-107715745D01*
X78675523Y-107741833D01*
X78605871Y-107728080D01*
X78567595Y-107697341D01*
X78544672Y-107670023D01*
X78535123Y-107664510D01*
X78512032Y-107651178D01*
X78502768Y-107645277D01*
X78495103Y-107639910D01*
X78450773Y-107584457D01*
X78447535Y-107575628D01*
X78447295Y-107574888D01*
X78445743Y-107565091D01*
X78435577Y-107545138D01*
X78389052Y-107453829D01*
X78384552Y-107444997D01*
X78289244Y-107349689D01*
X78169150Y-107288498D01*
X78159361Y-107286948D01*
X78159359Y-107286947D01*
X78122276Y-107281074D01*
X78069512Y-107272717D01*
X77502536Y-107272717D01*
X77402898Y-107288498D01*
X77402775Y-107287721D01*
X77340068Y-107289514D01*
X77279269Y-107252853D01*
X77247942Y-107189142D01*
X77246096Y-107167653D01*
X77246096Y-105624946D01*
X76566134Y-104944984D01*
X71884784Y-104944984D01*
X71884784Y-105404202D01*
X71882000Y-105430101D01*
X71882000Y-107539884D01*
X71886475Y-107555123D01*
X71887865Y-107556328D01*
X71895548Y-107557999D01*
X71910099Y-107557999D01*
X71978220Y-107578001D01*
X72024713Y-107631657D01*
X72034817Y-107701931D01*
X72005323Y-107766511D01*
X71982371Y-107787211D01*
X71965448Y-107799061D01*
X71956185Y-107804961D01*
X71923545Y-107823806D01*
X71916462Y-107832247D01*
X71916461Y-107832248D01*
X71899325Y-107852670D01*
X71891900Y-107860773D01*
X71411778Y-108340896D01*
X71403674Y-108348322D01*
X71374806Y-108372545D01*
X71369293Y-108382094D01*
X71355961Y-108405185D01*
X71350055Y-108414456D01*
X71328446Y-108445316D01*
X71325592Y-108455966D01*
X71324115Y-108459134D01*
X71322923Y-108462410D01*
X71317412Y-108471955D01*
X71312523Y-108499686D01*
X71310870Y-108509058D01*
X71308490Y-108519791D01*
X71298757Y-108556113D01*
X71261805Y-108616735D01*
X71197944Y-108647756D01*
X71177051Y-108649500D01*
X70949166Y-108649500D01*
X70931248Y-108651194D01*
X70925278Y-108651758D01*
X70925277Y-108651758D01*
X70917631Y-108652481D01*
X70789816Y-108697366D01*
X70782246Y-108702958D01*
X70782243Y-108702959D01*
X70716422Y-108751576D01*
X70680850Y-108777850D01*
X70675258Y-108785421D01*
X70605959Y-108879243D01*
X70605958Y-108879246D01*
X70600366Y-108886816D01*
X70555481Y-109014631D01*
X70554758Y-109022278D01*
X70554758Y-109022279D01*
X70553582Y-109034722D01*
X70527259Y-109100659D01*
X70469467Y-109141897D01*
X70398555Y-109145344D01*
X70337035Y-109109906D01*
X70306235Y-109048008D01*
X70304804Y-109048319D01*
X70293574Y-108996695D01*
X70293418Y-108995977D01*
X70290930Y-108985797D01*
X70247921Y-108905084D01*
X70237306Y-108892833D01*
X70202694Y-108852889D01*
X70202693Y-108852888D01*
X70201428Y-108851428D01*
X70183835Y-108833473D01*
X70104017Y-108788826D01*
X70064133Y-108777115D01*
X70040219Y-108770093D01*
X70040215Y-108770092D01*
X70035896Y-108768824D01*
X70031448Y-108768184D01*
X70031441Y-108768183D01*
X69982448Y-108761139D01*
X69982441Y-108761138D01*
X69978000Y-108760500D01*
X56388000Y-108760500D01*
X56319879Y-108740498D01*
X56273386Y-108686842D01*
X56262000Y-108634500D01*
X56262000Y-95631000D01*
X56282002Y-95562879D01*
X56335658Y-95516386D01*
X56388000Y-95505000D01*
X96393000Y-95505000D01*
X96461121Y-95525002D01*
G37*
G04 #@! TD.AperFunction*
G04 #@! TA.AperFunction,Conductor*
G36*
X78620511Y-114134008D02*
G01*
X78627094Y-114140138D01*
X78779171Y-114292215D01*
X78786598Y-114300319D01*
X78810827Y-114329194D01*
X78820376Y-114334707D01*
X78843467Y-114348039D01*
X78852738Y-114353945D01*
X78883598Y-114375554D01*
X78894248Y-114378408D01*
X78897416Y-114379885D01*
X78900692Y-114381077D01*
X78910237Y-114386588D01*
X78943981Y-114392538D01*
X78947340Y-114393130D01*
X78958067Y-114395508D01*
X78994475Y-114405264D01*
X79005460Y-114404303D01*
X79005462Y-114404303D01*
X79032010Y-114401980D01*
X79042992Y-114401500D01*
X79093837Y-114401500D01*
X79161958Y-114421502D01*
X79170147Y-114428101D01*
X79172040Y-114430935D01*
X79181536Y-114437280D01*
X79181537Y-114437281D01*
X79228045Y-114468357D01*
X79238361Y-114475250D01*
X79250530Y-114477671D01*
X79250531Y-114477671D01*
X79290776Y-114485676D01*
X79296844Y-114486883D01*
X81291772Y-114486883D01*
X81297840Y-114485676D01*
X81338085Y-114477671D01*
X81338086Y-114477671D01*
X81350255Y-114475250D01*
X81416576Y-114430935D01*
X81423467Y-114420622D01*
X81423469Y-114420620D01*
X81452169Y-114377668D01*
X81506646Y-114332140D01*
X81556934Y-114321670D01*
X84782450Y-114321670D01*
X84850571Y-114341672D01*
X84887215Y-114377668D01*
X84915915Y-114420620D01*
X84915917Y-114420622D01*
X84922808Y-114430935D01*
X84989129Y-114475250D01*
X85001298Y-114477671D01*
X85001299Y-114477671D01*
X85041544Y-114485676D01*
X85047612Y-114486883D01*
X85837376Y-114486883D01*
X85905497Y-114506885D01*
X85926471Y-114523788D01*
X86216587Y-114813904D01*
X86250613Y-114876216D01*
X86245548Y-114947031D01*
X86203001Y-115003867D01*
X86136481Y-115028678D01*
X86127492Y-115028999D01*
X85212647Y-115029000D01*
X85206128Y-115029337D01*
X85110536Y-115039256D01*
X85097142Y-115042148D01*
X84942958Y-115093587D01*
X84929780Y-115099760D01*
X84791935Y-115185062D01*
X84780529Y-115194102D01*
X84734397Y-115240315D01*
X84672115Y-115274395D01*
X84601295Y-115269392D01*
X84556206Y-115240471D01*
X84508913Y-115193260D01*
X84497502Y-115184248D01*
X84359499Y-115099183D01*
X84346318Y-115093036D01*
X84192032Y-115041861D01*
X84178656Y-115038994D01*
X84084304Y-115029327D01*
X84077887Y-115028999D01*
X83202857Y-115028999D01*
X83187618Y-115033474D01*
X83186413Y-115034864D01*
X83184742Y-115042547D01*
X83184742Y-115839884D01*
X83189217Y-115855123D01*
X83190607Y-115856328D01*
X83198290Y-115857999D01*
X86487742Y-115857999D01*
X86555863Y-115878001D01*
X86602356Y-115931657D01*
X86613742Y-115983999D01*
X86613742Y-117176883D01*
X86618217Y-117192122D01*
X86619607Y-117193327D01*
X86627290Y-117194998D01*
X87506837Y-117194998D01*
X87513356Y-117194661D01*
X87608948Y-117184742D01*
X87622342Y-117181850D01*
X87776526Y-117130411D01*
X87789704Y-117124238D01*
X87927549Y-117038936D01*
X87938950Y-117029900D01*
X88053481Y-116915170D01*
X88062493Y-116903759D01*
X88147558Y-116765756D01*
X88153706Y-116752572D01*
X88156577Y-116743918D01*
X88197009Y-116685559D01*
X88262574Y-116658324D01*
X88332455Y-116670859D01*
X88371284Y-116703749D01*
X88371692Y-116703341D01*
X88461400Y-116793049D01*
X88574438Y-116850645D01*
X88584227Y-116852195D01*
X88584229Y-116852196D01*
X88611591Y-116856529D01*
X88668223Y-116865499D01*
X88899695Y-116865499D01*
X89131260Y-116865498D01*
X89136154Y-116864723D01*
X89215248Y-116852197D01*
X89215250Y-116852196D01*
X89225046Y-116850645D01*
X89249844Y-116838010D01*
X89269642Y-116827922D01*
X89338084Y-116793049D01*
X89427792Y-116703341D01*
X89485388Y-116590303D01*
X89500242Y-116496518D01*
X89500241Y-115883481D01*
X89485388Y-115789695D01*
X89481275Y-115781622D01*
X89475242Y-115743533D01*
X89475242Y-115543600D01*
X89495244Y-115475479D01*
X89548900Y-115428986D01*
X89601242Y-115417600D01*
X89976559Y-115417600D01*
X90044680Y-115437602D01*
X90091173Y-115491258D01*
X90101277Y-115561532D01*
X90071783Y-115626112D01*
X90065654Y-115632695D01*
X90021692Y-115676657D01*
X89964096Y-115789695D01*
X89962546Y-115799484D01*
X89962545Y-115799486D01*
X89960132Y-115814720D01*
X89949242Y-115883480D01*
X89949243Y-116496517D01*
X89964096Y-116590303D01*
X89968600Y-116599142D01*
X89968600Y-116599143D01*
X89984723Y-116630786D01*
X89997828Y-116700563D01*
X89971128Y-116766348D01*
X89961552Y-116777085D01*
X88164044Y-118574594D01*
X88101732Y-118608619D01*
X88074949Y-118611499D01*
X87982464Y-118611499D01*
X87914343Y-118591497D01*
X87870388Y-118540770D01*
X87869905Y-118541026D01*
X87868798Y-118538935D01*
X87867850Y-118537841D01*
X87866677Y-118534929D01*
X87865495Y-118532696D01*
X87862376Y-118523815D01*
X87856784Y-118516245D01*
X87856783Y-118516242D01*
X87787484Y-118422420D01*
X87781892Y-118414849D01*
X87764948Y-118402334D01*
X87680499Y-118339958D01*
X87680496Y-118339957D01*
X87672926Y-118334365D01*
X87545111Y-118289480D01*
X87537465Y-118288757D01*
X87537464Y-118288757D01*
X87531494Y-118288193D01*
X87513576Y-118286499D01*
X85205908Y-118286499D01*
X85187990Y-118288193D01*
X85182020Y-118288757D01*
X85182019Y-118288757D01*
X85174373Y-118289480D01*
X85046558Y-118334365D01*
X85038986Y-118339958D01*
X85030657Y-118344368D01*
X85029355Y-118341909D01*
X84976522Y-118361233D01*
X84968334Y-118361499D01*
X84322150Y-118361499D01*
X84260362Y-118343357D01*
X84259827Y-118344368D01*
X84254872Y-118341745D01*
X84254029Y-118341497D01*
X84252787Y-118340641D01*
X84251501Y-118339960D01*
X84243926Y-118334365D01*
X84116111Y-118289480D01*
X84108465Y-118288757D01*
X84108464Y-118288757D01*
X84102494Y-118288193D01*
X84084576Y-118286499D01*
X81776908Y-118286499D01*
X81758990Y-118288193D01*
X81753020Y-118288757D01*
X81753019Y-118288757D01*
X81745373Y-118289480D01*
X81617558Y-118334365D01*
X81609986Y-118339958D01*
X81601657Y-118344368D01*
X81600355Y-118341909D01*
X81547522Y-118361233D01*
X81539334Y-118361499D01*
X80893150Y-118361499D01*
X80831362Y-118343357D01*
X80830827Y-118344368D01*
X80825872Y-118341745D01*
X80825029Y-118341497D01*
X80823787Y-118340641D01*
X80822501Y-118339960D01*
X80814926Y-118334365D01*
X80687111Y-118289480D01*
X80679465Y-118288757D01*
X80679464Y-118288757D01*
X80673494Y-118288193D01*
X80655576Y-118286499D01*
X78347908Y-118286499D01*
X78329990Y-118288193D01*
X78324020Y-118288757D01*
X78324019Y-118288757D01*
X78316373Y-118289480D01*
X78188558Y-118334365D01*
X78180986Y-118339958D01*
X78172657Y-118344368D01*
X78171355Y-118341909D01*
X78118522Y-118361233D01*
X78110334Y-118361499D01*
X77657500Y-118361499D01*
X77589379Y-118341497D01*
X77542886Y-118287841D01*
X77531500Y-118235499D01*
X77531500Y-116914290D01*
X77551502Y-116846169D01*
X77605158Y-116799676D01*
X77675432Y-116789572D01*
X77740012Y-116819066D01*
X77764644Y-116847987D01*
X77799805Y-116904806D01*
X77808841Y-116916207D01*
X77923571Y-117030738D01*
X77934982Y-117039750D01*
X78072985Y-117124815D01*
X78086166Y-117130962D01*
X78240452Y-117182137D01*
X78253828Y-117185004D01*
X78348180Y-117194671D01*
X78354596Y-117194999D01*
X79229627Y-117194999D01*
X79244866Y-117190524D01*
X79246071Y-117189134D01*
X79247742Y-117181451D01*
X79247742Y-117176883D01*
X79755742Y-117176883D01*
X79760217Y-117192122D01*
X79761607Y-117193327D01*
X79769290Y-117194998D01*
X80648837Y-117194998D01*
X80655356Y-117194661D01*
X80750948Y-117184742D01*
X80764342Y-117181850D01*
X80918526Y-117130411D01*
X80931704Y-117124238D01*
X81069549Y-117038936D01*
X81080955Y-117029896D01*
X81127087Y-116983683D01*
X81189369Y-116949603D01*
X81260189Y-116954606D01*
X81305278Y-116983527D01*
X81352571Y-117030738D01*
X81363982Y-117039750D01*
X81501985Y-117124815D01*
X81515166Y-117130962D01*
X81669452Y-117182137D01*
X81682828Y-117185004D01*
X81777180Y-117194671D01*
X81783596Y-117194999D01*
X82658627Y-117194999D01*
X82673866Y-117190524D01*
X82675071Y-117189134D01*
X82676742Y-117181451D01*
X82676742Y-117176883D01*
X83184742Y-117176883D01*
X83189217Y-117192122D01*
X83190607Y-117193327D01*
X83198290Y-117194998D01*
X84077837Y-117194998D01*
X84084356Y-117194661D01*
X84179948Y-117184742D01*
X84193342Y-117181850D01*
X84347526Y-117130411D01*
X84360704Y-117124238D01*
X84498549Y-117038936D01*
X84509955Y-117029896D01*
X84556087Y-116983683D01*
X84618369Y-116949603D01*
X84689189Y-116954606D01*
X84734278Y-116983527D01*
X84781571Y-117030738D01*
X84792982Y-117039750D01*
X84930985Y-117124815D01*
X84944166Y-117130962D01*
X85098452Y-117182137D01*
X85111828Y-117185004D01*
X85206180Y-117194671D01*
X85212596Y-117194999D01*
X86087627Y-117194999D01*
X86102866Y-117190524D01*
X86104071Y-117189134D01*
X86105742Y-117181451D01*
X86105742Y-116384114D01*
X86101267Y-116368875D01*
X86099877Y-116367670D01*
X86092194Y-116365999D01*
X83202857Y-116365999D01*
X83187618Y-116370474D01*
X83186413Y-116371864D01*
X83184742Y-116379547D01*
X83184742Y-117176883D01*
X82676742Y-117176883D01*
X82676742Y-116384114D01*
X82672267Y-116368875D01*
X82670877Y-116367670D01*
X82663194Y-116365999D01*
X79773857Y-116365999D01*
X79758618Y-116370474D01*
X79757413Y-116371864D01*
X79755742Y-116379547D01*
X79755742Y-117176883D01*
X79247742Y-117176883D01*
X79247742Y-115839884D01*
X79755742Y-115839884D01*
X79760217Y-115855123D01*
X79761607Y-115856328D01*
X79769290Y-115857999D01*
X82658627Y-115857999D01*
X82673866Y-115853524D01*
X82675071Y-115852134D01*
X82676742Y-115844451D01*
X82676742Y-115047115D01*
X82672267Y-115031876D01*
X82670877Y-115030671D01*
X82663194Y-115029000D01*
X81783647Y-115029000D01*
X81777128Y-115029337D01*
X81681536Y-115039256D01*
X81668142Y-115042148D01*
X81513958Y-115093587D01*
X81500780Y-115099760D01*
X81362935Y-115185062D01*
X81351529Y-115194102D01*
X81305397Y-115240315D01*
X81243115Y-115274395D01*
X81172295Y-115269392D01*
X81127206Y-115240471D01*
X81079913Y-115193260D01*
X81068502Y-115184248D01*
X80930499Y-115099183D01*
X80917318Y-115093036D01*
X80763032Y-115041861D01*
X80749656Y-115038994D01*
X80655304Y-115029327D01*
X80648887Y-115028999D01*
X79773857Y-115028999D01*
X79758618Y-115033474D01*
X79757413Y-115034864D01*
X79755742Y-115042547D01*
X79755742Y-115839884D01*
X79247742Y-115839884D01*
X79247742Y-115047115D01*
X79243267Y-115031876D01*
X79241877Y-115030671D01*
X79234194Y-115029000D01*
X78456015Y-115029000D01*
X78387894Y-115008998D01*
X78341401Y-114955342D01*
X78331297Y-114885068D01*
X78341820Y-114849751D01*
X78347961Y-114836580D01*
X78399138Y-114682290D01*
X78402005Y-114668914D01*
X78411672Y-114574562D01*
X78412000Y-114568146D01*
X78411999Y-114229233D01*
X78432001Y-114161113D01*
X78485656Y-114114620D01*
X78555930Y-114104515D01*
X78620511Y-114134008D01*
G37*
G04 #@! TD.AperFunction*
G04 #@! TA.AperFunction,Conductor*
G36*
X77600121Y-113812002D02*
G01*
X77646614Y-113865658D01*
X77658000Y-113918000D01*
X77658000Y-115260884D01*
X77662475Y-115276123D01*
X77688170Y-115298388D01*
X77686780Y-115299992D01*
X77694404Y-115304107D01*
X77728728Y-115366254D01*
X77724004Y-115437094D01*
X77716965Y-115451583D01*
X77717019Y-115451608D01*
X77707778Y-115471425D01*
X77684883Y-115540452D01*
X77644453Y-115598812D01*
X77578888Y-115626049D01*
X77509007Y-115613516D01*
X77460525Y-115570788D01*
X77432443Y-115528761D01*
X77425552Y-115518448D01*
X77359231Y-115474133D01*
X77347062Y-115471712D01*
X77347061Y-115471712D01*
X77306816Y-115463707D01*
X77300748Y-115462500D01*
X77260145Y-115462500D01*
X77192024Y-115442498D01*
X77145531Y-115388842D01*
X77135427Y-115318568D01*
X77141795Y-115304625D01*
X77141493Y-115304559D01*
X77150000Y-115265452D01*
X77150000Y-113918000D01*
X77170002Y-113849879D01*
X77223658Y-113803386D01*
X77276000Y-113792000D01*
X77532000Y-113792000D01*
X77600121Y-113812002D01*
G37*
G04 #@! TD.AperFunction*
G04 #@! TA.AperFunction,Conductor*
G36*
X93210921Y-102737602D02*
G01*
X93257414Y-102791258D01*
X93268800Y-102843600D01*
X93268800Y-114885200D01*
X93248798Y-114953321D01*
X93195142Y-114999814D01*
X93142800Y-115011200D01*
X91350043Y-115011200D01*
X91281922Y-114991198D01*
X91235429Y-114937542D01*
X91225325Y-114867268D01*
X91254819Y-114802688D01*
X91260948Y-114796105D01*
X91305611Y-114751442D01*
X91314918Y-114739573D01*
X91395821Y-114605987D01*
X91402027Y-114592242D01*
X91448998Y-114442355D01*
X91451611Y-114429305D01*
X91457476Y-114365478D01*
X91457742Y-114359690D01*
X91457742Y-114303114D01*
X91453267Y-114287875D01*
X91451877Y-114286670D01*
X91444194Y-114284999D01*
X90421742Y-114284999D01*
X90353621Y-114264997D01*
X90307128Y-114211341D01*
X90295742Y-114158999D01*
X90295742Y-113758884D01*
X90803742Y-113758884D01*
X90808217Y-113774123D01*
X90809607Y-113775328D01*
X90817290Y-113776999D01*
X91439626Y-113776999D01*
X91454865Y-113772524D01*
X91456070Y-113771134D01*
X91457741Y-113763451D01*
X91457741Y-113702294D01*
X91457478Y-113696545D01*
X91451610Y-113632684D01*
X91448999Y-113619648D01*
X91402027Y-113469756D01*
X91395820Y-113456009D01*
X91382166Y-113433463D01*
X91363988Y-113364833D01*
X91385799Y-113297270D01*
X91423640Y-113261049D01*
X91517549Y-113202936D01*
X91528950Y-113193900D01*
X91643481Y-113079170D01*
X91652493Y-113067759D01*
X91737558Y-112929756D01*
X91743705Y-112916575D01*
X91794880Y-112762289D01*
X91797747Y-112748913D01*
X91807414Y-112654561D01*
X91807742Y-112648145D01*
X91807742Y-112398114D01*
X91803267Y-112382875D01*
X91801877Y-112381670D01*
X91794194Y-112379999D01*
X91071857Y-112379999D01*
X91056618Y-112384474D01*
X91055413Y-112385864D01*
X91053742Y-112393547D01*
X91053742Y-113272999D01*
X91033740Y-113341120D01*
X90980084Y-113387613D01*
X90927742Y-113398999D01*
X90821857Y-113398999D01*
X90806618Y-113403474D01*
X90805413Y-113404864D01*
X90803742Y-113412547D01*
X90803742Y-113758884D01*
X90295742Y-113758884D01*
X90295742Y-113133999D01*
X90315744Y-113065878D01*
X90369400Y-113019385D01*
X90421742Y-113007999D01*
X90527627Y-113007999D01*
X90542866Y-113003524D01*
X90544071Y-113002134D01*
X90545742Y-112994451D01*
X90545742Y-111853884D01*
X91053742Y-111853884D01*
X91058217Y-111869123D01*
X91059607Y-111870328D01*
X91067290Y-111871999D01*
X91789626Y-111871999D01*
X91804865Y-111867524D01*
X91806070Y-111866134D01*
X91807741Y-111858451D01*
X91807741Y-111603904D01*
X91807404Y-111597385D01*
X91797485Y-111501793D01*
X91794593Y-111488399D01*
X91743154Y-111334215D01*
X91736981Y-111321037D01*
X91651679Y-111183192D01*
X91642639Y-111171786D01*
X91602691Y-111131907D01*
X91568612Y-111069625D01*
X91573615Y-110998805D01*
X91602536Y-110953717D01*
X91660981Y-110895170D01*
X91669993Y-110883759D01*
X91755058Y-110745756D01*
X91761205Y-110732575D01*
X91812380Y-110578289D01*
X91815247Y-110564913D01*
X91824914Y-110470561D01*
X91825242Y-110464145D01*
X91825242Y-110239114D01*
X91820767Y-110223875D01*
X91819377Y-110222670D01*
X91811694Y-110220999D01*
X91076857Y-110220999D01*
X91061618Y-110225474D01*
X91060413Y-110226864D01*
X91058742Y-110234547D01*
X91058742Y-111192014D01*
X91055863Y-111218797D01*
X91053742Y-111228547D01*
X91053742Y-111853884D01*
X90545742Y-111853884D01*
X90545742Y-110875984D01*
X90548621Y-110849201D01*
X90550742Y-110839451D01*
X90550742Y-109694884D01*
X91058742Y-109694884D01*
X91063217Y-109710123D01*
X91064607Y-109711328D01*
X91072290Y-109712999D01*
X91807126Y-109712999D01*
X91822365Y-109708524D01*
X91823570Y-109707134D01*
X91825241Y-109699451D01*
X91825241Y-109469904D01*
X91824904Y-109463385D01*
X91814985Y-109367793D01*
X91812093Y-109354399D01*
X91760654Y-109200215D01*
X91754481Y-109187037D01*
X91669179Y-109049192D01*
X91660143Y-109037791D01*
X91545413Y-108923260D01*
X91534002Y-108914248D01*
X91395999Y-108829183D01*
X91382818Y-108823036D01*
X91228532Y-108771861D01*
X91215156Y-108768994D01*
X91120804Y-108759327D01*
X91114387Y-108758999D01*
X91076857Y-108758999D01*
X91061618Y-108763474D01*
X91060413Y-108764864D01*
X91058742Y-108772547D01*
X91058742Y-109694884D01*
X90550742Y-109694884D01*
X90550742Y-108777115D01*
X90546267Y-108761876D01*
X90544877Y-108760671D01*
X90537194Y-108759000D01*
X90495147Y-108759000D01*
X90488631Y-108759337D01*
X90439454Y-108764440D01*
X90369633Y-108751576D01*
X90317851Y-108703005D01*
X90300548Y-108634149D01*
X90325098Y-108564254D01*
X90369783Y-108503755D01*
X90375376Y-108496183D01*
X90420261Y-108368368D01*
X90423242Y-108336833D01*
X90423242Y-108333867D01*
X90423382Y-108330900D01*
X90424286Y-108330943D01*
X90443244Y-108266378D01*
X90496900Y-108219885D01*
X90549242Y-108208499D01*
X90679011Y-108208499D01*
X90747132Y-108228501D01*
X90757202Y-108236617D01*
X90757460Y-108236281D01*
X90882901Y-108332535D01*
X91028980Y-108393043D01*
X91185742Y-108413681D01*
X91193930Y-108412603D01*
X91229555Y-108407913D01*
X91342504Y-108393043D01*
X91488583Y-108332535D01*
X91577824Y-108264058D01*
X91607478Y-108241304D01*
X91614024Y-108236281D01*
X91710278Y-108110840D01*
X91770786Y-107964761D01*
X91791424Y-107807999D01*
X91776856Y-107697340D01*
X91771864Y-107659425D01*
X91770786Y-107651237D01*
X91710278Y-107505158D01*
X91614024Y-107379717D01*
X91616356Y-107377927D01*
X91589121Y-107328051D01*
X91586242Y-107301268D01*
X91586242Y-107141480D01*
X91586241Y-107141474D01*
X91586241Y-107109566D01*
X91583178Y-107100139D01*
X91583177Y-107100132D01*
X91579445Y-107088646D01*
X91574831Y-107069426D01*
X91572941Y-107057492D01*
X91572939Y-107057484D01*
X91571388Y-107047695D01*
X91566888Y-107038864D01*
X91566887Y-107038860D01*
X91561400Y-107028092D01*
X91553836Y-107009831D01*
X91547038Y-106988909D01*
X91534110Y-106971115D01*
X91523780Y-106954258D01*
X91518294Y-106943492D01*
X91518293Y-106943491D01*
X91513792Y-106934657D01*
X91337311Y-106758176D01*
X91250111Y-106670975D01*
X91216085Y-106608663D01*
X91221150Y-106537848D01*
X91264346Y-106480529D01*
X91303321Y-106451741D01*
X91310892Y-106446149D01*
X91353844Y-106387997D01*
X91385783Y-106344756D01*
X91385784Y-106344753D01*
X91391376Y-106337183D01*
X91436261Y-106209368D01*
X91439242Y-106177833D01*
X91439242Y-105120165D01*
X91436261Y-105088630D01*
X91391376Y-104960815D01*
X91385784Y-104953245D01*
X91385783Y-104953242D01*
X91316484Y-104859420D01*
X91310892Y-104851849D01*
X91293948Y-104839334D01*
X91209499Y-104776958D01*
X91209496Y-104776957D01*
X91201926Y-104771365D01*
X91074111Y-104726480D01*
X91066465Y-104725757D01*
X91066464Y-104725757D01*
X91060494Y-104725193D01*
X91042576Y-104723499D01*
X90434908Y-104723499D01*
X90416990Y-104725193D01*
X90411020Y-104725757D01*
X90411019Y-104725757D01*
X90403373Y-104726480D01*
X90275558Y-104771365D01*
X90267988Y-104776957D01*
X90267985Y-104776958D01*
X90183536Y-104839334D01*
X90166592Y-104851849D01*
X90161000Y-104859420D01*
X90091701Y-104953242D01*
X90091700Y-104953245D01*
X90086108Y-104960815D01*
X90082989Y-104969698D01*
X90069899Y-105006972D01*
X90028456Y-105064618D01*
X89962426Y-105090706D01*
X89892774Y-105076955D01*
X89841613Y-105027730D01*
X89831492Y-105005100D01*
X89782154Y-104857215D01*
X89775981Y-104844037D01*
X89690679Y-104706192D01*
X89681643Y-104694791D01*
X89566913Y-104580260D01*
X89555502Y-104571248D01*
X89417499Y-104486183D01*
X89404318Y-104480036D01*
X89250032Y-104428861D01*
X89236656Y-104425994D01*
X89142304Y-104416327D01*
X89135887Y-104415999D01*
X89110857Y-104415999D01*
X89095618Y-104420474D01*
X89094413Y-104421864D01*
X89092742Y-104429547D01*
X89092742Y-106863883D01*
X89097217Y-106879122D01*
X89101000Y-106882400D01*
X89139384Y-106942126D01*
X89139384Y-107013123D01*
X89119839Y-107052485D01*
X89075701Y-107112242D01*
X89075700Y-107112245D01*
X89070108Y-107119815D01*
X89025223Y-107247630D01*
X89022242Y-107279165D01*
X89022242Y-108336833D01*
X89025223Y-108368368D01*
X89070108Y-108496183D01*
X89075700Y-108503753D01*
X89075701Y-108503756D01*
X89127300Y-108573614D01*
X89150592Y-108605149D01*
X89158163Y-108610741D01*
X89251985Y-108680040D01*
X89251988Y-108680041D01*
X89259558Y-108685633D01*
X89387373Y-108730518D01*
X89395019Y-108731241D01*
X89395020Y-108731241D01*
X89400990Y-108731805D01*
X89418908Y-108733499D01*
X89949484Y-108733499D01*
X90017605Y-108753501D01*
X90064098Y-108807157D01*
X90074202Y-108877431D01*
X90044708Y-108942011D01*
X90038657Y-108948517D01*
X89948503Y-109038828D01*
X89939491Y-109050239D01*
X89854426Y-109188242D01*
X89848279Y-109201423D01*
X89838333Y-109231409D01*
X89797902Y-109289769D01*
X89732338Y-109317005D01*
X89662456Y-109304471D01*
X89617389Y-109266600D01*
X89569987Y-109202423D01*
X89569984Y-109202420D01*
X89564392Y-109194849D01*
X89497368Y-109145344D01*
X89462999Y-109119958D01*
X89462996Y-109119957D01*
X89455426Y-109114365D01*
X89327611Y-109069480D01*
X89319965Y-109068757D01*
X89319964Y-109068757D01*
X89313994Y-109068193D01*
X89296076Y-109066499D01*
X88663408Y-109066499D01*
X88645490Y-109068193D01*
X88639520Y-109068757D01*
X88639519Y-109068757D01*
X88631873Y-109069480D01*
X88504058Y-109114365D01*
X88496488Y-109119957D01*
X88496485Y-109119958D01*
X88462116Y-109145344D01*
X88395092Y-109194849D01*
X88389500Y-109202420D01*
X88320201Y-109296242D01*
X88320200Y-109296245D01*
X88314608Y-109303815D01*
X88269723Y-109431630D01*
X88269000Y-109439276D01*
X88269000Y-109439277D01*
X88267764Y-109452355D01*
X88241441Y-109518291D01*
X88183648Y-109559529D01*
X88142323Y-109566499D01*
X87979223Y-109566499D01*
X87979219Y-109566500D01*
X87947309Y-109566500D01*
X87937882Y-109569563D01*
X87937875Y-109569564D01*
X87926389Y-109573296D01*
X87907169Y-109577910D01*
X87895235Y-109579800D01*
X87895227Y-109579802D01*
X87885438Y-109581353D01*
X87876607Y-109585853D01*
X87876603Y-109585854D01*
X87865835Y-109591341D01*
X87847574Y-109598905D01*
X87826652Y-109605703D01*
X87811660Y-109616596D01*
X87808858Y-109618631D01*
X87792001Y-109628961D01*
X87781235Y-109634447D01*
X87781234Y-109634448D01*
X87772400Y-109638949D01*
X87749833Y-109661516D01*
X87430159Y-109981189D01*
X87367847Y-110015215D01*
X87297032Y-110010150D01*
X87240196Y-109967603D01*
X87217485Y-109916674D01*
X87214080Y-109899554D01*
X87214080Y-109899553D01*
X87211659Y-109887384D01*
X87167344Y-109821063D01*
X87101023Y-109776748D01*
X87088854Y-109774327D01*
X87088853Y-109774327D01*
X87048608Y-109766322D01*
X87042540Y-109765115D01*
X85125441Y-109765115D01*
X85057320Y-109745113D01*
X85036343Y-109728208D01*
X85019144Y-109711008D01*
X84985121Y-109648695D01*
X84982242Y-109621915D01*
X84982242Y-108842499D01*
X85002244Y-108774378D01*
X85055900Y-108727885D01*
X85108242Y-108716499D01*
X85155242Y-108716499D01*
X85223363Y-108736501D01*
X85269856Y-108790157D01*
X85281242Y-108842499D01*
X85281242Y-108892833D01*
X85284223Y-108924368D01*
X85329108Y-109052183D01*
X85334700Y-109059753D01*
X85334701Y-109059756D01*
X85377439Y-109117618D01*
X85409592Y-109161149D01*
X85417163Y-109166741D01*
X85510985Y-109236040D01*
X85510988Y-109236041D01*
X85518558Y-109241633D01*
X85646373Y-109286518D01*
X85654019Y-109287241D01*
X85654020Y-109287241D01*
X85659990Y-109287805D01*
X85677908Y-109289499D01*
X86435576Y-109289499D01*
X86453494Y-109287805D01*
X86459464Y-109287241D01*
X86459465Y-109287241D01*
X86467111Y-109286518D01*
X86594926Y-109241633D01*
X86602496Y-109236041D01*
X86602499Y-109236040D01*
X86696321Y-109166741D01*
X86703892Y-109161149D01*
X86736045Y-109117618D01*
X86778783Y-109059756D01*
X86778784Y-109059753D01*
X86784376Y-109052183D01*
X86829261Y-108924368D01*
X86832242Y-108892833D01*
X86832242Y-107485165D01*
X86829261Y-107453630D01*
X86784376Y-107325815D01*
X86778784Y-107318245D01*
X86778783Y-107318242D01*
X86709484Y-107224420D01*
X86703892Y-107216849D01*
X86664356Y-107187647D01*
X86602499Y-107141958D01*
X86602496Y-107141957D01*
X86594926Y-107136365D01*
X86467111Y-107091480D01*
X86459465Y-107090757D01*
X86459464Y-107090757D01*
X86453494Y-107090193D01*
X86435576Y-107088499D01*
X86194828Y-107088499D01*
X86126707Y-107068497D01*
X86080214Y-107014841D01*
X86070110Y-106944567D01*
X86099604Y-106879987D01*
X86142979Y-106847661D01*
X86161990Y-106839077D01*
X86295574Y-106758176D01*
X86307443Y-106748869D01*
X86417869Y-106638443D01*
X86427176Y-106626574D01*
X86508079Y-106492988D01*
X86514285Y-106479243D01*
X86533944Y-106416510D01*
X86573401Y-106357488D01*
X86638505Y-106329168D01*
X86708585Y-106340541D01*
X86761391Y-106387997D01*
X86766445Y-106396987D01*
X86779448Y-106422508D01*
X86779451Y-106422512D01*
X86783950Y-106431342D01*
X86873658Y-106521050D01*
X86927818Y-106548646D01*
X86953981Y-106561977D01*
X87005596Y-106610726D01*
X87009770Y-106618696D01*
X87012446Y-106628684D01*
X87018769Y-106637714D01*
X87018770Y-106637716D01*
X87034055Y-106659544D01*
X87039961Y-106668815D01*
X87053293Y-106691906D01*
X87058806Y-106701455D01*
X87067251Y-106708541D01*
X87087681Y-106725684D01*
X87095785Y-106733111D01*
X87226114Y-106863440D01*
X87260140Y-106925752D01*
X87255075Y-106996567D01*
X87238371Y-107027394D01*
X87208012Y-107068497D01*
X87170108Y-107119815D01*
X87125223Y-107247630D01*
X87122242Y-107279165D01*
X87122242Y-108336833D01*
X87125223Y-108368368D01*
X87170108Y-108496183D01*
X87175700Y-108503753D01*
X87175701Y-108503756D01*
X87227300Y-108573614D01*
X87250592Y-108605149D01*
X87258163Y-108610741D01*
X87351985Y-108680040D01*
X87351988Y-108680041D01*
X87359558Y-108685633D01*
X87487373Y-108730518D01*
X87495019Y-108731241D01*
X87495020Y-108731241D01*
X87500990Y-108731805D01*
X87518908Y-108733499D01*
X88126576Y-108733499D01*
X88144494Y-108731805D01*
X88150464Y-108731241D01*
X88150465Y-108731241D01*
X88158111Y-108730518D01*
X88285926Y-108685633D01*
X88293496Y-108680041D01*
X88293499Y-108680040D01*
X88387321Y-108610741D01*
X88394892Y-108605149D01*
X88418184Y-108573614D01*
X88469783Y-108503756D01*
X88469784Y-108503753D01*
X88475376Y-108496183D01*
X88520261Y-108368368D01*
X88523242Y-108336833D01*
X88523242Y-107279165D01*
X88520261Y-107247630D01*
X88475376Y-107119815D01*
X88469270Y-107111548D01*
X88448080Y-107082858D01*
X88423697Y-107016180D01*
X88439234Y-106946904D01*
X88489758Y-106897026D01*
X88549431Y-106881999D01*
X88566627Y-106881999D01*
X88581866Y-106877524D01*
X88583071Y-106876134D01*
X88584742Y-106868451D01*
X88584742Y-104434115D01*
X88580267Y-104418876D01*
X88578877Y-104417671D01*
X88571194Y-104416000D01*
X88541647Y-104416000D01*
X88535128Y-104416337D01*
X88439536Y-104426256D01*
X88426142Y-104429148D01*
X88271958Y-104480587D01*
X88258780Y-104486760D01*
X88120935Y-104572062D01*
X88109534Y-104581098D01*
X87995003Y-104695828D01*
X87985991Y-104707239D01*
X87900926Y-104845242D01*
X87894779Y-104858423D01*
X87843604Y-105012709D01*
X87840737Y-105026085D01*
X87831070Y-105120437D01*
X87830742Y-105126854D01*
X87830742Y-105150302D01*
X87810740Y-105218423D01*
X87757084Y-105264916D01*
X87686810Y-105275020D01*
X87647539Y-105262569D01*
X87647474Y-105262536D01*
X87637304Y-105257354D01*
X87627515Y-105255804D01*
X87627513Y-105255803D01*
X87600151Y-105251470D01*
X87543519Y-105242500D01*
X87312047Y-105242500D01*
X87080482Y-105242501D01*
X87075589Y-105243276D01*
X87075588Y-105243276D01*
X86996494Y-105255802D01*
X86996492Y-105255803D01*
X86986696Y-105257354D01*
X86873658Y-105314950D01*
X86783950Y-105404658D01*
X86779451Y-105413488D01*
X86779448Y-105413492D01*
X86766445Y-105439013D01*
X86717697Y-105490629D01*
X86648783Y-105507695D01*
X86581581Y-105484795D01*
X86537428Y-105429197D01*
X86533944Y-105419490D01*
X86514285Y-105356757D01*
X86508079Y-105343012D01*
X86427176Y-105209426D01*
X86417869Y-105197557D01*
X86307443Y-105087131D01*
X86295574Y-105077824D01*
X86161988Y-104996921D01*
X86148243Y-104990715D01*
X85998356Y-104943744D01*
X85985306Y-104941131D01*
X85930414Y-104936087D01*
X85918876Y-104939475D01*
X85917671Y-104940865D01*
X85916000Y-104948548D01*
X85916000Y-106046000D01*
X85895998Y-106114121D01*
X85842342Y-106160614D01*
X85790000Y-106172000D01*
X84772116Y-106172000D01*
X84756877Y-106176475D01*
X84755672Y-106177865D01*
X84754001Y-106185548D01*
X84754001Y-106246705D01*
X84754264Y-106252454D01*
X84760132Y-106316315D01*
X84762743Y-106329351D01*
X84809715Y-106479243D01*
X84815921Y-106492988D01*
X84896824Y-106626574D01*
X84906131Y-106638443D01*
X85016557Y-106748869D01*
X85028426Y-106758176D01*
X85162012Y-106839079D01*
X85175757Y-106845285D01*
X85325644Y-106892256D01*
X85338694Y-106894869D01*
X85402521Y-106900734D01*
X85408309Y-106901000D01*
X85458834Y-106901000D01*
X85526955Y-106921002D01*
X85573448Y-106974658D01*
X85583552Y-107044932D01*
X85554058Y-107109512D01*
X85521668Y-107135273D01*
X85518558Y-107136365D01*
X85510981Y-107141961D01*
X85510980Y-107141962D01*
X85476198Y-107167653D01*
X85409592Y-107216849D01*
X85404000Y-107224420D01*
X85334701Y-107318242D01*
X85334700Y-107318245D01*
X85329108Y-107325815D01*
X85284223Y-107453630D01*
X85281242Y-107485165D01*
X85281242Y-107789499D01*
X85261240Y-107857620D01*
X85207584Y-107904113D01*
X85155242Y-107915499D01*
X85088473Y-107915499D01*
X85020352Y-107895497D01*
X85010282Y-107887381D01*
X85010024Y-107887717D01*
X84969845Y-107856887D01*
X84884583Y-107791463D01*
X84738504Y-107730955D01*
X84727597Y-107729519D01*
X84589930Y-107711395D01*
X84581742Y-107710317D01*
X84573554Y-107711395D01*
X84435888Y-107729519D01*
X84424980Y-107730955D01*
X84363958Y-107756231D01*
X84293370Y-107763820D01*
X84229883Y-107732041D01*
X84193655Y-107670983D01*
X84189741Y-107639822D01*
X84189741Y-107491904D01*
X84189404Y-107485385D01*
X84179485Y-107389793D01*
X84176593Y-107376399D01*
X84125154Y-107222215D01*
X84118981Y-107209037D01*
X84033679Y-107071192D01*
X84024643Y-107059791D01*
X83909913Y-106945260D01*
X83898502Y-106936248D01*
X83760499Y-106851183D01*
X83747318Y-106845036D01*
X83667600Y-106818594D01*
X83667600Y-106730800D01*
X80924400Y-106730800D01*
X80924400Y-105645885D01*
X84754000Y-105645885D01*
X84758475Y-105661124D01*
X84759865Y-105662329D01*
X84767548Y-105664000D01*
X85389885Y-105664000D01*
X85405124Y-105659525D01*
X85406329Y-105658135D01*
X85408000Y-105650452D01*
X85408000Y-104953116D01*
X85403525Y-104937877D01*
X85402135Y-104936672D01*
X85397706Y-104935709D01*
X85338685Y-104941132D01*
X85325649Y-104943743D01*
X85175757Y-104990715D01*
X85162012Y-104996921D01*
X85028426Y-105077824D01*
X85016557Y-105087131D01*
X84906131Y-105197557D01*
X84896824Y-105209426D01*
X84815921Y-105343012D01*
X84809715Y-105356757D01*
X84762744Y-105506644D01*
X84760131Y-105519694D01*
X84754266Y-105583521D01*
X84754000Y-105589309D01*
X84754000Y-105645885D01*
X80924400Y-105645885D01*
X80924400Y-102843600D01*
X80944402Y-102775479D01*
X80998058Y-102728986D01*
X81050400Y-102717600D01*
X93142800Y-102717600D01*
X93210921Y-102737602D01*
G37*
G04 #@! TD.AperFunction*
G04 #@! TA.AperFunction,Conductor*
G36*
X76509887Y-105537656D02*
G01*
X76529233Y-105552960D01*
X76656908Y-105676092D01*
X76692056Y-105737777D01*
X76695441Y-105766786D01*
X76695441Y-108426028D01*
X77028590Y-108426028D01*
X77096711Y-108446030D01*
X77143204Y-108499686D01*
X77153308Y-108569960D01*
X77123814Y-108634540D01*
X77094893Y-108659172D01*
X77083851Y-108666005D01*
X77072450Y-108675041D01*
X76962038Y-108785646D01*
X76953026Y-108797057D01*
X76871020Y-108930097D01*
X76864873Y-108943278D01*
X76815533Y-109092031D01*
X76812666Y-109105407D01*
X76803352Y-109196314D01*
X76803095Y-109201343D01*
X76807499Y-109216341D01*
X76808889Y-109217546D01*
X76816572Y-109219217D01*
X77914024Y-109219217D01*
X77982145Y-109239219D01*
X78028638Y-109292875D01*
X78040024Y-109345217D01*
X78040024Y-110413102D01*
X78044499Y-110428341D01*
X78045889Y-110429546D01*
X78053572Y-110431217D01*
X78081462Y-110431217D01*
X78087977Y-110430880D01*
X78148495Y-110424600D01*
X78218316Y-110437464D01*
X78270099Y-110486035D01*
X78287500Y-110549927D01*
X78287500Y-110962102D01*
X78287020Y-110973084D01*
X78284770Y-110998805D01*
X78283736Y-111010619D01*
X78293491Y-111047022D01*
X78295870Y-111057754D01*
X78302412Y-111094857D01*
X78307923Y-111104402D01*
X78309115Y-111107678D01*
X78310592Y-111110846D01*
X78313446Y-111121496D01*
X78319770Y-111130527D01*
X78335055Y-111152356D01*
X78340961Y-111161627D01*
X78352902Y-111182309D01*
X78359806Y-111194267D01*
X78368251Y-111201353D01*
X78388681Y-111218496D01*
X78396785Y-111225923D01*
X78403893Y-111233031D01*
X78437919Y-111295343D01*
X78432854Y-111366158D01*
X78390307Y-111422994D01*
X78363015Y-111438535D01*
X78303341Y-111463252D01*
X78303337Y-111463255D01*
X78295709Y-111466414D01*
X78170268Y-111562668D01*
X78074014Y-111688109D01*
X78013506Y-111834188D01*
X78012428Y-111842376D01*
X78010913Y-111853884D01*
X77992868Y-111990950D01*
X78013506Y-112147712D01*
X78074014Y-112293791D01*
X78079041Y-112300342D01*
X78132577Y-112370112D01*
X78158177Y-112436333D01*
X78158138Y-112436524D01*
X78203069Y-112446298D01*
X78219388Y-112456923D01*
X78295709Y-112515486D01*
X78369060Y-112545869D01*
X78429546Y-112570923D01*
X78441788Y-112575994D01*
X78449976Y-112577072D01*
X78520169Y-112586313D01*
X78598550Y-112596632D01*
X78606738Y-112595554D01*
X78747124Y-112577072D01*
X78755312Y-112575994D01*
X78762941Y-112572834D01*
X78770920Y-112570696D01*
X78771686Y-112573556D01*
X78808592Y-112570251D01*
X78808592Y-112565617D01*
X80378691Y-112565617D01*
X80446812Y-112585619D01*
X80493305Y-112639275D01*
X80504691Y-112691617D01*
X80504691Y-113510382D01*
X80484689Y-113578503D01*
X80431033Y-113624996D01*
X80378691Y-113636382D01*
X80209925Y-113636382D01*
X80141804Y-113616380D01*
X80095311Y-113562724D01*
X80083925Y-113510382D01*
X80083925Y-113004498D01*
X80079450Y-112989259D01*
X80078060Y-112988054D01*
X80070377Y-112986383D01*
X78826708Y-112986383D01*
X78811469Y-112990858D01*
X78810264Y-112992248D01*
X78808593Y-112999931D01*
X78808593Y-113031052D01*
X78808963Y-113037873D01*
X78814341Y-113087392D01*
X78814339Y-113114624D01*
X78814115Y-113116683D01*
X78786863Y-113182241D01*
X78728494Y-113222658D01*
X78657539Y-113225103D01*
X78599759Y-113192151D01*
X78053589Y-112645981D01*
X78019563Y-112583669D01*
X78020475Y-112570923D01*
X77958311Y-112548575D01*
X77943519Y-112535911D01*
X77588059Y-112180451D01*
X77554033Y-112118139D01*
X77559098Y-112047324D01*
X77575803Y-112016496D01*
X77645041Y-111922757D01*
X77645042Y-111922754D01*
X77650634Y-111915184D01*
X77695519Y-111787369D01*
X77698500Y-111755834D01*
X77698500Y-110748166D01*
X77695519Y-110716631D01*
X77650634Y-110588816D01*
X77645042Y-110581246D01*
X77645041Y-110581243D01*
X77575742Y-110487421D01*
X77570150Y-110479850D01*
X77567410Y-110477826D01*
X77534903Y-110418296D01*
X77532024Y-110391513D01*
X77532024Y-109745332D01*
X77527549Y-109730093D01*
X77526159Y-109728888D01*
X77518476Y-109727217D01*
X76821139Y-109727217D01*
X76805900Y-109731692D01*
X76804695Y-109733082D01*
X76803024Y-109740765D01*
X76803024Y-109743655D01*
X76803361Y-109750170D01*
X76812918Y-109842274D01*
X76815812Y-109855673D01*
X76865405Y-110004324D01*
X76871579Y-110017503D01*
X76957666Y-110156618D01*
X76955622Y-110157883D01*
X76977949Y-110213048D01*
X76964777Y-110282812D01*
X76915979Y-110334380D01*
X76852566Y-110351500D01*
X76669166Y-110351500D01*
X76651248Y-110353194D01*
X76645278Y-110353758D01*
X76645277Y-110353758D01*
X76637631Y-110354481D01*
X76509816Y-110399366D01*
X76502246Y-110404958D01*
X76502243Y-110404959D01*
X76432431Y-110456524D01*
X76400850Y-110479850D01*
X76395258Y-110487421D01*
X76325959Y-110581243D01*
X76325958Y-110581246D01*
X76320366Y-110588816D01*
X76275481Y-110716631D01*
X76272500Y-110748166D01*
X76272500Y-111755834D01*
X76275481Y-111787369D01*
X76320366Y-111915184D01*
X76325958Y-111922754D01*
X76325959Y-111922757D01*
X76370280Y-111982762D01*
X76400850Y-112024150D01*
X76408421Y-112029742D01*
X76502243Y-112099041D01*
X76502246Y-112099042D01*
X76509816Y-112104634D01*
X76609169Y-112139524D01*
X76637121Y-112149340D01*
X76698584Y-112195951D01*
X76707554Y-112208761D01*
X76713461Y-112218033D01*
X76721035Y-112231151D01*
X76732306Y-112250673D01*
X76740751Y-112257759D01*
X76761182Y-112274903D01*
X76769285Y-112282329D01*
X77094389Y-112607433D01*
X77128415Y-112669745D01*
X77123350Y-112740560D01*
X77080803Y-112797396D01*
X77018301Y-112821855D01*
X77004792Y-112823257D01*
X76991400Y-112826149D01*
X76837216Y-112877588D01*
X76824038Y-112883761D01*
X76686193Y-112969063D01*
X76674792Y-112978099D01*
X76560261Y-113092829D01*
X76551249Y-113104240D01*
X76466184Y-113242243D01*
X76460037Y-113255424D01*
X76411389Y-113402092D01*
X76370958Y-113460451D01*
X76305394Y-113487688D01*
X76235512Y-113475154D01*
X76183500Y-113426830D01*
X76172913Y-113404172D01*
X76166476Y-113385842D01*
X76156634Y-113357816D01*
X76151042Y-113350246D01*
X76151041Y-113350243D01*
X76081742Y-113256421D01*
X76076150Y-113248850D01*
X76040689Y-113222658D01*
X75974757Y-113173959D01*
X75974754Y-113173958D01*
X75967184Y-113168366D01*
X75839369Y-113123481D01*
X75831723Y-113122758D01*
X75831722Y-113122758D01*
X75814881Y-113121166D01*
X75748945Y-113094841D01*
X75707709Y-113037047D01*
X75704264Y-112966134D01*
X75710331Y-112947507D01*
X75720421Y-112923149D01*
X75769044Y-112805762D01*
X75789682Y-112649000D01*
X75769044Y-112492238D01*
X75708536Y-112346159D01*
X75673379Y-112300342D01*
X75642198Y-112259705D01*
X75616598Y-112193484D01*
X75630863Y-112123935D01*
X75667302Y-112081650D01*
X75737576Y-112029745D01*
X75737579Y-112029742D01*
X75745150Y-112024150D01*
X75775720Y-111982762D01*
X75820041Y-111922757D01*
X75820042Y-111922754D01*
X75825634Y-111915184D01*
X75870519Y-111787369D01*
X75873500Y-111755834D01*
X75873500Y-110748166D01*
X75870519Y-110716631D01*
X75825634Y-110588816D01*
X75820042Y-110581246D01*
X75820041Y-110581243D01*
X75771076Y-110514951D01*
X75746693Y-110448272D01*
X75762230Y-110378997D01*
X75783332Y-110350996D01*
X75804728Y-110329600D01*
X75812832Y-110322173D01*
X75833249Y-110305041D01*
X75841694Y-110297955D01*
X75860539Y-110265315D01*
X75866443Y-110256047D01*
X75881731Y-110234213D01*
X75888053Y-110225184D01*
X75890906Y-110214538D01*
X75892383Y-110211370D01*
X75893576Y-110208093D01*
X75899088Y-110198545D01*
X75901002Y-110187688D01*
X75904707Y-110177509D01*
X75946800Y-110120337D01*
X75981361Y-110101719D01*
X76064184Y-110072634D01*
X76071754Y-110067042D01*
X76071757Y-110067041D01*
X76165579Y-109997742D01*
X76173150Y-109992150D01*
X76202766Y-109952054D01*
X76248041Y-109890757D01*
X76248042Y-109890754D01*
X76253634Y-109883184D01*
X76298519Y-109755369D01*
X76299489Y-109745113D01*
X76299806Y-109741752D01*
X76301500Y-109723834D01*
X76301500Y-108716166D01*
X76298519Y-108684631D01*
X76253634Y-108556816D01*
X76248042Y-108549246D01*
X76248041Y-108549243D01*
X76178742Y-108455421D01*
X76173150Y-108447850D01*
X76138832Y-108422502D01*
X76071757Y-108372959D01*
X76071754Y-108372958D01*
X76064184Y-108367366D01*
X76055301Y-108364247D01*
X76055300Y-108364246D01*
X75998253Y-108344213D01*
X75940607Y-108302770D01*
X75914518Y-108236741D01*
X75914000Y-108225330D01*
X75914000Y-107835450D01*
X75934002Y-107767329D01*
X75987658Y-107720836D01*
X75998251Y-107716567D01*
X76012979Y-107711395D01*
X76089184Y-107684634D01*
X76096754Y-107679042D01*
X76096757Y-107679041D01*
X76190579Y-107609742D01*
X76198150Y-107604150D01*
X76232238Y-107557999D01*
X76273041Y-107502757D01*
X76273042Y-107502754D01*
X76278634Y-107495184D01*
X76323519Y-107367369D01*
X76326500Y-107335834D01*
X76326500Y-106278166D01*
X76323519Y-106246631D01*
X76278634Y-106118816D01*
X76273042Y-106111246D01*
X76273041Y-106111243D01*
X76203742Y-106017421D01*
X76198150Y-106009850D01*
X76181206Y-105997335D01*
X76096757Y-105934959D01*
X76096754Y-105934958D01*
X76089184Y-105929366D01*
X75961369Y-105884481D01*
X75953723Y-105883758D01*
X75953722Y-105883758D01*
X75947752Y-105883194D01*
X75929834Y-105881500D01*
X75322166Y-105881500D01*
X75304248Y-105883194D01*
X75298278Y-105883758D01*
X75298277Y-105883758D01*
X75290631Y-105884481D01*
X75162816Y-105929366D01*
X75155246Y-105934958D01*
X75155243Y-105934959D01*
X75070794Y-105997335D01*
X75053850Y-106009850D01*
X75048258Y-106017421D01*
X74978959Y-106111243D01*
X74978958Y-106111246D01*
X74973366Y-106118816D01*
X74970247Y-106127699D01*
X74957157Y-106164973D01*
X74915714Y-106222619D01*
X74849684Y-106248707D01*
X74780032Y-106234956D01*
X74728871Y-106185731D01*
X74718750Y-106163101D01*
X74669412Y-106015216D01*
X74663239Y-106002038D01*
X74577937Y-105864193D01*
X74568901Y-105852792D01*
X74448991Y-105733090D01*
X74451269Y-105730808D01*
X74418520Y-105684616D01*
X74415290Y-105613693D01*
X74450916Y-105552282D01*
X74514088Y-105519882D01*
X74537676Y-105517654D01*
X76441766Y-105517654D01*
X76509887Y-105537656D01*
G37*
G04 #@! TD.AperFunction*
G04 #@! TA.AperFunction,Conductor*
G36*
X82296000Y-110188001D02*
G01*
X82215024Y-110188001D01*
X82208203Y-110188371D01*
X82157341Y-110193895D01*
X82142089Y-110197521D01*
X82021639Y-110242676D01*
X82006044Y-110251214D01*
X81903969Y-110327715D01*
X81891408Y-110340276D01*
X81814907Y-110442351D01*
X81806369Y-110457946D01*
X81761215Y-110578394D01*
X81757588Y-110593649D01*
X81752062Y-110644514D01*
X81751693Y-110651328D01*
X81751694Y-111853884D01*
X81756169Y-111869123D01*
X81757559Y-111870328D01*
X81765242Y-111871999D01*
X82296000Y-111871999D01*
X82296000Y-112014000D01*
X84074000Y-112014000D01*
X84074000Y-111871999D01*
X84569576Y-111871999D01*
X84584815Y-111867524D01*
X84586020Y-111866134D01*
X84587691Y-111858451D01*
X84587690Y-110663292D01*
X84607692Y-110595171D01*
X84661348Y-110548678D01*
X84731622Y-110538574D01*
X84752607Y-110543453D01*
X84754550Y-110544084D01*
X84772834Y-110551656D01*
X84792438Y-110561645D01*
X84791340Y-110563800D01*
X84838402Y-110595979D01*
X84866039Y-110661376D01*
X84866860Y-110675739D01*
X84866860Y-111056130D01*
X84876297Y-111103571D01*
X84878493Y-111114613D01*
X84877505Y-111114809D01*
X84883803Y-111173364D01*
X84880622Y-111184197D01*
X84878493Y-111187384D01*
X84866860Y-111245867D01*
X84866860Y-111706129D01*
X84876301Y-111753592D01*
X84878493Y-111764612D01*
X84877507Y-111764808D01*
X84883802Y-111823373D01*
X84880624Y-111834197D01*
X84878493Y-111837385D01*
X84866860Y-111895868D01*
X84866860Y-112356130D01*
X84876301Y-112403593D01*
X84878493Y-112414613D01*
X84877507Y-112414809D01*
X84883802Y-112473374D01*
X84880624Y-112484198D01*
X84878493Y-112487386D01*
X84866860Y-112545869D01*
X84866860Y-112667970D01*
X84846858Y-112736091D01*
X84816425Y-112768796D01*
X84789256Y-112789158D01*
X84722749Y-112814006D01*
X84653367Y-112798953D01*
X84603137Y-112748779D01*
X84587691Y-112688332D01*
X84587691Y-112398114D01*
X84583216Y-112382875D01*
X84581826Y-112381670D01*
X84574143Y-112379999D01*
X81822676Y-112379999D01*
X81754555Y-112359997D01*
X81708062Y-112306341D01*
X81703575Y-112294308D01*
X81640309Y-112209893D01*
X81627748Y-112197332D01*
X81522959Y-112118797D01*
X81480444Y-112061938D01*
X81472524Y-112017971D01*
X81472524Y-111895868D01*
X81460891Y-111837385D01*
X81461878Y-111837189D01*
X81455582Y-111778629D01*
X81458762Y-111767799D01*
X81460891Y-111764612D01*
X81472524Y-111706129D01*
X81472524Y-111245867D01*
X81460891Y-111187384D01*
X81461878Y-111187188D01*
X81455582Y-111128628D01*
X81458761Y-111117800D01*
X81460891Y-111114613D01*
X81472524Y-111056130D01*
X81472524Y-110595868D01*
X81460891Y-110537385D01*
X81461878Y-110537189D01*
X81455582Y-110478629D01*
X81458762Y-110467799D01*
X81460891Y-110464612D01*
X81472524Y-110406129D01*
X81472524Y-109945867D01*
X81460891Y-109887384D01*
X81416576Y-109821063D01*
X81406263Y-109814172D01*
X81406260Y-109814169D01*
X81377218Y-109794763D01*
X81363878Y-109778800D01*
X82296000Y-109778800D01*
X82296000Y-110188001D01*
G37*
G04 #@! TD.AperFunction*
G04 #@! TA.AperFunction,Conductor*
G36*
X71642186Y-106420519D02*
G01*
X69822827Y-106430856D01*
X69812490Y-105211059D01*
X71652523Y-105211059D01*
X71642186Y-106420519D01*
G37*
G04 #@! TD.AperFunction*
G04 #@! TA.AperFunction,Conductor*
G36*
X84074000Y-112014000D02*
G01*
X82296000Y-112014000D01*
X82296000Y-108839000D01*
X84074000Y-108839000D01*
X84074000Y-112014000D01*
G37*
G04 #@! TD.AperFunction*
M02*
