%FSLAX45Y45*%
G04 Gerber Fmt 4.5, Leading zero omitted, Abs format (unit mm)*
G04 Created by KiCad (PCBNEW (6.0.5)) date 2023-01-30 16:32:39*
%MOMM*%
%LPD*%
G01*
G04 APERTURE LIST*
%TA.AperFunction,Profile*%
%ADD10C,0.100000*%
%TD*%
%ADD11C,0.200000*%
%ADD12C,0.040000*%
%ADD13C,0.100000*%
G04 APERTURE END LIST*
D10*
X5626100Y-9550400D02*
X9652000Y-9550400D01*
X9652000Y-9550400D02*
X9652000Y-12395200D01*
X9652000Y-12395200D02*
X5626100Y-12395200D01*
X5626100Y-12395200D02*
X5626100Y-9550400D01*
D11*
D12*
X6900402Y-10728375D02*
X6940402Y-10768375D01*
X6940402Y-10728375D02*
X6900402Y-10768375D01*
X7498400Y-11244900D02*
X7538400Y-11284900D01*
X7538400Y-11244900D02*
X7498400Y-11284900D01*
X7839855Y-11179095D02*
X7879855Y-11219095D01*
X7879855Y-11179095D02*
X7839855Y-11219095D01*
X7930174Y-11738700D02*
X7970174Y-11778700D01*
X7970174Y-11738700D02*
X7930174Y-11778700D01*
X8273074Y-11738700D02*
X8313074Y-11778700D01*
X8313074Y-11738700D02*
X8273074Y-11778700D01*
X8296969Y-11192600D02*
X8336969Y-11232600D01*
X8336969Y-11192600D02*
X8296969Y-11232600D01*
X8298065Y-10974929D02*
X8338065Y-11014929D01*
X8338065Y-10974929D02*
X8298065Y-11014929D01*
X8298065Y-11090072D02*
X8338065Y-11130072D01*
X8338065Y-11090072D02*
X8298065Y-11130072D01*
X8299715Y-11294569D02*
X8339715Y-11334569D01*
X8339715Y-11294569D02*
X8299715Y-11334569D01*
X8438174Y-10811600D02*
X8478174Y-10851600D01*
X8478174Y-10811600D02*
X8438174Y-10851600D01*
X8615974Y-11738700D02*
X8655974Y-11778700D01*
X8655974Y-11738700D02*
X8615974Y-11778700D01*
X8722836Y-11445237D02*
X8762836Y-11485237D01*
X8762836Y-11445237D02*
X8722836Y-11485237D01*
X9098574Y-10760800D02*
X9138574Y-10800800D01*
X9138574Y-10760800D02*
X9098574Y-10800800D01*
D13*
X7734000Y-9791700D02*
G75*
G03*
X7734000Y-9791700I-50000J0D01*
G01*
X7734000Y-12192000D02*
G75*
G03*
X7734000Y-12192000I-50000J0D01*
G01*
X7988000Y-9791700D02*
G75*
G03*
X7988000Y-9791700I-50000J0D01*
G01*
X7988000Y-12192000D02*
G75*
G03*
X7988000Y-12192000I-50000J0D01*
G01*
X8241500Y-9791700D02*
G75*
G03*
X8241500Y-9791700I-50000J0D01*
G01*
D11*
X5878719Y-12710676D02*
X5878719Y-12510676D01*
X5926338Y-12510676D01*
X5954909Y-12520200D01*
X5973957Y-12539248D01*
X5983481Y-12558295D01*
X5993005Y-12596390D01*
X5993005Y-12624962D01*
X5983481Y-12663057D01*
X5973957Y-12682105D01*
X5954909Y-12701152D01*
X5926338Y-12710676D01*
X5878719Y-12710676D01*
X6078719Y-12710676D02*
X6078719Y-12577343D01*
X6078719Y-12615438D02*
X6088243Y-12596390D01*
X6097767Y-12586867D01*
X6116814Y-12577343D01*
X6135862Y-12577343D01*
X6202528Y-12710676D02*
X6202528Y-12577343D01*
X6202528Y-12510676D02*
X6193005Y-12520200D01*
X6202528Y-12529724D01*
X6212052Y-12520200D01*
X6202528Y-12510676D01*
X6202528Y-12529724D01*
X6326338Y-12710676D02*
X6307290Y-12701152D01*
X6297767Y-12682105D01*
X6297767Y-12510676D01*
X6431100Y-12710676D02*
X6412052Y-12701152D01*
X6402528Y-12682105D01*
X6402528Y-12510676D01*
X6659671Y-12710676D02*
X6659671Y-12510676D01*
X6726338Y-12653533D01*
X6793005Y-12510676D01*
X6793005Y-12710676D01*
X6973957Y-12710676D02*
X6973957Y-12605914D01*
X6964433Y-12586867D01*
X6945386Y-12577343D01*
X6907290Y-12577343D01*
X6888243Y-12586867D01*
X6973957Y-12701152D02*
X6954909Y-12710676D01*
X6907290Y-12710676D01*
X6888243Y-12701152D01*
X6878719Y-12682105D01*
X6878719Y-12663057D01*
X6888243Y-12644009D01*
X6907290Y-12634486D01*
X6954909Y-12634486D01*
X6973957Y-12624962D01*
X7069195Y-12577343D02*
X7069195Y-12777343D01*
X7069195Y-12586867D02*
X7088243Y-12577343D01*
X7126338Y-12577343D01*
X7145386Y-12586867D01*
X7154909Y-12596390D01*
X7164433Y-12615438D01*
X7164433Y-12672581D01*
X7154909Y-12691628D01*
X7145386Y-12701152D01*
X7126338Y-12710676D01*
X7088243Y-12710676D01*
X7069195Y-12701152D01*
X7250148Y-12691628D02*
X7259671Y-12701152D01*
X7250148Y-12710676D01*
X7240624Y-12701152D01*
X7250148Y-12691628D01*
X7250148Y-12710676D01*
X7250148Y-12586867D02*
X7259671Y-12596390D01*
X7250148Y-12605914D01*
X7240624Y-12596390D01*
X7250148Y-12586867D01*
X7250148Y-12605914D01*
D12*
X5581100Y-13020200D02*
X5621100Y-13060200D01*
X5621100Y-13020200D02*
X5581100Y-13060200D01*
D11*
X5916814Y-12930676D02*
X5935862Y-12930676D01*
X5954909Y-12940200D01*
X5964433Y-12949724D01*
X5973957Y-12968771D01*
X5983481Y-13006867D01*
X5983481Y-13054486D01*
X5973957Y-13092581D01*
X5964433Y-13111628D01*
X5954909Y-13121152D01*
X5935862Y-13130676D01*
X5916814Y-13130676D01*
X5897767Y-13121152D01*
X5888243Y-13111628D01*
X5878719Y-13092581D01*
X5869195Y-13054486D01*
X5869195Y-13006867D01*
X5878719Y-12968771D01*
X5888243Y-12949724D01*
X5897767Y-12940200D01*
X5916814Y-12930676D01*
X6069195Y-13111628D02*
X6078719Y-13121152D01*
X6069195Y-13130676D01*
X6059671Y-13121152D01*
X6069195Y-13111628D01*
X6069195Y-13130676D01*
X6250148Y-12997343D02*
X6250148Y-13130676D01*
X6202528Y-12921152D02*
X6154909Y-13064009D01*
X6278719Y-13064009D01*
X6393005Y-12930676D02*
X6412052Y-12930676D01*
X6431100Y-12940200D01*
X6440624Y-12949724D01*
X6450148Y-12968771D01*
X6459671Y-13006867D01*
X6459671Y-13054486D01*
X6450148Y-13092581D01*
X6440624Y-13111628D01*
X6431100Y-13121152D01*
X6412052Y-13130676D01*
X6393005Y-13130676D01*
X6373957Y-13121152D01*
X6364433Y-13111628D01*
X6354909Y-13092581D01*
X6345386Y-13054486D01*
X6345386Y-13006867D01*
X6354909Y-12968771D01*
X6364433Y-12949724D01*
X6373957Y-12940200D01*
X6393005Y-12930676D01*
X6583481Y-12930676D02*
X6602528Y-12930676D01*
X6621576Y-12940200D01*
X6631100Y-12949724D01*
X6640624Y-12968771D01*
X6650148Y-13006867D01*
X6650148Y-13054486D01*
X6640624Y-13092581D01*
X6631100Y-13111628D01*
X6621576Y-13121152D01*
X6602528Y-13130676D01*
X6583481Y-13130676D01*
X6564433Y-13121152D01*
X6554909Y-13111628D01*
X6545386Y-13092581D01*
X6535862Y-13054486D01*
X6535862Y-13006867D01*
X6545386Y-12968771D01*
X6554909Y-12949724D01*
X6564433Y-12940200D01*
X6583481Y-12930676D01*
X6735862Y-13130676D02*
X6735862Y-12997343D01*
X6735862Y-13016390D02*
X6745386Y-13006867D01*
X6764433Y-12997343D01*
X6793005Y-12997343D01*
X6812052Y-13006867D01*
X6821576Y-13025914D01*
X6821576Y-13130676D01*
X6821576Y-13025914D02*
X6831100Y-13006867D01*
X6850148Y-12997343D01*
X6878719Y-12997343D01*
X6897767Y-13006867D01*
X6907290Y-13025914D01*
X6907290Y-13130676D01*
X7002528Y-13130676D02*
X7002528Y-12997343D01*
X7002528Y-13016390D02*
X7012052Y-13006867D01*
X7031100Y-12997343D01*
X7059671Y-12997343D01*
X7078719Y-13006867D01*
X7088243Y-13025914D01*
X7088243Y-13130676D01*
X7088243Y-13025914D02*
X7097767Y-13006867D01*
X7116814Y-12997343D01*
X7145386Y-12997343D01*
X7164433Y-13006867D01*
X7173957Y-13025914D01*
X7173957Y-13130676D01*
X7564433Y-12921152D02*
X7393005Y-13178295D01*
X7821576Y-12930676D02*
X7840624Y-12930676D01*
X7859671Y-12940200D01*
X7869195Y-12949724D01*
X7878719Y-12968771D01*
X7888243Y-13006867D01*
X7888243Y-13054486D01*
X7878719Y-13092581D01*
X7869195Y-13111628D01*
X7859671Y-13121152D01*
X7840624Y-13130676D01*
X7821576Y-13130676D01*
X7802528Y-13121152D01*
X7793005Y-13111628D01*
X7783481Y-13092581D01*
X7773957Y-13054486D01*
X7773957Y-13006867D01*
X7783481Y-12968771D01*
X7793005Y-12949724D01*
X7802528Y-12940200D01*
X7821576Y-12930676D01*
X7973957Y-13111628D02*
X7983481Y-13121152D01*
X7973957Y-13130676D01*
X7964433Y-13121152D01*
X7973957Y-13111628D01*
X7973957Y-13130676D01*
X8107290Y-12930676D02*
X8126338Y-12930676D01*
X8145386Y-12940200D01*
X8154909Y-12949724D01*
X8164433Y-12968771D01*
X8173957Y-13006867D01*
X8173957Y-13054486D01*
X8164433Y-13092581D01*
X8154909Y-13111628D01*
X8145386Y-13121152D01*
X8126338Y-13130676D01*
X8107290Y-13130676D01*
X8088243Y-13121152D01*
X8078719Y-13111628D01*
X8069195Y-13092581D01*
X8059671Y-13054486D01*
X8059671Y-13006867D01*
X8069195Y-12968771D01*
X8078719Y-12949724D01*
X8088243Y-12940200D01*
X8107290Y-12930676D01*
X8364433Y-13130676D02*
X8250148Y-13130676D01*
X8307290Y-13130676D02*
X8307290Y-12930676D01*
X8288243Y-12959248D01*
X8269195Y-12978295D01*
X8250148Y-12987819D01*
X8545386Y-12930676D02*
X8450148Y-12930676D01*
X8440624Y-13025914D01*
X8450148Y-13016390D01*
X8469195Y-13006867D01*
X8516814Y-13006867D01*
X8535862Y-13016390D01*
X8545386Y-13025914D01*
X8554910Y-13044962D01*
X8554910Y-13092581D01*
X8545386Y-13111628D01*
X8535862Y-13121152D01*
X8516814Y-13130676D01*
X8469195Y-13130676D01*
X8450148Y-13121152D01*
X8440624Y-13111628D01*
X8621576Y-12930676D02*
X8754910Y-12930676D01*
X8669195Y-13130676D01*
X8821576Y-12930676D02*
X8821576Y-12968771D01*
X8897767Y-12930676D02*
X8897767Y-12968771D01*
X9193005Y-13206867D02*
X9183481Y-13197343D01*
X9164433Y-13168771D01*
X9154910Y-13149724D01*
X9145386Y-13121152D01*
X9135862Y-13073533D01*
X9135862Y-13035438D01*
X9145386Y-12987819D01*
X9154910Y-12959248D01*
X9164433Y-12940200D01*
X9183481Y-12911628D01*
X9193005Y-12902105D01*
X9373957Y-13130676D02*
X9259671Y-13130676D01*
X9316814Y-13130676D02*
X9316814Y-12930676D01*
X9297767Y-12959248D01*
X9278719Y-12978295D01*
X9259671Y-12987819D01*
X9440624Y-12930676D02*
X9564433Y-12930676D01*
X9497767Y-13006867D01*
X9526338Y-13006867D01*
X9545386Y-13016390D01*
X9554910Y-13025914D01*
X9564433Y-13044962D01*
X9564433Y-13092581D01*
X9554910Y-13111628D01*
X9545386Y-13121152D01*
X9526338Y-13130676D01*
X9469195Y-13130676D01*
X9450148Y-13121152D01*
X9440624Y-13111628D01*
X9802529Y-13130676D02*
X9802529Y-12930676D01*
X9888243Y-13130676D02*
X9888243Y-13025914D01*
X9878719Y-13006867D01*
X9859671Y-12997343D01*
X9831100Y-12997343D01*
X9812052Y-13006867D01*
X9802529Y-13016390D01*
X10012052Y-13130676D02*
X9993005Y-13121152D01*
X9983481Y-13111628D01*
X9973957Y-13092581D01*
X9973957Y-13035438D01*
X9983481Y-13016390D01*
X9993005Y-13006867D01*
X10012052Y-12997343D01*
X10040624Y-12997343D01*
X10059671Y-13006867D01*
X10069195Y-13016390D01*
X10078719Y-13035438D01*
X10078719Y-13092581D01*
X10069195Y-13111628D01*
X10059671Y-13121152D01*
X10040624Y-13130676D01*
X10012052Y-13130676D01*
X10193005Y-13130676D02*
X10173957Y-13121152D01*
X10164433Y-13102105D01*
X10164433Y-12930676D01*
X10345386Y-13121152D02*
X10326338Y-13130676D01*
X10288243Y-13130676D01*
X10269195Y-13121152D01*
X10259671Y-13102105D01*
X10259671Y-13025914D01*
X10269195Y-13006867D01*
X10288243Y-12997343D01*
X10326338Y-12997343D01*
X10345386Y-13006867D01*
X10354910Y-13025914D01*
X10354910Y-13044962D01*
X10259671Y-13064009D01*
X10431100Y-13121152D02*
X10450148Y-13130676D01*
X10488243Y-13130676D01*
X10507290Y-13121152D01*
X10516814Y-13102105D01*
X10516814Y-13092581D01*
X10507290Y-13073533D01*
X10488243Y-13064009D01*
X10459671Y-13064009D01*
X10440624Y-13054486D01*
X10431100Y-13035438D01*
X10431100Y-13025914D01*
X10440624Y-13006867D01*
X10459671Y-12997343D01*
X10488243Y-12997343D01*
X10507290Y-13006867D01*
X10583481Y-13206867D02*
X10593005Y-13197343D01*
X10612052Y-13168771D01*
X10621576Y-13149724D01*
X10631100Y-13121152D01*
X10640624Y-13073533D01*
X10640624Y-13035438D01*
X10631100Y-12987819D01*
X10621576Y-12959248D01*
X10612052Y-12940200D01*
X10593005Y-12911628D01*
X10583481Y-12902105D01*
D13*
X5621100Y-13304200D02*
G75*
G03*
X5621100Y-13304200I-50000J0D01*
G01*
D11*
X5983481Y-13394676D02*
X5869195Y-13394676D01*
X5926338Y-13394676D02*
X5926338Y-13194676D01*
X5907290Y-13223248D01*
X5888243Y-13242295D01*
X5869195Y-13251819D01*
X6069195Y-13375628D02*
X6078719Y-13385152D01*
X6069195Y-13394676D01*
X6059671Y-13385152D01*
X6069195Y-13375628D01*
X6069195Y-13394676D01*
X6202528Y-13194676D02*
X6221576Y-13194676D01*
X6240624Y-13204200D01*
X6250148Y-13213724D01*
X6259671Y-13232771D01*
X6269195Y-13270867D01*
X6269195Y-13318486D01*
X6259671Y-13356581D01*
X6250148Y-13375628D01*
X6240624Y-13385152D01*
X6221576Y-13394676D01*
X6202528Y-13394676D01*
X6183481Y-13385152D01*
X6173957Y-13375628D01*
X6164433Y-13356581D01*
X6154909Y-13318486D01*
X6154909Y-13270867D01*
X6164433Y-13232771D01*
X6173957Y-13213724D01*
X6183481Y-13204200D01*
X6202528Y-13194676D01*
X6393005Y-13194676D02*
X6412052Y-13194676D01*
X6431100Y-13204200D01*
X6440624Y-13213724D01*
X6450148Y-13232771D01*
X6459671Y-13270867D01*
X6459671Y-13318486D01*
X6450148Y-13356581D01*
X6440624Y-13375628D01*
X6431100Y-13385152D01*
X6412052Y-13394676D01*
X6393005Y-13394676D01*
X6373957Y-13385152D01*
X6364433Y-13375628D01*
X6354909Y-13356581D01*
X6345386Y-13318486D01*
X6345386Y-13270867D01*
X6354909Y-13232771D01*
X6364433Y-13213724D01*
X6373957Y-13204200D01*
X6393005Y-13194676D01*
X6583481Y-13194676D02*
X6602528Y-13194676D01*
X6621576Y-13204200D01*
X6631100Y-13213724D01*
X6640624Y-13232771D01*
X6650148Y-13270867D01*
X6650148Y-13318486D01*
X6640624Y-13356581D01*
X6631100Y-13375628D01*
X6621576Y-13385152D01*
X6602528Y-13394676D01*
X6583481Y-13394676D01*
X6564433Y-13385152D01*
X6554909Y-13375628D01*
X6545386Y-13356581D01*
X6535862Y-13318486D01*
X6535862Y-13270867D01*
X6545386Y-13232771D01*
X6554909Y-13213724D01*
X6564433Y-13204200D01*
X6583481Y-13194676D01*
X6735862Y-13394676D02*
X6735862Y-13261343D01*
X6735862Y-13280390D02*
X6745386Y-13270867D01*
X6764433Y-13261343D01*
X6793005Y-13261343D01*
X6812052Y-13270867D01*
X6821576Y-13289914D01*
X6821576Y-13394676D01*
X6821576Y-13289914D02*
X6831100Y-13270867D01*
X6850148Y-13261343D01*
X6878719Y-13261343D01*
X6897767Y-13270867D01*
X6907290Y-13289914D01*
X6907290Y-13394676D01*
X7002528Y-13394676D02*
X7002528Y-13261343D01*
X7002528Y-13280390D02*
X7012052Y-13270867D01*
X7031100Y-13261343D01*
X7059671Y-13261343D01*
X7078719Y-13270867D01*
X7088243Y-13289914D01*
X7088243Y-13394676D01*
X7088243Y-13289914D02*
X7097767Y-13270867D01*
X7116814Y-13261343D01*
X7145386Y-13261343D01*
X7164433Y-13270867D01*
X7173957Y-13289914D01*
X7173957Y-13394676D01*
X7564433Y-13185152D02*
X7393005Y-13442295D01*
X7821576Y-13194676D02*
X7840624Y-13194676D01*
X7859671Y-13204200D01*
X7869195Y-13213724D01*
X7878719Y-13232771D01*
X7888243Y-13270867D01*
X7888243Y-13318486D01*
X7878719Y-13356581D01*
X7869195Y-13375628D01*
X7859671Y-13385152D01*
X7840624Y-13394676D01*
X7821576Y-13394676D01*
X7802528Y-13385152D01*
X7793005Y-13375628D01*
X7783481Y-13356581D01*
X7773957Y-13318486D01*
X7773957Y-13270867D01*
X7783481Y-13232771D01*
X7793005Y-13213724D01*
X7802528Y-13204200D01*
X7821576Y-13194676D01*
X7973957Y-13375628D02*
X7983481Y-13385152D01*
X7973957Y-13394676D01*
X7964433Y-13385152D01*
X7973957Y-13375628D01*
X7973957Y-13394676D01*
X8107290Y-13194676D02*
X8126338Y-13194676D01*
X8145386Y-13204200D01*
X8154909Y-13213724D01*
X8164433Y-13232771D01*
X8173957Y-13270867D01*
X8173957Y-13318486D01*
X8164433Y-13356581D01*
X8154909Y-13375628D01*
X8145386Y-13385152D01*
X8126338Y-13394676D01*
X8107290Y-13394676D01*
X8088243Y-13385152D01*
X8078719Y-13375628D01*
X8069195Y-13356581D01*
X8059671Y-13318486D01*
X8059671Y-13270867D01*
X8069195Y-13232771D01*
X8078719Y-13213724D01*
X8088243Y-13204200D01*
X8107290Y-13194676D01*
X8240624Y-13194676D02*
X8364433Y-13194676D01*
X8297767Y-13270867D01*
X8326338Y-13270867D01*
X8345386Y-13280390D01*
X8354909Y-13289914D01*
X8364433Y-13308962D01*
X8364433Y-13356581D01*
X8354909Y-13375628D01*
X8345386Y-13385152D01*
X8326338Y-13394676D01*
X8269195Y-13394676D01*
X8250148Y-13385152D01*
X8240624Y-13375628D01*
X8459671Y-13394676D02*
X8497767Y-13394676D01*
X8516814Y-13385152D01*
X8526338Y-13375628D01*
X8545386Y-13347057D01*
X8554910Y-13308962D01*
X8554910Y-13232771D01*
X8545386Y-13213724D01*
X8535862Y-13204200D01*
X8516814Y-13194676D01*
X8478719Y-13194676D01*
X8459671Y-13204200D01*
X8450148Y-13213724D01*
X8440624Y-13232771D01*
X8440624Y-13280390D01*
X8450148Y-13299438D01*
X8459671Y-13308962D01*
X8478719Y-13318486D01*
X8516814Y-13318486D01*
X8535862Y-13308962D01*
X8545386Y-13299438D01*
X8554910Y-13280390D01*
X8726338Y-13261343D02*
X8726338Y-13394676D01*
X8678719Y-13185152D02*
X8631100Y-13328009D01*
X8754910Y-13328009D01*
X8821576Y-13194676D02*
X8821576Y-13232771D01*
X8897767Y-13194676D02*
X8897767Y-13232771D01*
X9193005Y-13470867D02*
X9183481Y-13461343D01*
X9164433Y-13432771D01*
X9154910Y-13413724D01*
X9145386Y-13385152D01*
X9135862Y-13337533D01*
X9135862Y-13299438D01*
X9145386Y-13251819D01*
X9154910Y-13223248D01*
X9164433Y-13204200D01*
X9183481Y-13175628D01*
X9193005Y-13166105D01*
X9364433Y-13194676D02*
X9269195Y-13194676D01*
X9259671Y-13289914D01*
X9269195Y-13280390D01*
X9288243Y-13270867D01*
X9335862Y-13270867D01*
X9354910Y-13280390D01*
X9364433Y-13289914D01*
X9373957Y-13308962D01*
X9373957Y-13356581D01*
X9364433Y-13375628D01*
X9354910Y-13385152D01*
X9335862Y-13394676D01*
X9288243Y-13394676D01*
X9269195Y-13385152D01*
X9259671Y-13375628D01*
X9612052Y-13394676D02*
X9612052Y-13194676D01*
X9697767Y-13394676D02*
X9697767Y-13289914D01*
X9688243Y-13270867D01*
X9669195Y-13261343D01*
X9640624Y-13261343D01*
X9621576Y-13270867D01*
X9612052Y-13280390D01*
X9821576Y-13394676D02*
X9802529Y-13385152D01*
X9793005Y-13375628D01*
X9783481Y-13356581D01*
X9783481Y-13299438D01*
X9793005Y-13280390D01*
X9802529Y-13270867D01*
X9821576Y-13261343D01*
X9850148Y-13261343D01*
X9869195Y-13270867D01*
X9878719Y-13280390D01*
X9888243Y-13299438D01*
X9888243Y-13356581D01*
X9878719Y-13375628D01*
X9869195Y-13385152D01*
X9850148Y-13394676D01*
X9821576Y-13394676D01*
X10002529Y-13394676D02*
X9983481Y-13385152D01*
X9973957Y-13366105D01*
X9973957Y-13194676D01*
X10154910Y-13385152D02*
X10135862Y-13394676D01*
X10097767Y-13394676D01*
X10078719Y-13385152D01*
X10069195Y-13366105D01*
X10069195Y-13289914D01*
X10078719Y-13270867D01*
X10097767Y-13261343D01*
X10135862Y-13261343D01*
X10154910Y-13270867D01*
X10164433Y-13289914D01*
X10164433Y-13308962D01*
X10069195Y-13328009D01*
X10240624Y-13385152D02*
X10259671Y-13394676D01*
X10297767Y-13394676D01*
X10316814Y-13385152D01*
X10326338Y-13366105D01*
X10326338Y-13356581D01*
X10316814Y-13337533D01*
X10297767Y-13328009D01*
X10269195Y-13328009D01*
X10250148Y-13318486D01*
X10240624Y-13299438D01*
X10240624Y-13289914D01*
X10250148Y-13270867D01*
X10269195Y-13261343D01*
X10297767Y-13261343D01*
X10316814Y-13270867D01*
X10393005Y-13470867D02*
X10402529Y-13461343D01*
X10421576Y-13432771D01*
X10431100Y-13413724D01*
X10440624Y-13385152D01*
X10450148Y-13337533D01*
X10450148Y-13299438D01*
X10440624Y-13251819D01*
X10431100Y-13223248D01*
X10421576Y-13204200D01*
X10402529Y-13175628D01*
X10393005Y-13166105D01*
M02*
