G04 #@! TF.GenerationSoftware,KiCad,Pcbnew,(6.0.5)*
G04 #@! TF.CreationDate,2023-01-30T16:32:02-08:00*
G04 #@! TF.ProjectId,12V_Converter_TPS611781,3132565f-436f-46e7-9665-727465725f54,rev?*
G04 #@! TF.SameCoordinates,Original*
G04 #@! TF.FileFunction,Paste,Top*
G04 #@! TF.FilePolarity,Positive*
%FSLAX46Y46*%
G04 Gerber Fmt 4.6, Leading zero omitted, Abs format (unit mm)*
G04 Created by KiCad (PCBNEW (6.0.5)) date 2023-01-30 16:32:02*
%MOMM*%
%LPD*%
G01*
G04 APERTURE LIST*
G04 Aperture macros list*
%AMRoundRect*
0 Rectangle with rounded corners*
0 $1 Rounding radius*
0 $2 $3 $4 $5 $6 $7 $8 $9 X,Y pos of 4 corners*
0 Add a 4 corners polygon primitive as box body*
4,1,4,$2,$3,$4,$5,$6,$7,$8,$9,$2,$3,0*
0 Add four circle primitives for the rounded corners*
1,1,$1+$1,$2,$3*
1,1,$1+$1,$4,$5*
1,1,$1+$1,$6,$7*
1,1,$1+$1,$8,$9*
0 Add four rect primitives between the rounded corners*
20,1,$1+$1,$2,$3,$4,$5,0*
20,1,$1+$1,$4,$5,$6,$7,0*
20,1,$1+$1,$6,$7,$8,$9,0*
20,1,$1+$1,$8,$9,$2,$3,0*%
G04 Aperture macros list end*
%ADD10C,0.100000*%
%ADD11RoundRect,0.250000X0.262500X0.450000X-0.262500X0.450000X-0.262500X-0.450000X0.262500X-0.450000X0*%
%ADD12R,1.400000X2.100000*%
%ADD13RoundRect,0.250000X0.250000X0.475000X-0.250000X0.475000X-0.250000X-0.475000X0.250000X-0.475000X0*%
%ADD14RoundRect,0.250000X-0.250000X-0.475000X0.250000X-0.475000X0.250000X0.475000X-0.250000X0.475000X0*%
%ADD15RoundRect,0.250000X-0.325000X-0.650000X0.325000X-0.650000X0.325000X0.650000X-0.325000X0.650000X0*%
%ADD16RoundRect,0.225000X-0.250000X0.225000X-0.250000X-0.225000X0.250000X-0.225000X0.250000X0.225000X0*%
%ADD17RoundRect,0.250000X0.625000X-0.312500X0.625000X0.312500X-0.625000X0.312500X-0.625000X-0.312500X0*%
%ADD18R,1.955432X0.420766*%
%ADD19RoundRect,0.250000X1.100000X-0.325000X1.100000X0.325000X-1.100000X0.325000X-1.100000X-0.325000X0*%
%ADD20R,2.997200X4.648200*%
%ADD21RoundRect,0.050000X-0.837500X0.500000X-0.837500X-0.500000X0.837500X-0.500000X0.837500X0.500000X0*%
%ADD22RoundRect,0.050000X-0.175000X0.337500X-0.175000X-0.337500X0.175000X-0.337500X0.175000X0.337500X0*%
%ADD23RoundRect,0.031429X-1.218571X0.518571X-1.218571X-0.518571X1.218571X-0.518571X1.218571X0.518571X0*%
%ADD24RoundRect,0.050000X-1.150000X0.175000X-1.150000X-0.175000X1.150000X-0.175000X1.150000X0.175000X0*%
%ADD25RoundRect,0.050000X-0.175000X0.225000X-0.175000X-0.225000X0.175000X-0.225000X0.175000X0.225000X0*%
%ADD26RoundRect,0.200000X-0.200000X-0.275000X0.200000X-0.275000X0.200000X0.275000X-0.200000X0.275000X0*%
G04 APERTURE END LIST*
G36*
X83676582Y-113152888D02*
G01*
X82662802Y-113152888D01*
X82662802Y-111099110D01*
X83676582Y-111099110D01*
X83676582Y-113152888D01*
G37*
D10*
X83676582Y-113152888D02*
X82662802Y-113152888D01*
X82662802Y-111099110D01*
X83676582Y-111099110D01*
X83676582Y-113152888D01*
G36*
X72214999Y-114523501D02*
G01*
X71915000Y-114523501D01*
X71915000Y-114123502D01*
X72214999Y-114123502D01*
X72214999Y-114523501D01*
G37*
X72214999Y-114523501D02*
X71915000Y-114523501D01*
X71915000Y-114123502D01*
X72214999Y-114123502D01*
X72214999Y-114523501D01*
G36*
X73658995Y-113244000D02*
G01*
X73239006Y-113244000D01*
X73239006Y-112844000D01*
X73658995Y-112844000D01*
X73658995Y-113244000D01*
G37*
X73658995Y-113244000D02*
X73239006Y-113244000D01*
X73239006Y-112844000D01*
X73658995Y-112844000D01*
X73658995Y-113244000D01*
G36*
X71564999Y-111344499D02*
G01*
X71265000Y-111344499D01*
X71265000Y-110774498D01*
X71564999Y-110774498D01*
X71564999Y-111344499D01*
G37*
X71564999Y-111344499D02*
X71265000Y-111344499D01*
X71265000Y-110774498D01*
X71564999Y-110774498D01*
X71564999Y-111344499D01*
G36*
X72824998Y-113054000D02*
G01*
X71225002Y-113054000D01*
X71225002Y-112554001D01*
X72824998Y-112554001D01*
X72824998Y-113054000D01*
G37*
X72824998Y-113054000D02*
X71225002Y-113054000D01*
X71225002Y-112554001D01*
X72824998Y-112554001D01*
X72824998Y-113054000D01*
G36*
X73554999Y-111874005D02*
G01*
X72455001Y-111874005D01*
X72455001Y-111493995D01*
X73554999Y-111493995D01*
X73554999Y-111874005D01*
G37*
X73554999Y-111874005D02*
X72455001Y-111874005D01*
X72455001Y-111493995D01*
X73554999Y-111493995D01*
X73554999Y-111874005D01*
G36*
X72324999Y-111874005D02*
G01*
X71225001Y-111874005D01*
X71225001Y-111493995D01*
X72324999Y-111493995D01*
X72324999Y-111874005D01*
G37*
X72324999Y-111874005D02*
X71225001Y-111874005D01*
X71225001Y-111493995D01*
X72324999Y-111493995D01*
X72324999Y-111874005D01*
G36*
X72324999Y-112404005D02*
G01*
X71225001Y-112404005D01*
X71225001Y-112023995D01*
X72324999Y-112023995D01*
X72324999Y-112404005D01*
G37*
X72324999Y-112404005D02*
X71225001Y-112404005D01*
X71225001Y-112023995D01*
X72324999Y-112023995D01*
X72324999Y-112404005D01*
G36*
X73514996Y-113993995D02*
G01*
X72455004Y-113993995D01*
X72455004Y-113774005D01*
X73514996Y-113774005D01*
X73514996Y-113993995D01*
G37*
X73514996Y-113993995D02*
X72455004Y-113993995D01*
X72455004Y-113774005D01*
X73514996Y-113774005D01*
X73514996Y-113993995D01*
G36*
X73514999Y-111344499D02*
G01*
X73215000Y-111344499D01*
X73215000Y-110774498D01*
X73514999Y-110774498D01*
X73514999Y-111344499D01*
G37*
X73514999Y-111344499D02*
X73215000Y-111344499D01*
X73215000Y-110774498D01*
X73514999Y-110774498D01*
X73514999Y-111344499D01*
G36*
X72864999Y-114523501D02*
G01*
X72565000Y-114523501D01*
X72565000Y-114123502D01*
X72864999Y-114123502D01*
X72864999Y-114523501D01*
G37*
X72864999Y-114523501D02*
X72565000Y-114523501D01*
X72565000Y-114123502D01*
X72864999Y-114123502D01*
X72864999Y-114523501D01*
G36*
X72324996Y-113993995D02*
G01*
X71265004Y-113993995D01*
X71265004Y-113774005D01*
X72324996Y-113774005D01*
X72324996Y-113993995D01*
G37*
X72324996Y-113993995D02*
X71265004Y-113993995D01*
X71265004Y-113774005D01*
X72324996Y-113774005D01*
X72324996Y-113993995D01*
G36*
X72214999Y-111344499D02*
G01*
X71915000Y-111344499D01*
X71915000Y-110774498D01*
X72214999Y-110774498D01*
X72214999Y-111344499D01*
G37*
X72214999Y-111344499D02*
X71915000Y-111344499D01*
X71915000Y-110774498D01*
X72214999Y-110774498D01*
X72214999Y-111344499D01*
G36*
X73554999Y-112404005D02*
G01*
X72455001Y-112404005D01*
X72455001Y-112023995D01*
X73554999Y-112023995D01*
X73554999Y-112404005D01*
G37*
X73554999Y-112404005D02*
X72455001Y-112404005D01*
X72455001Y-112023995D01*
X73554999Y-112023995D01*
X73554999Y-112404005D01*
G36*
X71564999Y-114523501D02*
G01*
X71265000Y-114523501D01*
X71265000Y-114123502D01*
X71564999Y-114123502D01*
X71564999Y-114523501D01*
G37*
X71564999Y-114523501D02*
X71265000Y-114523501D01*
X71265000Y-114123502D01*
X71564999Y-114123502D01*
X71564999Y-114523501D01*
G36*
X72864999Y-111344499D02*
G01*
X72565000Y-111344499D01*
X72565000Y-110774498D01*
X72864999Y-110774498D01*
X72864999Y-111344499D01*
G37*
X72864999Y-111344499D02*
X72565000Y-111344499D01*
X72565000Y-110774498D01*
X72864999Y-110774498D01*
X72864999Y-111344499D01*
G36*
X73514999Y-114523501D02*
G01*
X73215000Y-114523501D01*
X73215000Y-114123502D01*
X73514999Y-114123502D01*
X73514999Y-114523501D01*
G37*
X73514999Y-114523501D02*
X73215000Y-114523501D01*
X73215000Y-114123502D01*
X73514999Y-114123502D01*
X73514999Y-114523501D01*
G36*
X74228995Y-113244000D02*
G01*
X73809006Y-113244000D01*
X73809006Y-112844000D01*
X74228995Y-112844000D01*
X74228995Y-113244000D01*
G37*
X74228995Y-113244000D02*
X73809006Y-113244000D01*
X73809006Y-112844000D01*
X74228995Y-112844000D01*
X74228995Y-113244000D01*
D11*
X75588500Y-109220000D03*
X73763500Y-109220000D03*
D12*
X76581000Y-116713000D03*
X72181000Y-116713000D03*
D13*
X90799742Y-112125999D03*
X88899742Y-112125999D03*
D14*
X79441000Y-108331000D03*
X81341000Y-108331000D03*
D15*
X83106742Y-108188999D03*
X86056742Y-108188999D03*
D16*
X77786024Y-107923217D03*
X77786024Y-109473217D03*
D17*
X71628000Y-109412500D03*
X71628000Y-106487500D03*
D11*
X76985500Y-111252000D03*
X75160500Y-111252000D03*
D13*
X75626000Y-106807000D03*
X73726000Y-106807000D03*
D18*
X80294308Y-110175998D03*
X80294308Y-110825999D03*
X80294308Y-111475998D03*
X80294308Y-112125999D03*
X80294308Y-112776000D03*
X80294308Y-113425999D03*
X80294308Y-114076000D03*
X86045076Y-114076000D03*
X86045076Y-113425999D03*
X86045076Y-112776000D03*
X86045076Y-112125999D03*
X86045076Y-111475998D03*
X86045076Y-110825999D03*
X86045076Y-110175998D03*
D11*
X90804742Y-109966999D03*
X88979742Y-109966999D03*
D19*
X82930742Y-119061999D03*
X82930742Y-116111999D03*
D14*
X88838742Y-105648999D03*
X90738742Y-105648999D03*
D20*
X63373000Y-114427000D03*
X63373000Y-104775000D03*
D14*
X87822742Y-107807999D03*
X89722742Y-107807999D03*
D19*
X86359742Y-119061999D03*
X86359742Y-116111999D03*
D21*
X72027500Y-112599000D03*
D22*
X73364999Y-111086499D03*
D23*
X72390000Y-111949000D03*
D22*
X72715001Y-111086499D03*
X72064999Y-111086499D03*
X71415001Y-111086499D03*
D24*
X72390000Y-113924000D03*
D25*
X71415001Y-114323501D03*
X72064999Y-114323501D03*
X72715001Y-114323501D03*
X73364999Y-114323501D03*
D19*
X79501742Y-119061999D03*
X79501742Y-116111999D03*
D26*
X85662000Y-105918000D03*
X87312000Y-105918000D03*
D14*
X75504000Y-114046000D03*
X77404000Y-114046000D03*
D26*
X88899742Y-116189999D03*
X90549742Y-116189999D03*
X88899742Y-114030999D03*
X90549742Y-114030999D03*
M02*
