G04 #@! TF.GenerationSoftware,KiCad,Pcbnew,(6.0.5)*
G04 #@! TF.CreationDate,2023-01-30T16:32:02-08:00*
G04 #@! TF.ProjectId,12V_Converter_TPS611781,3132565f-436f-46e7-9665-727465725f54,rev?*
G04 #@! TF.SameCoordinates,Original*
G04 #@! TF.FileFunction,Copper,L2,Bot*
G04 #@! TF.FilePolarity,Positive*
%FSLAX46Y46*%
G04 Gerber Fmt 4.6, Leading zero omitted, Abs format (unit mm)*
G04 Created by KiCad (PCBNEW (6.0.5)) date 2023-01-30 16:32:02*
%MOMM*%
%LPD*%
G01*
G04 APERTURE LIST*
G04 #@! TA.AperFunction,ComponentPad*
%ADD10R,1.700000X1.700000*%
G04 #@! TD*
G04 #@! TA.AperFunction,ComponentPad*
%ADD11O,1.700000X1.700000*%
G04 #@! TD*
G04 #@! TA.AperFunction,ViaPad*
%ADD12C,1.250000*%
G04 #@! TD*
G04 #@! TA.AperFunction,ViaPad*
%ADD13C,1.000000*%
G04 #@! TD*
G04 #@! TA.AperFunction,ViaPad*
%ADD14C,0.800000*%
G04 #@! TD*
G04 #@! TA.AperFunction,Conductor*
%ADD15C,2.000000*%
G04 #@! TD*
G04 #@! TA.AperFunction,Conductor*
%ADD16C,0.400000*%
G04 #@! TD*
G04 #@! TA.AperFunction,Conductor*
%ADD17C,0.250000*%
G04 #@! TD*
G04 APERTURE END LIST*
D10*
X81915000Y-97917000D03*
X79380000Y-121920000D03*
D11*
X76840000Y-121920000D03*
D10*
X79380000Y-97917000D03*
D11*
X76840000Y-97917000D03*
D12*
X69204018Y-107483748D03*
D13*
X79501742Y-117586999D03*
X86359742Y-117586999D03*
D14*
X83180652Y-109949288D03*
X83180652Y-111100720D03*
X83169692Y-112125999D03*
X83197152Y-113145694D03*
D13*
X82930742Y-117586999D03*
D14*
X91185742Y-107807999D03*
X87428364Y-114652366D03*
X78598550Y-111990950D03*
X75184000Y-112649000D03*
X84581742Y-108315999D03*
D15*
X71628000Y-109907730D02*
X71628000Y-114681000D01*
X71628000Y-114681000D02*
X74533999Y-117586999D01*
X79501742Y-117586999D02*
X82930742Y-117586999D01*
X82930742Y-117586999D02*
X86359742Y-117586999D01*
X74533999Y-117586999D02*
X79501742Y-117586999D01*
X69204018Y-107483748D02*
X71628000Y-109907730D01*
D16*
X91185742Y-108442999D02*
X91185742Y-107807999D01*
X87428364Y-114652366D02*
X87428364Y-112200377D01*
X87428364Y-112200377D02*
X91185742Y-108442999D01*
D17*
X78598550Y-111990950D02*
X77940500Y-112649000D01*
X77940500Y-112649000D02*
X75184000Y-112649000D01*
D16*
X81915000Y-105649257D02*
X81915000Y-97917000D01*
X84581742Y-108315999D02*
X81915000Y-105649257D01*
G04 #@! TA.AperFunction,Conductor*
G36*
X96461121Y-95525002D02*
G01*
X96507614Y-95578658D01*
X96519000Y-95631000D01*
X96519000Y-123825000D01*
X96498998Y-123893121D01*
X96445342Y-123939614D01*
X96393000Y-123951000D01*
X56388000Y-123951000D01*
X56319879Y-123930998D01*
X56273386Y-123877342D01*
X56262000Y-123825000D01*
X56262000Y-121905262D01*
X75784520Y-121905262D01*
X75801759Y-122110553D01*
X75803458Y-122116478D01*
X75825147Y-122192115D01*
X75858544Y-122308586D01*
X75861359Y-122314063D01*
X75861360Y-122314066D01*
X75927650Y-122443052D01*
X75952712Y-122491818D01*
X76080677Y-122653270D01*
X76237564Y-122786791D01*
X76417398Y-122887297D01*
X76512238Y-122918113D01*
X76607471Y-122949056D01*
X76607475Y-122949057D01*
X76613329Y-122950959D01*
X76817894Y-122975351D01*
X76824029Y-122974879D01*
X76824031Y-122974879D01*
X76880039Y-122970569D01*
X77023300Y-122959546D01*
X77029230Y-122957890D01*
X77029232Y-122957890D01*
X77215797Y-122905800D01*
X77215796Y-122905800D01*
X77221725Y-122904145D01*
X77227214Y-122901372D01*
X77227220Y-122901370D01*
X77400116Y-122814033D01*
X77405610Y-122811258D01*
X77567951Y-122684424D01*
X77702564Y-122528472D01*
X77723387Y-122491818D01*
X77786445Y-122380815D01*
X77837484Y-122331464D01*
X77907102Y-122317542D01*
X77973196Y-122343468D01*
X78014781Y-122401011D01*
X78022001Y-122443052D01*
X78022001Y-122814669D01*
X78022371Y-122821490D01*
X78027895Y-122872352D01*
X78031521Y-122887604D01*
X78076676Y-123008054D01*
X78085214Y-123023649D01*
X78161715Y-123125724D01*
X78174276Y-123138285D01*
X78276351Y-123214786D01*
X78291946Y-123223324D01*
X78412394Y-123268478D01*
X78427649Y-123272105D01*
X78478514Y-123277631D01*
X78485328Y-123278000D01*
X79107885Y-123278000D01*
X79123124Y-123273525D01*
X79124329Y-123272135D01*
X79126000Y-123264452D01*
X79126000Y-123259884D01*
X79634000Y-123259884D01*
X79638475Y-123275123D01*
X79639865Y-123276328D01*
X79647548Y-123277999D01*
X80274669Y-123277999D01*
X80281490Y-123277629D01*
X80332352Y-123272105D01*
X80347604Y-123268479D01*
X80468054Y-123223324D01*
X80483649Y-123214786D01*
X80585724Y-123138285D01*
X80598285Y-123125724D01*
X80674786Y-123023649D01*
X80683324Y-123008054D01*
X80728478Y-122887606D01*
X80732105Y-122872351D01*
X80737631Y-122821486D01*
X80738000Y-122814672D01*
X80738000Y-122192115D01*
X80733525Y-122176876D01*
X80732135Y-122175671D01*
X80724452Y-122174000D01*
X79652115Y-122174000D01*
X79636876Y-122178475D01*
X79635671Y-122179865D01*
X79634000Y-122187548D01*
X79634000Y-123259884D01*
X79126000Y-123259884D01*
X79126000Y-121647885D01*
X79634000Y-121647885D01*
X79638475Y-121663124D01*
X79639865Y-121664329D01*
X79647548Y-121666000D01*
X80719884Y-121666000D01*
X80735123Y-121661525D01*
X80736328Y-121660135D01*
X80737999Y-121652452D01*
X80737999Y-121025331D01*
X80737629Y-121018510D01*
X80732105Y-120967648D01*
X80728479Y-120952396D01*
X80683324Y-120831946D01*
X80674786Y-120816351D01*
X80598285Y-120714276D01*
X80585724Y-120701715D01*
X80483649Y-120625214D01*
X80468054Y-120616676D01*
X80347606Y-120571522D01*
X80332351Y-120567895D01*
X80281486Y-120562369D01*
X80274672Y-120562000D01*
X79652115Y-120562000D01*
X79636876Y-120566475D01*
X79635671Y-120567865D01*
X79634000Y-120575548D01*
X79634000Y-121647885D01*
X79126000Y-121647885D01*
X79126000Y-120580116D01*
X79121525Y-120564877D01*
X79120135Y-120563672D01*
X79112452Y-120562001D01*
X78485331Y-120562001D01*
X78478510Y-120562371D01*
X78427648Y-120567895D01*
X78412396Y-120571521D01*
X78291946Y-120616676D01*
X78276351Y-120625214D01*
X78174276Y-120701715D01*
X78161715Y-120714276D01*
X78085214Y-120816351D01*
X78076676Y-120831946D01*
X78031522Y-120952394D01*
X78027895Y-120967649D01*
X78022369Y-121018514D01*
X78022000Y-121025328D01*
X78022000Y-121399942D01*
X78001998Y-121468063D01*
X77948342Y-121514556D01*
X77878068Y-121524660D01*
X77813488Y-121495166D01*
X77784748Y-121459095D01*
X77753297Y-121399942D01*
X77719218Y-121335849D01*
X77645859Y-121245902D01*
X77592906Y-121180975D01*
X77592903Y-121180972D01*
X77589011Y-121176200D01*
X77571786Y-121161950D01*
X77435025Y-121048811D01*
X77435021Y-121048809D01*
X77430275Y-121044882D01*
X77249055Y-120946897D01*
X77052254Y-120885977D01*
X77046129Y-120885333D01*
X77046128Y-120885333D01*
X76853498Y-120865087D01*
X76853496Y-120865087D01*
X76847369Y-120864443D01*
X76760529Y-120872346D01*
X76648342Y-120882555D01*
X76648339Y-120882556D01*
X76642203Y-120883114D01*
X76444572Y-120941280D01*
X76262002Y-121036726D01*
X76257201Y-121040586D01*
X76257198Y-121040588D01*
X76246971Y-121048811D01*
X76101447Y-121165815D01*
X75969024Y-121323630D01*
X75966056Y-121329028D01*
X75966053Y-121329033D01*
X75874722Y-121495166D01*
X75869776Y-121504162D01*
X75807484Y-121700532D01*
X75806798Y-121706649D01*
X75806797Y-121706653D01*
X75785207Y-121899137D01*
X75784520Y-121905262D01*
X56262000Y-121905262D01*
X56262000Y-112649000D01*
X74578318Y-112649000D01*
X74598956Y-112805762D01*
X74659464Y-112951841D01*
X74755718Y-113077282D01*
X74881159Y-113173536D01*
X75027238Y-113234044D01*
X75184000Y-113254682D01*
X75192188Y-113253604D01*
X75332574Y-113235122D01*
X75340762Y-113234044D01*
X75486841Y-113173536D01*
X75612282Y-113077282D01*
X75653323Y-113023796D01*
X75710661Y-112981929D01*
X75753286Y-112974500D01*
X77920790Y-112974500D01*
X77931772Y-112974980D01*
X77958320Y-112977303D01*
X77958322Y-112977303D01*
X77969307Y-112978264D01*
X78005715Y-112968508D01*
X78016442Y-112966130D01*
X78019801Y-112965538D01*
X78053545Y-112959588D01*
X78063090Y-112954077D01*
X78066366Y-112952885D01*
X78069534Y-112951408D01*
X78080184Y-112948554D01*
X78111044Y-112926945D01*
X78120315Y-112921039D01*
X78143406Y-112907707D01*
X78152955Y-112902194D01*
X78177179Y-112873325D01*
X78184606Y-112865220D01*
X78426169Y-112623658D01*
X78488481Y-112589633D01*
X78531708Y-112587832D01*
X78598550Y-112596632D01*
X78606738Y-112595554D01*
X78747124Y-112577072D01*
X78755312Y-112575994D01*
X78901391Y-112515486D01*
X78907939Y-112510462D01*
X78907947Y-112510457D01*
X78925660Y-112496865D01*
X78991881Y-112471265D01*
X79061430Y-112485530D01*
X79112225Y-112535132D01*
X79128363Y-112597122D01*
X79127479Y-112974500D01*
X79122392Y-115147802D01*
X79121509Y-115524847D01*
X87713017Y-115524847D01*
X93621833Y-115522798D01*
X93621833Y-102274495D01*
X82441500Y-102274495D01*
X82373379Y-102254493D01*
X82326886Y-102200837D01*
X82315500Y-102148495D01*
X82315500Y-99093500D01*
X82335502Y-99025379D01*
X82389158Y-98978886D01*
X82441500Y-98967500D01*
X82784748Y-98967500D01*
X82790816Y-98966293D01*
X82831061Y-98958288D01*
X82831062Y-98958288D01*
X82843231Y-98955867D01*
X82909552Y-98911552D01*
X82953867Y-98845231D01*
X82960670Y-98811033D01*
X82964293Y-98792816D01*
X82965500Y-98786748D01*
X82965500Y-97047252D01*
X82953867Y-96988769D01*
X82909552Y-96922448D01*
X82843231Y-96878133D01*
X82831062Y-96875712D01*
X82831061Y-96875712D01*
X82790816Y-96867707D01*
X82784748Y-96866500D01*
X81045252Y-96866500D01*
X81039184Y-96867707D01*
X80998939Y-96875712D01*
X80998938Y-96875712D01*
X80986769Y-96878133D01*
X80920448Y-96922448D01*
X80913557Y-96932761D01*
X80912789Y-96933529D01*
X80850477Y-96967555D01*
X80779662Y-96962490D01*
X80722826Y-96919943D01*
X80705712Y-96888665D01*
X80683323Y-96828944D01*
X80674786Y-96813351D01*
X80598285Y-96711276D01*
X80585724Y-96698715D01*
X80483649Y-96622214D01*
X80468054Y-96613676D01*
X80347606Y-96568522D01*
X80332351Y-96564895D01*
X80281486Y-96559369D01*
X80274672Y-96559000D01*
X79652115Y-96559000D01*
X79636876Y-96563475D01*
X79635671Y-96564865D01*
X79634000Y-96572548D01*
X79634000Y-99256884D01*
X79638475Y-99272123D01*
X79639865Y-99273328D01*
X79647548Y-99274999D01*
X80274669Y-99274999D01*
X80281490Y-99274629D01*
X80332352Y-99269105D01*
X80347604Y-99265479D01*
X80468054Y-99220324D01*
X80483649Y-99211786D01*
X80585724Y-99135285D01*
X80598285Y-99122724D01*
X80674786Y-99020649D01*
X80683323Y-99005056D01*
X80705712Y-98945335D01*
X80748354Y-98888571D01*
X80814916Y-98863872D01*
X80884265Y-98879080D01*
X80912789Y-98900471D01*
X80913557Y-98901239D01*
X80920448Y-98911552D01*
X80986769Y-98955867D01*
X80998938Y-98958288D01*
X80998939Y-98958288D01*
X81039184Y-98966293D01*
X81045252Y-98967500D01*
X81388500Y-98967500D01*
X81456621Y-98987502D01*
X81503114Y-99041158D01*
X81514500Y-99093500D01*
X81514500Y-102150474D01*
X81494498Y-102218595D01*
X81440842Y-102265088D01*
X81388584Y-102276474D01*
X79190887Y-102277931D01*
X79152520Y-102277956D01*
X79140946Y-107221877D01*
X79131194Y-111387540D01*
X79111032Y-111455614D01*
X79057268Y-111501981D01*
X78986970Y-111511920D01*
X78928490Y-111487207D01*
X78907947Y-111471444D01*
X78907942Y-111471441D01*
X78901391Y-111466414D01*
X78755312Y-111405906D01*
X78598550Y-111385268D01*
X78441788Y-111405906D01*
X78295709Y-111466414D01*
X78170268Y-111562668D01*
X78074014Y-111688109D01*
X78013506Y-111834188D01*
X77992868Y-111990950D01*
X78001363Y-112055471D01*
X78001668Y-112057790D01*
X77990729Y-112127939D01*
X77965841Y-112163332D01*
X77842578Y-112286595D01*
X77780266Y-112320621D01*
X77753483Y-112323500D01*
X75753286Y-112323500D01*
X75685165Y-112303498D01*
X75653323Y-112274204D01*
X75617305Y-112227264D01*
X75612282Y-112220718D01*
X75486841Y-112124464D01*
X75340762Y-112063956D01*
X75184000Y-112043318D01*
X75027238Y-112063956D01*
X74881159Y-112124464D01*
X74755718Y-112220718D01*
X74659464Y-112346159D01*
X74598956Y-112492238D01*
X74578318Y-112649000D01*
X56262000Y-112649000D01*
X56262000Y-97902262D01*
X75784520Y-97902262D01*
X75801759Y-98107553D01*
X75858544Y-98305586D01*
X75861359Y-98311063D01*
X75861360Y-98311066D01*
X75927650Y-98440052D01*
X75952712Y-98488818D01*
X76080677Y-98650270D01*
X76237564Y-98783791D01*
X76417398Y-98884297D01*
X76501280Y-98911552D01*
X76607471Y-98946056D01*
X76607475Y-98946057D01*
X76613329Y-98947959D01*
X76817894Y-98972351D01*
X76824029Y-98971879D01*
X76824031Y-98971879D01*
X76896625Y-98966293D01*
X77023300Y-98956546D01*
X77029230Y-98954890D01*
X77029232Y-98954890D01*
X77215797Y-98902800D01*
X77215796Y-98902800D01*
X77221725Y-98901145D01*
X77227214Y-98898372D01*
X77227220Y-98898370D01*
X77400116Y-98811033D01*
X77405610Y-98808258D01*
X77567951Y-98681424D01*
X77702564Y-98525472D01*
X77723387Y-98488818D01*
X77786445Y-98377815D01*
X77837484Y-98328464D01*
X77907102Y-98314542D01*
X77973196Y-98340468D01*
X78014781Y-98398011D01*
X78022001Y-98440052D01*
X78022001Y-98811669D01*
X78022371Y-98818490D01*
X78027895Y-98869352D01*
X78031521Y-98884604D01*
X78076676Y-99005054D01*
X78085214Y-99020649D01*
X78161715Y-99122724D01*
X78174276Y-99135285D01*
X78276351Y-99211786D01*
X78291946Y-99220324D01*
X78412394Y-99265478D01*
X78427649Y-99269105D01*
X78478514Y-99274631D01*
X78485328Y-99275000D01*
X79107885Y-99275000D01*
X79123124Y-99270525D01*
X79124329Y-99269135D01*
X79126000Y-99261452D01*
X79126000Y-96577116D01*
X79121525Y-96561877D01*
X79120135Y-96560672D01*
X79112452Y-96559001D01*
X78485331Y-96559001D01*
X78478510Y-96559371D01*
X78427648Y-96564895D01*
X78412396Y-96568521D01*
X78291946Y-96613676D01*
X78276351Y-96622214D01*
X78174276Y-96698715D01*
X78161715Y-96711276D01*
X78085214Y-96813351D01*
X78076676Y-96828946D01*
X78031522Y-96949394D01*
X78027895Y-96964649D01*
X78022369Y-97015514D01*
X78022000Y-97022328D01*
X78022000Y-97396942D01*
X78001998Y-97465063D01*
X77948342Y-97511556D01*
X77878068Y-97521660D01*
X77813488Y-97492166D01*
X77784748Y-97456095D01*
X77753297Y-97396942D01*
X77719218Y-97332849D01*
X77645859Y-97242902D01*
X77592906Y-97177975D01*
X77592903Y-97177972D01*
X77589011Y-97173200D01*
X77571786Y-97158950D01*
X77435025Y-97045811D01*
X77435021Y-97045809D01*
X77430275Y-97041882D01*
X77249055Y-96943897D01*
X77052254Y-96882977D01*
X77046129Y-96882333D01*
X77046128Y-96882333D01*
X76853498Y-96862087D01*
X76853496Y-96862087D01*
X76847369Y-96861443D01*
X76760529Y-96869346D01*
X76648342Y-96879555D01*
X76648339Y-96879556D01*
X76642203Y-96880114D01*
X76444572Y-96938280D01*
X76439107Y-96941137D01*
X76367729Y-96978453D01*
X76262002Y-97033726D01*
X76257201Y-97037586D01*
X76257198Y-97037588D01*
X76106254Y-97158950D01*
X76101447Y-97162815D01*
X75969024Y-97320630D01*
X75966056Y-97326028D01*
X75966053Y-97326033D01*
X75874722Y-97492166D01*
X75869776Y-97501162D01*
X75807484Y-97697532D01*
X75806798Y-97703649D01*
X75806797Y-97703653D01*
X75785207Y-97896137D01*
X75784520Y-97902262D01*
X56262000Y-97902262D01*
X56262000Y-95631000D01*
X56282002Y-95562879D01*
X56335658Y-95516386D01*
X56388000Y-95505000D01*
X96393000Y-95505000D01*
X96461121Y-95525002D01*
G37*
G04 #@! TD.AperFunction*
G04 #@! TA.AperFunction,Conductor*
G36*
X93224272Y-102734348D02*
G01*
X93270765Y-102788004D01*
X93282151Y-102840346D01*
X93282151Y-115033188D01*
X93262149Y-115101309D01*
X93208493Y-115147802D01*
X93156151Y-115159188D01*
X88051883Y-115159188D01*
X87983762Y-115139186D01*
X87937269Y-115085530D01*
X87927165Y-115015256D01*
X87946111Y-114970279D01*
X87943743Y-114968912D01*
X87947873Y-114961759D01*
X87952900Y-114955207D01*
X88013408Y-114809128D01*
X88034046Y-114652366D01*
X88013408Y-114495604D01*
X87952900Y-114349525D01*
X87856646Y-114224084D01*
X87858978Y-114222294D01*
X87831743Y-114172418D01*
X87828864Y-114145635D01*
X87828864Y-112418460D01*
X87848866Y-112350339D01*
X87865769Y-112329365D01*
X91491226Y-108703908D01*
X91491229Y-108703904D01*
X91513792Y-108681341D01*
X91523777Y-108661744D01*
X91534103Y-108644892D01*
X91547038Y-108627089D01*
X91553837Y-108606165D01*
X91561401Y-108587905D01*
X91566886Y-108577140D01*
X91566887Y-108577136D01*
X91571388Y-108568303D01*
X91574829Y-108546577D01*
X91579445Y-108527352D01*
X91583177Y-108515867D01*
X91583178Y-108515863D01*
X91586242Y-108506432D01*
X91586242Y-108314730D01*
X91606244Y-108246609D01*
X91614360Y-108236539D01*
X91614024Y-108236281D01*
X91705251Y-108117391D01*
X91710278Y-108110840D01*
X91770786Y-107964761D01*
X91791424Y-107807999D01*
X91770786Y-107651237D01*
X91710278Y-107505158D01*
X91614024Y-107379717D01*
X91488583Y-107283463D01*
X91342504Y-107222955D01*
X91185742Y-107202317D01*
X91028980Y-107222955D01*
X90882901Y-107283463D01*
X90757460Y-107379717D01*
X90661206Y-107505158D01*
X90600698Y-107651237D01*
X90580060Y-107807999D01*
X90600698Y-107964761D01*
X90661206Y-108110840D01*
X90666233Y-108117391D01*
X90666235Y-108117395D01*
X90719980Y-108187438D01*
X90745580Y-108253658D01*
X90731315Y-108323207D01*
X90709112Y-108353236D01*
X87122880Y-111939468D01*
X87122877Y-111939472D01*
X87100314Y-111962035D01*
X87095810Y-111970875D01*
X87090329Y-111981632D01*
X87080003Y-111998484D01*
X87067068Y-112016287D01*
X87060271Y-112037207D01*
X87052705Y-112055471D01*
X87047220Y-112066236D01*
X87047219Y-112066240D01*
X87042718Y-112075073D01*
X87041167Y-112084864D01*
X87041167Y-112084865D01*
X87039277Y-112096799D01*
X87034661Y-112116024D01*
X87030929Y-112127509D01*
X87030928Y-112127513D01*
X87027864Y-112136944D01*
X87027864Y-114145635D01*
X87007862Y-114213756D01*
X86999746Y-114223826D01*
X87000082Y-114224084D01*
X86903828Y-114349525D01*
X86843320Y-114495604D01*
X86822682Y-114652366D01*
X86843320Y-114809128D01*
X86903828Y-114955207D01*
X86908855Y-114961759D01*
X86912985Y-114968912D01*
X86910226Y-114970505D01*
X86930407Y-115022697D01*
X86916147Y-115092246D01*
X86866549Y-115143045D01*
X86804845Y-115159188D01*
X79632401Y-115159188D01*
X79564280Y-115139186D01*
X79517787Y-115085530D01*
X79506401Y-115033118D01*
X79510124Y-108314730D01*
X79513153Y-102847529D01*
X79533193Y-102779421D01*
X79586874Y-102732957D01*
X79639079Y-102721600D01*
X80686298Y-102721004D01*
X81388428Y-102720605D01*
X81456560Y-102740568D01*
X81503084Y-102794198D01*
X81514500Y-102846605D01*
X81514500Y-105712690D01*
X81517564Y-105722121D01*
X81517565Y-105722125D01*
X81521297Y-105733610D01*
X81525913Y-105752835D01*
X81529354Y-105774561D01*
X81533855Y-105783394D01*
X81533856Y-105783398D01*
X81539341Y-105794163D01*
X81546905Y-105812423D01*
X81553704Y-105833347D01*
X81566639Y-105851150D01*
X81576965Y-105868002D01*
X81586950Y-105887599D01*
X81609513Y-105910162D01*
X81609516Y-105910166D01*
X83940233Y-108240883D01*
X83974259Y-108303195D01*
X83975641Y-108316054D01*
X83976060Y-108315999D01*
X83996698Y-108472761D01*
X84057206Y-108618840D01*
X84153460Y-108744281D01*
X84278901Y-108840535D01*
X84424980Y-108901043D01*
X84581742Y-108921681D01*
X84589930Y-108920603D01*
X84730316Y-108902121D01*
X84738504Y-108901043D01*
X84884583Y-108840535D01*
X85010024Y-108744281D01*
X85106278Y-108618840D01*
X85166786Y-108472761D01*
X85187424Y-108315999D01*
X85166786Y-108159237D01*
X85106278Y-108013158D01*
X85010024Y-107887717D01*
X84884583Y-107791463D01*
X84738504Y-107730955D01*
X84581742Y-107710317D01*
X84582126Y-107707403D01*
X84527600Y-107691393D01*
X84506626Y-107674490D01*
X82352405Y-105520269D01*
X82318379Y-105457957D01*
X82315500Y-105431174D01*
X82315500Y-102840346D01*
X82335502Y-102772225D01*
X82389158Y-102725732D01*
X82441500Y-102714346D01*
X93156151Y-102714346D01*
X93224272Y-102734348D01*
G37*
G04 #@! TD.AperFunction*
M02*
