G04 #@! TF.GenerationSoftware,KiCad,Pcbnew,(6.0.5)*
G04 #@! TF.CreationDate,2023-03-07T22:57:50-08:00*
G04 #@! TF.ProjectId,12V_Converter_LM5152x-Q1,3132565f-436f-46e7-9665-727465725f4c,rev?*
G04 #@! TF.SameCoordinates,Original*
G04 #@! TF.FileFunction,Copper,L1,Top*
G04 #@! TF.FilePolarity,Positive*
%FSLAX46Y46*%
G04 Gerber Fmt 4.6, Leading zero omitted, Abs format (unit mm)*
G04 Created by KiCad (PCBNEW (6.0.5)) date 2023-03-07 22:57:50*
%MOMM*%
%LPD*%
G01*
G04 APERTURE LIST*
G04 Aperture macros list*
%AMRoundRect*
0 Rectangle with rounded corners*
0 $1 Rounding radius*
0 $2 $3 $4 $5 $6 $7 $8 $9 X,Y pos of 4 corners*
0 Add a 4 corners polygon primitive as box body*
4,1,4,$2,$3,$4,$5,$6,$7,$8,$9,$2,$3,0*
0 Add four circle primitives for the rounded corners*
1,1,$1+$1,$2,$3*
1,1,$1+$1,$4,$5*
1,1,$1+$1,$6,$7*
1,1,$1+$1,$8,$9*
0 Add four rect primitives between the rounded corners*
20,1,$1+$1,$2,$3,$4,$5,0*
20,1,$1+$1,$4,$5,$6,$7,0*
20,1,$1+$1,$6,$7,$8,$9,0*
20,1,$1+$1,$8,$9,$2,$3,0*%
G04 Aperture macros list end*
G04 #@! TA.AperFunction,EtchedComponent*
%ADD10C,0.100000*%
G04 #@! TD*
G04 #@! TA.AperFunction,SMDPad,CuDef*
%ADD11RoundRect,0.250000X0.650000X-0.325000X0.650000X0.325000X-0.650000X0.325000X-0.650000X-0.325000X0*%
G04 #@! TD*
G04 #@! TA.AperFunction,SMDPad,CuDef*
%ADD12RoundRect,0.225000X-0.225000X-0.250000X0.225000X-0.250000X0.225000X0.250000X-0.225000X0.250000X0*%
G04 #@! TD*
G04 #@! TA.AperFunction,SMDPad,CuDef*
%ADD13RoundRect,0.225000X-0.250000X0.225000X-0.250000X-0.225000X0.250000X-0.225000X0.250000X0.225000X0*%
G04 #@! TD*
G04 #@! TA.AperFunction,SMDPad,CuDef*
%ADD14RoundRect,0.250000X-0.650000X0.325000X-0.650000X-0.325000X0.650000X-0.325000X0.650000X0.325000X0*%
G04 #@! TD*
G04 #@! TA.AperFunction,SMDPad,CuDef*
%ADD15RoundRect,0.200000X0.275000X-0.200000X0.275000X0.200000X-0.275000X0.200000X-0.275000X-0.200000X0*%
G04 #@! TD*
G04 #@! TA.AperFunction,SMDPad,CuDef*
%ADD16RoundRect,0.250000X0.325000X0.650000X-0.325000X0.650000X-0.325000X-0.650000X0.325000X-0.650000X0*%
G04 #@! TD*
G04 #@! TA.AperFunction,SMDPad,CuDef*
%ADD17RoundRect,0.250000X-1.425000X0.362500X-1.425000X-0.362500X1.425000X-0.362500X1.425000X0.362500X0*%
G04 #@! TD*
G04 #@! TA.AperFunction,SMDPad,CuDef*
%ADD18R,4.000000X4.000000*%
G04 #@! TD*
G04 #@! TA.AperFunction,SMDPad,CuDef*
%ADD19R,2.000000X4.100000*%
G04 #@! TD*
G04 #@! TA.AperFunction,SMDPad,CuDef*
%ADD20R,0.600000X0.240000*%
G04 #@! TD*
G04 #@! TA.AperFunction,SMDPad,CuDef*
%ADD21R,0.240000X0.600000*%
G04 #@! TD*
G04 #@! TA.AperFunction,SMDPad,CuDef*
%ADD22R,0.600000X0.239283*%
G04 #@! TD*
G04 #@! TA.AperFunction,SMDPad,CuDef*
%ADD23R,2.050000X2.050000*%
G04 #@! TD*
G04 #@! TA.AperFunction,SMDPad,CuDef*
%ADD24RoundRect,0.225000X0.225000X0.250000X-0.225000X0.250000X-0.225000X-0.250000X0.225000X-0.250000X0*%
G04 #@! TD*
G04 #@! TA.AperFunction,SMDPad,CuDef*
%ADD25R,0.711200X0.508000*%
G04 #@! TD*
G04 #@! TA.AperFunction,SMDPad,CuDef*
%ADD26R,3.022600X12.192000*%
G04 #@! TD*
G04 #@! TA.AperFunction,SMDPad,CuDef*
%ADD27RoundRect,0.200000X0.200000X0.275000X-0.200000X0.275000X-0.200000X-0.275000X0.200000X-0.275000X0*%
G04 #@! TD*
G04 #@! TA.AperFunction,SMDPad,CuDef*
%ADD28RoundRect,0.250000X-0.475000X0.250000X-0.475000X-0.250000X0.475000X-0.250000X0.475000X0.250000X0*%
G04 #@! TD*
G04 #@! TA.AperFunction,SMDPad,CuDef*
%ADD29R,4.100000X2.000000*%
G04 #@! TD*
G04 #@! TA.AperFunction,SMDPad,CuDef*
%ADD30RoundRect,0.200000X-0.200000X-0.275000X0.200000X-0.275000X0.200000X0.275000X-0.200000X0.275000X0*%
G04 #@! TD*
G04 #@! TA.AperFunction,SMDPad,CuDef*
%ADD31RoundRect,0.250000X-0.325000X-0.650000X0.325000X-0.650000X0.325000X0.650000X-0.325000X0.650000X0*%
G04 #@! TD*
G04 #@! TA.AperFunction,ComponentPad*
%ADD32R,1.700000X1.700000*%
G04 #@! TD*
G04 #@! TA.AperFunction,ViaPad*
%ADD33C,0.800000*%
G04 #@! TD*
G04 #@! TA.AperFunction,Conductor*
%ADD34C,0.250000*%
G04 #@! TD*
G04 #@! TA.AperFunction,Conductor*
%ADD35C,0.500000*%
G04 #@! TD*
G04 #@! TA.AperFunction,Conductor*
%ADD36C,2.000000*%
G04 #@! TD*
G04 #@! TA.AperFunction,Conductor*
%ADD37C,1.500000*%
G04 #@! TD*
G04 #@! TA.AperFunction,Conductor*
%ADD38C,0.750000*%
G04 #@! TD*
G04 APERTURE END LIST*
G36*
X91577998Y-106908600D02*
G01*
X95413398Y-106908600D01*
X95413398Y-110896400D01*
X91577998Y-110896400D01*
X91578001Y-111061500D01*
X90866801Y-111061500D01*
X90866801Y-110553500D01*
X91578001Y-110553500D01*
X91578001Y-109791500D01*
X90866801Y-109791500D01*
X90866801Y-109283500D01*
X91578001Y-109283500D01*
X91578001Y-108521500D01*
X90866801Y-108521500D01*
X90866801Y-108013500D01*
X91578001Y-108013500D01*
X91578001Y-107251500D01*
X90866801Y-107251500D01*
X90866801Y-106743500D01*
X91578001Y-106743500D01*
X91577998Y-106908600D01*
G37*
D10*
X91577998Y-106908600D02*
X95413398Y-106908600D01*
X95413398Y-110896400D01*
X91577998Y-110896400D01*
X91578001Y-111061500D01*
X90866801Y-111061500D01*
X90866801Y-110553500D01*
X91578001Y-110553500D01*
X91578001Y-109791500D01*
X90866801Y-109791500D01*
X90866801Y-109283500D01*
X91578001Y-109283500D01*
X91578001Y-108521500D01*
X90866801Y-108521500D01*
X90866801Y-108013500D01*
X91578001Y-108013500D01*
X91578001Y-107251500D01*
X90866801Y-107251500D01*
X90866801Y-106743500D01*
X91578001Y-106743500D01*
X91577998Y-106908600D01*
G36*
X99451998Y-106914950D02*
G01*
X103287398Y-106914950D01*
X103287398Y-110902750D01*
X99451998Y-110902750D01*
X99452001Y-111067850D01*
X98740801Y-111067850D01*
X98740801Y-110559850D01*
X99452001Y-110559850D01*
X99452001Y-109797850D01*
X98740801Y-109797850D01*
X98740801Y-109289850D01*
X99452001Y-109289850D01*
X99452001Y-108527850D01*
X98740801Y-108527850D01*
X98740801Y-108019850D01*
X99452001Y-108019850D01*
X99452001Y-107257850D01*
X98740801Y-107257850D01*
X98740801Y-106749850D01*
X99452001Y-106749850D01*
X99451998Y-106914950D01*
G37*
X99451998Y-106914950D02*
X103287398Y-106914950D01*
X103287398Y-110902750D01*
X99451998Y-110902750D01*
X99452001Y-111067850D01*
X98740801Y-111067850D01*
X98740801Y-110559850D01*
X99452001Y-110559850D01*
X99452001Y-109797850D01*
X98740801Y-109797850D01*
X98740801Y-109289850D01*
X99452001Y-109289850D01*
X99452001Y-108527850D01*
X98740801Y-108527850D01*
X98740801Y-108019850D01*
X99452001Y-108019850D01*
X99452001Y-107257850D01*
X98740801Y-107257850D01*
X98740801Y-106749850D01*
X99452001Y-106749850D01*
X99451998Y-106914950D01*
D11*
X84632800Y-115870250D03*
X84632800Y-112920250D03*
D12*
X95541800Y-99466400D03*
X97091800Y-99466400D03*
D13*
X102920800Y-93967000D03*
X102920800Y-95517000D03*
D14*
X82300000Y-96125000D03*
X82300000Y-99075000D03*
D15*
X104546400Y-93890600D03*
X104546400Y-92240600D03*
D16*
X82675000Y-93000000D03*
X79725000Y-93000000D03*
D17*
X86461600Y-117833550D03*
X86461600Y-123758550D03*
D18*
X69200000Y-121300000D03*
D19*
X89100000Y-101550000D03*
X89100000Y-92850000D03*
D20*
X99339600Y-98466399D03*
X99339600Y-98966401D03*
X99339600Y-99466400D03*
X99339600Y-99966402D03*
X99339600Y-100466401D03*
D21*
X99939599Y-101066400D03*
X100439601Y-101066400D03*
X100939600Y-101066400D03*
X101439602Y-101066400D03*
X101939601Y-101066400D03*
D22*
X102539600Y-100466400D03*
X102539600Y-99966400D03*
D20*
X102539600Y-99466400D03*
X102539600Y-98966400D03*
X102539600Y-98466399D03*
D21*
X101939600Y-97866400D03*
X101439600Y-97866400D03*
X100939600Y-97866400D03*
X100439600Y-97866400D03*
X99939599Y-97866400D03*
D23*
X100939600Y-99466400D03*
D24*
X99987400Y-103530400D03*
X98437400Y-103530400D03*
D25*
X97042399Y-110807500D03*
X97042399Y-109537500D03*
X97042399Y-108267500D03*
X97042399Y-106997500D03*
X91222401Y-106997500D03*
X91222401Y-108267500D03*
X91222401Y-109537500D03*
X91222401Y-110807500D03*
D26*
X105777100Y-120900000D03*
X91222900Y-120900000D03*
D18*
X69173600Y-111398400D03*
D27*
X106133400Y-97891600D03*
X104483400Y-97891600D03*
D25*
X104916399Y-110813850D03*
X104916399Y-109543850D03*
X104916399Y-108273850D03*
X104916399Y-107003850D03*
X99096401Y-107003850D03*
X99096401Y-108273850D03*
X99096401Y-109543850D03*
X99096401Y-110813850D03*
D28*
X99466400Y-91658400D03*
X99466400Y-93558400D03*
D18*
X69200000Y-99800000D03*
D29*
X83650000Y-105600000D03*
X74950000Y-105600000D03*
D14*
X74800000Y-96125000D03*
X74800000Y-99075000D03*
D12*
X101841000Y-103530400D03*
X103391000Y-103530400D03*
D30*
X97320600Y-95148400D03*
X98970600Y-95148400D03*
D14*
X79800000Y-96125000D03*
X79800000Y-99075000D03*
D30*
X104483400Y-95453200D03*
X106133400Y-95453200D03*
D31*
X85825000Y-108200000D03*
X88775000Y-108200000D03*
D14*
X77300000Y-96100000D03*
X77300000Y-99050000D03*
D16*
X77775000Y-93000000D03*
X74825000Y-93000000D03*
D31*
X85825000Y-110700000D03*
X88775000Y-110700000D03*
D11*
X87172800Y-115870250D03*
X87172800Y-112920250D03*
D32*
X69200000Y-93000000D03*
D12*
X104533400Y-100025200D03*
X106083400Y-100025200D03*
D13*
X101295200Y-93967000D03*
X101295200Y-95517000D03*
D28*
X97332800Y-91658400D03*
X97332800Y-93558400D03*
D12*
X100926600Y-105206800D03*
X102476600Y-105206800D03*
D33*
X98958400Y-97536000D03*
X95402400Y-105444303D03*
X105562400Y-101193600D03*
X99822000Y-105206800D03*
X107696000Y-110032800D03*
X84992000Y-93622000D03*
X81432400Y-113233200D03*
X81940400Y-112369600D03*
X106172000Y-109169200D03*
X106680000Y-110032800D03*
X107188000Y-110896400D03*
X106172000Y-110947200D03*
X86516000Y-96314400D03*
X85500000Y-96263600D03*
X79908400Y-114147600D03*
X82448400Y-113233200D03*
X84484000Y-96314400D03*
X86008000Y-93571200D03*
X82956400Y-114096800D03*
X80924400Y-114096800D03*
X82956400Y-112369600D03*
X85500000Y-94536400D03*
X84484000Y-94536400D03*
X80924400Y-112369600D03*
X107188000Y-109169200D03*
X84992000Y-95400000D03*
X81940400Y-114096800D03*
X87172800Y-114096800D03*
X84023200Y-114096800D03*
X86008000Y-95400000D03*
X80416400Y-113233200D03*
X107696000Y-108204000D03*
X86156800Y-114096800D03*
X108204000Y-109169200D03*
X106680000Y-108254800D03*
X85090000Y-114096800D03*
X108204000Y-110947200D03*
X86516000Y-94536400D03*
X79908400Y-112369600D03*
X104952800Y-106019600D03*
X102870000Y-101041200D03*
X104495600Y-101193600D03*
X101803200Y-102565200D03*
X97167100Y-101400000D03*
X97891600Y-97536000D03*
X95402400Y-104444800D03*
D34*
X89357200Y-113639600D02*
X88646000Y-114350800D01*
X105562400Y-101193600D02*
X105562400Y-101054200D01*
X100924101Y-101166950D02*
X100924101Y-105204301D01*
X95867280Y-106408998D02*
X95867280Y-110990320D01*
X95402400Y-105444303D02*
X95402400Y-105944118D01*
X88290400Y-119227600D02*
X86918800Y-119227600D01*
X105562400Y-101054200D02*
X104533400Y-100025200D01*
X100924101Y-105204301D02*
X100926600Y-105206800D01*
X99339600Y-98466399D02*
X99339600Y-97917200D01*
X103428800Y-99466400D02*
X103987600Y-100025200D01*
X99822000Y-105206800D02*
X100926600Y-105206800D01*
X88646000Y-114350800D02*
X88646000Y-118872000D01*
X102624651Y-99466400D02*
X103428800Y-99466400D01*
X88646000Y-118872000D02*
X88290400Y-119227600D01*
X86461600Y-118770400D02*
X86461600Y-117833550D01*
X95402400Y-105944118D02*
X95867280Y-106408998D01*
X86918800Y-119227600D02*
X86461600Y-118770400D01*
X93218000Y-113639600D02*
X89357200Y-113639600D01*
X103987600Y-100025200D02*
X104533400Y-100025200D01*
X99339600Y-97917200D02*
X98958400Y-97536000D01*
X95867280Y-110990320D02*
X93218000Y-113639600D01*
X101915089Y-101041888D02*
X101915089Y-100441889D01*
X102920800Y-102362000D02*
X103391000Y-102832200D01*
X101924102Y-101166950D02*
X101924102Y-101517702D01*
X102539600Y-98966400D02*
X105733600Y-98966400D01*
X99982080Y-94942264D02*
X100957344Y-93967000D01*
X100957344Y-93967000D02*
X101295200Y-93967000D01*
D35*
X92050000Y-92850000D02*
X89100000Y-92850000D01*
D34*
X99982080Y-96350597D02*
X99982080Y-94942264D01*
X100424102Y-98966401D02*
X100924101Y-99466400D01*
D35*
X95541800Y-99466400D02*
X95541800Y-96341800D01*
D34*
X101924102Y-101517702D02*
X102768400Y-102362000D01*
X106133400Y-98566600D02*
X106133400Y-97891600D01*
X100439600Y-96808118D02*
X99982080Y-96350597D01*
X101915089Y-100441889D02*
X100939600Y-99466400D01*
X100439600Y-97866400D02*
X100439600Y-96808118D01*
X102768400Y-102362000D02*
X102920800Y-102362000D01*
X100424102Y-97765850D02*
X100424102Y-98966401D01*
D35*
X95541800Y-96341800D02*
X92050000Y-92850000D01*
D34*
X101939601Y-101066400D02*
X101915089Y-101041888D01*
X105733600Y-98966400D02*
X106133400Y-98566600D01*
X103391000Y-102832200D02*
X103391000Y-103530400D01*
D35*
X97320600Y-95148400D02*
X97320600Y-94551000D01*
X97637600Y-94234000D02*
X97637600Y-93507600D01*
X97320600Y-94551000D02*
X97637600Y-94234000D01*
D36*
X91222401Y-106997500D02*
X91222401Y-110807500D01*
X93103700Y-109537500D02*
X91222401Y-109537500D01*
D35*
X75200000Y-94600000D02*
X74825000Y-94225000D01*
D36*
X91222401Y-106997500D02*
X93941900Y-106997500D01*
D35*
X69200000Y-97200000D02*
X69200000Y-99800000D01*
D36*
X93941900Y-106997500D02*
X94284800Y-107340400D01*
X94284800Y-107340400D02*
X94284800Y-108356400D01*
D35*
X79400000Y-94600000D02*
X75200000Y-94600000D01*
D36*
X94284800Y-108356400D02*
X93103700Y-109537500D01*
D35*
X95650000Y-101550000D02*
X89100000Y-101550000D01*
D36*
X91222401Y-110807500D02*
X93592500Y-110807500D01*
X94284800Y-110115200D02*
X94284800Y-107340400D01*
D35*
X74825000Y-93000000D02*
X73400000Y-93000000D01*
X79725000Y-93000000D02*
X79725000Y-94275000D01*
D34*
X99223551Y-99466400D02*
X97091800Y-99466400D01*
D35*
X97091800Y-99466400D02*
X97091800Y-100108200D01*
X97091800Y-100108200D02*
X95650000Y-101550000D01*
X73400000Y-93000000D02*
X69200000Y-97200000D01*
X79725000Y-94275000D02*
X79400000Y-94600000D01*
X74825000Y-94225000D02*
X74825000Y-93000000D01*
D36*
X93592500Y-110807500D02*
X94284800Y-110115200D01*
D37*
X99669600Y-111506000D02*
X102819200Y-111506000D01*
D38*
X98437400Y-103530400D02*
X98437400Y-105447800D01*
D37*
X99096401Y-110813850D02*
X99096401Y-110932801D01*
D34*
X99009200Y-102260400D02*
X98437400Y-102832200D01*
D37*
X105575100Y-114261900D02*
X105575100Y-120440450D01*
D34*
X99924100Y-101166950D02*
X99924100Y-101853500D01*
D37*
X102819200Y-111506000D02*
X105575100Y-114261900D01*
X99096401Y-110932801D02*
X99669600Y-111506000D01*
D38*
X99096401Y-106106801D02*
X99096401Y-107003850D01*
D37*
X99096401Y-107003850D02*
X99096401Y-110813850D01*
D34*
X98437400Y-102832200D02*
X98437400Y-103530400D01*
X99517200Y-102260400D02*
X99009200Y-102260400D01*
D38*
X98437400Y-105447800D02*
X99096401Y-106106801D01*
D34*
X99924100Y-101853500D02*
X99517200Y-102260400D01*
X98970600Y-95148400D02*
X98970600Y-94054200D01*
X99924100Y-97079300D02*
X98958400Y-96113600D01*
X98970600Y-94054200D02*
X99466400Y-93558400D01*
X99924100Y-97765850D02*
X99924100Y-97079300D01*
X98958400Y-96113600D02*
X98958400Y-95160600D01*
X98958400Y-95160600D02*
X98970600Y-95148400D01*
X101424103Y-101166950D02*
X101424103Y-102186103D01*
X101841000Y-102603000D02*
X101841000Y-103530400D01*
X101424103Y-102186103D02*
X101841000Y-102603000D01*
X104449662Y-101193600D02*
X103222462Y-99966400D01*
X103222462Y-99966400D02*
X102539600Y-99966400D01*
X104495600Y-101193600D02*
X104449662Y-101193600D01*
X102920800Y-95517000D02*
X104419600Y-95517000D01*
X101924102Y-97161098D02*
X102920800Y-96164400D01*
X102920800Y-96164400D02*
X102920800Y-95517000D01*
X101924102Y-97765850D02*
X101924102Y-97161098D01*
X104419600Y-95517000D02*
X104483400Y-95453200D01*
X104558600Y-93878400D02*
X104546400Y-93890600D01*
X105410000Y-93878400D02*
X104558600Y-93878400D01*
X100431600Y-96164400D02*
X100431600Y-95128462D01*
X100818542Y-94741520D02*
X103695480Y-94741520D01*
X103695480Y-94741520D02*
X104546400Y-93890600D01*
X100431600Y-95128462D02*
X100818542Y-94741520D01*
X100924101Y-97765850D02*
X100924101Y-96656901D01*
X106133400Y-95453200D02*
X106133400Y-94601800D01*
X100924101Y-96656901D02*
X100431600Y-96164400D01*
X106133400Y-94601800D02*
X105410000Y-93878400D01*
X100424102Y-102318698D02*
X99987400Y-102755400D01*
X99987400Y-102755400D02*
X99987400Y-103530400D01*
X100424102Y-101166950D02*
X100424102Y-102318698D01*
X101295200Y-96367600D02*
X101295200Y-95517000D01*
X101424103Y-96496503D02*
X101295200Y-96367600D01*
X101424103Y-97765850D02*
X101424103Y-96496503D01*
X97167100Y-101400000D02*
X97200000Y-101400000D01*
X97200000Y-101400000D02*
X98633598Y-99966402D01*
X98633598Y-99966402D02*
X99223551Y-99966402D01*
X103835200Y-97891600D02*
X104483400Y-97891600D01*
X102624651Y-98466399D02*
X103260401Y-98466399D01*
X103260401Y-98466399D02*
X103835200Y-97891600D01*
X98610801Y-98966401D02*
X97891600Y-98247200D01*
X96012000Y-104444800D02*
X96316800Y-104749600D01*
X89095520Y-119286080D02*
X86461600Y-121920000D01*
X93396517Y-114096800D02*
X89560400Y-114096800D01*
X99339600Y-98966401D02*
X98610801Y-98966401D01*
X95402400Y-104444800D02*
X96012000Y-104444800D01*
X89560400Y-114096800D02*
X89095520Y-114561680D01*
X97891600Y-98247200D02*
X97891600Y-97536000D01*
X86461600Y-121920000D02*
X86461600Y-123758550D01*
X89095520Y-114561680D02*
X89095520Y-119286080D01*
X96316800Y-111176517D02*
X93396517Y-114096800D01*
X96316800Y-104749600D02*
X96316800Y-111176517D01*
G04 #@! TA.AperFunction,Conductor*
G36*
X105352121Y-105582402D02*
G01*
X105398614Y-105636058D01*
X105410000Y-105688400D01*
X105410000Y-107214400D01*
X105389998Y-107282521D01*
X105336342Y-107329014D01*
X105284000Y-107340400D01*
X104621600Y-107340400D01*
X104553479Y-107320398D01*
X104506986Y-107266742D01*
X104495600Y-107214400D01*
X104495600Y-105688400D01*
X104515602Y-105620279D01*
X104569258Y-105573786D01*
X104621600Y-105562400D01*
X105284000Y-105562400D01*
X105352121Y-105582402D01*
G37*
G04 #@! TD.AperFunction*
G04 #@! TA.AperFunction,Conductor*
G36*
X108653621Y-102585202D02*
G01*
X108700114Y-102638858D01*
X108711500Y-102691200D01*
X108711500Y-111380000D01*
X108691498Y-111448121D01*
X108637842Y-111494614D01*
X108585500Y-111506000D01*
X104418400Y-111506000D01*
X104350279Y-111485998D01*
X104303786Y-111432342D01*
X104292400Y-111380000D01*
X104292400Y-107720400D01*
X104312402Y-107652279D01*
X104366058Y-107605786D01*
X104418400Y-107594400D01*
X105816400Y-107594400D01*
X105816400Y-105308400D01*
X104089200Y-105308400D01*
X104089200Y-105995200D01*
X104069198Y-106063321D01*
X104015542Y-106109814D01*
X103963200Y-106121200D01*
X101827600Y-106121200D01*
X101759479Y-106101198D01*
X101712986Y-106047542D01*
X101701600Y-105995200D01*
X101701600Y-104469200D01*
X101721602Y-104401079D01*
X101775258Y-104354586D01*
X101827600Y-104343200D01*
X102666800Y-104343200D01*
X102666800Y-102691200D01*
X102686802Y-102623079D01*
X102740458Y-102576586D01*
X102792800Y-102565200D01*
X108585500Y-102565200D01*
X108653621Y-102585202D01*
G37*
G04 #@! TD.AperFunction*
G04 #@! TA.AperFunction,Conductor*
G36*
X77342121Y-104420002D02*
G01*
X77388614Y-104473658D01*
X77400000Y-104526000D01*
X77400000Y-107400000D01*
X86474000Y-107400000D01*
X86542121Y-107420002D01*
X86588614Y-107473658D01*
X86600000Y-107526000D01*
X86600000Y-112200000D01*
X87874000Y-112200000D01*
X87942121Y-112220002D01*
X87988614Y-112273658D01*
X88000000Y-112326000D01*
X88000000Y-114474000D01*
X87979998Y-114542121D01*
X87926342Y-114588614D01*
X87874000Y-114600000D01*
X62102500Y-114600000D01*
X62034379Y-114579998D01*
X61987886Y-114526342D01*
X61976500Y-114474000D01*
X61976500Y-104526000D01*
X61996502Y-104457879D01*
X62050158Y-104411386D01*
X62102500Y-104400000D01*
X77274000Y-104400000D01*
X77342121Y-104420002D01*
G37*
G04 #@! TD.AperFunction*
G04 #@! TA.AperFunction,Conductor*
G36*
X72942121Y-95420002D02*
G01*
X72988614Y-95473658D01*
X73000000Y-95526000D01*
X73000000Y-97600000D01*
X94073390Y-97600000D01*
X94141511Y-97620002D01*
X94188004Y-97673658D01*
X94199389Y-97726608D01*
X94157128Y-106478708D01*
X94136797Y-106546732D01*
X94082917Y-106592965D01*
X94031129Y-106604100D01*
X91921050Y-106604100D01*
X91852929Y-106584098D01*
X91827388Y-106560227D01*
X91826693Y-106558805D01*
X91818163Y-106550892D01*
X91816007Y-106547989D01*
X91813590Y-106545324D01*
X91807487Y-106535422D01*
X91779086Y-106513825D01*
X91769672Y-106505911D01*
X91752058Y-106489572D01*
X91743529Y-106481660D01*
X91732725Y-106477350D01*
X91729672Y-106475420D01*
X91726449Y-106473799D01*
X91717193Y-106466760D01*
X91706021Y-106463524D01*
X91706018Y-106463523D01*
X91682930Y-106456836D01*
X91671293Y-106452840D01*
X91646435Y-106442923D01*
X91646433Y-106442922D01*
X91638170Y-106439626D01*
X91631786Y-106439000D01*
X91628709Y-106439000D01*
X91625635Y-106438850D01*
X91625641Y-106438724D01*
X91619319Y-106438415D01*
X91608236Y-106435205D01*
X91596650Y-106436208D01*
X91596648Y-106436208D01*
X91569833Y-106438530D01*
X91558964Y-106439000D01*
X90920076Y-106439000D01*
X90908120Y-106438416D01*
X90897030Y-106435204D01*
X90885437Y-106436208D01*
X90858628Y-106438530D01*
X90847756Y-106439000D01*
X90838483Y-106439000D01*
X90831747Y-106440255D01*
X90819550Y-106441915D01*
X90807907Y-106442923D01*
X90795608Y-106443988D01*
X90795607Y-106443988D01*
X90784017Y-106444992D01*
X90773563Y-106450102D01*
X90770087Y-106451066D01*
X90766720Y-106452365D01*
X90755283Y-106454495D01*
X90745382Y-106460598D01*
X90745379Y-106460599D01*
X90724923Y-106473208D01*
X90714143Y-106479147D01*
X90692817Y-106489572D01*
X90682106Y-106494808D01*
X90674194Y-106503338D01*
X90671295Y-106505491D01*
X90668624Y-106507913D01*
X90658719Y-106514018D01*
X90651677Y-106523279D01*
X90637135Y-106542403D01*
X90629213Y-106551827D01*
X90612873Y-106569441D01*
X90612870Y-106569446D01*
X90604961Y-106577972D01*
X90600650Y-106588778D01*
X90598718Y-106591834D01*
X90597099Y-106595053D01*
X90590058Y-106604313D01*
X90586822Y-106615486D01*
X90586821Y-106615489D01*
X90580136Y-106638572D01*
X90576139Y-106650214D01*
X90568419Y-106669566D01*
X90562927Y-106683331D01*
X90562301Y-106689715D01*
X90562301Y-106692803D01*
X90562151Y-106695866D01*
X90562026Y-106695860D01*
X90561717Y-106702181D01*
X90558505Y-106713271D01*
X90559509Y-106724864D01*
X90561831Y-106751673D01*
X90562301Y-106762545D01*
X90562301Y-107198225D01*
X90561717Y-107210181D01*
X90558505Y-107221271D01*
X90559509Y-107232864D01*
X90561831Y-107259673D01*
X90562301Y-107270545D01*
X90562301Y-107279818D01*
X90563363Y-107285518D01*
X90563555Y-107286550D01*
X90565216Y-107298751D01*
X90568293Y-107334284D01*
X90573403Y-107344738D01*
X90574367Y-107348214D01*
X90575666Y-107351581D01*
X90577796Y-107363018D01*
X90583899Y-107372919D01*
X90583900Y-107372922D01*
X90596509Y-107393378D01*
X90602448Y-107404158D01*
X90618109Y-107436195D01*
X90626639Y-107444107D01*
X90628792Y-107447006D01*
X90631214Y-107449677D01*
X90637319Y-107459582D01*
X90646580Y-107466624D01*
X90665704Y-107481166D01*
X90675128Y-107489088D01*
X90692742Y-107505428D01*
X90692747Y-107505431D01*
X90701273Y-107513340D01*
X90712077Y-107517651D01*
X90715139Y-107519586D01*
X90718359Y-107521205D01*
X90719180Y-107521830D01*
X90720233Y-107522814D01*
X90720332Y-107522870D01*
X90721611Y-107523679D01*
X90721887Y-107523888D01*
X90721769Y-107524074D01*
X90725952Y-107526979D01*
X90727627Y-107528253D01*
X90726973Y-107529113D01*
X90770559Y-107569850D01*
X90787984Y-107638675D01*
X90765433Y-107705995D01*
X90728199Y-107741189D01*
X90724934Y-107743202D01*
X90714143Y-107749147D01*
X90682106Y-107764808D01*
X90674194Y-107773338D01*
X90671295Y-107775491D01*
X90668624Y-107777913D01*
X90658719Y-107784018D01*
X90651677Y-107793279D01*
X90637135Y-107812403D01*
X90629213Y-107821827D01*
X90612873Y-107839441D01*
X90612870Y-107839446D01*
X90604961Y-107847972D01*
X90600650Y-107858778D01*
X90598718Y-107861834D01*
X90597099Y-107865053D01*
X90590058Y-107874313D01*
X90586822Y-107885486D01*
X90586821Y-107885489D01*
X90580136Y-107908572D01*
X90576139Y-107920214D01*
X90568419Y-107939566D01*
X90562927Y-107953331D01*
X90562301Y-107959715D01*
X90562301Y-107962803D01*
X90562151Y-107965866D01*
X90562026Y-107965860D01*
X90561717Y-107972181D01*
X90558505Y-107983271D01*
X90559509Y-107994864D01*
X90561831Y-108021673D01*
X90562301Y-108032545D01*
X90562301Y-108468225D01*
X90561717Y-108480181D01*
X90558505Y-108491271D01*
X90559509Y-108502864D01*
X90561831Y-108529673D01*
X90562301Y-108540545D01*
X90562301Y-108549818D01*
X90563363Y-108555518D01*
X90563555Y-108556550D01*
X90565216Y-108568751D01*
X90568293Y-108604284D01*
X90573403Y-108614738D01*
X90574367Y-108618214D01*
X90575666Y-108621581D01*
X90577796Y-108633018D01*
X90583899Y-108642919D01*
X90583900Y-108642922D01*
X90596509Y-108663378D01*
X90602448Y-108674158D01*
X90618109Y-108706195D01*
X90626639Y-108714107D01*
X90628792Y-108717006D01*
X90631214Y-108719677D01*
X90637319Y-108729582D01*
X90646580Y-108736624D01*
X90665704Y-108751166D01*
X90675128Y-108759088D01*
X90692742Y-108775428D01*
X90692747Y-108775431D01*
X90701273Y-108783340D01*
X90712077Y-108787651D01*
X90715139Y-108789586D01*
X90718359Y-108791205D01*
X90719180Y-108791830D01*
X90720233Y-108792814D01*
X90720332Y-108792870D01*
X90721611Y-108793679D01*
X90721887Y-108793888D01*
X90721769Y-108794074D01*
X90725952Y-108796979D01*
X90727627Y-108798253D01*
X90726973Y-108799113D01*
X90770559Y-108839850D01*
X90787984Y-108908675D01*
X90765433Y-108975995D01*
X90728199Y-109011189D01*
X90724934Y-109013202D01*
X90714143Y-109019147D01*
X90682106Y-109034808D01*
X90674194Y-109043338D01*
X90671295Y-109045491D01*
X90668624Y-109047913D01*
X90658719Y-109054018D01*
X90651677Y-109063279D01*
X90637135Y-109082403D01*
X90629213Y-109091827D01*
X90612873Y-109109441D01*
X90612870Y-109109446D01*
X90604961Y-109117972D01*
X90600650Y-109128778D01*
X90598718Y-109131834D01*
X90597099Y-109135053D01*
X90590058Y-109144313D01*
X90586822Y-109155486D01*
X90586821Y-109155489D01*
X90580136Y-109178572D01*
X90576139Y-109190214D01*
X90568419Y-109209566D01*
X90562927Y-109223331D01*
X90562301Y-109229715D01*
X90562301Y-109232803D01*
X90562151Y-109235866D01*
X90562026Y-109235860D01*
X90561717Y-109242181D01*
X90558505Y-109253271D01*
X90559509Y-109264864D01*
X90561831Y-109291673D01*
X90562301Y-109302545D01*
X90562301Y-109738225D01*
X90561717Y-109750181D01*
X90558505Y-109761271D01*
X90559509Y-109772864D01*
X90561831Y-109799673D01*
X90562301Y-109810545D01*
X90562301Y-109819818D01*
X90563363Y-109825518D01*
X90563555Y-109826550D01*
X90565216Y-109838751D01*
X90568293Y-109874284D01*
X90573403Y-109884738D01*
X90574367Y-109888214D01*
X90575666Y-109891581D01*
X90577796Y-109903018D01*
X90583899Y-109912919D01*
X90583900Y-109912922D01*
X90596509Y-109933378D01*
X90602448Y-109944158D01*
X90618109Y-109976195D01*
X90626639Y-109984107D01*
X90628792Y-109987006D01*
X90631214Y-109989677D01*
X90637319Y-109999582D01*
X90646580Y-110006624D01*
X90665704Y-110021166D01*
X90675128Y-110029088D01*
X90692742Y-110045428D01*
X90692747Y-110045431D01*
X90701273Y-110053340D01*
X90712077Y-110057651D01*
X90715139Y-110059586D01*
X90718359Y-110061205D01*
X90719180Y-110061830D01*
X90720233Y-110062814D01*
X90720332Y-110062870D01*
X90721611Y-110063679D01*
X90721887Y-110063888D01*
X90721769Y-110064074D01*
X90725952Y-110066979D01*
X90727627Y-110068253D01*
X90726973Y-110069113D01*
X90770559Y-110109850D01*
X90787984Y-110178675D01*
X90765433Y-110245995D01*
X90728199Y-110281189D01*
X90724934Y-110283202D01*
X90714143Y-110289147D01*
X90682106Y-110304808D01*
X90674194Y-110313338D01*
X90671295Y-110315491D01*
X90668624Y-110317913D01*
X90658719Y-110324018D01*
X90651677Y-110333279D01*
X90637135Y-110352403D01*
X90629213Y-110361827D01*
X90612873Y-110379441D01*
X90612870Y-110379446D01*
X90604961Y-110387972D01*
X90600650Y-110398778D01*
X90598718Y-110401834D01*
X90597099Y-110405053D01*
X90590058Y-110414313D01*
X90586822Y-110425486D01*
X90586821Y-110425489D01*
X90580136Y-110448572D01*
X90576139Y-110460214D01*
X90568419Y-110479566D01*
X90562927Y-110493331D01*
X90562301Y-110499715D01*
X90562301Y-110502803D01*
X90562151Y-110505866D01*
X90562026Y-110505860D01*
X90561717Y-110512181D01*
X90558505Y-110523271D01*
X90559509Y-110534864D01*
X90561831Y-110561673D01*
X90562301Y-110572545D01*
X90562301Y-111008225D01*
X90561717Y-111020181D01*
X90558505Y-111031271D01*
X90559509Y-111042864D01*
X90561831Y-111069673D01*
X90562301Y-111080545D01*
X90562301Y-111089818D01*
X90563363Y-111095518D01*
X90563555Y-111096550D01*
X90565216Y-111108751D01*
X90568293Y-111144284D01*
X90573403Y-111154738D01*
X90574367Y-111158214D01*
X90575666Y-111161581D01*
X90577796Y-111173018D01*
X90583899Y-111182919D01*
X90583900Y-111182922D01*
X90596509Y-111203378D01*
X90602448Y-111214158D01*
X90608737Y-111227023D01*
X90618109Y-111246195D01*
X90626639Y-111254107D01*
X90628792Y-111257006D01*
X90631214Y-111259677D01*
X90637319Y-111269582D01*
X90646580Y-111276624D01*
X90665704Y-111291166D01*
X90675128Y-111299088D01*
X90692742Y-111315428D01*
X90692747Y-111315431D01*
X90701273Y-111323340D01*
X90712079Y-111327651D01*
X90715135Y-111329583D01*
X90718354Y-111331202D01*
X90727614Y-111338243D01*
X90738787Y-111341479D01*
X90738790Y-111341480D01*
X90761873Y-111348165D01*
X90773516Y-111352162D01*
X90785567Y-111356970D01*
X90841426Y-111400792D01*
X90864726Y-111467856D01*
X90848069Y-111536871D01*
X90796745Y-111585925D01*
X90738876Y-111600000D01*
X88126000Y-111600000D01*
X88057879Y-111579998D01*
X88011386Y-111526342D01*
X88000000Y-111474000D01*
X88000000Y-106600000D01*
X81126000Y-106600000D01*
X81057879Y-106579998D01*
X81011386Y-106526342D01*
X81000000Y-106474000D01*
X81000000Y-103800000D01*
X62102500Y-103800000D01*
X62034379Y-103779998D01*
X61987886Y-103726342D01*
X61976500Y-103674000D01*
X61976500Y-95526000D01*
X61996502Y-95457879D01*
X62050158Y-95411386D01*
X62102500Y-95400000D01*
X72874000Y-95400000D01*
X72942121Y-95420002D01*
G37*
G04 #@! TD.AperFunction*
G04 #@! TA.AperFunction,Conductor*
G36*
X94075838Y-111220902D02*
G01*
X94122331Y-111274558D01*
X94133716Y-111327508D01*
X94133573Y-111357006D01*
X94133005Y-111474609D01*
X94112673Y-111542632D01*
X94058794Y-111588865D01*
X94007006Y-111600000D01*
X91713562Y-111600000D01*
X91645441Y-111579998D01*
X91598948Y-111526342D01*
X91588844Y-111456068D01*
X91618338Y-111391488D01*
X91661392Y-111361252D01*
X91660784Y-111360009D01*
X91662672Y-111359086D01*
X91667437Y-111357006D01*
X91668269Y-111356422D01*
X91669040Y-111356125D01*
X91670755Y-111355558D01*
X91672650Y-111354731D01*
X91678081Y-111352635D01*
X91689519Y-111350505D01*
X91719884Y-111331788D01*
X91730652Y-111325857D01*
X91752247Y-111315300D01*
X91752250Y-111315298D01*
X91762701Y-111310189D01*
X91770611Y-111301662D01*
X91773505Y-111299512D01*
X91776181Y-111297086D01*
X91786083Y-111290982D01*
X91793123Y-111281724D01*
X91793125Y-111281722D01*
X91807672Y-111262591D01*
X91815582Y-111253180D01*
X91826684Y-111241211D01*
X91887673Y-111204872D01*
X91919060Y-111200900D01*
X94007717Y-111200900D01*
X94075838Y-111220902D01*
G37*
G04 #@! TD.AperFunction*
G04 #@! TA.AperFunction,Conductor*
G36*
X88080121Y-115132802D02*
G01*
X88126614Y-115186458D01*
X88138000Y-115238800D01*
X88138000Y-118694610D01*
X88117998Y-118762731D01*
X88064342Y-118809224D01*
X88011413Y-118820609D01*
X83600000Y-118800000D01*
X83600000Y-129667500D01*
X83579998Y-129735621D01*
X83526342Y-129782114D01*
X83474000Y-129793500D01*
X62102500Y-129793500D01*
X62034379Y-129773498D01*
X61987886Y-129719842D01*
X61976500Y-129667500D01*
X61976500Y-115324784D01*
X61996502Y-115256663D01*
X62050158Y-115210170D01*
X62101993Y-115198785D01*
X83464152Y-115112801D01*
X83464659Y-115112800D01*
X88012000Y-115112800D01*
X88080121Y-115132802D01*
G37*
G04 #@! TD.AperFunction*
G04 #@! TA.AperFunction,Conductor*
G36*
X99510121Y-100350002D02*
G01*
X99556614Y-100403658D01*
X99568000Y-100456000D01*
X99568000Y-101191167D01*
X99547998Y-101259288D01*
X99529833Y-101281507D01*
X97739200Y-103022400D01*
X97739080Y-103032996D01*
X97689816Y-107368232D01*
X97669041Y-107436121D01*
X97614861Y-107482001D01*
X97563824Y-107492800D01*
X96798400Y-107492800D01*
X96730279Y-107472798D01*
X96683786Y-107419142D01*
X96672400Y-107366800D01*
X96672400Y-103272943D01*
X96692402Y-103204822D01*
X96703575Y-103189971D01*
X96840929Y-103032996D01*
X97736449Y-102009544D01*
X97742179Y-102003421D01*
X98501200Y-101244400D01*
X98501200Y-100611316D01*
X98521202Y-100543195D01*
X98538105Y-100522221D01*
X98693421Y-100366905D01*
X98755733Y-100332879D01*
X98782516Y-100330000D01*
X99442000Y-100330000D01*
X99510121Y-100350002D01*
G37*
G04 #@! TD.AperFunction*
G04 #@! TA.AperFunction,Conductor*
G36*
X102983138Y-100400802D02*
G01*
X103009191Y-100423090D01*
X103346174Y-100802196D01*
X103376481Y-100866399D01*
X103378000Y-100885906D01*
X103378000Y-101372400D01*
X103357998Y-101440521D01*
X103304342Y-101487014D01*
X103252000Y-101498400D01*
X102603547Y-101498400D01*
X102535426Y-101478398D01*
X102488933Y-101424742D01*
X102484730Y-101414335D01*
X102267284Y-100798238D01*
X102260101Y-100756303D01*
X102260101Y-100746652D01*
X102248468Y-100688169D01*
X102247943Y-100687384D01*
X102240589Y-100650411D01*
X102240589Y-100506800D01*
X102260591Y-100438679D01*
X102314247Y-100392186D01*
X102366589Y-100380800D01*
X102915017Y-100380800D01*
X102983138Y-100400802D01*
G37*
G04 #@! TD.AperFunction*
G04 #@! TA.AperFunction,Conductor*
G36*
X93515721Y-114574002D02*
G01*
X93562214Y-114627658D01*
X93573600Y-114680000D01*
X93573600Y-127382000D01*
X93553598Y-127450121D01*
X93499942Y-127496614D01*
X93447600Y-127508000D01*
X84606400Y-127508000D01*
X84538279Y-127487998D01*
X84491786Y-127434342D01*
X84480400Y-127382000D01*
X84480400Y-122858800D01*
X84500402Y-122790679D01*
X84554058Y-122744186D01*
X84606400Y-122732800D01*
X89611200Y-122732800D01*
X89611200Y-114680000D01*
X89631202Y-114611879D01*
X89684858Y-114565386D01*
X89737200Y-114554000D01*
X93447600Y-114554000D01*
X93515721Y-114574002D01*
G37*
G04 #@! TD.AperFunction*
G04 #@! TA.AperFunction,Conductor*
G36*
X98459620Y-107766802D02*
G01*
X98506113Y-107820458D01*
X98516217Y-107890732D01*
X98509540Y-107915069D01*
X98504835Y-107922110D01*
X98502415Y-107934277D01*
X98502414Y-107934279D01*
X98489321Y-108000102D01*
X98485393Y-108019850D01*
X98487814Y-108032021D01*
X98487814Y-108032022D01*
X98487880Y-108032354D01*
X98490301Y-108056935D01*
X98490301Y-108490765D01*
X98487880Y-108515346D01*
X98485393Y-108527850D01*
X98490301Y-108552524D01*
X98504835Y-108625590D01*
X98560200Y-108708451D01*
X98643061Y-108763816D01*
X98740801Y-108783258D01*
X98752972Y-108780837D01*
X98752973Y-108780837D01*
X98753305Y-108780771D01*
X98777886Y-108778350D01*
X98948107Y-108778350D01*
X99016228Y-108798352D01*
X99062721Y-108852008D01*
X99074098Y-108902809D01*
X99074207Y-108911812D01*
X99055040Y-108980170D01*
X99001956Y-109027315D01*
X98948217Y-109039350D01*
X98777886Y-109039350D01*
X98753305Y-109036929D01*
X98752973Y-109036863D01*
X98752972Y-109036863D01*
X98740801Y-109034442D01*
X98716127Y-109039350D01*
X98643061Y-109053884D01*
X98560200Y-109109249D01*
X98504835Y-109192110D01*
X98485393Y-109289850D01*
X98487814Y-109302021D01*
X98487814Y-109302022D01*
X98487880Y-109302354D01*
X98490301Y-109326935D01*
X98490301Y-109760765D01*
X98487880Y-109785346D01*
X98485393Y-109797850D01*
X98490301Y-109822524D01*
X98504835Y-109895590D01*
X98560200Y-109978451D01*
X98643061Y-110033816D01*
X98740801Y-110053258D01*
X98752972Y-110050837D01*
X98752973Y-110050837D01*
X98753305Y-110050771D01*
X98777886Y-110048350D01*
X98963595Y-110048350D01*
X99031716Y-110068352D01*
X99078209Y-110122008D01*
X99089585Y-110172808D01*
X99089695Y-110181813D01*
X99070528Y-110250170D01*
X99017444Y-110297315D01*
X98963705Y-110309350D01*
X98777886Y-110309350D01*
X98753305Y-110306929D01*
X98752973Y-110306863D01*
X98752972Y-110306863D01*
X98740801Y-110304442D01*
X98716127Y-110309350D01*
X98643061Y-110323884D01*
X98560200Y-110379249D01*
X98553308Y-110389564D01*
X98531192Y-110422664D01*
X98504835Y-110462110D01*
X98494654Y-110513295D01*
X98485393Y-110559850D01*
X98487814Y-110572021D01*
X98487814Y-110572022D01*
X98487880Y-110572354D01*
X98490301Y-110596935D01*
X98490301Y-111030765D01*
X98487880Y-111055346D01*
X98485393Y-111067850D01*
X98504835Y-111165590D01*
X98560200Y-111248451D01*
X98643061Y-111303816D01*
X98705324Y-111316201D01*
X98740801Y-111323258D01*
X98752972Y-111320837D01*
X98752973Y-111320837D01*
X98753305Y-111320771D01*
X98777886Y-111318350D01*
X98979082Y-111318350D01*
X99047203Y-111338352D01*
X99093696Y-111392008D01*
X99105073Y-111442813D01*
X99110800Y-111912400D01*
X107468400Y-111912400D01*
X107536521Y-111932402D01*
X107583014Y-111986058D01*
X107594400Y-112038400D01*
X107594400Y-127534400D01*
X107574398Y-127602521D01*
X107520742Y-127649014D01*
X107468400Y-127660400D01*
X102996000Y-127660400D01*
X102927879Y-127640398D01*
X102881386Y-127586742D01*
X102870000Y-127534400D01*
X102870000Y-113385600D01*
X96798400Y-113385600D01*
X96730279Y-113365598D01*
X96683786Y-113311942D01*
X96672400Y-113259600D01*
X96672400Y-107872800D01*
X96692402Y-107804679D01*
X96746058Y-107758186D01*
X96798400Y-107746800D01*
X98391499Y-107746800D01*
X98459620Y-107766802D01*
G37*
G04 #@! TD.AperFunction*
G04 #@! TA.AperFunction,Conductor*
G36*
X94142121Y-90698502D02*
G01*
X94188614Y-90752158D01*
X94200000Y-90804500D01*
X94200000Y-96874000D01*
X94179998Y-96942121D01*
X94126342Y-96988614D01*
X94074000Y-97000000D01*
X73726000Y-97000000D01*
X73657879Y-96979998D01*
X73611386Y-96926342D01*
X73600000Y-96874000D01*
X73600000Y-94800000D01*
X72617661Y-94800000D01*
X72549540Y-94779998D01*
X72503047Y-94726342D01*
X72492943Y-94656068D01*
X72522437Y-94591488D01*
X72528566Y-94584905D01*
X73572066Y-93541405D01*
X73634378Y-93507379D01*
X73661161Y-93504500D01*
X73869500Y-93504500D01*
X73937621Y-93524502D01*
X73984114Y-93578158D01*
X73995500Y-93630500D01*
X73995500Y-93697756D01*
X74002202Y-93759448D01*
X74052929Y-93894764D01*
X74058309Y-93901943D01*
X74058311Y-93901946D01*
X74101537Y-93959622D01*
X74139596Y-94010404D01*
X74255236Y-94097071D01*
X74255561Y-94097193D01*
X74302641Y-94144378D01*
X74317743Y-94196838D01*
X74320258Y-94237383D01*
X74320500Y-94245184D01*
X74320500Y-94261226D01*
X74321135Y-94265657D01*
X74321135Y-94265662D01*
X74321965Y-94271453D01*
X74322997Y-94281523D01*
X74325328Y-94319101D01*
X74325902Y-94328359D01*
X74328949Y-94336799D01*
X74329630Y-94340089D01*
X74333582Y-94355938D01*
X74334527Y-94359168D01*
X74335799Y-94368052D01*
X74339514Y-94376223D01*
X74355218Y-94410763D01*
X74359030Y-94420128D01*
X74371922Y-94455837D01*
X74371924Y-94455840D01*
X74374972Y-94464284D01*
X74380268Y-94471533D01*
X74381840Y-94474490D01*
X74390093Y-94488614D01*
X74391898Y-94491437D01*
X74395612Y-94499605D01*
X74401469Y-94506402D01*
X74401470Y-94506404D01*
X74426243Y-94535153D01*
X74432525Y-94543064D01*
X74440473Y-94553944D01*
X74451335Y-94564806D01*
X74457693Y-94571652D01*
X74489944Y-94609082D01*
X74497479Y-94613966D01*
X74504051Y-94619699D01*
X74515455Y-94628926D01*
X74793323Y-94906794D01*
X74800865Y-94916234D01*
X74801245Y-94915911D01*
X74807063Y-94922747D01*
X74811853Y-94930339D01*
X74818581Y-94936281D01*
X74851859Y-94965671D01*
X74857546Y-94971017D01*
X74868880Y-94982351D01*
X74872463Y-94985036D01*
X74872465Y-94985038D01*
X74877155Y-94988553D01*
X74884998Y-94994938D01*
X74920170Y-95026001D01*
X74928292Y-95029814D01*
X74931093Y-95031654D01*
X74945088Y-95040063D01*
X74948051Y-95041685D01*
X74955236Y-95047070D01*
X74963646Y-95050223D01*
X74963648Y-95050224D01*
X74999182Y-95063546D01*
X75008495Y-95067470D01*
X75050982Y-95087417D01*
X75059856Y-95088799D01*
X75063083Y-95089785D01*
X75078866Y-95093925D01*
X75082144Y-95094646D01*
X75090552Y-95097798D01*
X75104309Y-95098820D01*
X75137357Y-95101276D01*
X75147404Y-95102430D01*
X75155886Y-95103751D01*
X75155889Y-95103751D01*
X75160697Y-95104500D01*
X75176062Y-95104500D01*
X75185400Y-95104846D01*
X75234667Y-95108507D01*
X75243442Y-95106634D01*
X75252138Y-95106041D01*
X75266738Y-95104500D01*
X79329376Y-95104500D01*
X79341381Y-95105841D01*
X79341421Y-95105345D01*
X79350368Y-95106065D01*
X79359124Y-95108046D01*
X79412382Y-95104742D01*
X79420184Y-95104500D01*
X79436226Y-95104500D01*
X79440657Y-95103865D01*
X79440662Y-95103865D01*
X79444687Y-95103288D01*
X79446457Y-95103035D01*
X79456514Y-95102004D01*
X79478976Y-95100611D01*
X79494400Y-95099654D01*
X79494402Y-95099654D01*
X79503359Y-95099098D01*
X79511799Y-95096051D01*
X79515089Y-95095370D01*
X79530938Y-95091418D01*
X79534168Y-95090473D01*
X79543052Y-95089201D01*
X79585763Y-95069782D01*
X79595128Y-95065970D01*
X79630837Y-95053078D01*
X79630840Y-95053076D01*
X79639284Y-95050028D01*
X79646533Y-95044732D01*
X79649490Y-95043160D01*
X79663614Y-95034907D01*
X79666437Y-95033102D01*
X79674605Y-95029388D01*
X79681402Y-95023531D01*
X79681404Y-95023530D01*
X79710153Y-94998757D01*
X79718064Y-94992475D01*
X79728944Y-94984527D01*
X79739806Y-94973665D01*
X79746653Y-94967307D01*
X79777282Y-94940915D01*
X79784082Y-94935056D01*
X79788966Y-94927521D01*
X79794699Y-94920949D01*
X79803926Y-94909545D01*
X80031794Y-94681677D01*
X80041234Y-94674135D01*
X80040911Y-94673755D01*
X80047747Y-94667937D01*
X80055339Y-94663147D01*
X80090672Y-94623140D01*
X80096017Y-94617454D01*
X80107351Y-94606120D01*
X80110038Y-94602534D01*
X80110043Y-94602529D01*
X80113557Y-94597841D01*
X80119938Y-94590003D01*
X80145060Y-94561557D01*
X80151001Y-94554830D01*
X80154815Y-94546707D01*
X80156661Y-94543896D01*
X80165072Y-94529897D01*
X80166686Y-94526948D01*
X80172070Y-94519765D01*
X80188542Y-94475826D01*
X80192469Y-94466506D01*
X80208602Y-94432144D01*
X80208602Y-94432143D01*
X80212417Y-94424018D01*
X80213798Y-94415147D01*
X80214783Y-94411925D01*
X80218920Y-94396154D01*
X80219644Y-94392860D01*
X80222798Y-94384448D01*
X80226276Y-94337650D01*
X80227426Y-94327626D01*
X80229500Y-94314303D01*
X80229500Y-94298938D01*
X80229846Y-94289601D01*
X80231625Y-94265662D01*
X80233507Y-94240334D01*
X80231634Y-94231559D01*
X80231041Y-94222863D01*
X80229500Y-94208263D01*
X80229500Y-94206016D01*
X80249502Y-94137895D01*
X80292317Y-94097988D01*
X80294764Y-94097071D01*
X80410404Y-94010404D01*
X80448463Y-93959622D01*
X80491689Y-93901946D01*
X80491691Y-93901943D01*
X80497071Y-93894764D01*
X80547798Y-93759448D01*
X80554500Y-93697756D01*
X80554500Y-92302244D01*
X80547798Y-92240552D01*
X80497071Y-92105236D01*
X80491691Y-92098057D01*
X80491689Y-92098054D01*
X80415785Y-91996776D01*
X80410404Y-91989596D01*
X80370411Y-91959623D01*
X80301946Y-91908311D01*
X80301943Y-91908309D01*
X80294764Y-91902929D01*
X80205046Y-91869296D01*
X80166843Y-91854974D01*
X80166841Y-91854974D01*
X80159448Y-91852202D01*
X80151598Y-91851349D01*
X80151597Y-91851349D01*
X80101153Y-91845869D01*
X80101152Y-91845869D01*
X80097756Y-91845500D01*
X79352244Y-91845500D01*
X79348848Y-91845869D01*
X79348847Y-91845869D01*
X79298403Y-91851349D01*
X79298402Y-91851349D01*
X79290552Y-91852202D01*
X79283159Y-91854974D01*
X79283157Y-91854974D01*
X79244954Y-91869296D01*
X79155236Y-91902929D01*
X79148057Y-91908309D01*
X79148054Y-91908311D01*
X79079589Y-91959623D01*
X79039596Y-91989596D01*
X79034215Y-91996776D01*
X78958311Y-92098054D01*
X78958309Y-92098057D01*
X78952929Y-92105236D01*
X78902202Y-92240552D01*
X78895500Y-92302244D01*
X78895500Y-93697756D01*
X78902202Y-93759448D01*
X78952929Y-93894764D01*
X78958315Y-93901951D01*
X78962170Y-93908992D01*
X78977338Y-93978349D01*
X78952601Y-94044897D01*
X78895812Y-94087507D01*
X78851649Y-94095500D01*
X75698351Y-94095500D01*
X75630230Y-94075498D01*
X75583737Y-94021842D01*
X75573633Y-93951568D01*
X75587830Y-93908992D01*
X75591685Y-93901951D01*
X75597071Y-93894764D01*
X75647798Y-93759448D01*
X75654500Y-93697756D01*
X75654500Y-92302244D01*
X75647798Y-92240552D01*
X75597071Y-92105236D01*
X75591691Y-92098057D01*
X75591689Y-92098054D01*
X75515785Y-91996776D01*
X75510404Y-91989596D01*
X75470411Y-91959623D01*
X75401946Y-91908311D01*
X75401943Y-91908309D01*
X75394764Y-91902929D01*
X75305046Y-91869296D01*
X75266843Y-91854974D01*
X75266841Y-91854974D01*
X75259448Y-91852202D01*
X75251598Y-91851349D01*
X75251597Y-91851349D01*
X75201153Y-91845869D01*
X75201152Y-91845869D01*
X75197756Y-91845500D01*
X74452244Y-91845500D01*
X74448848Y-91845869D01*
X74448847Y-91845869D01*
X74398403Y-91851349D01*
X74398402Y-91851349D01*
X74390552Y-91852202D01*
X74383159Y-91854974D01*
X74383157Y-91854974D01*
X74344954Y-91869296D01*
X74255236Y-91902929D01*
X74248057Y-91908309D01*
X74248054Y-91908311D01*
X74179589Y-91959623D01*
X74139596Y-91989596D01*
X74134215Y-91996776D01*
X74058311Y-92098054D01*
X74058309Y-92098057D01*
X74052929Y-92105236D01*
X74002202Y-92240552D01*
X73995500Y-92302244D01*
X73995500Y-92369500D01*
X73975498Y-92437621D01*
X73921842Y-92484114D01*
X73869500Y-92495500D01*
X73470624Y-92495500D01*
X73458619Y-92494159D01*
X73458579Y-92494655D01*
X73449632Y-92493935D01*
X73440876Y-92491954D01*
X73397339Y-92494655D01*
X73387619Y-92495258D01*
X73379817Y-92495500D01*
X73363774Y-92495500D01*
X73359344Y-92496135D01*
X73359337Y-92496135D01*
X73353536Y-92496966D01*
X73343481Y-92497996D01*
X73305601Y-92500346D01*
X73305599Y-92500346D01*
X73296642Y-92500902D01*
X73288201Y-92503949D01*
X73284923Y-92504628D01*
X73269055Y-92508584D01*
X73265831Y-92509527D01*
X73256948Y-92510799D01*
X73248779Y-92514513D01*
X73248773Y-92514515D01*
X73214221Y-92530225D01*
X73204853Y-92534039D01*
X73160716Y-92549972D01*
X73153466Y-92555269D01*
X73150499Y-92556846D01*
X73136386Y-92565093D01*
X73133563Y-92566898D01*
X73125395Y-92570612D01*
X73118598Y-92576469D01*
X73118596Y-92576470D01*
X73089847Y-92601243D01*
X73081936Y-92607525D01*
X73071056Y-92615473D01*
X73060194Y-92626335D01*
X73053348Y-92632693D01*
X73015918Y-92664944D01*
X73011034Y-92672479D01*
X73005301Y-92679051D01*
X72996074Y-92690455D01*
X70923434Y-94763095D01*
X70861122Y-94797121D01*
X70834339Y-94800000D01*
X62102500Y-94800000D01*
X62034379Y-94779998D01*
X61987886Y-94726342D01*
X61976500Y-94674000D01*
X61976500Y-92124933D01*
X68095500Y-92124933D01*
X68095501Y-93875066D01*
X68110266Y-93949301D01*
X68117161Y-93959620D01*
X68117162Y-93959622D01*
X68146297Y-94003224D01*
X68166516Y-94033484D01*
X68250699Y-94089734D01*
X68324933Y-94104500D01*
X69199858Y-94104500D01*
X70075066Y-94104499D01*
X70112412Y-94097071D01*
X70137126Y-94092156D01*
X70137128Y-94092155D01*
X70149301Y-94089734D01*
X70159621Y-94082839D01*
X70159622Y-94082838D01*
X70223168Y-94040377D01*
X70233484Y-94033484D01*
X70259309Y-93994835D01*
X70282839Y-93959620D01*
X70289734Y-93949301D01*
X70304500Y-93875067D01*
X70304499Y-92124934D01*
X70289734Y-92050699D01*
X70233484Y-91966516D01*
X70149301Y-91910266D01*
X70075067Y-91895500D01*
X69200142Y-91895500D01*
X68324934Y-91895501D01*
X68289182Y-91902612D01*
X68262874Y-91907844D01*
X68262872Y-91907845D01*
X68250699Y-91910266D01*
X68240379Y-91917161D01*
X68240378Y-91917162D01*
X68179985Y-91957516D01*
X68166516Y-91966516D01*
X68110266Y-92050699D01*
X68095500Y-92124933D01*
X61976500Y-92124933D01*
X61976500Y-90804500D01*
X61996502Y-90736379D01*
X62050158Y-90689886D01*
X62102500Y-90678500D01*
X94074000Y-90678500D01*
X94142121Y-90698502D01*
G37*
G04 #@! TD.AperFunction*
G04 #@! TA.AperFunction,Conductor*
G36*
X108653621Y-90698502D02*
G01*
X108700114Y-90752158D01*
X108711500Y-90804500D01*
X108711500Y-100661200D01*
X108691498Y-100729321D01*
X108637842Y-100775814D01*
X108585500Y-100787200D01*
X106138174Y-100787200D01*
X106070053Y-100767198D01*
X106054355Y-100755277D01*
X105944346Y-100657264D01*
X105938675Y-100652211D01*
X105798674Y-100578084D01*
X105645033Y-100539492D01*
X105637435Y-100539452D01*
X105637433Y-100539452D01*
X105635870Y-100539444D01*
X105634777Y-100539117D01*
X105629902Y-100538501D01*
X105630005Y-100537688D01*
X105567855Y-100519086D01*
X105547435Y-100502541D01*
X105396105Y-100351211D01*
X105362079Y-100288899D01*
X105359200Y-100262116D01*
X105359200Y-96900000D01*
X105379202Y-96831879D01*
X105432858Y-96785386D01*
X105485200Y-96774000D01*
X106934000Y-96774000D01*
X106934000Y-92862400D01*
X103733600Y-92862400D01*
X103733600Y-93955600D01*
X103713598Y-94023721D01*
X103659942Y-94070214D01*
X103607600Y-94081600D01*
X100710000Y-94081600D01*
X100641879Y-94061598D01*
X100595386Y-94007942D01*
X100584000Y-93955600D01*
X100584000Y-92557600D01*
X96442800Y-92557600D01*
X96374679Y-92537598D01*
X96328186Y-92483942D01*
X96316800Y-92431600D01*
X96316800Y-90804500D01*
X96336802Y-90736379D01*
X96390458Y-90689886D01*
X96442800Y-90678500D01*
X108585500Y-90678500D01*
X108653621Y-90698502D01*
G37*
G04 #@! TD.AperFunction*
M02*
