G04 #@! TF.GenerationSoftware,KiCad,Pcbnew,(6.0.5)*
G04 #@! TF.CreationDate,2023-03-06T18:53:00-08:00*
G04 #@! TF.ProjectId,12V_Converter_LM5152x-Q1,3132565f-436f-46e7-9665-727465725f4c,rev?*
G04 #@! TF.SameCoordinates,Original*
G04 #@! TF.FileFunction,Soldermask,Top*
G04 #@! TF.FilePolarity,Negative*
%FSLAX46Y46*%
G04 Gerber Fmt 4.6, Leading zero omitted, Abs format (unit mm)*
G04 Created by KiCad (PCBNEW (6.0.5)) date 2023-03-06 18:53:00*
%MOMM*%
%LPD*%
G01*
G04 APERTURE LIST*
G04 Aperture macros list*
%AMRoundRect*
0 Rectangle with rounded corners*
0 $1 Rounding radius*
0 $2 $3 $4 $5 $6 $7 $8 $9 X,Y pos of 4 corners*
0 Add a 4 corners polygon primitive as box body*
4,1,4,$2,$3,$4,$5,$6,$7,$8,$9,$2,$3,0*
0 Add four circle primitives for the rounded corners*
1,1,$1+$1,$2,$3*
1,1,$1+$1,$4,$5*
1,1,$1+$1,$6,$7*
1,1,$1+$1,$8,$9*
0 Add four rect primitives between the rounded corners*
20,1,$1+$1,$2,$3,$4,$5,0*
20,1,$1+$1,$4,$5,$6,$7,0*
20,1,$1+$1,$6,$7,$8,$9,0*
20,1,$1+$1,$8,$9,$2,$3,0*%
G04 Aperture macros list end*
%ADD10C,0.100000*%
%ADD11R,1.700000X1.700000*%
%ADD12RoundRect,0.250000X0.650000X-0.325000X0.650000X0.325000X-0.650000X0.325000X-0.650000X-0.325000X0*%
%ADD13RoundRect,0.225000X-0.225000X-0.250000X0.225000X-0.250000X0.225000X0.250000X-0.225000X0.250000X0*%
%ADD14RoundRect,0.225000X-0.250000X0.225000X-0.250000X-0.225000X0.250000X-0.225000X0.250000X0.225000X0*%
%ADD15RoundRect,0.250000X-0.650000X0.325000X-0.650000X-0.325000X0.650000X-0.325000X0.650000X0.325000X0*%
%ADD16RoundRect,0.200000X0.275000X-0.200000X0.275000X0.200000X-0.275000X0.200000X-0.275000X-0.200000X0*%
%ADD17RoundRect,0.250000X-1.425000X0.362500X-1.425000X-0.362500X1.425000X-0.362500X1.425000X0.362500X0*%
%ADD18R,4.000000X4.000000*%
%ADD19R,0.700000X0.240000*%
%ADD20R,0.240000X0.700000*%
%ADD21R,0.700000X0.239283*%
%ADD22R,2.050000X2.050000*%
%ADD23RoundRect,0.225000X0.225000X0.250000X-0.225000X0.250000X-0.225000X-0.250000X0.225000X-0.250000X0*%
%ADD24R,0.711200X0.508000*%
%ADD25RoundRect,0.200000X0.200000X0.275000X-0.200000X0.275000X-0.200000X-0.275000X0.200000X-0.275000X0*%
%ADD26RoundRect,0.250000X-0.475000X0.250000X-0.475000X-0.250000X0.475000X-0.250000X0.475000X0.250000X0*%
%ADD27R,3.759200X12.293600*%
%ADD28RoundRect,0.200000X-0.200000X-0.275000X0.200000X-0.275000X0.200000X0.275000X-0.200000X0.275000X0*%
%ADD29RoundRect,0.250000X-0.325000X-0.650000X0.325000X-0.650000X0.325000X0.650000X-0.325000X0.650000X0*%
G04 APERTURE END LIST*
G36*
X91577998Y-106908600D02*
G01*
X95413398Y-106908600D01*
X95413398Y-110896400D01*
X91577998Y-110896400D01*
X91578001Y-111061500D01*
X90866801Y-111061500D01*
X90866801Y-110553500D01*
X91578001Y-110553500D01*
X91578001Y-109791500D01*
X90866801Y-109791500D01*
X90866801Y-109283500D01*
X91578001Y-109283500D01*
X91578001Y-108521500D01*
X90866801Y-108521500D01*
X90866801Y-108013500D01*
X91578001Y-108013500D01*
X91578001Y-107251500D01*
X90866801Y-107251500D01*
X90866801Y-106743500D01*
X91578001Y-106743500D01*
X91577998Y-106908600D01*
G37*
D10*
X91577998Y-106908600D02*
X95413398Y-106908600D01*
X95413398Y-110896400D01*
X91577998Y-110896400D01*
X91578001Y-111061500D01*
X90866801Y-111061500D01*
X90866801Y-110553500D01*
X91578001Y-110553500D01*
X91578001Y-109791500D01*
X90866801Y-109791500D01*
X90866801Y-109283500D01*
X91578001Y-109283500D01*
X91578001Y-108521500D01*
X90866801Y-108521500D01*
X90866801Y-108013500D01*
X91578001Y-108013500D01*
X91578001Y-107251500D01*
X90866801Y-107251500D01*
X90866801Y-106743500D01*
X91578001Y-106743500D01*
X91577998Y-106908600D01*
G36*
X99451998Y-106914950D02*
G01*
X103287398Y-106914950D01*
X103287398Y-110902750D01*
X99451998Y-110902750D01*
X99452001Y-111067850D01*
X98740801Y-111067850D01*
X98740801Y-110559850D01*
X99452001Y-110559850D01*
X99452001Y-109797850D01*
X98740801Y-109797850D01*
X98740801Y-109289850D01*
X99452001Y-109289850D01*
X99452001Y-108527850D01*
X98740801Y-108527850D01*
X98740801Y-108019850D01*
X99452001Y-108019850D01*
X99452001Y-107257850D01*
X98740801Y-107257850D01*
X98740801Y-106749850D01*
X99452001Y-106749850D01*
X99451998Y-106914950D01*
G37*
X99451998Y-106914950D02*
X103287398Y-106914950D01*
X103287398Y-110902750D01*
X99451998Y-110902750D01*
X99452001Y-111067850D01*
X98740801Y-111067850D01*
X98740801Y-110559850D01*
X99452001Y-110559850D01*
X99452001Y-109797850D01*
X98740801Y-109797850D01*
X98740801Y-109289850D01*
X99452001Y-109289850D01*
X99452001Y-108527850D01*
X98740801Y-108527850D01*
X98740801Y-108019850D01*
X99452001Y-108019850D01*
X99452001Y-107257850D01*
X98740801Y-107257850D01*
X98740801Y-106749850D01*
X99452001Y-106749850D01*
X99451998Y-106914950D01*
D11*
X74726800Y-90728800D03*
D12*
X84632800Y-115870250D03*
X84632800Y-112920250D03*
D13*
X95541800Y-99466400D03*
X97091800Y-99466400D03*
D14*
X102920800Y-93967000D03*
X102920800Y-95517000D03*
D15*
X87731600Y-99153450D03*
X87731600Y-102103450D03*
D16*
X104546400Y-93890600D03*
X104546400Y-92240600D03*
D13*
X81571800Y-110286800D03*
X83121800Y-110286800D03*
D15*
X85191600Y-99153450D03*
X85191600Y-102103450D03*
D17*
X86461600Y-117833550D03*
X86461600Y-123758550D03*
D18*
X74625200Y-118110000D03*
D19*
X99339600Y-98466399D03*
X99339600Y-98966401D03*
X99339600Y-99466400D03*
X99339600Y-99966402D03*
X99339600Y-100466401D03*
D20*
X99939599Y-101066400D03*
X100439601Y-101066400D03*
X100939600Y-101066400D03*
X101439602Y-101066400D03*
X101939601Y-101066400D03*
D21*
X102539600Y-100466400D03*
X102539600Y-99966400D03*
D19*
X102539600Y-99466400D03*
X102539600Y-98966400D03*
X102539600Y-98466399D03*
D20*
X101939600Y-97866400D03*
X101439600Y-97866400D03*
X100939600Y-97866400D03*
X100439600Y-97866400D03*
X99939599Y-97866400D03*
D22*
X100939600Y-99466400D03*
D23*
X99987400Y-103530400D03*
X98437400Y-103530400D03*
D24*
X97042399Y-110807500D03*
X97042399Y-109537500D03*
X97042399Y-108267500D03*
X97042399Y-106997500D03*
X91222401Y-106997500D03*
X91222401Y-108267500D03*
X91222401Y-109537500D03*
X91222401Y-110807500D03*
D18*
X74625200Y-107086400D03*
D25*
X106133400Y-97891600D03*
X104483400Y-97891600D03*
D24*
X104916399Y-110813850D03*
X104916399Y-109543850D03*
X104916399Y-108273850D03*
X104916399Y-107003850D03*
X99096401Y-107003850D03*
X99096401Y-108273850D03*
X99096401Y-109543850D03*
X99096401Y-110813850D03*
D26*
X99466400Y-91658400D03*
X99466400Y-93558400D03*
D18*
X74676000Y-96621600D03*
D27*
X91020900Y-120948450D03*
X105067100Y-120948450D03*
D15*
X82702400Y-103985800D03*
X82702400Y-106935800D03*
D13*
X101841000Y-103530400D03*
X103391000Y-103530400D03*
D28*
X97320600Y-95148400D03*
X98970600Y-95148400D03*
D15*
X90271600Y-99153450D03*
X90271600Y-102103450D03*
D28*
X104483400Y-95453200D03*
X106133400Y-95453200D03*
D13*
X81571800Y-108661200D03*
X83121800Y-108661200D03*
D29*
X84834200Y-106781600D03*
X87784200Y-106781600D03*
X84834200Y-104286050D03*
X87784200Y-104286050D03*
D15*
X82702400Y-99159800D03*
X82702400Y-102109800D03*
D29*
X87784200Y-109220000D03*
X84834200Y-109220000D03*
D12*
X87172800Y-115870250D03*
X87172800Y-112920250D03*
D13*
X104533400Y-100025200D03*
X106083400Y-100025200D03*
D14*
X101295200Y-93967000D03*
X101295200Y-95517000D03*
D26*
X97332800Y-91658400D03*
X97332800Y-93558400D03*
D13*
X100926600Y-105206800D03*
X102476600Y-105206800D03*
M02*
