G04 #@! TF.GenerationSoftware,KiCad,Pcbnew,(6.0.5-0)*
G04 #@! TF.CreationDate,2023-03-07T19:50:15-08:00*
G04 #@! TF.ProjectId,12V_Converter_LM5152x-Q1,3132565f-436f-46e7-9665-727465725f4c,rev?*
G04 #@! TF.SameCoordinates,Original*
G04 #@! TF.FileFunction,Legend,Top*
G04 #@! TF.FilePolarity,Positive*
%FSLAX46Y46*%
G04 Gerber Fmt 4.6, Leading zero omitted, Abs format (unit mm)*
G04 Created by KiCad (PCBNEW (6.0.5-0)) date 2023-03-07 19:50:15*
%MOMM*%
%LPD*%
G01*
G04 APERTURE LIST*
G04 Aperture macros list*
%AMRoundRect*
0 Rectangle with rounded corners*
0 $1 Rounding radius*
0 $2 $3 $4 $5 $6 $7 $8 $9 X,Y pos of 4 corners*
0 Add a 4 corners polygon primitive as box body*
4,1,4,$2,$3,$4,$5,$6,$7,$8,$9,$2,$3,0*
0 Add four circle primitives for the rounded corners*
1,1,$1+$1,$2,$3*
1,1,$1+$1,$4,$5*
1,1,$1+$1,$6,$7*
1,1,$1+$1,$8,$9*
0 Add four rect primitives between the rounded corners*
20,1,$1+$1,$2,$3,$4,$5,0*
20,1,$1+$1,$4,$5,$6,$7,0*
20,1,$1+$1,$6,$7,$8,$9,0*
20,1,$1+$1,$8,$9,$2,$3,0*%
G04 Aperture macros list end*
%ADD10C,0.150000*%
%ADD11C,0.120000*%
%ADD12C,0.127000*%
%ADD13C,0.200000*%
%ADD14C,0.100000*%
%ADD15RoundRect,0.250000X0.650000X-0.325000X0.650000X0.325000X-0.650000X0.325000X-0.650000X-0.325000X0*%
%ADD16RoundRect,0.225000X-0.225000X-0.250000X0.225000X-0.250000X0.225000X0.250000X-0.225000X0.250000X0*%
%ADD17RoundRect,0.225000X-0.250000X0.225000X-0.250000X-0.225000X0.250000X-0.225000X0.250000X0.225000X0*%
%ADD18RoundRect,0.250000X-0.650000X0.325000X-0.650000X-0.325000X0.650000X-0.325000X0.650000X0.325000X0*%
%ADD19RoundRect,0.200000X0.275000X-0.200000X0.275000X0.200000X-0.275000X0.200000X-0.275000X-0.200000X0*%
%ADD20RoundRect,0.250000X0.325000X0.650000X-0.325000X0.650000X-0.325000X-0.650000X0.325000X-0.650000X0*%
%ADD21RoundRect,0.250000X-1.425000X0.362500X-1.425000X-0.362500X1.425000X-0.362500X1.425000X0.362500X0*%
%ADD22R,4.000000X4.000000*%
%ADD23R,2.000000X4.100000*%
%ADD24R,0.600000X0.240000*%
%ADD25R,0.240000X0.600000*%
%ADD26R,0.600000X0.239283*%
%ADD27R,2.050000X2.050000*%
%ADD28RoundRect,0.225000X0.225000X0.250000X-0.225000X0.250000X-0.225000X-0.250000X0.225000X-0.250000X0*%
%ADD29R,0.711200X0.508000*%
%ADD30R,3.022600X12.192000*%
%ADD31RoundRect,0.200000X0.200000X0.275000X-0.200000X0.275000X-0.200000X-0.275000X0.200000X-0.275000X0*%
%ADD32RoundRect,0.250000X-0.475000X0.250000X-0.475000X-0.250000X0.475000X-0.250000X0.475000X0.250000X0*%
%ADD33R,4.100000X2.000000*%
%ADD34RoundRect,0.200000X-0.200000X-0.275000X0.200000X-0.275000X0.200000X0.275000X-0.200000X0.275000X0*%
%ADD35RoundRect,0.250000X-0.325000X-0.650000X0.325000X-0.650000X0.325000X0.650000X-0.325000X0.650000X0*%
%ADD36R,1.700000X1.700000*%
G04 APERTURE END LIST*
D10*
X62799390Y-99303180D02*
X63132723Y-100303180D01*
X63466057Y-99303180D01*
X63942247Y-100303180D02*
X63847009Y-100255561D01*
X63799390Y-100207942D01*
X63751771Y-100112704D01*
X63751771Y-99826990D01*
X63799390Y-99731752D01*
X63847009Y-99684133D01*
X63942247Y-99636514D01*
X64085104Y-99636514D01*
X64180342Y-99684133D01*
X64227961Y-99731752D01*
X64275580Y-99826990D01*
X64275580Y-100112704D01*
X64227961Y-100207942D01*
X64180342Y-100255561D01*
X64085104Y-100303180D01*
X63942247Y-100303180D01*
X65132723Y-99636514D02*
X65132723Y-100303180D01*
X64704152Y-99636514D02*
X64704152Y-100160323D01*
X64751771Y-100255561D01*
X64847009Y-100303180D01*
X64989866Y-100303180D01*
X65085104Y-100255561D01*
X65132723Y-100207942D01*
X65466057Y-99636514D02*
X65847009Y-99636514D01*
X65608914Y-99303180D02*
X65608914Y-100160323D01*
X65656533Y-100255561D01*
X65751771Y-100303180D01*
X65847009Y-100303180D01*
X63738095Y-111000000D02*
X63642857Y-110952380D01*
X63500000Y-110952380D01*
X63357142Y-111000000D01*
X63261904Y-111095238D01*
X63214285Y-111190476D01*
X63166666Y-111380952D01*
X63166666Y-111523809D01*
X63214285Y-111714285D01*
X63261904Y-111809523D01*
X63357142Y-111904761D01*
X63500000Y-111952380D01*
X63595238Y-111952380D01*
X63738095Y-111904761D01*
X63785714Y-111857142D01*
X63785714Y-111523809D01*
X63595238Y-111523809D01*
X64214285Y-111952380D02*
X64214285Y-110952380D01*
X64785714Y-111952380D01*
X64785714Y-110952380D01*
X65261904Y-111952380D02*
X65261904Y-110952380D01*
X65500000Y-110952380D01*
X65642857Y-111000000D01*
X65738095Y-111095238D01*
X65785714Y-111190476D01*
X65833333Y-111380952D01*
X65833333Y-111523809D01*
X65785714Y-111714285D01*
X65738095Y-111809523D01*
X65642857Y-111904761D01*
X65500000Y-111952380D01*
X65261904Y-111952380D01*
X63756590Y-121006380D02*
X64089923Y-122006380D01*
X64423257Y-121006380D01*
X64756590Y-122006380D02*
X64756590Y-121339714D01*
X64756590Y-121006380D02*
X64708971Y-121054000D01*
X64756590Y-121101619D01*
X64804209Y-121054000D01*
X64756590Y-121006380D01*
X64756590Y-121101619D01*
X65232780Y-121339714D02*
X65232780Y-122006380D01*
X65232780Y-121434952D02*
X65280400Y-121387333D01*
X65375638Y-121339714D01*
X65518495Y-121339714D01*
X65613733Y-121387333D01*
X65661352Y-121482571D01*
X65661352Y-122006380D01*
X62258133Y-93404761D02*
X62400990Y-93452380D01*
X62639085Y-93452380D01*
X62734323Y-93404761D01*
X62781942Y-93357142D01*
X62829561Y-93261904D01*
X62829561Y-93166666D01*
X62781942Y-93071428D01*
X62734323Y-93023809D01*
X62639085Y-92976190D01*
X62448609Y-92928571D01*
X62353371Y-92880952D01*
X62305752Y-92833333D01*
X62258133Y-92738095D01*
X62258133Y-92642857D01*
X62305752Y-92547619D01*
X62353371Y-92500000D01*
X62448609Y-92452380D01*
X62686704Y-92452380D01*
X62829561Y-92500000D01*
X63115276Y-92785714D02*
X63496228Y-92785714D01*
X63258133Y-92452380D02*
X63258133Y-93309523D01*
X63305752Y-93404761D01*
X63400990Y-93452380D01*
X63496228Y-93452380D01*
X64258133Y-93452380D02*
X64258133Y-92928571D01*
X64210514Y-92833333D01*
X64115276Y-92785714D01*
X63924800Y-92785714D01*
X63829561Y-92833333D01*
X64258133Y-93404761D02*
X64162895Y-93452380D01*
X63924800Y-93452380D01*
X63829561Y-93404761D01*
X63781942Y-93309523D01*
X63781942Y-93214285D01*
X63829561Y-93119047D01*
X63924800Y-93071428D01*
X64162895Y-93071428D01*
X64258133Y-93023809D01*
X64591466Y-92785714D02*
X64972419Y-92785714D01*
X64734323Y-92452380D02*
X64734323Y-93309523D01*
X64781942Y-93404761D01*
X64877180Y-93452380D01*
X64972419Y-93452380D01*
X65734323Y-92785714D02*
X65734323Y-93452380D01*
X65305752Y-92785714D02*
X65305752Y-93309523D01*
X65353371Y-93404761D01*
X65448609Y-93452380D01*
X65591466Y-93452380D01*
X65686704Y-93404761D01*
X65734323Y-93357142D01*
X66162895Y-93404761D02*
X66258133Y-93452380D01*
X66448609Y-93452380D01*
X66543847Y-93404761D01*
X66591466Y-93309523D01*
X66591466Y-93261904D01*
X66543847Y-93166666D01*
X66448609Y-93119047D01*
X66305752Y-93119047D01*
X66210514Y-93071428D01*
X66162895Y-92976190D01*
X66162895Y-92928571D01*
X66210514Y-92833333D01*
X66305752Y-92785714D01*
X66448609Y-92785714D01*
X66543847Y-92833333D01*
D11*
X85542800Y-115106502D02*
X85542800Y-113683998D01*
X83722800Y-115106502D02*
X83722800Y-113683998D01*
X96176220Y-98956400D02*
X96457380Y-98956400D01*
X96176220Y-99976400D02*
X96457380Y-99976400D01*
X102410800Y-94601420D02*
X102410800Y-94882580D01*
X103430800Y-94601420D02*
X103430800Y-94882580D01*
X83210000Y-96888748D02*
X83210000Y-98311252D01*
X81390000Y-96888748D02*
X81390000Y-98311252D01*
X104023900Y-93302858D02*
X104023900Y-92828342D01*
X105068900Y-93302858D02*
X105068900Y-92828342D01*
X81911252Y-92090000D02*
X80488748Y-92090000D01*
X81911252Y-93910000D02*
X80488748Y-93910000D01*
X84751600Y-118618986D02*
X84751600Y-122973114D01*
X88171600Y-118618986D02*
X88171600Y-122973114D01*
X71400000Y-123500000D02*
X67000000Y-123500000D01*
X67000000Y-119100000D02*
X71400000Y-119100000D01*
X71400000Y-119100000D02*
X71400000Y-123500000D01*
X67000000Y-123500000D02*
X67000000Y-119100000D01*
D12*
X94250000Y-92050000D02*
X90420000Y-92050000D01*
X85750000Y-102350000D02*
X87780000Y-102350000D01*
X87780000Y-92050000D02*
X83950000Y-92050000D01*
X90420000Y-102350000D02*
X92450000Y-102350000D01*
X92450000Y-102350000D02*
X94250000Y-100550000D01*
X94250000Y-100550000D02*
X94250000Y-92050000D01*
X83950000Y-92050000D02*
X83950000Y-100550000D01*
X83950000Y-100550000D02*
X85750000Y-102350000D01*
D13*
X87100000Y-103500000D02*
G75*
G03*
X87100000Y-103500000I-100000J0D01*
G01*
D11*
X99189601Y-97966400D02*
X99189601Y-97716401D01*
X99189601Y-101216399D02*
X99189601Y-100966400D01*
X102689599Y-101216399D02*
X102689599Y-100966400D01*
X102689599Y-97966400D02*
X102689599Y-97716401D01*
X102439600Y-97716401D02*
X102689599Y-97716401D01*
X102439600Y-101216399D02*
X102689599Y-101216399D01*
X99189601Y-97716401D02*
X99439600Y-97716401D01*
X99189601Y-101216399D02*
X99439600Y-101216399D01*
X98035491Y-98466399D02*
G75*
G03*
X98035491Y-98466399I-125001J0D01*
G01*
X99352980Y-103020400D02*
X99071820Y-103020400D01*
X99352980Y-104040400D02*
X99071820Y-104040400D01*
X91008200Y-111531400D02*
X97256600Y-111531400D01*
X97256600Y-106273600D02*
X91008200Y-106273600D01*
X107263000Y-114471260D02*
X107263000Y-112200500D01*
X89737000Y-127328740D02*
X89737000Y-129599500D01*
X107263000Y-129599500D02*
X107263000Y-127328740D01*
X89737000Y-129599500D02*
X107263000Y-129599500D01*
X89737000Y-112200500D02*
X89737000Y-114471260D01*
X107263000Y-112200500D02*
X89737000Y-112200500D01*
X108482200Y-120900000D02*
G75*
G03*
X108482200Y-120900000I-76200J0D01*
G01*
X66973600Y-113598400D02*
X66973600Y-109198400D01*
X71373600Y-109198400D02*
X71373600Y-113598400D01*
X71373600Y-113598400D02*
X66973600Y-113598400D01*
X66973600Y-109198400D02*
X71373600Y-109198400D01*
X105545658Y-98414100D02*
X105071142Y-98414100D01*
X105545658Y-97369100D02*
X105071142Y-97369100D01*
X105130600Y-106279950D02*
X98882200Y-106279950D01*
X98882200Y-111537750D02*
X105130600Y-111537750D01*
X100201400Y-92347148D02*
X100201400Y-92869652D01*
X98731400Y-92347148D02*
X98731400Y-92869652D01*
X67000000Y-102000000D02*
X67000000Y-97600000D01*
X67000000Y-97600000D02*
X71400000Y-97600000D01*
X71400000Y-97600000D02*
X71400000Y-102000000D01*
X71400000Y-102000000D02*
X67000000Y-102000000D01*
D12*
X74150000Y-110750000D02*
X82650000Y-110750000D01*
X84450000Y-104280000D02*
X84450000Y-102250000D01*
X74150000Y-100450000D02*
X74150000Y-104280000D01*
X84450000Y-108950000D02*
X84450000Y-106920000D01*
X82650000Y-110750000D02*
X84450000Y-108950000D01*
X74150000Y-106920000D02*
X74150000Y-110750000D01*
X84450000Y-102250000D02*
X82650000Y-100450000D01*
X82650000Y-100450000D02*
X74150000Y-100450000D01*
D13*
X85700000Y-107700000D02*
G75*
G03*
X85700000Y-107700000I-100000J0D01*
G01*
D11*
X73890000Y-96888748D02*
X73890000Y-98311252D01*
X75710000Y-96888748D02*
X75710000Y-98311252D01*
X102475420Y-104040400D02*
X102756580Y-104040400D01*
X102475420Y-103020400D02*
X102756580Y-103020400D01*
X97908342Y-95670900D02*
X98382858Y-95670900D01*
X97908342Y-94625900D02*
X98382858Y-94625900D01*
X80710000Y-96888748D02*
X80710000Y-98311252D01*
X78890000Y-96888748D02*
X78890000Y-98311252D01*
X105071142Y-95975700D02*
X105545658Y-95975700D01*
X105071142Y-94930700D02*
X105545658Y-94930700D01*
X86588748Y-109110000D02*
X88011252Y-109110000D01*
X86588748Y-107290000D02*
X88011252Y-107290000D01*
X78210000Y-96863748D02*
X78210000Y-98286252D01*
X76390000Y-96863748D02*
X76390000Y-98286252D01*
X77011252Y-92090000D02*
X75588748Y-92090000D01*
X77011252Y-93910000D02*
X75588748Y-93910000D01*
X86588748Y-111610000D02*
X88011252Y-111610000D01*
X86588748Y-109790000D02*
X88011252Y-109790000D01*
X86262800Y-115106502D02*
X86262800Y-113683998D01*
X88082800Y-115106502D02*
X88082800Y-113683998D01*
X67870000Y-93000000D02*
X67870000Y-91670000D01*
X67870000Y-91670000D02*
X69200000Y-91670000D01*
X70530000Y-94270000D02*
X70530000Y-94330000D01*
X67870000Y-94270000D02*
X70530000Y-94270000D01*
X67870000Y-94270000D02*
X67870000Y-94330000D01*
X67870000Y-94330000D02*
X70530000Y-94330000D01*
X105167820Y-100535200D02*
X105448980Y-100535200D01*
X105167820Y-99515200D02*
X105448980Y-99515200D01*
X100785200Y-94601420D02*
X100785200Y-94882580D01*
X101805200Y-94601420D02*
X101805200Y-94882580D01*
X98067800Y-92347148D02*
X98067800Y-92869652D01*
X96597800Y-92347148D02*
X96597800Y-92869652D01*
X101561020Y-105716800D02*
X101842180Y-105716800D01*
X101561020Y-104696800D02*
X101842180Y-104696800D01*
%LPC*%
G36*
X91577998Y-106908600D02*
G01*
X95413398Y-106908600D01*
X95413398Y-110896400D01*
X91577998Y-110896400D01*
X91578001Y-111061500D01*
X90866801Y-111061500D01*
X90866801Y-110553500D01*
X91578001Y-110553500D01*
X91578001Y-109791500D01*
X90866801Y-109791500D01*
X90866801Y-109283500D01*
X91578001Y-109283500D01*
X91578001Y-108521500D01*
X90866801Y-108521500D01*
X90866801Y-108013500D01*
X91578001Y-108013500D01*
X91578001Y-107251500D01*
X90866801Y-107251500D01*
X90866801Y-106743500D01*
X91578001Y-106743500D01*
X91577998Y-106908600D01*
G37*
D14*
X91577998Y-106908600D02*
X95413398Y-106908600D01*
X95413398Y-110896400D01*
X91577998Y-110896400D01*
X91578001Y-111061500D01*
X90866801Y-111061500D01*
X90866801Y-110553500D01*
X91578001Y-110553500D01*
X91578001Y-109791500D01*
X90866801Y-109791500D01*
X90866801Y-109283500D01*
X91578001Y-109283500D01*
X91578001Y-108521500D01*
X90866801Y-108521500D01*
X90866801Y-108013500D01*
X91578001Y-108013500D01*
X91578001Y-107251500D01*
X90866801Y-107251500D01*
X90866801Y-106743500D01*
X91578001Y-106743500D01*
X91577998Y-106908600D01*
G36*
X99451998Y-106914950D02*
G01*
X103287398Y-106914950D01*
X103287398Y-110902750D01*
X99451998Y-110902750D01*
X99452001Y-111067850D01*
X98740801Y-111067850D01*
X98740801Y-110559850D01*
X99452001Y-110559850D01*
X99452001Y-109797850D01*
X98740801Y-109797850D01*
X98740801Y-109289850D01*
X99452001Y-109289850D01*
X99452001Y-108527850D01*
X98740801Y-108527850D01*
X98740801Y-108019850D01*
X99452001Y-108019850D01*
X99452001Y-107257850D01*
X98740801Y-107257850D01*
X98740801Y-106749850D01*
X99452001Y-106749850D01*
X99451998Y-106914950D01*
G37*
X99451998Y-106914950D02*
X103287398Y-106914950D01*
X103287398Y-110902750D01*
X99451998Y-110902750D01*
X99452001Y-111067850D01*
X98740801Y-111067850D01*
X98740801Y-110559850D01*
X99452001Y-110559850D01*
X99452001Y-109797850D01*
X98740801Y-109797850D01*
X98740801Y-109289850D01*
X99452001Y-109289850D01*
X99452001Y-108527850D01*
X98740801Y-108527850D01*
X98740801Y-108019850D01*
X99452001Y-108019850D01*
X99452001Y-107257850D01*
X98740801Y-107257850D01*
X98740801Y-106749850D01*
X99452001Y-106749850D01*
X99451998Y-106914950D01*
D15*
X84632800Y-115870250D03*
X84632800Y-112920250D03*
D16*
X95541800Y-99466400D03*
X97091800Y-99466400D03*
D17*
X102920800Y-93967000D03*
X102920800Y-95517000D03*
D18*
X82300000Y-96125000D03*
X82300000Y-99075000D03*
D19*
X104546400Y-93890600D03*
X104546400Y-92240600D03*
D20*
X82675000Y-93000000D03*
X79725000Y-93000000D03*
D21*
X86461600Y-117833550D03*
X86461600Y-123758550D03*
D22*
X69200000Y-121300000D03*
D23*
X89100000Y-101550000D03*
X89100000Y-92850000D03*
D24*
X99339600Y-98466399D03*
X99339600Y-98966401D03*
X99339600Y-99466400D03*
X99339600Y-99966402D03*
X99339600Y-100466401D03*
D25*
X99939599Y-101066400D03*
X100439601Y-101066400D03*
X100939600Y-101066400D03*
X101439602Y-101066400D03*
X101939601Y-101066400D03*
D26*
X102539600Y-100466400D03*
X102539600Y-99966400D03*
D24*
X102539600Y-99466400D03*
X102539600Y-98966400D03*
X102539600Y-98466399D03*
D25*
X101939600Y-97866400D03*
X101439600Y-97866400D03*
X100939600Y-97866400D03*
X100439600Y-97866400D03*
X99939599Y-97866400D03*
D27*
X100939600Y-99466400D03*
D28*
X99987400Y-103530400D03*
X98437400Y-103530400D03*
D29*
X97042399Y-110807500D03*
X97042399Y-109537500D03*
X97042399Y-108267500D03*
X97042399Y-106997500D03*
X91222401Y-106997500D03*
X91222401Y-108267500D03*
X91222401Y-109537500D03*
X91222401Y-110807500D03*
D30*
X105777100Y-120900000D03*
X91222900Y-120900000D03*
D22*
X69173600Y-111398400D03*
D31*
X106133400Y-97891600D03*
X104483400Y-97891600D03*
D29*
X104916399Y-110813850D03*
X104916399Y-109543850D03*
X104916399Y-108273850D03*
X104916399Y-107003850D03*
X99096401Y-107003850D03*
X99096401Y-108273850D03*
X99096401Y-109543850D03*
X99096401Y-110813850D03*
D32*
X99466400Y-91658400D03*
X99466400Y-93558400D03*
D22*
X69200000Y-99800000D03*
D33*
X83650000Y-105600000D03*
X74950000Y-105600000D03*
D18*
X74800000Y-96125000D03*
X74800000Y-99075000D03*
D16*
X101841000Y-103530400D03*
X103391000Y-103530400D03*
D34*
X97320600Y-95148400D03*
X98970600Y-95148400D03*
D18*
X79800000Y-96125000D03*
X79800000Y-99075000D03*
D34*
X104483400Y-95453200D03*
X106133400Y-95453200D03*
D35*
X85825000Y-108200000D03*
X88775000Y-108200000D03*
D18*
X77300000Y-96100000D03*
X77300000Y-99050000D03*
D20*
X77775000Y-93000000D03*
X74825000Y-93000000D03*
D35*
X85825000Y-110700000D03*
X88775000Y-110700000D03*
D15*
X87172800Y-115870250D03*
X87172800Y-112920250D03*
D36*
X69200000Y-93000000D03*
D16*
X104533400Y-100025200D03*
X106083400Y-100025200D03*
D17*
X101295200Y-93967000D03*
X101295200Y-95517000D03*
D32*
X97332800Y-91658400D03*
X97332800Y-93558400D03*
D16*
X100926600Y-105206800D03*
X102476600Y-105206800D03*
M02*
