G04 #@! TF.GenerationSoftware,KiCad,Pcbnew,(6.0.5-0)*
G04 #@! TF.CreationDate,2023-04-21T19:10:26-07:00*
G04 #@! TF.ProjectId,12V_Converter_LM5152x-Q1,3132565f-436f-46e7-9665-727465725f4c,rev?*
G04 #@! TF.SameCoordinates,Original*
G04 #@! TF.FileFunction,Copper,L2,Bot*
G04 #@! TF.FilePolarity,Positive*
%FSLAX46Y46*%
G04 Gerber Fmt 4.6, Leading zero omitted, Abs format (unit mm)*
G04 Created by KiCad (PCBNEW (6.0.5-0)) date 2023-04-21 19:10:26*
%MOMM*%
%LPD*%
G01*
G04 APERTURE LIST*
G04 #@! TA.AperFunction,ComponentPad*
%ADD10R,1.700000X1.700000*%
G04 #@! TD*
G04 #@! TA.AperFunction,ViaPad*
%ADD11C,0.800000*%
G04 #@! TD*
G04 #@! TA.AperFunction,Conductor*
%ADD12C,0.250000*%
G04 #@! TD*
G04 #@! TA.AperFunction,Conductor*
%ADD13C,0.750000*%
G04 #@! TD*
G04 APERTURE END LIST*
D10*
X69200000Y-93000000D03*
D11*
X93980000Y-113284000D03*
X98958400Y-97536000D03*
X105562400Y-101193600D03*
X99822000Y-105206800D03*
X107696000Y-109397800D03*
X84992000Y-93622000D03*
X81432400Y-113233200D03*
X81940400Y-112369600D03*
X106172000Y-108534200D03*
X106680000Y-109397800D03*
X107188000Y-110261400D03*
X68656200Y-106680000D03*
X106172000Y-110312200D03*
X86516000Y-96314400D03*
X64363600Y-113436400D03*
X85500000Y-96263600D03*
X79908400Y-114147600D03*
X74066400Y-94894400D03*
X82448400Y-113233200D03*
X84484000Y-96314400D03*
X86008000Y-93571200D03*
X82956400Y-114096800D03*
X95529400Y-98272600D03*
X80924400Y-114096800D03*
X82956400Y-112369600D03*
X85500000Y-94536400D03*
X84484000Y-94536400D03*
X80924400Y-112369600D03*
X107188000Y-108534200D03*
X84992000Y-95400000D03*
X81940400Y-114096800D03*
X69875400Y-106680000D03*
X87172800Y-114096800D03*
X84023200Y-114096800D03*
X86008000Y-95400000D03*
X80416400Y-113233200D03*
X107696000Y-107569000D03*
X86156800Y-114096800D03*
X67487800Y-106680000D03*
X108204000Y-108534200D03*
X106680000Y-107619800D03*
X71069200Y-106680000D03*
X85090000Y-114096800D03*
X108204000Y-110312200D03*
X86516000Y-94536400D03*
X79908400Y-112369600D03*
X104495600Y-101193600D03*
X101803200Y-102565200D03*
X97167100Y-101400000D03*
X97891600Y-97536000D03*
X95504000Y-112268000D03*
X104952800Y-106019600D03*
X102870000Y-101041200D03*
D12*
X98958400Y-103022400D02*
X99822000Y-103886000D01*
X96367600Y-112826800D02*
X96367600Y-108661200D01*
X96367600Y-108661200D02*
X99822000Y-105206800D01*
X99822000Y-103886000D02*
X99822000Y-105206800D01*
X95910400Y-113284000D02*
X96367600Y-112826800D01*
X98958400Y-97536000D02*
X102616000Y-97536000D01*
X98958400Y-97536000D02*
X98958400Y-103022400D01*
X93980000Y-113284000D02*
X95910400Y-113284000D01*
X105562400Y-100482400D02*
X105562400Y-101193600D01*
X102616000Y-97536000D02*
X105562400Y-100482400D01*
X101803200Y-100584000D02*
X102108000Y-100279200D01*
X102108000Y-100279200D02*
X104190800Y-100279200D01*
X104495600Y-100584000D02*
X104495600Y-101193600D01*
X101803200Y-102565200D02*
X101803200Y-100584000D01*
X104190800Y-100279200D02*
X104495600Y-100584000D01*
X72800000Y-92000000D02*
X71800000Y-93000000D01*
X97167100Y-101400000D02*
X97167100Y-97929100D01*
X97167100Y-97929100D02*
X91238000Y-92000000D01*
X91238000Y-92000000D02*
X72800000Y-92000000D01*
X71800000Y-93000000D02*
X69200000Y-93000000D01*
X98882200Y-104952800D02*
X98882200Y-104267000D01*
X95504000Y-112268000D02*
X95504000Y-108331000D01*
X97891600Y-103276400D02*
X97891600Y-97536000D01*
X98882200Y-104267000D02*
X97891600Y-103276400D01*
X95504000Y-108331000D02*
X98882200Y-104952800D01*
D13*
X102870000Y-103936800D02*
X104952800Y-106019600D01*
X102870000Y-101041200D02*
X102870000Y-103936800D01*
G04 #@! TA.AperFunction,Conductor*
G36*
X68037621Y-92820002D02*
G01*
X68084114Y-92873658D01*
X68095500Y-92926000D01*
X68095501Y-93437379D01*
X68095501Y-93875066D01*
X68110266Y-93949301D01*
X68166516Y-94033484D01*
X68250699Y-94089734D01*
X68324933Y-94104500D01*
X69199858Y-94104500D01*
X70075066Y-94104499D01*
X70110818Y-94097388D01*
X70137126Y-94092156D01*
X70137128Y-94092155D01*
X70149301Y-94089734D01*
X70159621Y-94082839D01*
X70159622Y-94082838D01*
X70223168Y-94040377D01*
X70233484Y-94033484D01*
X70289734Y-93949301D01*
X70304500Y-93875067D01*
X70304500Y-93505500D01*
X70324502Y-93437379D01*
X70378158Y-93390886D01*
X70430500Y-93379500D01*
X71746080Y-93379500D01*
X71770028Y-93382049D01*
X71771693Y-93382128D01*
X71781876Y-93384320D01*
X71792217Y-93383096D01*
X71815223Y-93380373D01*
X71821154Y-93380023D01*
X71821146Y-93379928D01*
X71826324Y-93379500D01*
X71831524Y-93379500D01*
X71836653Y-93378646D01*
X71836656Y-93378646D01*
X71850565Y-93376331D01*
X71856443Y-93375494D01*
X71897001Y-93370694D01*
X71897002Y-93370694D01*
X71907341Y-93369470D01*
X71915593Y-93365507D01*
X71924626Y-93364004D01*
X71933795Y-93359057D01*
X71933797Y-93359056D01*
X71969732Y-93339666D01*
X71975025Y-93336969D01*
X72014082Y-93318215D01*
X72014086Y-93318212D01*
X72021232Y-93314781D01*
X72025508Y-93311186D01*
X72027431Y-93309263D01*
X72029363Y-93307491D01*
X72029442Y-93307448D01*
X72029555Y-93307572D01*
X72030095Y-93307096D01*
X72035814Y-93304010D01*
X72072417Y-93264413D01*
X72075846Y-93260848D01*
X72499789Y-92836905D01*
X72562101Y-92802879D01*
X72588884Y-92800000D01*
X91449116Y-92800000D01*
X91517237Y-92820002D01*
X91538211Y-92836905D01*
X96302295Y-97600989D01*
X96336321Y-97663301D01*
X96339200Y-97690084D01*
X96339200Y-106906916D01*
X96319198Y-106975037D01*
X96302295Y-106996011D01*
X95273784Y-108024522D01*
X95255036Y-108039664D01*
X95253811Y-108040779D01*
X95245060Y-108046429D01*
X95238613Y-108054607D01*
X95238611Y-108054609D01*
X95224271Y-108072800D01*
X95220325Y-108077241D01*
X95220398Y-108077303D01*
X95217039Y-108081267D01*
X95213362Y-108084944D01*
X95202108Y-108100692D01*
X95198602Y-108105362D01*
X95166844Y-108145647D01*
X95163812Y-108154281D01*
X95158486Y-108161734D01*
X95155501Y-108171715D01*
X95143799Y-108210844D01*
X95141964Y-108216492D01*
X95124982Y-108264851D01*
X95124500Y-108270416D01*
X95124500Y-108273124D01*
X95124386Y-108275758D01*
X95124357Y-108275856D01*
X95124193Y-108275849D01*
X95124149Y-108276553D01*
X95122287Y-108282778D01*
X95122696Y-108293183D01*
X95124403Y-108336635D01*
X95124500Y-108341582D01*
X95124500Y-111673187D01*
X95104498Y-111741308D01*
X95081330Y-111768135D01*
X95014039Y-111826838D01*
X94922950Y-111956444D01*
X94865406Y-112104037D01*
X94844729Y-112261096D01*
X94862113Y-112418553D01*
X94916553Y-112567319D01*
X94920789Y-112573622D01*
X94920789Y-112573623D01*
X94958043Y-112629062D01*
X95004908Y-112698805D01*
X95005124Y-112699002D01*
X95033208Y-112760800D01*
X95022973Y-112831055D01*
X94976381Y-112884624D01*
X94908457Y-112904500D01*
X94579682Y-112904500D01*
X94511561Y-112884498D01*
X94485114Y-112858860D01*
X94483878Y-112859949D01*
X94478855Y-112854251D01*
X94474553Y-112847992D01*
X94356275Y-112742611D01*
X94348889Y-112738700D01*
X94222988Y-112672039D01*
X94222989Y-112672039D01*
X94216274Y-112668484D01*
X94062633Y-112629892D01*
X94055034Y-112629852D01*
X94055033Y-112629852D01*
X93989181Y-112629507D01*
X93904221Y-112629062D01*
X93896841Y-112630834D01*
X93896839Y-112630834D01*
X93757563Y-112664271D01*
X93757560Y-112664272D01*
X93750184Y-112666043D01*
X93609414Y-112738700D01*
X93490039Y-112842838D01*
X93398950Y-112972444D01*
X93386836Y-113003516D01*
X93344785Y-113111371D01*
X93341406Y-113120037D01*
X93320729Y-113277096D01*
X93338113Y-113434553D01*
X93340723Y-113441684D01*
X93340723Y-113441686D01*
X93379122Y-113546616D01*
X93392553Y-113583319D01*
X93396789Y-113589622D01*
X93396789Y-113589623D01*
X93445859Y-113662646D01*
X93480908Y-113714805D01*
X93486527Y-113719918D01*
X93486528Y-113719919D01*
X93497903Y-113730269D01*
X93598076Y-113821419D01*
X93737293Y-113897008D01*
X93890522Y-113937207D01*
X93974477Y-113938526D01*
X94041319Y-113939576D01*
X94041322Y-113939576D01*
X94048916Y-113939695D01*
X94203332Y-113904329D01*
X94273742Y-113868917D01*
X94338072Y-113836563D01*
X94338075Y-113836561D01*
X94344855Y-113833151D01*
X94350626Y-113828222D01*
X94350629Y-113828220D01*
X94459542Y-113735199D01*
X94459543Y-113735198D01*
X94465314Y-113730269D01*
X94475586Y-113715974D01*
X94531581Y-113672326D01*
X94577909Y-113663500D01*
X95856480Y-113663500D01*
X95880428Y-113666049D01*
X95882093Y-113666128D01*
X95892276Y-113668320D01*
X95902617Y-113667096D01*
X95925623Y-113664373D01*
X95931554Y-113664023D01*
X95931546Y-113663928D01*
X95936724Y-113663500D01*
X95941924Y-113663500D01*
X95947053Y-113662646D01*
X95947056Y-113662646D01*
X95960965Y-113660331D01*
X95966843Y-113659494D01*
X96007401Y-113654694D01*
X96007402Y-113654694D01*
X96017741Y-113653470D01*
X96025993Y-113649507D01*
X96035026Y-113648004D01*
X96044195Y-113643057D01*
X96044197Y-113643056D01*
X96080132Y-113623666D01*
X96085425Y-113620969D01*
X96124482Y-113602215D01*
X96124486Y-113602212D01*
X96131632Y-113598781D01*
X96135908Y-113595186D01*
X96137831Y-113593263D01*
X96139763Y-113591491D01*
X96139842Y-113591448D01*
X96139955Y-113591572D01*
X96140495Y-113591096D01*
X96146214Y-113588010D01*
X96182803Y-113548428D01*
X96186233Y-113544861D01*
X96597822Y-113133273D01*
X96616559Y-113118141D01*
X96617791Y-113117020D01*
X96626540Y-113111371D01*
X96647329Y-113085000D01*
X96651276Y-113080559D01*
X96651203Y-113080497D01*
X96654563Y-113076532D01*
X96658238Y-113072857D01*
X96661255Y-113068635D01*
X96661260Y-113068629D01*
X96669462Y-113057150D01*
X96673028Y-113052400D01*
X96698311Y-113020328D01*
X96704756Y-113012153D01*
X96707789Y-113003516D01*
X96713113Y-112996066D01*
X96727802Y-112946951D01*
X96729634Y-112941314D01*
X96743990Y-112900433D01*
X96743990Y-112900432D01*
X96746618Y-112892949D01*
X96747100Y-112887384D01*
X96747100Y-112884676D01*
X96747214Y-112882042D01*
X96747243Y-112881944D01*
X96747407Y-112881951D01*
X96747451Y-112881247D01*
X96749313Y-112875022D01*
X96747197Y-112821165D01*
X96747100Y-112816218D01*
X96747100Y-108870584D01*
X96767102Y-108802463D01*
X96784005Y-108781489D01*
X98528589Y-107036905D01*
X98590901Y-107002879D01*
X98617684Y-107000000D01*
X108585500Y-107000000D01*
X108653621Y-107020002D01*
X108700114Y-107073658D01*
X108711500Y-107126000D01*
X108711500Y-129667500D01*
X108691498Y-129735621D01*
X108637842Y-129782114D01*
X108585500Y-129793500D01*
X62102500Y-129793500D01*
X62034379Y-129773498D01*
X61987886Y-129719842D01*
X61976500Y-129667500D01*
X61976500Y-92926000D01*
X61996502Y-92857879D01*
X62050158Y-92811386D01*
X62102500Y-92800000D01*
X67969500Y-92800000D01*
X68037621Y-92820002D01*
G37*
G04 #@! TD.AperFunction*
M02*
