G04 #@! TF.GenerationSoftware,KiCad,Pcbnew,(6.0.5)*
G04 #@! TF.CreationDate,2023-03-07T22:57:50-08:00*
G04 #@! TF.ProjectId,12V_Converter_LM5152x-Q1,3132565f-436f-46e7-9665-727465725f4c,rev?*
G04 #@! TF.SameCoordinates,Original*
G04 #@! TF.FileFunction,Paste,Top*
G04 #@! TF.FilePolarity,Positive*
%FSLAX46Y46*%
G04 Gerber Fmt 4.6, Leading zero omitted, Abs format (unit mm)*
G04 Created by KiCad (PCBNEW (6.0.5)) date 2023-03-07 22:57:50*
%MOMM*%
%LPD*%
G01*
G04 APERTURE LIST*
G04 Aperture macros list*
%AMRoundRect*
0 Rectangle with rounded corners*
0 $1 Rounding radius*
0 $2 $3 $4 $5 $6 $7 $8 $9 X,Y pos of 4 corners*
0 Add a 4 corners polygon primitive as box body*
4,1,4,$2,$3,$4,$5,$6,$7,$8,$9,$2,$3,0*
0 Add four circle primitives for the rounded corners*
1,1,$1+$1,$2,$3*
1,1,$1+$1,$4,$5*
1,1,$1+$1,$6,$7*
1,1,$1+$1,$8,$9*
0 Add four rect primitives between the rounded corners*
20,1,$1+$1,$2,$3,$4,$5,0*
20,1,$1+$1,$4,$5,$6,$7,0*
20,1,$1+$1,$6,$7,$8,$9,0*
20,1,$1+$1,$8,$9,$2,$3,0*%
G04 Aperture macros list end*
%ADD10C,0.100000*%
%ADD11RoundRect,0.250000X0.650000X-0.325000X0.650000X0.325000X-0.650000X0.325000X-0.650000X-0.325000X0*%
%ADD12RoundRect,0.225000X-0.225000X-0.250000X0.225000X-0.250000X0.225000X0.250000X-0.225000X0.250000X0*%
%ADD13RoundRect,0.225000X-0.250000X0.225000X-0.250000X-0.225000X0.250000X-0.225000X0.250000X0.225000X0*%
%ADD14RoundRect,0.250000X-0.650000X0.325000X-0.650000X-0.325000X0.650000X-0.325000X0.650000X0.325000X0*%
%ADD15RoundRect,0.200000X0.275000X-0.200000X0.275000X0.200000X-0.275000X0.200000X-0.275000X-0.200000X0*%
%ADD16RoundRect,0.250000X0.325000X0.650000X-0.325000X0.650000X-0.325000X-0.650000X0.325000X-0.650000X0*%
%ADD17RoundRect,0.250000X-1.425000X0.362500X-1.425000X-0.362500X1.425000X-0.362500X1.425000X0.362500X0*%
%ADD18R,2.000000X4.100000*%
%ADD19R,0.600000X0.240000*%
%ADD20R,0.240000X0.600000*%
%ADD21R,0.600000X0.239283*%
%ADD22RoundRect,0.225000X0.225000X0.250000X-0.225000X0.250000X-0.225000X-0.250000X0.225000X-0.250000X0*%
%ADD23R,0.711200X0.508000*%
%ADD24R,3.022600X12.192000*%
%ADD25RoundRect,0.200000X0.200000X0.275000X-0.200000X0.275000X-0.200000X-0.275000X0.200000X-0.275000X0*%
%ADD26RoundRect,0.250000X-0.475000X0.250000X-0.475000X-0.250000X0.475000X-0.250000X0.475000X0.250000X0*%
%ADD27R,4.100000X2.000000*%
%ADD28RoundRect,0.200000X-0.200000X-0.275000X0.200000X-0.275000X0.200000X0.275000X-0.200000X0.275000X0*%
%ADD29RoundRect,0.250000X-0.325000X-0.650000X0.325000X-0.650000X0.325000X0.650000X-0.325000X0.650000X0*%
G04 APERTURE END LIST*
G36*
X101619489Y-100146289D02*
G01*
X100259711Y-100146289D01*
X100259711Y-98786511D01*
X101619489Y-98786511D01*
X101619489Y-100146289D01*
G37*
D10*
X101619489Y-100146289D02*
X100259711Y-100146289D01*
X100259711Y-98786511D01*
X101619489Y-98786511D01*
X101619489Y-100146289D01*
G36*
X94671634Y-108137867D02*
G01*
X93593166Y-108137867D01*
X93593166Y-107008600D01*
X94671634Y-107008600D01*
X94671634Y-108137867D01*
G37*
X94671634Y-108137867D02*
X93593166Y-108137867D01*
X93593166Y-107008600D01*
X94671634Y-107008600D01*
X94671634Y-108137867D01*
G36*
X93393167Y-108137867D02*
G01*
X92314700Y-108137867D01*
X92314700Y-107008600D01*
X93393167Y-107008600D01*
X93393167Y-108137867D01*
G37*
X93393167Y-108137867D02*
X92314700Y-108137867D01*
X92314700Y-107008600D01*
X93393167Y-107008600D01*
X93393167Y-108137867D01*
G36*
X95950100Y-110796400D02*
G01*
X94871633Y-110796400D01*
X94871633Y-109667133D01*
X95950100Y-109667133D01*
X95950100Y-110796400D01*
G37*
X95950100Y-110796400D02*
X94871633Y-110796400D01*
X94871633Y-109667133D01*
X95950100Y-109667133D01*
X95950100Y-110796400D01*
G36*
X94671634Y-110796400D02*
G01*
X93593166Y-110796400D01*
X93593166Y-109667133D01*
X94671634Y-109667133D01*
X94671634Y-110796400D01*
G37*
X94671634Y-110796400D02*
X93593166Y-110796400D01*
X93593166Y-109667133D01*
X94671634Y-109667133D01*
X94671634Y-110796400D01*
G36*
X93393167Y-109467134D02*
G01*
X92314700Y-109467134D01*
X92314700Y-108337866D01*
X93393167Y-108337866D01*
X93393167Y-109467134D01*
G37*
X93393167Y-109467134D02*
X92314700Y-109467134D01*
X92314700Y-108337866D01*
X93393167Y-108337866D01*
X93393167Y-109467134D01*
G36*
X95950100Y-109467134D02*
G01*
X94871633Y-109467134D01*
X94871633Y-108337866D01*
X95950100Y-108337866D01*
X95950100Y-109467134D01*
G37*
X95950100Y-109467134D02*
X94871633Y-109467134D01*
X94871633Y-108337866D01*
X95950100Y-108337866D01*
X95950100Y-109467134D01*
G36*
X95950100Y-108137867D02*
G01*
X94871633Y-108137867D01*
X94871633Y-107008600D01*
X95950100Y-107008600D01*
X95950100Y-108137867D01*
G37*
X95950100Y-108137867D02*
X94871633Y-108137867D01*
X94871633Y-107008600D01*
X95950100Y-107008600D01*
X95950100Y-108137867D01*
G36*
X91577998Y-106908600D02*
G01*
X95413398Y-106908600D01*
X95413398Y-110896400D01*
X91577998Y-110896400D01*
X91578001Y-111061500D01*
X90866801Y-111061500D01*
X90866801Y-110553500D01*
X91578001Y-110553500D01*
X91578001Y-109791500D01*
X90866801Y-109791500D01*
X90866801Y-109283500D01*
X91578001Y-109283500D01*
X91578001Y-108521500D01*
X90866801Y-108521500D01*
X90866801Y-108013500D01*
X91578001Y-108013500D01*
X91578001Y-107251500D01*
X90866801Y-107251500D01*
X90866801Y-106743500D01*
X91578001Y-106743500D01*
X91577998Y-106908600D01*
G37*
X91577998Y-106908600D02*
X95413398Y-106908600D01*
X95413398Y-110896400D01*
X91577998Y-110896400D01*
X91578001Y-111061500D01*
X90866801Y-111061500D01*
X90866801Y-110553500D01*
X91578001Y-110553500D01*
X91578001Y-109791500D01*
X90866801Y-109791500D01*
X90866801Y-109283500D01*
X91578001Y-109283500D01*
X91578001Y-108521500D01*
X90866801Y-108521500D01*
X90866801Y-108013500D01*
X91578001Y-108013500D01*
X91578001Y-107251500D01*
X90866801Y-107251500D01*
X90866801Y-106743500D01*
X91578001Y-106743500D01*
X91577998Y-106908600D01*
G36*
X93393167Y-110796400D02*
G01*
X92314700Y-110796400D01*
X92314700Y-109667133D01*
X93393167Y-109667133D01*
X93393167Y-110796400D01*
G37*
X93393167Y-110796400D02*
X92314700Y-110796400D01*
X92314700Y-109667133D01*
X93393167Y-109667133D01*
X93393167Y-110796400D01*
G36*
X94671634Y-109467134D02*
G01*
X93593166Y-109467134D01*
X93593166Y-108337866D01*
X94671634Y-108337866D01*
X94671634Y-109467134D01*
G37*
X94671634Y-109467134D02*
X93593166Y-109467134D01*
X93593166Y-108337866D01*
X94671634Y-108337866D01*
X94671634Y-109467134D01*
G36*
X101267167Y-109473484D02*
G01*
X100188700Y-109473484D01*
X100188700Y-108344216D01*
X101267167Y-108344216D01*
X101267167Y-109473484D01*
G37*
X101267167Y-109473484D02*
X100188700Y-109473484D01*
X100188700Y-108344216D01*
X101267167Y-108344216D01*
X101267167Y-109473484D01*
G36*
X102545634Y-108144217D02*
G01*
X101467166Y-108144217D01*
X101467166Y-107014950D01*
X102545634Y-107014950D01*
X102545634Y-108144217D01*
G37*
X102545634Y-108144217D02*
X101467166Y-108144217D01*
X101467166Y-107014950D01*
X102545634Y-107014950D01*
X102545634Y-108144217D01*
G36*
X102545634Y-109473484D02*
G01*
X101467166Y-109473484D01*
X101467166Y-108344216D01*
X102545634Y-108344216D01*
X102545634Y-109473484D01*
G37*
X102545634Y-109473484D02*
X101467166Y-109473484D01*
X101467166Y-108344216D01*
X102545634Y-108344216D01*
X102545634Y-109473484D01*
G36*
X101267167Y-108144217D02*
G01*
X100188700Y-108144217D01*
X100188700Y-107014950D01*
X101267167Y-107014950D01*
X101267167Y-108144217D01*
G37*
X101267167Y-108144217D02*
X100188700Y-108144217D01*
X100188700Y-107014950D01*
X101267167Y-107014950D01*
X101267167Y-108144217D01*
G36*
X103824100Y-110802750D02*
G01*
X102745633Y-110802750D01*
X102745633Y-109673483D01*
X103824100Y-109673483D01*
X103824100Y-110802750D01*
G37*
X103824100Y-110802750D02*
X102745633Y-110802750D01*
X102745633Y-109673483D01*
X103824100Y-109673483D01*
X103824100Y-110802750D01*
G36*
X103824100Y-109473484D02*
G01*
X102745633Y-109473484D01*
X102745633Y-108344216D01*
X103824100Y-108344216D01*
X103824100Y-109473484D01*
G37*
X103824100Y-109473484D02*
X102745633Y-109473484D01*
X102745633Y-108344216D01*
X103824100Y-108344216D01*
X103824100Y-109473484D01*
G36*
X101267167Y-110802750D02*
G01*
X100188700Y-110802750D01*
X100188700Y-109673483D01*
X101267167Y-109673483D01*
X101267167Y-110802750D01*
G37*
X101267167Y-110802750D02*
X100188700Y-110802750D01*
X100188700Y-109673483D01*
X101267167Y-109673483D01*
X101267167Y-110802750D01*
G36*
X99451998Y-106914950D02*
G01*
X103287398Y-106914950D01*
X103287398Y-110902750D01*
X99451998Y-110902750D01*
X99452001Y-111067850D01*
X98740801Y-111067850D01*
X98740801Y-110559850D01*
X99452001Y-110559850D01*
X99452001Y-109797850D01*
X98740801Y-109797850D01*
X98740801Y-109289850D01*
X99452001Y-109289850D01*
X99452001Y-108527850D01*
X98740801Y-108527850D01*
X98740801Y-108019850D01*
X99452001Y-108019850D01*
X99452001Y-107257850D01*
X98740801Y-107257850D01*
X98740801Y-106749850D01*
X99452001Y-106749850D01*
X99451998Y-106914950D01*
G37*
X99451998Y-106914950D02*
X103287398Y-106914950D01*
X103287398Y-110902750D01*
X99451998Y-110902750D01*
X99452001Y-111067850D01*
X98740801Y-111067850D01*
X98740801Y-110559850D01*
X99452001Y-110559850D01*
X99452001Y-109797850D01*
X98740801Y-109797850D01*
X98740801Y-109289850D01*
X99452001Y-109289850D01*
X99452001Y-108527850D01*
X98740801Y-108527850D01*
X98740801Y-108019850D01*
X99452001Y-108019850D01*
X99452001Y-107257850D01*
X98740801Y-107257850D01*
X98740801Y-106749850D01*
X99452001Y-106749850D01*
X99451998Y-106914950D01*
G36*
X102545634Y-110802750D02*
G01*
X101467166Y-110802750D01*
X101467166Y-109673483D01*
X102545634Y-109673483D01*
X102545634Y-110802750D01*
G37*
X102545634Y-110802750D02*
X101467166Y-110802750D01*
X101467166Y-109673483D01*
X102545634Y-109673483D01*
X102545634Y-110802750D01*
G36*
X103824100Y-108144217D02*
G01*
X102745633Y-108144217D01*
X102745633Y-107014950D01*
X103824100Y-107014950D01*
X103824100Y-108144217D01*
G37*
X103824100Y-108144217D02*
X102745633Y-108144217D01*
X102745633Y-107014950D01*
X103824100Y-107014950D01*
X103824100Y-108144217D01*
D11*
X84632800Y-115870250D03*
X84632800Y-112920250D03*
D12*
X95541800Y-99466400D03*
X97091800Y-99466400D03*
D13*
X102920800Y-93967000D03*
X102920800Y-95517000D03*
D14*
X82300000Y-96125000D03*
X82300000Y-99075000D03*
D15*
X104546400Y-93890600D03*
X104546400Y-92240600D03*
D16*
X82675000Y-93000000D03*
X79725000Y-93000000D03*
D17*
X86461600Y-117833550D03*
X86461600Y-123758550D03*
D18*
X89100000Y-101550000D03*
X89100000Y-92850000D03*
D19*
X99339600Y-98466399D03*
X99339600Y-98966401D03*
X99339600Y-99466400D03*
X99339600Y-99966402D03*
X99339600Y-100466401D03*
D20*
X99939599Y-101066400D03*
X100439601Y-101066400D03*
X100939600Y-101066400D03*
X101439602Y-101066400D03*
X101939601Y-101066400D03*
D21*
X102539600Y-100466400D03*
X102539600Y-99966400D03*
D19*
X102539600Y-99466400D03*
X102539600Y-98966400D03*
X102539600Y-98466399D03*
D20*
X101939600Y-97866400D03*
X101439600Y-97866400D03*
X100939600Y-97866400D03*
X100439600Y-97866400D03*
X99939599Y-97866400D03*
D22*
X99987400Y-103530400D03*
X98437400Y-103530400D03*
D23*
X97042399Y-110807500D03*
X97042399Y-109537500D03*
X97042399Y-108267500D03*
X97042399Y-106997500D03*
X91222401Y-106997500D03*
X91222401Y-108267500D03*
X91222401Y-109537500D03*
X91222401Y-110807500D03*
D24*
X105777100Y-120900000D03*
X91222900Y-120900000D03*
D25*
X106133400Y-97891600D03*
X104483400Y-97891600D03*
D23*
X104916399Y-110813850D03*
X104916399Y-109543850D03*
X104916399Y-108273850D03*
X104916399Y-107003850D03*
X99096401Y-107003850D03*
X99096401Y-108273850D03*
X99096401Y-109543850D03*
X99096401Y-110813850D03*
D26*
X99466400Y-91658400D03*
X99466400Y-93558400D03*
D27*
X83650000Y-105600000D03*
X74950000Y-105600000D03*
D14*
X74800000Y-96125000D03*
X74800000Y-99075000D03*
D12*
X101841000Y-103530400D03*
X103391000Y-103530400D03*
D28*
X97320600Y-95148400D03*
X98970600Y-95148400D03*
D14*
X79800000Y-96125000D03*
X79800000Y-99075000D03*
D28*
X104483400Y-95453200D03*
X106133400Y-95453200D03*
D29*
X85825000Y-108200000D03*
X88775000Y-108200000D03*
D14*
X77300000Y-96100000D03*
X77300000Y-99050000D03*
D16*
X77775000Y-93000000D03*
X74825000Y-93000000D03*
D29*
X85825000Y-110700000D03*
X88775000Y-110700000D03*
D11*
X87172800Y-115870250D03*
X87172800Y-112920250D03*
D12*
X104533400Y-100025200D03*
X106083400Y-100025200D03*
D13*
X101295200Y-93967000D03*
X101295200Y-95517000D03*
D26*
X97332800Y-91658400D03*
X97332800Y-93558400D03*
D12*
X100926600Y-105206800D03*
X102476600Y-105206800D03*
M02*
