%FSLAX45Y45*%
G04 Gerber Fmt 4.5, Leading zero omitted, Abs format (unit mm)*
G04 Created by KiCad (PCBNEW (6.0.5)) date 2023-03-06 18:53:06*
%MOMM*%
%LPD*%
G01*
G04 APERTURE LIST*
%TA.AperFunction,Profile*%
%ADD10C,0.100000*%
%TD*%
%ADD11C,0.200000*%
G04 APERTURE END LIST*
D10*
X10957560Y-8874760D02*
X6751320Y-8874760D01*
X10957560Y-13004800D02*
X10957560Y-8874760D01*
X8453120Y-13004800D02*
X10957560Y-13004800D01*
X6746240Y-12100560D02*
X8453120Y-13004800D01*
X6751320Y-8874760D02*
X6746240Y-12100560D01*
D11*
X6998859Y-13320276D02*
X6998859Y-13120276D01*
X7046478Y-13120276D01*
X7075049Y-13129800D01*
X7094097Y-13148848D01*
X7103621Y-13167895D01*
X7113145Y-13205990D01*
X7113145Y-13234562D01*
X7103621Y-13272657D01*
X7094097Y-13291705D01*
X7075049Y-13310752D01*
X7046478Y-13320276D01*
X6998859Y-13320276D01*
X7198859Y-13320276D02*
X7198859Y-13186943D01*
X7198859Y-13225038D02*
X7208383Y-13205990D01*
X7217907Y-13196467D01*
X7236954Y-13186943D01*
X7256002Y-13186943D01*
X7322668Y-13320276D02*
X7322668Y-13186943D01*
X7322668Y-13120276D02*
X7313145Y-13129800D01*
X7322668Y-13139324D01*
X7332192Y-13129800D01*
X7322668Y-13120276D01*
X7322668Y-13139324D01*
X7446478Y-13320276D02*
X7427430Y-13310752D01*
X7417907Y-13291705D01*
X7417907Y-13120276D01*
X7551240Y-13320276D02*
X7532192Y-13310752D01*
X7522668Y-13291705D01*
X7522668Y-13120276D01*
X7779811Y-13320276D02*
X7779811Y-13120276D01*
X7846478Y-13263133D01*
X7913145Y-13120276D01*
X7913145Y-13320276D01*
X8094097Y-13320276D02*
X8094097Y-13215514D01*
X8084573Y-13196467D01*
X8065526Y-13186943D01*
X8027430Y-13186943D01*
X8008383Y-13196467D01*
X8094097Y-13310752D02*
X8075049Y-13320276D01*
X8027430Y-13320276D01*
X8008383Y-13310752D01*
X7998859Y-13291705D01*
X7998859Y-13272657D01*
X8008383Y-13253609D01*
X8027430Y-13244086D01*
X8075049Y-13244086D01*
X8094097Y-13234562D01*
X8189335Y-13186943D02*
X8189335Y-13386943D01*
X8189335Y-13196467D02*
X8208383Y-13186943D01*
X8246478Y-13186943D01*
X8265526Y-13196467D01*
X8275049Y-13205990D01*
X8284573Y-13225038D01*
X8284573Y-13282181D01*
X8275049Y-13301228D01*
X8265526Y-13310752D01*
X8246478Y-13320276D01*
X8208383Y-13320276D01*
X8189335Y-13310752D01*
X8370288Y-13301228D02*
X8379811Y-13310752D01*
X8370288Y-13320276D01*
X8360764Y-13310752D01*
X8370288Y-13301228D01*
X8370288Y-13320276D01*
X8370288Y-13196467D02*
X8379811Y-13205990D01*
X8370288Y-13215514D01*
X8360764Y-13205990D01*
X8370288Y-13196467D01*
X8370288Y-13215514D01*
M02*
