G04 #@! TF.GenerationSoftware,KiCad,Pcbnew,(6.0.5-0)*
G04 #@! TF.CreationDate,2023-04-21T19:10:26-07:00*
G04 #@! TF.ProjectId,12V_Converter_LM5152x-Q1,3132565f-436f-46e7-9665-727465725f4c,rev?*
G04 #@! TF.SameCoordinates,Original*
G04 #@! TF.FileFunction,Copper,L1,Top*
G04 #@! TF.FilePolarity,Positive*
%FSLAX46Y46*%
G04 Gerber Fmt 4.6, Leading zero omitted, Abs format (unit mm)*
G04 Created by KiCad (PCBNEW (6.0.5-0)) date 2023-04-21 19:10:26*
%MOMM*%
%LPD*%
G01*
G04 APERTURE LIST*
G04 Aperture macros list*
%AMRoundRect*
0 Rectangle with rounded corners*
0 $1 Rounding radius*
0 $2 $3 $4 $5 $6 $7 $8 $9 X,Y pos of 4 corners*
0 Add a 4 corners polygon primitive as box body*
4,1,4,$2,$3,$4,$5,$6,$7,$8,$9,$2,$3,0*
0 Add four circle primitives for the rounded corners*
1,1,$1+$1,$2,$3*
1,1,$1+$1,$4,$5*
1,1,$1+$1,$6,$7*
1,1,$1+$1,$8,$9*
0 Add four rect primitives between the rounded corners*
20,1,$1+$1,$2,$3,$4,$5,0*
20,1,$1+$1,$4,$5,$6,$7,0*
20,1,$1+$1,$6,$7,$8,$9,0*
20,1,$1+$1,$8,$9,$2,$3,0*%
%AMFreePoly0*
4,1,16,0.096035,4.165035,0.096050,4.165000,0.096050,0.355000,0.686000,0.355000,0.686000,-0.355000,0.096050,-0.355000,0.096035,-0.355035,0.096000,-0.355050,-3.754000,-0.355050,-3.754035,-0.355035,-3.754050,-0.355000,-3.754050,4.165000,-3.754035,4.165035,-3.754000,4.165050,0.096000,4.165050,0.096035,4.165035,0.096035,4.165035,$1*%
G04 Aperture macros list end*
G04 #@! TA.AperFunction,SMDPad,CuDef*
%ADD10RoundRect,0.250000X0.650000X-0.325000X0.650000X0.325000X-0.650000X0.325000X-0.650000X-0.325000X0*%
G04 #@! TD*
G04 #@! TA.AperFunction,SMDPad,CuDef*
%ADD11RoundRect,0.225000X-0.225000X-0.250000X0.225000X-0.250000X0.225000X0.250000X-0.225000X0.250000X0*%
G04 #@! TD*
G04 #@! TA.AperFunction,SMDPad,CuDef*
%ADD12RoundRect,0.225000X-0.250000X0.225000X-0.250000X-0.225000X0.250000X-0.225000X0.250000X0.225000X0*%
G04 #@! TD*
G04 #@! TA.AperFunction,SMDPad,CuDef*
%ADD13R,1.372000X0.710000*%
G04 #@! TD*
G04 #@! TA.AperFunction,SMDPad,CuDef*
%ADD14FreePoly0,180.000000*%
G04 #@! TD*
G04 #@! TA.AperFunction,SMDPad,CuDef*
%ADD15RoundRect,0.250000X-0.650000X0.325000X-0.650000X-0.325000X0.650000X-0.325000X0.650000X0.325000X0*%
G04 #@! TD*
G04 #@! TA.AperFunction,SMDPad,CuDef*
%ADD16RoundRect,0.200000X0.275000X-0.200000X0.275000X0.200000X-0.275000X0.200000X-0.275000X-0.200000X0*%
G04 #@! TD*
G04 #@! TA.AperFunction,SMDPad,CuDef*
%ADD17RoundRect,0.250000X0.325000X0.650000X-0.325000X0.650000X-0.325000X-0.650000X0.325000X-0.650000X0*%
G04 #@! TD*
G04 #@! TA.AperFunction,SMDPad,CuDef*
%ADD18RoundRect,0.250000X-1.425000X0.362500X-1.425000X-0.362500X1.425000X-0.362500X1.425000X0.362500X0*%
G04 #@! TD*
G04 #@! TA.AperFunction,SMDPad,CuDef*
%ADD19R,4.000000X4.000000*%
G04 #@! TD*
G04 #@! TA.AperFunction,SMDPad,CuDef*
%ADD20R,2.000000X4.100000*%
G04 #@! TD*
G04 #@! TA.AperFunction,SMDPad,CuDef*
%ADD21R,0.600000X0.240000*%
G04 #@! TD*
G04 #@! TA.AperFunction,SMDPad,CuDef*
%ADD22R,0.240000X0.600000*%
G04 #@! TD*
G04 #@! TA.AperFunction,SMDPad,CuDef*
%ADD23R,0.600000X0.239283*%
G04 #@! TD*
G04 #@! TA.AperFunction,SMDPad,CuDef*
%ADD24R,2.050000X2.050000*%
G04 #@! TD*
G04 #@! TA.AperFunction,SMDPad,CuDef*
%ADD25RoundRect,0.225000X0.225000X0.250000X-0.225000X0.250000X-0.225000X-0.250000X0.225000X-0.250000X0*%
G04 #@! TD*
G04 #@! TA.AperFunction,SMDPad,CuDef*
%ADD26R,3.022600X12.192000*%
G04 #@! TD*
G04 #@! TA.AperFunction,SMDPad,CuDef*
%ADD27RoundRect,0.200000X0.200000X0.275000X-0.200000X0.275000X-0.200000X-0.275000X0.200000X-0.275000X0*%
G04 #@! TD*
G04 #@! TA.AperFunction,SMDPad,CuDef*
%ADD28RoundRect,0.250000X-0.475000X0.250000X-0.475000X-0.250000X0.475000X-0.250000X0.475000X0.250000X0*%
G04 #@! TD*
G04 #@! TA.AperFunction,SMDPad,CuDef*
%ADD29R,4.100000X2.000000*%
G04 #@! TD*
G04 #@! TA.AperFunction,SMDPad,CuDef*
%ADD30RoundRect,0.200000X-0.200000X-0.275000X0.200000X-0.275000X0.200000X0.275000X-0.200000X0.275000X0*%
G04 #@! TD*
G04 #@! TA.AperFunction,SMDPad,CuDef*
%ADD31RoundRect,0.250000X-0.325000X-0.650000X0.325000X-0.650000X0.325000X0.650000X-0.325000X0.650000X0*%
G04 #@! TD*
G04 #@! TA.AperFunction,ComponentPad*
%ADD32R,1.700000X1.700000*%
G04 #@! TD*
G04 #@! TA.AperFunction,ViaPad*
%ADD33C,0.800000*%
G04 #@! TD*
G04 #@! TA.AperFunction,Conductor*
%ADD34C,0.250000*%
G04 #@! TD*
G04 #@! TA.AperFunction,Conductor*
%ADD35C,0.500000*%
G04 #@! TD*
G04 #@! TA.AperFunction,Conductor*
%ADD36C,1.500000*%
G04 #@! TD*
G04 #@! TA.AperFunction,Conductor*
%ADD37C,0.850000*%
G04 #@! TD*
G04 #@! TA.AperFunction,Conductor*
%ADD38C,2.000000*%
G04 #@! TD*
G04 APERTURE END LIST*
D10*
X84632800Y-115870250D03*
X84632800Y-112920250D03*
D11*
X95541800Y-99466400D03*
X97091800Y-99466400D03*
D12*
X102920800Y-93967000D03*
X102920800Y-95517000D03*
D13*
X104859150Y-110820200D03*
X104859150Y-109550200D03*
X104859150Y-108280200D03*
X104859150Y-107010200D03*
D14*
X99319150Y-107010200D03*
D13*
X99319150Y-108280200D03*
X99319150Y-109550200D03*
X99319150Y-110820200D03*
D15*
X82300000Y-96125000D03*
X82300000Y-99075000D03*
D16*
X104546400Y-93890600D03*
X104546400Y-92240600D03*
D17*
X82675000Y-93000000D03*
X79725000Y-93000000D03*
D18*
X86461600Y-117833550D03*
X86461600Y-123758550D03*
D19*
X69200000Y-121300000D03*
D20*
X89100000Y-101550000D03*
X89100000Y-92850000D03*
D21*
X99339600Y-98466399D03*
X99339600Y-98966401D03*
X99339600Y-99466400D03*
X99339600Y-99966402D03*
X99339600Y-100466401D03*
D22*
X99939599Y-101066400D03*
X100439601Y-101066400D03*
X100939600Y-101066400D03*
X101439602Y-101066400D03*
X101939601Y-101066400D03*
D23*
X102539600Y-100466400D03*
X102539600Y-99966400D03*
D21*
X102539600Y-99466400D03*
X102539600Y-98966400D03*
X102539600Y-98466399D03*
D22*
X101939600Y-97866400D03*
X101439600Y-97866400D03*
X100939600Y-97866400D03*
X100439600Y-97866400D03*
X99939599Y-97866400D03*
D24*
X100939600Y-99466400D03*
D25*
X99987400Y-103530400D03*
X98437400Y-103530400D03*
D26*
X105777100Y-120900000D03*
X91222900Y-120900000D03*
D19*
X69173600Y-111398400D03*
D13*
X97251750Y-110805000D03*
X97251750Y-109535000D03*
X97251750Y-108265000D03*
X97251750Y-106995000D03*
D14*
X91711750Y-106995000D03*
D13*
X91711750Y-108265000D03*
X91711750Y-109535000D03*
X91711750Y-110805000D03*
D27*
X106133400Y-97891600D03*
X104483400Y-97891600D03*
D28*
X99466400Y-91658400D03*
X99466400Y-93558400D03*
D19*
X69200000Y-99800000D03*
D29*
X83650000Y-105600000D03*
X74950000Y-105600000D03*
D15*
X74800000Y-96125000D03*
X74800000Y-99075000D03*
D11*
X101841000Y-103530400D03*
X103391000Y-103530400D03*
D30*
X97320600Y-95148400D03*
X98970600Y-95148400D03*
D15*
X79800000Y-96125000D03*
X79800000Y-99075000D03*
D30*
X104483400Y-95453200D03*
X106133400Y-95453200D03*
D31*
X85825000Y-108200000D03*
X88775000Y-108200000D03*
D15*
X77300000Y-96100000D03*
X77300000Y-99050000D03*
D17*
X77775000Y-93000000D03*
X74825000Y-93000000D03*
D31*
X85825000Y-110700000D03*
X88775000Y-110700000D03*
D10*
X87172800Y-115870250D03*
X87172800Y-112920250D03*
D32*
X69200000Y-93000000D03*
D11*
X104533400Y-100025200D03*
X106083400Y-100025200D03*
D12*
X101295200Y-93967000D03*
X101295200Y-95517000D03*
D28*
X97332800Y-91658400D03*
X97332800Y-93558400D03*
D11*
X100926600Y-105206800D03*
X102476600Y-105206800D03*
D33*
X93980000Y-113284000D03*
X98958400Y-97536000D03*
X105562400Y-101193600D03*
X99822000Y-105206800D03*
X107696000Y-109397800D03*
X84992000Y-93622000D03*
X81432400Y-113233200D03*
X81940400Y-112369600D03*
X106172000Y-108534200D03*
X106680000Y-109397800D03*
X107188000Y-110261400D03*
X68656200Y-106680000D03*
X106172000Y-110312200D03*
X86516000Y-96314400D03*
X64363600Y-113436400D03*
X85500000Y-96263600D03*
X79908400Y-114147600D03*
X74066400Y-94894400D03*
X82448400Y-113233200D03*
X84484000Y-96314400D03*
X86008000Y-93571200D03*
X82956400Y-114096800D03*
X95529400Y-98272600D03*
X80924400Y-114096800D03*
X82956400Y-112369600D03*
X85500000Y-94536400D03*
X84484000Y-94536400D03*
X80924400Y-112369600D03*
X107188000Y-108534200D03*
X84992000Y-95400000D03*
X81940400Y-114096800D03*
X69875400Y-106680000D03*
X87172800Y-114096800D03*
X84023200Y-114096800D03*
X86008000Y-95400000D03*
X80416400Y-113233200D03*
X107696000Y-107569000D03*
X86156800Y-114096800D03*
X67487800Y-106680000D03*
X108204000Y-108534200D03*
X106680000Y-107619800D03*
X71069200Y-106680000D03*
X85090000Y-114096800D03*
X108204000Y-110312200D03*
X86516000Y-94536400D03*
X79908400Y-112369600D03*
X104495600Y-101193600D03*
X101803200Y-102565200D03*
X97167100Y-101400000D03*
X97891600Y-97536000D03*
X95504000Y-112268000D03*
X104952800Y-106019600D03*
X102870000Y-101041200D03*
D34*
X89357200Y-113639600D02*
X88646000Y-114350800D01*
X93980000Y-113284000D02*
X93624400Y-113639600D01*
X105562400Y-101193600D02*
X105562400Y-101054200D01*
X100924101Y-101166950D02*
X100924101Y-105204301D01*
X105562400Y-101054200D02*
X104533400Y-100025200D01*
X100924101Y-105204301D02*
X100926600Y-105206800D01*
X88290400Y-119227600D02*
X86918800Y-119227600D01*
X99339600Y-98466399D02*
X99339600Y-97917200D01*
X103428800Y-99466400D02*
X103987600Y-100025200D01*
X86461600Y-118770400D02*
X86461600Y-117833550D01*
X99822000Y-105206800D02*
X100926600Y-105206800D01*
X102624651Y-99466400D02*
X103428800Y-99466400D01*
X86918800Y-119227600D02*
X86461600Y-118770400D01*
X88646000Y-114350800D02*
X88646000Y-118872000D01*
X93624400Y-113639600D02*
X89357200Y-113639600D01*
X88646000Y-118872000D02*
X88290400Y-119227600D01*
X103987600Y-100025200D02*
X104533400Y-100025200D01*
X99339600Y-97917200D02*
X98958400Y-97536000D01*
X101915089Y-101041888D02*
X101915089Y-100441889D01*
X102920800Y-102362000D02*
X103391000Y-102832200D01*
X101924102Y-101166950D02*
X101924102Y-101517702D01*
X102539600Y-98966400D02*
X105733600Y-98966400D01*
X99982080Y-94942264D02*
X100957344Y-93967000D01*
X100957344Y-93967000D02*
X101295200Y-93967000D01*
X95541800Y-99466400D02*
X95541800Y-98285000D01*
X99982080Y-96350597D02*
X99982080Y-94942264D01*
X100424102Y-98966401D02*
X100924101Y-99466400D01*
X101924102Y-101517702D02*
X102768400Y-102362000D01*
X106133400Y-98566600D02*
X106133400Y-97891600D01*
X100439600Y-96808118D02*
X99982080Y-96350597D01*
X101915089Y-100441889D02*
X100939600Y-99466400D01*
X100439600Y-97866400D02*
X100439600Y-96808118D01*
X102768400Y-102362000D02*
X102920800Y-102362000D01*
X100424102Y-97765850D02*
X100424102Y-98966401D01*
X101939601Y-101066400D02*
X101915089Y-101041888D01*
X105733600Y-98966400D02*
X106133400Y-98566600D01*
X95541800Y-98285000D02*
X95529400Y-98272600D01*
X103391000Y-102832200D02*
X103391000Y-103530400D01*
D35*
X97320600Y-95148400D02*
X97320600Y-94551000D01*
X97637600Y-94234000D02*
X97637600Y-93507600D01*
X97320600Y-94551000D02*
X97637600Y-94234000D01*
D36*
X90754200Y-107721400D02*
X91297800Y-108265000D01*
D35*
X75200000Y-94600000D02*
X74825000Y-94225000D01*
D36*
X90769400Y-110805000D02*
X90754200Y-110820200D01*
X91711750Y-110805000D02*
X90769400Y-110805000D01*
D35*
X69200000Y-97200000D02*
X69200000Y-99800000D01*
D36*
X92826800Y-106995000D02*
X93472000Y-106349800D01*
D35*
X79400000Y-94600000D02*
X75200000Y-94600000D01*
X95650000Y-101550000D02*
X89100000Y-101550000D01*
D36*
X91211400Y-106248200D02*
X93370400Y-106248200D01*
D35*
X74825000Y-93000000D02*
X73400000Y-93000000D01*
X79725000Y-93000000D02*
X79725000Y-94275000D01*
D34*
X99223551Y-99466400D02*
X97091800Y-99466400D01*
D36*
X91711750Y-110805000D02*
X91711750Y-106995000D01*
X91297800Y-108265000D02*
X91711750Y-108265000D01*
D35*
X97091800Y-99466400D02*
X97091800Y-100108200D01*
D36*
X90754200Y-106705400D02*
X90754200Y-107721400D01*
X90754200Y-110820200D02*
X90754200Y-110492550D01*
D35*
X97091800Y-100108200D02*
X95650000Y-101550000D01*
X73400000Y-93000000D02*
X69200000Y-97200000D01*
X79725000Y-94275000D02*
X79400000Y-94600000D01*
D36*
X93472000Y-106349800D02*
X93370400Y-106248200D01*
D35*
X74825000Y-94225000D02*
X74825000Y-93000000D01*
D36*
X91711750Y-106995000D02*
X92826800Y-106995000D01*
X91211400Y-106248200D02*
X90754200Y-106705400D01*
X90754200Y-110492550D02*
X91711750Y-109535000D01*
D37*
X98437400Y-105549400D02*
X99319150Y-106431150D01*
D38*
X102108000Y-111379000D02*
X99877950Y-111379000D01*
D37*
X98437400Y-103530400D02*
X98437400Y-105549400D01*
D38*
X99319150Y-110820200D02*
X99319150Y-107010200D01*
D34*
X99009200Y-102260400D02*
X98437400Y-102832200D01*
X99924100Y-101166950D02*
X99924100Y-101853500D01*
D38*
X99877950Y-111379000D02*
X99319150Y-110820200D01*
D37*
X99319150Y-106431150D02*
X99319150Y-107010200D01*
D34*
X98437400Y-102832200D02*
X98437400Y-103530400D01*
X99517200Y-102260400D02*
X99009200Y-102260400D01*
X99924100Y-101853500D02*
X99517200Y-102260400D01*
X98970600Y-95148400D02*
X98970600Y-94054200D01*
X99924100Y-97079300D02*
X98958400Y-96113600D01*
X98970600Y-94054200D02*
X99466400Y-93558400D01*
X99924100Y-97765850D02*
X99924100Y-97079300D01*
X98958400Y-96113600D02*
X98958400Y-95160600D01*
X98958400Y-95160600D02*
X98970600Y-95148400D01*
X101424103Y-101166950D02*
X101424103Y-102186103D01*
X101841000Y-102603000D02*
X101841000Y-103530400D01*
X101424103Y-102186103D02*
X101841000Y-102603000D01*
X104449662Y-101193600D02*
X103222462Y-99966400D01*
X103222462Y-99966400D02*
X102539600Y-99966400D01*
X104495600Y-101193600D02*
X104449662Y-101193600D01*
X102920800Y-95517000D02*
X104419600Y-95517000D01*
X101924102Y-97161098D02*
X102920800Y-96164400D01*
X102920800Y-96164400D02*
X102920800Y-95517000D01*
X101924102Y-97765850D02*
X101924102Y-97161098D01*
X104419600Y-95517000D02*
X104483400Y-95453200D01*
X104558600Y-93878400D02*
X104546400Y-93890600D01*
X105410000Y-93878400D02*
X104558600Y-93878400D01*
X100431600Y-96164400D02*
X100431600Y-95128462D01*
X100818542Y-94741520D02*
X103695480Y-94741520D01*
X103695480Y-94741520D02*
X104546400Y-93890600D01*
X100431600Y-95128462D02*
X100818542Y-94741520D01*
X100924101Y-97765850D02*
X100924101Y-96656901D01*
X106133400Y-95453200D02*
X106133400Y-94601800D01*
X100924101Y-96656901D02*
X100431600Y-96164400D01*
X106133400Y-94601800D02*
X105410000Y-93878400D01*
X100424102Y-102318698D02*
X99987400Y-102755400D01*
X99987400Y-102755400D02*
X99987400Y-103530400D01*
X100424102Y-101166950D02*
X100424102Y-102318698D01*
X101295200Y-96367600D02*
X101295200Y-95517000D01*
X101424103Y-96496503D02*
X101295200Y-96367600D01*
X101424103Y-97765850D02*
X101424103Y-96496503D01*
X97167100Y-101400000D02*
X97200000Y-101400000D01*
X97200000Y-101400000D02*
X98633598Y-99966402D01*
X98633598Y-99966402D02*
X99223551Y-99966402D01*
X103835200Y-97891600D02*
X104483400Y-97891600D01*
X102624651Y-98466399D02*
X103260401Y-98466399D01*
X103260401Y-98466399D02*
X103835200Y-97891600D01*
X86461600Y-121920000D02*
X86461600Y-123758550D01*
X98610801Y-98966401D02*
X97891600Y-98247200D01*
X94393200Y-114096800D02*
X95504000Y-112986000D01*
X99339600Y-98966401D02*
X98610801Y-98966401D01*
X97891600Y-98247200D02*
X97891600Y-97536000D01*
X95504000Y-112986000D02*
X95504000Y-112268000D01*
X89560400Y-114096800D02*
X89095520Y-114561680D01*
X89095520Y-114561680D02*
X89095520Y-119286080D01*
X89095520Y-119286080D02*
X86461600Y-121920000D01*
X94393200Y-114096800D02*
X89560400Y-114096800D01*
G04 #@! TA.AperFunction,Conductor*
G36*
X105479121Y-105582402D02*
G01*
X105525614Y-105636058D01*
X105537000Y-105688400D01*
X105537000Y-107239800D01*
X105516998Y-107307921D01*
X105463342Y-107354414D01*
X105411000Y-107365800D01*
X104291400Y-107365800D01*
X104223279Y-107345798D01*
X104176786Y-107292142D01*
X104165400Y-107239800D01*
X104165400Y-105688400D01*
X104185402Y-105620279D01*
X104239058Y-105573786D01*
X104291400Y-105562400D01*
X105411000Y-105562400D01*
X105479121Y-105582402D01*
G37*
G04 #@! TD.AperFunction*
G04 #@! TA.AperFunction,Conductor*
G36*
X108653621Y-102585202D02*
G01*
X108700114Y-102638858D01*
X108711500Y-102691200D01*
X108711500Y-111049800D01*
X108691498Y-111117921D01*
X108637842Y-111164414D01*
X108585500Y-111175800D01*
X104291400Y-111175800D01*
X104223279Y-111155798D01*
X104176786Y-111102142D01*
X104165400Y-111049800D01*
X104165400Y-108050600D01*
X104185402Y-107982479D01*
X104239058Y-107935986D01*
X104291400Y-107924600D01*
X105816400Y-107924600D01*
X105816400Y-105257600D01*
X103886000Y-105257600D01*
X103886000Y-105995200D01*
X103865998Y-106063321D01*
X103812342Y-106109814D01*
X103760000Y-106121200D01*
X101827600Y-106121200D01*
X101759479Y-106101198D01*
X101712986Y-106047542D01*
X101701600Y-105995200D01*
X101701600Y-104469200D01*
X101721602Y-104401079D01*
X101775258Y-104354586D01*
X101827600Y-104343200D01*
X102666800Y-104343200D01*
X102666800Y-102691200D01*
X102686802Y-102623079D01*
X102740458Y-102576586D01*
X102792800Y-102565200D01*
X108585500Y-102565200D01*
X108653621Y-102585202D01*
G37*
G04 #@! TD.AperFunction*
G04 #@! TA.AperFunction,Conductor*
G36*
X77342121Y-104420002D02*
G01*
X77388614Y-104473658D01*
X77400000Y-104526000D01*
X77400000Y-107298400D01*
X86270800Y-107298400D01*
X86338921Y-107318402D01*
X86385414Y-107372058D01*
X86396800Y-107424400D01*
X86396800Y-112200000D01*
X87874000Y-112200000D01*
X87942121Y-112220002D01*
X87988614Y-112273658D01*
X88000000Y-112326000D01*
X88000000Y-114474000D01*
X87979998Y-114542121D01*
X87926342Y-114588614D01*
X87874000Y-114600000D01*
X62102500Y-114600000D01*
X62034379Y-114579998D01*
X61987886Y-114526342D01*
X61976500Y-114474000D01*
X61976500Y-104526000D01*
X61996502Y-104457879D01*
X62050158Y-104411386D01*
X62102500Y-104400000D01*
X77274000Y-104400000D01*
X77342121Y-104420002D01*
G37*
G04 #@! TD.AperFunction*
G04 #@! TA.AperFunction,Conductor*
G36*
X72942121Y-95420002D02*
G01*
X72988614Y-95473658D01*
X73000000Y-95526000D01*
X73000000Y-97600000D01*
X94073390Y-97600000D01*
X94141511Y-97620002D01*
X94188004Y-97673658D01*
X94199389Y-97726606D01*
X94170063Y-103800000D01*
X94159436Y-106000829D01*
X94139105Y-106068853D01*
X94085225Y-106115086D01*
X94033437Y-106126221D01*
X91615760Y-106126221D01*
X91615760Y-106126247D01*
X91615590Y-106126271D01*
X91025750Y-106126271D01*
X90993764Y-106128559D01*
X90959377Y-106131018D01*
X90959376Y-106131018D01*
X90952639Y-106131500D01*
X90873132Y-106154845D01*
X90820985Y-106170157D01*
X90820983Y-106170158D01*
X90812339Y-106172696D01*
X90804760Y-106177567D01*
X90696909Y-106246878D01*
X90696906Y-106246880D01*
X90689329Y-106251750D01*
X90683428Y-106258560D01*
X90599476Y-106355445D01*
X90599474Y-106355448D01*
X90593574Y-106362257D01*
X90532831Y-106495266D01*
X90512021Y-106640000D01*
X90512021Y-107350000D01*
X90517250Y-107423111D01*
X90558446Y-107563411D01*
X90563317Y-107570990D01*
X90632628Y-107678841D01*
X90632630Y-107678844D01*
X90637500Y-107686421D01*
X90644310Y-107692322D01*
X90741195Y-107776274D01*
X90741198Y-107776276D01*
X90748007Y-107782176D01*
X90881016Y-107842919D01*
X90889939Y-107844202D01*
X90993903Y-107859150D01*
X91058484Y-107888643D01*
X91096867Y-107948369D01*
X91101971Y-107983867D01*
X91101971Y-111159991D01*
X91103952Y-111159991D01*
X91106400Y-111179029D01*
X91105239Y-111217889D01*
X91142225Y-111359356D01*
X91142241Y-111359394D01*
X91143828Y-111362279D01*
X91171878Y-111413273D01*
X91187184Y-111482600D01*
X91162579Y-111549196D01*
X91105876Y-111591919D01*
X91061478Y-111600000D01*
X88329200Y-111600000D01*
X88261079Y-111579998D01*
X88214586Y-111526342D01*
X88203200Y-111474000D01*
X88203200Y-106600000D01*
X81126000Y-106600000D01*
X81057879Y-106579998D01*
X81011386Y-106526342D01*
X81000000Y-106474000D01*
X81000000Y-103800000D01*
X62102500Y-103800000D01*
X62034379Y-103779998D01*
X61987886Y-103726342D01*
X61976500Y-103674000D01*
X61976500Y-95526000D01*
X61996502Y-95457879D01*
X62050158Y-95411386D01*
X62102500Y-95400000D01*
X72874000Y-95400000D01*
X72942121Y-95420002D01*
G37*
G04 #@! TD.AperFunction*
G04 #@! TA.AperFunction,Conductor*
G36*
X88080121Y-115132802D02*
G01*
X88126614Y-115186458D01*
X88138000Y-115238800D01*
X88138000Y-118694610D01*
X88117998Y-118762731D01*
X88064342Y-118809224D01*
X88011413Y-118820609D01*
X83600000Y-118800000D01*
X83600000Y-129667500D01*
X83579998Y-129735621D01*
X83526342Y-129782114D01*
X83474000Y-129793500D01*
X62102500Y-129793500D01*
X62034379Y-129773498D01*
X61987886Y-129719842D01*
X61976500Y-129667500D01*
X61976500Y-115324784D01*
X61996502Y-115256663D01*
X62050158Y-115210170D01*
X62101993Y-115198785D01*
X83464152Y-115112801D01*
X83464659Y-115112800D01*
X88012000Y-115112800D01*
X88080121Y-115132802D01*
G37*
G04 #@! TD.AperFunction*
G04 #@! TA.AperFunction,Conductor*
G36*
X99510121Y-100350002D02*
G01*
X99556614Y-100403658D01*
X99568000Y-100456000D01*
X99568000Y-101192210D01*
X99547998Y-101260331D01*
X99531095Y-101281305D01*
X98828468Y-101983932D01*
X98814665Y-101994524D01*
X98814736Y-101994608D01*
X98806291Y-102001695D01*
X98796745Y-102007206D01*
X98789660Y-102015650D01*
X98772525Y-102036070D01*
X98765100Y-102044173D01*
X98221178Y-102588096D01*
X98213074Y-102595522D01*
X98184206Y-102619745D01*
X98178694Y-102629292D01*
X98171608Y-102637737D01*
X98171523Y-102637666D01*
X98160933Y-102651467D01*
X97790000Y-103022400D01*
X97790000Y-103217422D01*
X97788449Y-103237131D01*
X97786900Y-103246912D01*
X97786900Y-103813888D01*
X97788449Y-103823667D01*
X97790000Y-103843378D01*
X97790000Y-107366800D01*
X97769998Y-107434921D01*
X97716342Y-107481414D01*
X97664000Y-107492800D01*
X96798400Y-107492800D01*
X96730279Y-107472798D01*
X96683786Y-107419142D01*
X96672400Y-107366800D01*
X96672400Y-102874449D01*
X96692402Y-102806328D01*
X96713038Y-102781770D01*
X96896645Y-102612659D01*
X97513858Y-102044173D01*
X97637027Y-101930728D01*
X97637037Y-101930719D01*
X97637600Y-101930200D01*
X97638168Y-101929649D01*
X98488201Y-101104617D01*
X98488201Y-101104616D01*
X98501200Y-101092000D01*
X98501200Y-100611316D01*
X98521202Y-100543195D01*
X98538105Y-100522221D01*
X98693421Y-100366905D01*
X98755733Y-100332879D01*
X98782516Y-100330000D01*
X99442000Y-100330000D01*
X99510121Y-100350002D01*
G37*
G04 #@! TD.AperFunction*
G04 #@! TA.AperFunction,Conductor*
G36*
X102983138Y-100400802D02*
G01*
X103009191Y-100423090D01*
X103346174Y-100802196D01*
X103376481Y-100866399D01*
X103378000Y-100885906D01*
X103378000Y-101372400D01*
X103357998Y-101440521D01*
X103304342Y-101487014D01*
X103252000Y-101498400D01*
X102603547Y-101498400D01*
X102535426Y-101478398D01*
X102488933Y-101424742D01*
X102484730Y-101414335D01*
X102267284Y-100798238D01*
X102260101Y-100756303D01*
X102260101Y-100746652D01*
X102248468Y-100688169D01*
X102247943Y-100687384D01*
X102240589Y-100650411D01*
X102240589Y-100506800D01*
X102260591Y-100438679D01*
X102314247Y-100392186D01*
X102366589Y-100380800D01*
X102915017Y-100380800D01*
X102983138Y-100400802D01*
G37*
G04 #@! TD.AperFunction*
G04 #@! TA.AperFunction,Conductor*
G36*
X93515721Y-114574002D02*
G01*
X93562214Y-114627658D01*
X93573600Y-114680000D01*
X93573600Y-127382000D01*
X93553598Y-127450121D01*
X93499942Y-127496614D01*
X93447600Y-127508000D01*
X84606400Y-127508000D01*
X84538279Y-127487998D01*
X84491786Y-127434342D01*
X84480400Y-127382000D01*
X84480400Y-122858800D01*
X84500402Y-122790679D01*
X84554058Y-122744186D01*
X84606400Y-122732800D01*
X89611200Y-122732800D01*
X89611200Y-114680000D01*
X89631202Y-114611879D01*
X89684858Y-114565386D01*
X89737200Y-114554000D01*
X93447600Y-114554000D01*
X93515721Y-114574002D01*
G37*
G04 #@! TD.AperFunction*
G04 #@! TA.AperFunction,Conductor*
G36*
X98302665Y-107753559D02*
G01*
X98317868Y-107764849D01*
X98348596Y-107791475D01*
X98348599Y-107791477D01*
X98355407Y-107797376D01*
X98363601Y-107801118D01*
X98363604Y-107801120D01*
X98461304Y-107845738D01*
X98488416Y-107858119D01*
X98497339Y-107859402D01*
X98601303Y-107874350D01*
X98665884Y-107903843D01*
X98704267Y-107963569D01*
X98709371Y-107999067D01*
X98709371Y-111175191D01*
X98711352Y-111175191D01*
X98713800Y-111194229D01*
X98712639Y-111233089D01*
X98749625Y-111374556D01*
X98749641Y-111374594D01*
X98801230Y-111468381D01*
X98806542Y-111474083D01*
X98806544Y-111474085D01*
X98894764Y-111568771D01*
X98900907Y-111575364D01*
X98908658Y-111579959D01*
X98908659Y-111579960D01*
X99015198Y-111643121D01*
X99014446Y-111644389D01*
X99014608Y-111644449D01*
X99014496Y-111644701D01*
X99014505Y-111644705D01*
X99016813Y-111645383D01*
X99017668Y-111645752D01*
X99018914Y-111646000D01*
X99021175Y-111646664D01*
X99021190Y-111646673D01*
X99021033Y-111647206D01*
X99024925Y-111648888D01*
X99026687Y-111649932D01*
X99026716Y-111649944D01*
X99026815Y-111649704D01*
X99026947Y-111649761D01*
X99027326Y-111648470D01*
X99144869Y-111682984D01*
X99199403Y-111683539D01*
X99223159Y-111686215D01*
X99223159Y-111688979D01*
X103073141Y-111688979D01*
X103073141Y-111686514D01*
X103091512Y-111683968D01*
X103105568Y-111684111D01*
X103141084Y-111684472D01*
X103149759Y-111682020D01*
X103152880Y-111681604D01*
X103223048Y-111692423D01*
X103276227Y-111739460D01*
X103295532Y-111804961D01*
X103296220Y-111861359D01*
X103309001Y-111861511D01*
X103309002Y-111861511D01*
X107469896Y-111910922D01*
X107537775Y-111931731D01*
X107583627Y-111985935D01*
X107594400Y-112036913D01*
X107594400Y-127534400D01*
X107574398Y-127602521D01*
X107520742Y-127649014D01*
X107468400Y-127660400D01*
X96722200Y-127660400D01*
X96654079Y-127640398D01*
X96607586Y-127586742D01*
X96596200Y-127534400D01*
X96596200Y-113385600D01*
X96590881Y-113385600D01*
X96583316Y-113359835D01*
X96575905Y-113348305D01*
X96570800Y-113312802D01*
X96570800Y-107871840D01*
X96590802Y-107803719D01*
X96644458Y-107757226D01*
X96695837Y-107745844D01*
X98234394Y-107734079D01*
X98302665Y-107753559D01*
G37*
G04 #@! TD.AperFunction*
G04 #@! TA.AperFunction,Conductor*
G36*
X94142121Y-90698502D02*
G01*
X94188614Y-90752158D01*
X94200000Y-90804500D01*
X94200000Y-96874000D01*
X94179998Y-96942121D01*
X94126342Y-96988614D01*
X94074000Y-97000000D01*
X73726000Y-97000000D01*
X73657879Y-96979998D01*
X73611386Y-96926342D01*
X73600000Y-96874000D01*
X73600000Y-94800000D01*
X72617661Y-94800000D01*
X72549540Y-94779998D01*
X72503047Y-94726342D01*
X72492943Y-94656068D01*
X72522437Y-94591488D01*
X72528566Y-94584905D01*
X73572066Y-93541405D01*
X73634378Y-93507379D01*
X73661161Y-93504500D01*
X73869500Y-93504500D01*
X73937621Y-93524502D01*
X73984114Y-93578158D01*
X73995500Y-93630500D01*
X73995500Y-93697756D01*
X74002202Y-93759448D01*
X74052929Y-93894764D01*
X74058309Y-93901943D01*
X74058311Y-93901946D01*
X74101537Y-93959622D01*
X74139596Y-94010404D01*
X74255236Y-94097071D01*
X74255561Y-94097193D01*
X74302641Y-94144378D01*
X74317743Y-94196838D01*
X74320258Y-94237383D01*
X74320500Y-94245184D01*
X74320500Y-94261226D01*
X74321135Y-94265657D01*
X74321135Y-94265662D01*
X74321965Y-94271453D01*
X74322997Y-94281523D01*
X74325328Y-94319101D01*
X74325902Y-94328359D01*
X74328949Y-94336799D01*
X74329630Y-94340089D01*
X74333582Y-94355938D01*
X74334527Y-94359168D01*
X74335799Y-94368052D01*
X74339514Y-94376223D01*
X74355218Y-94410763D01*
X74359030Y-94420128D01*
X74371922Y-94455837D01*
X74371924Y-94455840D01*
X74374972Y-94464284D01*
X74380268Y-94471533D01*
X74381840Y-94474490D01*
X74390093Y-94488614D01*
X74391898Y-94491437D01*
X74395612Y-94499605D01*
X74401469Y-94506402D01*
X74401470Y-94506404D01*
X74426243Y-94535153D01*
X74432525Y-94543064D01*
X74440473Y-94553944D01*
X74451335Y-94564806D01*
X74457693Y-94571652D01*
X74489944Y-94609082D01*
X74497479Y-94613966D01*
X74504051Y-94619699D01*
X74515455Y-94628926D01*
X74793323Y-94906794D01*
X74800865Y-94916234D01*
X74801245Y-94915911D01*
X74807063Y-94922747D01*
X74811853Y-94930339D01*
X74818581Y-94936281D01*
X74851859Y-94965671D01*
X74857546Y-94971017D01*
X74868880Y-94982351D01*
X74872463Y-94985036D01*
X74872465Y-94985038D01*
X74877155Y-94988553D01*
X74884998Y-94994938D01*
X74920170Y-95026001D01*
X74928292Y-95029814D01*
X74931093Y-95031654D01*
X74945088Y-95040063D01*
X74948051Y-95041685D01*
X74955236Y-95047070D01*
X74963646Y-95050223D01*
X74963648Y-95050224D01*
X74999182Y-95063546D01*
X75008495Y-95067470D01*
X75050982Y-95087417D01*
X75059856Y-95088799D01*
X75063083Y-95089785D01*
X75078866Y-95093925D01*
X75082144Y-95094646D01*
X75090552Y-95097798D01*
X75104309Y-95098820D01*
X75137357Y-95101276D01*
X75147404Y-95102430D01*
X75155886Y-95103751D01*
X75155889Y-95103751D01*
X75160697Y-95104500D01*
X75176062Y-95104500D01*
X75185400Y-95104846D01*
X75234667Y-95108507D01*
X75243442Y-95106634D01*
X75252138Y-95106041D01*
X75266738Y-95104500D01*
X79329376Y-95104500D01*
X79341381Y-95105841D01*
X79341421Y-95105345D01*
X79350368Y-95106065D01*
X79359124Y-95108046D01*
X79412382Y-95104742D01*
X79420184Y-95104500D01*
X79436226Y-95104500D01*
X79440657Y-95103865D01*
X79440662Y-95103865D01*
X79444687Y-95103288D01*
X79446457Y-95103035D01*
X79456514Y-95102004D01*
X79478976Y-95100611D01*
X79494400Y-95099654D01*
X79494402Y-95099654D01*
X79503359Y-95099098D01*
X79511799Y-95096051D01*
X79515089Y-95095370D01*
X79530938Y-95091418D01*
X79534168Y-95090473D01*
X79543052Y-95089201D01*
X79585763Y-95069782D01*
X79595128Y-95065970D01*
X79630837Y-95053078D01*
X79630840Y-95053076D01*
X79639284Y-95050028D01*
X79646533Y-95044732D01*
X79649490Y-95043160D01*
X79663614Y-95034907D01*
X79666437Y-95033102D01*
X79674605Y-95029388D01*
X79681402Y-95023531D01*
X79681404Y-95023530D01*
X79710153Y-94998757D01*
X79718064Y-94992475D01*
X79728944Y-94984527D01*
X79739806Y-94973665D01*
X79746653Y-94967307D01*
X79777282Y-94940915D01*
X79784082Y-94935056D01*
X79788966Y-94927521D01*
X79794699Y-94920949D01*
X79803926Y-94909545D01*
X80031794Y-94681677D01*
X80041234Y-94674135D01*
X80040911Y-94673755D01*
X80047747Y-94667937D01*
X80055339Y-94663147D01*
X80090672Y-94623140D01*
X80096017Y-94617454D01*
X80107351Y-94606120D01*
X80110038Y-94602534D01*
X80110043Y-94602529D01*
X80113557Y-94597841D01*
X80119938Y-94590003D01*
X80145060Y-94561557D01*
X80151001Y-94554830D01*
X80154815Y-94546707D01*
X80156661Y-94543896D01*
X80165072Y-94529897D01*
X80166686Y-94526948D01*
X80172070Y-94519765D01*
X80188542Y-94475826D01*
X80192469Y-94466506D01*
X80208602Y-94432144D01*
X80208602Y-94432143D01*
X80212417Y-94424018D01*
X80213798Y-94415147D01*
X80214783Y-94411925D01*
X80218920Y-94396154D01*
X80219644Y-94392860D01*
X80222798Y-94384448D01*
X80226276Y-94337650D01*
X80227426Y-94327626D01*
X80229500Y-94314303D01*
X80229500Y-94298938D01*
X80229846Y-94289601D01*
X80231625Y-94265662D01*
X80233507Y-94240334D01*
X80231634Y-94231559D01*
X80231041Y-94222863D01*
X80229500Y-94208263D01*
X80229500Y-94206016D01*
X80249502Y-94137895D01*
X80292317Y-94097988D01*
X80294764Y-94097071D01*
X80410404Y-94010404D01*
X80448463Y-93959622D01*
X80491689Y-93901946D01*
X80491691Y-93901943D01*
X80497071Y-93894764D01*
X80547798Y-93759448D01*
X80554500Y-93697756D01*
X80554500Y-92302244D01*
X80547798Y-92240552D01*
X80497071Y-92105236D01*
X80491691Y-92098057D01*
X80491689Y-92098054D01*
X80415785Y-91996776D01*
X80410404Y-91989596D01*
X80370411Y-91959623D01*
X80301946Y-91908311D01*
X80301943Y-91908309D01*
X80294764Y-91902929D01*
X80205046Y-91869296D01*
X80166843Y-91854974D01*
X80166841Y-91854974D01*
X80159448Y-91852202D01*
X80151598Y-91851349D01*
X80151597Y-91851349D01*
X80101153Y-91845869D01*
X80101152Y-91845869D01*
X80097756Y-91845500D01*
X79352244Y-91845500D01*
X79348848Y-91845869D01*
X79348847Y-91845869D01*
X79298403Y-91851349D01*
X79298402Y-91851349D01*
X79290552Y-91852202D01*
X79283159Y-91854974D01*
X79283157Y-91854974D01*
X79244954Y-91869296D01*
X79155236Y-91902929D01*
X79148057Y-91908309D01*
X79148054Y-91908311D01*
X79079589Y-91959623D01*
X79039596Y-91989596D01*
X79034215Y-91996776D01*
X78958311Y-92098054D01*
X78958309Y-92098057D01*
X78952929Y-92105236D01*
X78902202Y-92240552D01*
X78895500Y-92302244D01*
X78895500Y-93697756D01*
X78902202Y-93759448D01*
X78952929Y-93894764D01*
X78958315Y-93901951D01*
X78962170Y-93908992D01*
X78977338Y-93978349D01*
X78952601Y-94044897D01*
X78895812Y-94087507D01*
X78851649Y-94095500D01*
X75698351Y-94095500D01*
X75630230Y-94075498D01*
X75583737Y-94021842D01*
X75573633Y-93951568D01*
X75587830Y-93908992D01*
X75591685Y-93901951D01*
X75597071Y-93894764D01*
X75647798Y-93759448D01*
X75654500Y-93697756D01*
X75654500Y-92302244D01*
X75647798Y-92240552D01*
X75597071Y-92105236D01*
X75591691Y-92098057D01*
X75591689Y-92098054D01*
X75515785Y-91996776D01*
X75510404Y-91989596D01*
X75470411Y-91959623D01*
X75401946Y-91908311D01*
X75401943Y-91908309D01*
X75394764Y-91902929D01*
X75305046Y-91869296D01*
X75266843Y-91854974D01*
X75266841Y-91854974D01*
X75259448Y-91852202D01*
X75251598Y-91851349D01*
X75251597Y-91851349D01*
X75201153Y-91845869D01*
X75201152Y-91845869D01*
X75197756Y-91845500D01*
X74452244Y-91845500D01*
X74448848Y-91845869D01*
X74448847Y-91845869D01*
X74398403Y-91851349D01*
X74398402Y-91851349D01*
X74390552Y-91852202D01*
X74383159Y-91854974D01*
X74383157Y-91854974D01*
X74344954Y-91869296D01*
X74255236Y-91902929D01*
X74248057Y-91908309D01*
X74248054Y-91908311D01*
X74179589Y-91959623D01*
X74139596Y-91989596D01*
X74134215Y-91996776D01*
X74058311Y-92098054D01*
X74058309Y-92098057D01*
X74052929Y-92105236D01*
X74002202Y-92240552D01*
X73995500Y-92302244D01*
X73995500Y-92369500D01*
X73975498Y-92437621D01*
X73921842Y-92484114D01*
X73869500Y-92495500D01*
X73470624Y-92495500D01*
X73458619Y-92494159D01*
X73458579Y-92494655D01*
X73449632Y-92493935D01*
X73440876Y-92491954D01*
X73397339Y-92494655D01*
X73387619Y-92495258D01*
X73379817Y-92495500D01*
X73363774Y-92495500D01*
X73359344Y-92496135D01*
X73359337Y-92496135D01*
X73353536Y-92496966D01*
X73343481Y-92497996D01*
X73305601Y-92500346D01*
X73305599Y-92500346D01*
X73296642Y-92500902D01*
X73288201Y-92503949D01*
X73284923Y-92504628D01*
X73269055Y-92508584D01*
X73265831Y-92509527D01*
X73256948Y-92510799D01*
X73248779Y-92514513D01*
X73248773Y-92514515D01*
X73214221Y-92530225D01*
X73204853Y-92534039D01*
X73160716Y-92549972D01*
X73153466Y-92555269D01*
X73150499Y-92556846D01*
X73136386Y-92565093D01*
X73133563Y-92566898D01*
X73125395Y-92570612D01*
X73118598Y-92576469D01*
X73118596Y-92576470D01*
X73089847Y-92601243D01*
X73081936Y-92607525D01*
X73071056Y-92615473D01*
X73060194Y-92626335D01*
X73053348Y-92632693D01*
X73015918Y-92664944D01*
X73011034Y-92672479D01*
X73005301Y-92679051D01*
X72996074Y-92690455D01*
X70923434Y-94763095D01*
X70861122Y-94797121D01*
X70834339Y-94800000D01*
X62102500Y-94800000D01*
X62034379Y-94779998D01*
X61987886Y-94726342D01*
X61976500Y-94674000D01*
X61976500Y-92124933D01*
X68095500Y-92124933D01*
X68095501Y-93875066D01*
X68110266Y-93949301D01*
X68117161Y-93959620D01*
X68117162Y-93959622D01*
X68146297Y-94003224D01*
X68166516Y-94033484D01*
X68250699Y-94089734D01*
X68324933Y-94104500D01*
X69199858Y-94104500D01*
X70075066Y-94104499D01*
X70112412Y-94097071D01*
X70137126Y-94092156D01*
X70137128Y-94092155D01*
X70149301Y-94089734D01*
X70159621Y-94082839D01*
X70159622Y-94082838D01*
X70223168Y-94040377D01*
X70233484Y-94033484D01*
X70259309Y-93994835D01*
X70282839Y-93959620D01*
X70289734Y-93949301D01*
X70304500Y-93875067D01*
X70304499Y-92124934D01*
X70289734Y-92050699D01*
X70233484Y-91966516D01*
X70149301Y-91910266D01*
X70075067Y-91895500D01*
X69200142Y-91895500D01*
X68324934Y-91895501D01*
X68289182Y-91902612D01*
X68262874Y-91907844D01*
X68262872Y-91907845D01*
X68250699Y-91910266D01*
X68240379Y-91917161D01*
X68240378Y-91917162D01*
X68179985Y-91957516D01*
X68166516Y-91966516D01*
X68110266Y-92050699D01*
X68095500Y-92124933D01*
X61976500Y-92124933D01*
X61976500Y-90804500D01*
X61996502Y-90736379D01*
X62050158Y-90689886D01*
X62102500Y-90678500D01*
X94074000Y-90678500D01*
X94142121Y-90698502D01*
G37*
G04 #@! TD.AperFunction*
G04 #@! TA.AperFunction,Conductor*
G36*
X108653621Y-90698502D02*
G01*
X108700114Y-90752158D01*
X108711500Y-90804500D01*
X108711500Y-100661200D01*
X108691498Y-100729321D01*
X108637842Y-100775814D01*
X108585500Y-100787200D01*
X106138174Y-100787200D01*
X106070053Y-100767198D01*
X106054355Y-100755277D01*
X105944346Y-100657264D01*
X105938675Y-100652211D01*
X105798674Y-100578084D01*
X105645033Y-100539492D01*
X105637435Y-100539452D01*
X105637433Y-100539452D01*
X105635870Y-100539444D01*
X105634777Y-100539117D01*
X105629902Y-100538501D01*
X105630005Y-100537688D01*
X105567855Y-100519086D01*
X105547435Y-100502541D01*
X105396105Y-100351211D01*
X105362079Y-100288899D01*
X105359200Y-100262116D01*
X105359200Y-96900000D01*
X105379202Y-96831879D01*
X105432858Y-96785386D01*
X105485200Y-96774000D01*
X106934000Y-96774000D01*
X106934000Y-92862400D01*
X103733600Y-92862400D01*
X103733600Y-93955600D01*
X103713598Y-94023721D01*
X103659942Y-94070214D01*
X103607600Y-94081600D01*
X100710000Y-94081600D01*
X100641879Y-94061598D01*
X100595386Y-94007942D01*
X100584000Y-93955600D01*
X100584000Y-92557600D01*
X96442800Y-92557600D01*
X96374679Y-92537598D01*
X96328186Y-92483942D01*
X96316800Y-92431600D01*
X96316800Y-90804500D01*
X96336802Y-90736379D01*
X96390458Y-90689886D01*
X96442800Y-90678500D01*
X108585500Y-90678500D01*
X108653621Y-90698502D01*
G37*
G04 #@! TD.AperFunction*
M02*
