G04 #@! TF.GenerationSoftware,KiCad,Pcbnew,(6.0.5)*
G04 #@! TF.CreationDate,2023-03-06T18:53:00-08:00*
G04 #@! TF.ProjectId,12V_Converter_LM5152x-Q1,3132565f-436f-46e7-9665-727465725f4c,rev?*
G04 #@! TF.SameCoordinates,Original*
G04 #@! TF.FileFunction,Legend,Top*
G04 #@! TF.FilePolarity,Positive*
%FSLAX46Y46*%
G04 Gerber Fmt 4.6, Leading zero omitted, Abs format (unit mm)*
G04 Created by KiCad (PCBNEW (6.0.5)) date 2023-03-06 18:53:00*
%MOMM*%
%LPD*%
G01*
G04 APERTURE LIST*
G04 Aperture macros list*
%AMRoundRect*
0 Rectangle with rounded corners*
0 $1 Rounding radius*
0 $2 $3 $4 $5 $6 $7 $8 $9 X,Y pos of 4 corners*
0 Add a 4 corners polygon primitive as box body*
4,1,4,$2,$3,$4,$5,$6,$7,$8,$9,$2,$3,0*
0 Add four circle primitives for the rounded corners*
1,1,$1+$1,$2,$3*
1,1,$1+$1,$4,$5*
1,1,$1+$1,$6,$7*
1,1,$1+$1,$8,$9*
0 Add four rect primitives between the rounded corners*
20,1,$1+$1,$2,$3,$4,$5,0*
20,1,$1+$1,$4,$5,$6,$7,0*
20,1,$1+$1,$6,$7,$8,$9,0*
20,1,$1+$1,$8,$9,$2,$3,0*%
G04 Aperture macros list end*
%ADD10C,0.150000*%
%ADD11C,0.120000*%
%ADD12C,0.100000*%
%ADD13R,1.700000X1.700000*%
%ADD14RoundRect,0.250000X0.650000X-0.325000X0.650000X0.325000X-0.650000X0.325000X-0.650000X-0.325000X0*%
%ADD15RoundRect,0.225000X-0.225000X-0.250000X0.225000X-0.250000X0.225000X0.250000X-0.225000X0.250000X0*%
%ADD16RoundRect,0.225000X-0.250000X0.225000X-0.250000X-0.225000X0.250000X-0.225000X0.250000X0.225000X0*%
%ADD17RoundRect,0.250000X-0.650000X0.325000X-0.650000X-0.325000X0.650000X-0.325000X0.650000X0.325000X0*%
%ADD18RoundRect,0.200000X0.275000X-0.200000X0.275000X0.200000X-0.275000X0.200000X-0.275000X-0.200000X0*%
%ADD19RoundRect,0.250000X-1.425000X0.362500X-1.425000X-0.362500X1.425000X-0.362500X1.425000X0.362500X0*%
%ADD20R,4.000000X4.000000*%
%ADD21R,0.700000X0.240000*%
%ADD22R,0.240000X0.700000*%
%ADD23R,0.700000X0.239283*%
%ADD24R,2.050000X2.050000*%
%ADD25RoundRect,0.225000X0.225000X0.250000X-0.225000X0.250000X-0.225000X-0.250000X0.225000X-0.250000X0*%
%ADD26R,0.711200X0.508000*%
%ADD27RoundRect,0.200000X0.200000X0.275000X-0.200000X0.275000X-0.200000X-0.275000X0.200000X-0.275000X0*%
%ADD28RoundRect,0.250000X-0.475000X0.250000X-0.475000X-0.250000X0.475000X-0.250000X0.475000X0.250000X0*%
%ADD29R,3.759200X12.293600*%
%ADD30RoundRect,0.200000X-0.200000X-0.275000X0.200000X-0.275000X0.200000X0.275000X-0.200000X0.275000X0*%
%ADD31RoundRect,0.250000X-0.325000X-0.650000X0.325000X-0.650000X0.325000X0.650000X-0.325000X0.650000X0*%
G04 APERTURE END LIST*
D10*
X68275390Y-96124780D02*
X68608723Y-97124780D01*
X68942057Y-96124780D01*
X69418247Y-97124780D02*
X69323009Y-97077161D01*
X69275390Y-97029542D01*
X69227771Y-96934304D01*
X69227771Y-96648590D01*
X69275390Y-96553352D01*
X69323009Y-96505733D01*
X69418247Y-96458114D01*
X69561104Y-96458114D01*
X69656342Y-96505733D01*
X69703961Y-96553352D01*
X69751580Y-96648590D01*
X69751580Y-96934304D01*
X69703961Y-97029542D01*
X69656342Y-97077161D01*
X69561104Y-97124780D01*
X69418247Y-97124780D01*
X70608723Y-96458114D02*
X70608723Y-97124780D01*
X70180152Y-96458114D02*
X70180152Y-96981923D01*
X70227771Y-97077161D01*
X70323009Y-97124780D01*
X70465866Y-97124780D01*
X70561104Y-97077161D01*
X70608723Y-97029542D01*
X70942057Y-96458114D02*
X71323009Y-96458114D01*
X71084914Y-96124780D02*
X71084914Y-96981923D01*
X71132533Y-97077161D01*
X71227771Y-97124780D01*
X71323009Y-97124780D01*
X69189695Y-106688000D02*
X69094457Y-106640380D01*
X68951600Y-106640380D01*
X68808742Y-106688000D01*
X68713504Y-106783238D01*
X68665885Y-106878476D01*
X68618266Y-107068952D01*
X68618266Y-107211809D01*
X68665885Y-107402285D01*
X68713504Y-107497523D01*
X68808742Y-107592761D01*
X68951600Y-107640380D01*
X69046838Y-107640380D01*
X69189695Y-107592761D01*
X69237314Y-107545142D01*
X69237314Y-107211809D01*
X69046838Y-107211809D01*
X69665885Y-107640380D02*
X69665885Y-106640380D01*
X70237314Y-107640380D01*
X70237314Y-106640380D01*
X70713504Y-107640380D02*
X70713504Y-106640380D01*
X70951600Y-106640380D01*
X71094457Y-106688000D01*
X71189695Y-106783238D01*
X71237314Y-106878476D01*
X71284933Y-107068952D01*
X71284933Y-107211809D01*
X71237314Y-107402285D01*
X71189695Y-107497523D01*
X71094457Y-107592761D01*
X70951600Y-107640380D01*
X70713504Y-107640380D01*
X69181790Y-117816380D02*
X69515123Y-118816380D01*
X69848457Y-117816380D01*
X70181790Y-118816380D02*
X70181790Y-118149714D01*
X70181790Y-117816380D02*
X70134171Y-117864000D01*
X70181790Y-117911619D01*
X70229409Y-117864000D01*
X70181790Y-117816380D01*
X70181790Y-117911619D01*
X70657980Y-118149714D02*
X70657980Y-118816380D01*
X70657980Y-118244952D02*
X70705600Y-118197333D01*
X70800838Y-118149714D01*
X70943695Y-118149714D01*
X71038933Y-118197333D01*
X71086552Y-118292571D01*
X71086552Y-118816380D01*
X67784933Y-91133561D02*
X67927790Y-91181180D01*
X68165885Y-91181180D01*
X68261123Y-91133561D01*
X68308742Y-91085942D01*
X68356361Y-90990704D01*
X68356361Y-90895466D01*
X68308742Y-90800228D01*
X68261123Y-90752609D01*
X68165885Y-90704990D01*
X67975409Y-90657371D01*
X67880171Y-90609752D01*
X67832552Y-90562133D01*
X67784933Y-90466895D01*
X67784933Y-90371657D01*
X67832552Y-90276419D01*
X67880171Y-90228800D01*
X67975409Y-90181180D01*
X68213504Y-90181180D01*
X68356361Y-90228800D01*
X68642076Y-90514514D02*
X69023028Y-90514514D01*
X68784933Y-90181180D02*
X68784933Y-91038323D01*
X68832552Y-91133561D01*
X68927790Y-91181180D01*
X69023028Y-91181180D01*
X69784933Y-91181180D02*
X69784933Y-90657371D01*
X69737314Y-90562133D01*
X69642076Y-90514514D01*
X69451600Y-90514514D01*
X69356361Y-90562133D01*
X69784933Y-91133561D02*
X69689695Y-91181180D01*
X69451600Y-91181180D01*
X69356361Y-91133561D01*
X69308742Y-91038323D01*
X69308742Y-90943085D01*
X69356361Y-90847847D01*
X69451600Y-90800228D01*
X69689695Y-90800228D01*
X69784933Y-90752609D01*
X70118266Y-90514514D02*
X70499219Y-90514514D01*
X70261123Y-90181180D02*
X70261123Y-91038323D01*
X70308742Y-91133561D01*
X70403980Y-91181180D01*
X70499219Y-91181180D01*
X71261123Y-90514514D02*
X71261123Y-91181180D01*
X70832552Y-90514514D02*
X70832552Y-91038323D01*
X70880171Y-91133561D01*
X70975409Y-91181180D01*
X71118266Y-91181180D01*
X71213504Y-91133561D01*
X71261123Y-91085942D01*
X71689695Y-91133561D02*
X71784933Y-91181180D01*
X71975409Y-91181180D01*
X72070647Y-91133561D01*
X72118266Y-91038323D01*
X72118266Y-90990704D01*
X72070647Y-90895466D01*
X71975409Y-90847847D01*
X71832552Y-90847847D01*
X71737314Y-90800228D01*
X71689695Y-90704990D01*
X71689695Y-90657371D01*
X71737314Y-90562133D01*
X71832552Y-90514514D01*
X71975409Y-90514514D01*
X72070647Y-90562133D01*
D11*
X73396800Y-89398800D02*
X74726800Y-89398800D01*
X73396800Y-91998800D02*
X76056800Y-91998800D01*
X73396800Y-92058800D02*
X76056800Y-92058800D01*
X76056800Y-91998800D02*
X76056800Y-92058800D01*
X73396800Y-91998800D02*
X73396800Y-92058800D01*
X73396800Y-90728800D02*
X73396800Y-89398800D01*
X85542800Y-115106502D02*
X85542800Y-113683998D01*
X83722800Y-115106502D02*
X83722800Y-113683998D01*
X96176220Y-98956400D02*
X96457380Y-98956400D01*
X96176220Y-99976400D02*
X96457380Y-99976400D01*
X102410800Y-94601420D02*
X102410800Y-94882580D01*
X103430800Y-94601420D02*
X103430800Y-94882580D01*
X88641600Y-99917198D02*
X88641600Y-101339702D01*
X86821600Y-99917198D02*
X86821600Y-101339702D01*
X104023900Y-93302858D02*
X104023900Y-92828342D01*
X105068900Y-93302858D02*
X105068900Y-92828342D01*
X82206220Y-110796800D02*
X82487380Y-110796800D01*
X82206220Y-109776800D02*
X82487380Y-109776800D01*
X84281600Y-99917198D02*
X84281600Y-101339702D01*
X86101600Y-99917198D02*
X86101600Y-101339702D01*
X84751600Y-118618986D02*
X84751600Y-122973114D01*
X88171600Y-118618986D02*
X88171600Y-122973114D01*
X76825200Y-120310000D02*
X72425200Y-120310000D01*
X72425200Y-115910000D02*
X76825200Y-115910000D01*
X76825200Y-115910000D02*
X76825200Y-120310000D01*
X72425200Y-120310000D02*
X72425200Y-115910000D01*
X99189601Y-97966400D02*
X99189601Y-97716401D01*
X99189601Y-101216399D02*
X99189601Y-100966400D01*
X102689599Y-101216399D02*
X102689599Y-100966400D01*
X102689599Y-97966400D02*
X102689599Y-97716401D01*
X102439600Y-97716401D02*
X102689599Y-97716401D01*
X102439600Y-101216399D02*
X102689599Y-101216399D01*
X99189601Y-97716401D02*
X99439600Y-97716401D01*
X99189601Y-101216399D02*
X99439600Y-101216399D01*
X98035491Y-98466399D02*
G75*
G03*
X98035491Y-98466399I-125001J0D01*
G01*
X99352980Y-103020400D02*
X99071820Y-103020400D01*
X99352980Y-104040400D02*
X99071820Y-104040400D01*
X91008200Y-111531400D02*
X97256600Y-111531400D01*
X97256600Y-106273600D02*
X91008200Y-106273600D01*
X76825200Y-109286400D02*
X72425200Y-109286400D01*
X72425200Y-104886400D02*
X76825200Y-104886400D01*
X76825200Y-104886400D02*
X76825200Y-109286400D01*
X72425200Y-109286400D02*
X72425200Y-104886400D01*
X105545658Y-98414100D02*
X105071142Y-98414100D01*
X105545658Y-97369100D02*
X105071142Y-97369100D01*
X105130600Y-106279950D02*
X98882200Y-106279950D01*
X98882200Y-111537750D02*
X105130600Y-111537750D01*
X100201400Y-92347148D02*
X100201400Y-92869652D01*
X98731400Y-92347148D02*
X98731400Y-92869652D01*
X76876000Y-98821600D02*
X72476000Y-98821600D01*
X72476000Y-94421600D02*
X76876000Y-94421600D01*
X76876000Y-94421600D02*
X76876000Y-98821600D01*
X72476000Y-98821600D02*
X72476000Y-94421600D01*
X108140500Y-120948450D02*
G75*
G03*
X108140500Y-120948450I-76200J0D01*
G01*
X106921300Y-112248950D02*
X89166700Y-112248950D01*
X106921300Y-114468910D02*
X106921300Y-112248950D01*
X106921300Y-129647950D02*
X106921300Y-127427990D01*
X89166700Y-129647950D02*
X106921300Y-129647950D01*
X89166700Y-112248950D02*
X89166700Y-114468910D01*
X89166700Y-127427990D02*
X89166700Y-129647950D01*
X81792400Y-104749548D02*
X81792400Y-106172052D01*
X83612400Y-104749548D02*
X83612400Y-106172052D01*
X102475420Y-104040400D02*
X102756580Y-104040400D01*
X102475420Y-103020400D02*
X102756580Y-103020400D01*
X97908342Y-95670900D02*
X98382858Y-95670900D01*
X97908342Y-94625900D02*
X98382858Y-94625900D01*
X91181600Y-99917198D02*
X91181600Y-101339702D01*
X89361600Y-99917198D02*
X89361600Y-101339702D01*
X105071142Y-95975700D02*
X105545658Y-95975700D01*
X105071142Y-94930700D02*
X105545658Y-94930700D01*
X82206220Y-108151200D02*
X82487380Y-108151200D01*
X82206220Y-109171200D02*
X82487380Y-109171200D01*
X85597948Y-107691600D02*
X87020452Y-107691600D01*
X85597948Y-105871600D02*
X87020452Y-105871600D01*
X85597948Y-103376050D02*
X87020452Y-103376050D01*
X85597948Y-105196050D02*
X87020452Y-105196050D01*
X81792400Y-99923548D02*
X81792400Y-101346052D01*
X83612400Y-99923548D02*
X83612400Y-101346052D01*
X85597948Y-108310000D02*
X87020452Y-108310000D01*
X85597948Y-110130000D02*
X87020452Y-110130000D01*
X86262800Y-115106502D02*
X86262800Y-113683998D01*
X88082800Y-115106502D02*
X88082800Y-113683998D01*
X105167820Y-100535200D02*
X105448980Y-100535200D01*
X105167820Y-99515200D02*
X105448980Y-99515200D01*
X100785200Y-94601420D02*
X100785200Y-94882580D01*
X101805200Y-94601420D02*
X101805200Y-94882580D01*
X98067800Y-92347148D02*
X98067800Y-92869652D01*
X96597800Y-92347148D02*
X96597800Y-92869652D01*
X101561020Y-105716800D02*
X101842180Y-105716800D01*
X101561020Y-104696800D02*
X101842180Y-104696800D01*
%LPC*%
G36*
X91577998Y-106908600D02*
G01*
X95413398Y-106908600D01*
X95413398Y-110896400D01*
X91577998Y-110896400D01*
X91578001Y-111061500D01*
X90866801Y-111061500D01*
X90866801Y-110553500D01*
X91578001Y-110553500D01*
X91578001Y-109791500D01*
X90866801Y-109791500D01*
X90866801Y-109283500D01*
X91578001Y-109283500D01*
X91578001Y-108521500D01*
X90866801Y-108521500D01*
X90866801Y-108013500D01*
X91578001Y-108013500D01*
X91578001Y-107251500D01*
X90866801Y-107251500D01*
X90866801Y-106743500D01*
X91578001Y-106743500D01*
X91577998Y-106908600D01*
G37*
D12*
X91577998Y-106908600D02*
X95413398Y-106908600D01*
X95413398Y-110896400D01*
X91577998Y-110896400D01*
X91578001Y-111061500D01*
X90866801Y-111061500D01*
X90866801Y-110553500D01*
X91578001Y-110553500D01*
X91578001Y-109791500D01*
X90866801Y-109791500D01*
X90866801Y-109283500D01*
X91578001Y-109283500D01*
X91578001Y-108521500D01*
X90866801Y-108521500D01*
X90866801Y-108013500D01*
X91578001Y-108013500D01*
X91578001Y-107251500D01*
X90866801Y-107251500D01*
X90866801Y-106743500D01*
X91578001Y-106743500D01*
X91577998Y-106908600D01*
G36*
X99451998Y-106914950D02*
G01*
X103287398Y-106914950D01*
X103287398Y-110902750D01*
X99451998Y-110902750D01*
X99452001Y-111067850D01*
X98740801Y-111067850D01*
X98740801Y-110559850D01*
X99452001Y-110559850D01*
X99452001Y-109797850D01*
X98740801Y-109797850D01*
X98740801Y-109289850D01*
X99452001Y-109289850D01*
X99452001Y-108527850D01*
X98740801Y-108527850D01*
X98740801Y-108019850D01*
X99452001Y-108019850D01*
X99452001Y-107257850D01*
X98740801Y-107257850D01*
X98740801Y-106749850D01*
X99452001Y-106749850D01*
X99451998Y-106914950D01*
G37*
X99451998Y-106914950D02*
X103287398Y-106914950D01*
X103287398Y-110902750D01*
X99451998Y-110902750D01*
X99452001Y-111067850D01*
X98740801Y-111067850D01*
X98740801Y-110559850D01*
X99452001Y-110559850D01*
X99452001Y-109797850D01*
X98740801Y-109797850D01*
X98740801Y-109289850D01*
X99452001Y-109289850D01*
X99452001Y-108527850D01*
X98740801Y-108527850D01*
X98740801Y-108019850D01*
X99452001Y-108019850D01*
X99452001Y-107257850D01*
X98740801Y-107257850D01*
X98740801Y-106749850D01*
X99452001Y-106749850D01*
X99451998Y-106914950D01*
D13*
X74726800Y-90728800D03*
D14*
X84632800Y-115870250D03*
X84632800Y-112920250D03*
D15*
X95541800Y-99466400D03*
X97091800Y-99466400D03*
D16*
X102920800Y-93967000D03*
X102920800Y-95517000D03*
D17*
X87731600Y-99153450D03*
X87731600Y-102103450D03*
D18*
X104546400Y-93890600D03*
X104546400Y-92240600D03*
D15*
X81571800Y-110286800D03*
X83121800Y-110286800D03*
D17*
X85191600Y-99153450D03*
X85191600Y-102103450D03*
D19*
X86461600Y-117833550D03*
X86461600Y-123758550D03*
D20*
X74625200Y-118110000D03*
D21*
X99339600Y-98466399D03*
X99339600Y-98966401D03*
X99339600Y-99466400D03*
X99339600Y-99966402D03*
X99339600Y-100466401D03*
D22*
X99939599Y-101066400D03*
X100439601Y-101066400D03*
X100939600Y-101066400D03*
X101439602Y-101066400D03*
X101939601Y-101066400D03*
D23*
X102539600Y-100466400D03*
X102539600Y-99966400D03*
D21*
X102539600Y-99466400D03*
X102539600Y-98966400D03*
X102539600Y-98466399D03*
D22*
X101939600Y-97866400D03*
X101439600Y-97866400D03*
X100939600Y-97866400D03*
X100439600Y-97866400D03*
X99939599Y-97866400D03*
D24*
X100939600Y-99466400D03*
D25*
X99987400Y-103530400D03*
X98437400Y-103530400D03*
D26*
X97042399Y-110807500D03*
X97042399Y-109537500D03*
X97042399Y-108267500D03*
X97042399Y-106997500D03*
X91222401Y-106997500D03*
X91222401Y-108267500D03*
X91222401Y-109537500D03*
X91222401Y-110807500D03*
D20*
X74625200Y-107086400D03*
D27*
X106133400Y-97891600D03*
X104483400Y-97891600D03*
D26*
X104916399Y-110813850D03*
X104916399Y-109543850D03*
X104916399Y-108273850D03*
X104916399Y-107003850D03*
X99096401Y-107003850D03*
X99096401Y-108273850D03*
X99096401Y-109543850D03*
X99096401Y-110813850D03*
D28*
X99466400Y-91658400D03*
X99466400Y-93558400D03*
D20*
X74676000Y-96621600D03*
D29*
X91020900Y-120948450D03*
X105067100Y-120948450D03*
D17*
X82702400Y-103985800D03*
X82702400Y-106935800D03*
D15*
X101841000Y-103530400D03*
X103391000Y-103530400D03*
D30*
X97320600Y-95148400D03*
X98970600Y-95148400D03*
D17*
X90271600Y-99153450D03*
X90271600Y-102103450D03*
D30*
X104483400Y-95453200D03*
X106133400Y-95453200D03*
D15*
X81571800Y-108661200D03*
X83121800Y-108661200D03*
D31*
X84834200Y-106781600D03*
X87784200Y-106781600D03*
X84834200Y-104286050D03*
X87784200Y-104286050D03*
D17*
X82702400Y-99159800D03*
X82702400Y-102109800D03*
D31*
X87784200Y-109220000D03*
X84834200Y-109220000D03*
D14*
X87172800Y-115870250D03*
X87172800Y-112920250D03*
D15*
X104533400Y-100025200D03*
X106083400Y-100025200D03*
D16*
X101295200Y-93967000D03*
X101295200Y-95517000D03*
D28*
X97332800Y-91658400D03*
X97332800Y-93558400D03*
D15*
X100926600Y-105206800D03*
X102476600Y-105206800D03*
M02*
