G04 #@! TF.GenerationSoftware,KiCad,Pcbnew,(6.0.5-0)*
G04 #@! TF.CreationDate,2023-03-07T19:50:15-08:00*
G04 #@! TF.ProjectId,12V_Converter_LM5152x-Q1,3132565f-436f-46e7-9665-727465725f4c,rev?*
G04 #@! TF.SameCoordinates,Original*
G04 #@! TF.FileFunction,Copper,L2,Bot*
G04 #@! TF.FilePolarity,Positive*
%FSLAX46Y46*%
G04 Gerber Fmt 4.6, Leading zero omitted, Abs format (unit mm)*
G04 Created by KiCad (PCBNEW (6.0.5-0)) date 2023-03-07 19:50:15*
%MOMM*%
%LPD*%
G01*
G04 APERTURE LIST*
G04 #@! TA.AperFunction,ComponentPad*
%ADD10R,1.700000X1.700000*%
G04 #@! TD*
G04 #@! TA.AperFunction,ViaPad*
%ADD11C,0.800000*%
G04 #@! TD*
G04 #@! TA.AperFunction,Conductor*
%ADD12C,0.250000*%
G04 #@! TD*
G04 #@! TA.AperFunction,Conductor*
%ADD13C,0.750000*%
G04 #@! TD*
G04 APERTURE END LIST*
D10*
X69200000Y-93000000D03*
D11*
X98958400Y-97536000D03*
X95402400Y-105444303D03*
X105562400Y-101193600D03*
X99822000Y-105206800D03*
X107696000Y-110032800D03*
X84992000Y-93622000D03*
X81432400Y-113233200D03*
X81940400Y-112369600D03*
X106172000Y-109169200D03*
X106680000Y-110032800D03*
X107188000Y-110896400D03*
X106172000Y-110947200D03*
X86516000Y-96314400D03*
X85500000Y-96263600D03*
X79908400Y-114147600D03*
X82448400Y-113233200D03*
X84484000Y-96314400D03*
X86008000Y-93571200D03*
X82956400Y-114096800D03*
X80924400Y-114096800D03*
X82956400Y-112369600D03*
X85500000Y-94536400D03*
X84484000Y-94536400D03*
X80924400Y-112369600D03*
X107188000Y-109169200D03*
X84992000Y-95400000D03*
X81940400Y-114096800D03*
X87172800Y-114096800D03*
X84023200Y-114096800D03*
X86008000Y-95400000D03*
X80416400Y-113233200D03*
X107696000Y-108204000D03*
X86156800Y-114096800D03*
X108204000Y-109169200D03*
X106680000Y-108254800D03*
X85090000Y-114096800D03*
X108204000Y-110947200D03*
X86516000Y-94536400D03*
X79908400Y-112369600D03*
X104952800Y-106019600D03*
X102870000Y-101041200D03*
X104495600Y-101193600D03*
X101803200Y-102565200D03*
X97167100Y-101400000D03*
X97891600Y-97536000D03*
X95402400Y-104444800D03*
D12*
X96384097Y-105444303D02*
X95402400Y-105444303D01*
X95444297Y-105444303D02*
X98958400Y-101930200D01*
X99822000Y-105206800D02*
X96621600Y-105206800D01*
X98958400Y-97536000D02*
X102616000Y-97536000D01*
X95402400Y-105444303D02*
X95444297Y-105444303D01*
X96621600Y-105206800D02*
X96384097Y-105444303D01*
X105562400Y-100482400D02*
X105562400Y-101193600D01*
X102616000Y-97536000D02*
X105562400Y-100482400D01*
X98958400Y-101930200D02*
X98958400Y-97536000D01*
D13*
X102870000Y-103936800D02*
X104952800Y-106019600D01*
X102870000Y-101041200D02*
X102870000Y-103936800D01*
D12*
X101803200Y-100584000D02*
X102108000Y-100279200D01*
X102108000Y-100279200D02*
X104190800Y-100279200D01*
X104495600Y-100584000D02*
X104495600Y-101193600D01*
X101803200Y-102565200D02*
X101803200Y-100584000D01*
X104190800Y-100279200D02*
X104495600Y-100584000D01*
X97167100Y-100567100D02*
X88600000Y-92000000D01*
X72800000Y-92000000D02*
X71800000Y-93000000D01*
X97167100Y-101400000D02*
X97167100Y-100567100D01*
X71800000Y-93000000D02*
X69200000Y-93000000D01*
X88600000Y-92000000D02*
X72800000Y-92000000D01*
X95402400Y-104444800D02*
X97891600Y-101955600D01*
X97891600Y-101955600D02*
X97891600Y-97536000D01*
G04 #@! TA.AperFunction,Conductor*
G36*
X68091621Y-92820002D02*
G01*
X68138114Y-92873658D01*
X68149500Y-92926000D01*
X68149500Y-93869748D01*
X68161133Y-93928231D01*
X68205448Y-93994552D01*
X68271769Y-94038867D01*
X68283938Y-94041288D01*
X68283939Y-94041288D01*
X68324184Y-94049293D01*
X68330252Y-94050500D01*
X70069748Y-94050500D01*
X70075816Y-94049293D01*
X70116061Y-94041288D01*
X70116062Y-94041288D01*
X70128231Y-94038867D01*
X70194552Y-93994552D01*
X70238867Y-93928231D01*
X70250500Y-93869748D01*
X70250500Y-93451500D01*
X70270502Y-93383379D01*
X70324158Y-93336886D01*
X70376500Y-93325500D01*
X71780290Y-93325500D01*
X71791272Y-93325980D01*
X71817820Y-93328303D01*
X71817822Y-93328303D01*
X71828807Y-93329264D01*
X71865215Y-93319508D01*
X71875942Y-93317130D01*
X71879301Y-93316538D01*
X71913045Y-93310588D01*
X71922590Y-93305077D01*
X71925866Y-93303885D01*
X71929034Y-93302408D01*
X71939684Y-93299554D01*
X71970544Y-93277945D01*
X71979815Y-93272039D01*
X72002906Y-93258707D01*
X72012455Y-93253194D01*
X72036685Y-93224317D01*
X72044111Y-93216215D01*
X72423421Y-92836905D01*
X72485733Y-92802879D01*
X72512516Y-92800000D01*
X87374000Y-92800000D01*
X87442121Y-92820002D01*
X87488614Y-92873658D01*
X87500000Y-92926000D01*
X87500000Y-107000000D01*
X108874000Y-107000000D01*
X108942121Y-107020002D01*
X108988614Y-107073658D01*
X109000000Y-107126000D01*
X109000000Y-129874000D01*
X108979998Y-129942121D01*
X108926342Y-129988614D01*
X108874000Y-130000000D01*
X61926000Y-130000000D01*
X61857879Y-129979998D01*
X61811386Y-129926342D01*
X61800000Y-129874000D01*
X61800000Y-92926000D01*
X61820002Y-92857879D01*
X61873658Y-92811386D01*
X61926000Y-92800000D01*
X68023500Y-92800000D01*
X68091621Y-92820002D01*
G37*
G04 #@! TD.AperFunction*
M02*
