M48
; DRILL file {KiCad (6.0.5)} date Mon Mar  6 18:53:06 2023
; FORMAT={-:-/ absolute / metric / decimal}
; #@! TF.CreationDate,2023-03-06T18:53:06-08:00
; #@! TF.GenerationSoftware,Kicad,Pcbnew,(6.0.5)
; #@! TF.FileFunction,Plated,1,2,PTH
FMAT,2
METRIC
; #@! TA.AperFunction,Plated,PTH,ViaDrill
T1C0.300
; #@! TA.AperFunction,Plated,PTH,ViaDrill
T2C0.400
; #@! TA.AperFunction,Plated,PTH,ComponentDrill
T3C1.000
%
G90
G05
T1
X100.279Y-99.466
X100.94Y-98.806
X100.94Y-100.127
X101.6Y-99.466
T2
X78.283Y-107.29
X78.283Y-109.068
X78.791Y-106.375
X78.791Y-108.153
X79.299Y-107.29
X79.299Y-109.017
X79.807Y-106.324
X79.807Y-108.153
X79.908Y-112.37
X79.908Y-114.148
X80.315Y-107.29
X80.315Y-109.068
X80.416Y-113.233
X80.924Y-112.37
X80.924Y-114.097
X81.432Y-113.233
X81.94Y-112.37
X81.94Y-114.097
X82.448Y-113.233
X82.956Y-112.37
X82.956Y-114.097
X84.023Y-114.097
X85.09Y-114.097
X86.157Y-114.097
X87.173Y-114.097
X95.402Y-104.445
X95.402Y-105.444
X95.555Y-98.247
X96.012Y-101.143
X97.892Y-97.536
X98.958Y-97.536
X99.822Y-105.207
X101.803Y-102.565
X102.87Y-101.041
X104.496Y-101.194
X104.953Y-106.02
X105.562Y-101.194
X106.172Y-109.169
X106.172Y-110.947
X106.68Y-108.255
X106.68Y-110.033
X107.188Y-109.169
X107.188Y-110.896
X107.696Y-108.204
X107.696Y-110.033
X108.204Y-109.169
X108.204Y-110.947
T3
X74.727Y-90.729
T0
M30
