G04 #@! TF.GenerationSoftware,KiCad,Pcbnew,(6.0.5-0)*
G04 #@! TF.CreationDate,2023-04-21T19:10:27-07:00*
G04 #@! TF.ProjectId,12V_Converter_LM5152x-Q1,3132565f-436f-46e7-9665-727465725f4c,rev?*
G04 #@! TF.SameCoordinates,Original*
G04 #@! TF.FileFunction,Soldermask,Top*
G04 #@! TF.FilePolarity,Negative*
%FSLAX46Y46*%
G04 Gerber Fmt 4.6, Leading zero omitted, Abs format (unit mm)*
G04 Created by KiCad (PCBNEW (6.0.5-0)) date 2023-04-21 19:10:27*
%MOMM*%
%LPD*%
G01*
G04 APERTURE LIST*
G04 Aperture macros list*
%AMRoundRect*
0 Rectangle with rounded corners*
0 $1 Rounding radius*
0 $2 $3 $4 $5 $6 $7 $8 $9 X,Y pos of 4 corners*
0 Add a 4 corners polygon primitive as box body*
4,1,4,$2,$3,$4,$5,$6,$7,$8,$9,$2,$3,0*
0 Add four circle primitives for the rounded corners*
1,1,$1+$1,$2,$3*
1,1,$1+$1,$4,$5*
1,1,$1+$1,$6,$7*
1,1,$1+$1,$8,$9*
0 Add four rect primitives between the rounded corners*
20,1,$1+$1,$2,$3,$4,$5,0*
20,1,$1+$1,$4,$5,$6,$7,0*
20,1,$1+$1,$6,$7,$8,$9,0*
20,1,$1+$1,$8,$9,$2,$3,0*%
G04 Aperture macros list end*
%ADD10C,0.000100*%
%ADD11RoundRect,0.250000X0.650000X-0.325000X0.650000X0.325000X-0.650000X0.325000X-0.650000X-0.325000X0*%
%ADD12RoundRect,0.225000X-0.225000X-0.250000X0.225000X-0.250000X0.225000X0.250000X-0.225000X0.250000X0*%
%ADD13RoundRect,0.225000X-0.250000X0.225000X-0.250000X-0.225000X0.250000X-0.225000X0.250000X0.225000X0*%
%ADD14R,1.372000X0.710000*%
%ADD15RoundRect,0.250000X-0.650000X0.325000X-0.650000X-0.325000X0.650000X-0.325000X0.650000X0.325000X0*%
%ADD16RoundRect,0.200000X0.275000X-0.200000X0.275000X0.200000X-0.275000X0.200000X-0.275000X-0.200000X0*%
%ADD17RoundRect,0.250000X0.325000X0.650000X-0.325000X0.650000X-0.325000X-0.650000X0.325000X-0.650000X0*%
%ADD18RoundRect,0.250000X-1.425000X0.362500X-1.425000X-0.362500X1.425000X-0.362500X1.425000X0.362500X0*%
%ADD19R,4.000000X4.000000*%
%ADD20R,2.000000X4.100000*%
%ADD21R,0.600000X0.240000*%
%ADD22R,0.240000X0.600000*%
%ADD23R,0.600000X0.239283*%
%ADD24R,2.050000X2.050000*%
%ADD25RoundRect,0.225000X0.225000X0.250000X-0.225000X0.250000X-0.225000X-0.250000X0.225000X-0.250000X0*%
%ADD26R,3.022600X12.192000*%
%ADD27RoundRect,0.200000X0.200000X0.275000X-0.200000X0.275000X-0.200000X-0.275000X0.200000X-0.275000X0*%
%ADD28RoundRect,0.250000X-0.475000X0.250000X-0.475000X-0.250000X0.475000X-0.250000X0.475000X0.250000X0*%
%ADD29R,4.100000X2.000000*%
%ADD30RoundRect,0.200000X-0.200000X-0.275000X0.200000X-0.275000X0.200000X0.275000X-0.200000X0.275000X0*%
%ADD31RoundRect,0.250000X-0.325000X-0.650000X0.325000X-0.650000X0.325000X0.650000X-0.325000X0.650000X0*%
%ADD32R,1.700000X1.700000*%
G04 APERTURE END LIST*
G36*
X103173150Y-111275200D02*
G01*
X98533150Y-111275200D01*
X98533150Y-110365200D01*
X99123150Y-110365200D01*
X99123150Y-110005200D01*
X98533150Y-110005200D01*
X98533150Y-109095200D01*
X99123150Y-109095200D01*
X99123150Y-108735200D01*
X98533150Y-108735200D01*
X98533150Y-107825200D01*
X99123150Y-107825200D01*
X99123150Y-107465200D01*
X98523150Y-107465200D01*
X98523150Y-106555200D01*
X103173150Y-106555200D01*
X103173150Y-111275200D01*
G37*
D10*
X103173150Y-111275200D02*
X98533150Y-111275200D01*
X98533150Y-110365200D01*
X99123150Y-110365200D01*
X99123150Y-110005200D01*
X98533150Y-110005200D01*
X98533150Y-109095200D01*
X99123150Y-109095200D01*
X99123150Y-108735200D01*
X98533150Y-108735200D01*
X98533150Y-107825200D01*
X99123150Y-107825200D01*
X99123150Y-107465200D01*
X98523150Y-107465200D01*
X98523150Y-106555200D01*
X103173150Y-106555200D01*
X103173150Y-111275200D01*
G36*
X95565750Y-111260000D02*
G01*
X90925750Y-111260000D01*
X90925750Y-110350000D01*
X91515750Y-110350000D01*
X91515750Y-109990000D01*
X90925750Y-109990000D01*
X90925750Y-109080000D01*
X91515750Y-109080000D01*
X91515750Y-108720000D01*
X90925750Y-108720000D01*
X90925750Y-107810000D01*
X91515750Y-107810000D01*
X91515750Y-107450000D01*
X90915750Y-107450000D01*
X90915750Y-106540000D01*
X95565750Y-106540000D01*
X95565750Y-111260000D01*
G37*
X95565750Y-111260000D02*
X90925750Y-111260000D01*
X90925750Y-110350000D01*
X91515750Y-110350000D01*
X91515750Y-109990000D01*
X90925750Y-109990000D01*
X90925750Y-109080000D01*
X91515750Y-109080000D01*
X91515750Y-108720000D01*
X90925750Y-108720000D01*
X90925750Y-107810000D01*
X91515750Y-107810000D01*
X91515750Y-107450000D01*
X90915750Y-107450000D01*
X90915750Y-106540000D01*
X95565750Y-106540000D01*
X95565750Y-111260000D01*
D11*
X84632800Y-115870250D03*
X84632800Y-112920250D03*
D12*
X95541800Y-99466400D03*
X97091800Y-99466400D03*
D13*
X102920800Y-93967000D03*
X102920800Y-95517000D03*
D14*
X104859150Y-110820200D03*
X104859150Y-109550200D03*
X104859150Y-108280200D03*
X104859150Y-107010200D03*
D15*
X82300000Y-96125000D03*
X82300000Y-99075000D03*
D16*
X104546400Y-93890600D03*
X104546400Y-92240600D03*
D17*
X82675000Y-93000000D03*
X79725000Y-93000000D03*
D18*
X86461600Y-117833550D03*
X86461600Y-123758550D03*
D19*
X69200000Y-121300000D03*
D20*
X89100000Y-101550000D03*
X89100000Y-92850000D03*
D21*
X99339600Y-98466399D03*
X99339600Y-98966401D03*
X99339600Y-99466400D03*
X99339600Y-99966402D03*
X99339600Y-100466401D03*
D22*
X99939599Y-101066400D03*
X100439601Y-101066400D03*
X100939600Y-101066400D03*
X101439602Y-101066400D03*
X101939601Y-101066400D03*
D23*
X102539600Y-100466400D03*
X102539600Y-99966400D03*
D21*
X102539600Y-99466400D03*
X102539600Y-98966400D03*
X102539600Y-98466399D03*
D22*
X101939600Y-97866400D03*
X101439600Y-97866400D03*
X100939600Y-97866400D03*
X100439600Y-97866400D03*
X99939599Y-97866400D03*
D24*
X100939600Y-99466400D03*
D25*
X99987400Y-103530400D03*
X98437400Y-103530400D03*
D26*
X105777100Y-120900000D03*
X91222900Y-120900000D03*
D19*
X69173600Y-111398400D03*
D14*
X97251750Y-110805000D03*
X97251750Y-109535000D03*
X97251750Y-108265000D03*
X97251750Y-106995000D03*
D27*
X106133400Y-97891600D03*
X104483400Y-97891600D03*
D28*
X99466400Y-91658400D03*
X99466400Y-93558400D03*
D19*
X69200000Y-99800000D03*
D29*
X83650000Y-105600000D03*
X74950000Y-105600000D03*
D15*
X74800000Y-96125000D03*
X74800000Y-99075000D03*
D12*
X101841000Y-103530400D03*
X103391000Y-103530400D03*
D30*
X97320600Y-95148400D03*
X98970600Y-95148400D03*
D15*
X79800000Y-96125000D03*
X79800000Y-99075000D03*
D30*
X104483400Y-95453200D03*
X106133400Y-95453200D03*
D31*
X85825000Y-108200000D03*
X88775000Y-108200000D03*
D15*
X77300000Y-96100000D03*
X77300000Y-99050000D03*
D17*
X77775000Y-93000000D03*
X74825000Y-93000000D03*
D31*
X85825000Y-110700000D03*
X88775000Y-110700000D03*
D11*
X87172800Y-115870250D03*
X87172800Y-112920250D03*
D32*
X69200000Y-93000000D03*
D12*
X104533400Y-100025200D03*
X106083400Y-100025200D03*
D13*
X101295200Y-93967000D03*
X101295200Y-95517000D03*
D28*
X97332800Y-91658400D03*
X97332800Y-93558400D03*
D12*
X100926600Y-105206800D03*
X102476600Y-105206800D03*
M02*
