G04 #@! TF.GenerationSoftware,KiCad,Pcbnew,(6.0.5)*
G04 #@! TF.CreationDate,2023-03-07T22:57:50-08:00*
G04 #@! TF.ProjectId,12V_Converter_LM5152x-Q1,3132565f-436f-46e7-9665-727465725f4c,rev?*
G04 #@! TF.SameCoordinates,Original*
G04 #@! TF.FileFunction,Copper,L2,Bot*
G04 #@! TF.FilePolarity,Positive*
%FSLAX46Y46*%
G04 Gerber Fmt 4.6, Leading zero omitted, Abs format (unit mm)*
G04 Created by KiCad (PCBNEW (6.0.5)) date 2023-03-07 22:57:50*
%MOMM*%
%LPD*%
G01*
G04 APERTURE LIST*
G04 #@! TA.AperFunction,ComponentPad*
%ADD10R,1.700000X1.700000*%
G04 #@! TD*
G04 #@! TA.AperFunction,ViaPad*
%ADD11C,0.800000*%
G04 #@! TD*
G04 #@! TA.AperFunction,Conductor*
%ADD12C,0.250000*%
G04 #@! TD*
G04 #@! TA.AperFunction,Conductor*
%ADD13C,0.750000*%
G04 #@! TD*
G04 APERTURE END LIST*
D10*
X69200000Y-93000000D03*
D11*
X98958400Y-97536000D03*
X95402400Y-105444303D03*
X105562400Y-101193600D03*
X99822000Y-105206800D03*
X107696000Y-110032800D03*
X84992000Y-93622000D03*
X81432400Y-113233200D03*
X81940400Y-112369600D03*
X106172000Y-109169200D03*
X106680000Y-110032800D03*
X107188000Y-110896400D03*
X106172000Y-110947200D03*
X86516000Y-96314400D03*
X85500000Y-96263600D03*
X79908400Y-114147600D03*
X82448400Y-113233200D03*
X84484000Y-96314400D03*
X86008000Y-93571200D03*
X82956400Y-114096800D03*
X80924400Y-114096800D03*
X82956400Y-112369600D03*
X85500000Y-94536400D03*
X84484000Y-94536400D03*
X80924400Y-112369600D03*
X107188000Y-109169200D03*
X84992000Y-95400000D03*
X81940400Y-114096800D03*
X87172800Y-114096800D03*
X84023200Y-114096800D03*
X86008000Y-95400000D03*
X80416400Y-113233200D03*
X107696000Y-108204000D03*
X86156800Y-114096800D03*
X108204000Y-109169200D03*
X106680000Y-108254800D03*
X85090000Y-114096800D03*
X108204000Y-110947200D03*
X86516000Y-94536400D03*
X79908400Y-112369600D03*
X104952800Y-106019600D03*
X102870000Y-101041200D03*
X104495600Y-101193600D03*
X101803200Y-102565200D03*
X97167100Y-101400000D03*
X97891600Y-97536000D03*
X95402400Y-104444800D03*
D12*
X96384097Y-105444303D02*
X95402400Y-105444303D01*
X95444297Y-105444303D02*
X98958400Y-101930200D01*
X99822000Y-105206800D02*
X96621600Y-105206800D01*
X98958400Y-97536000D02*
X102616000Y-97536000D01*
X95402400Y-105444303D02*
X95444297Y-105444303D01*
X96621600Y-105206800D02*
X96384097Y-105444303D01*
X105562400Y-100482400D02*
X105562400Y-101193600D01*
X102616000Y-97536000D02*
X105562400Y-100482400D01*
X98958400Y-101930200D02*
X98958400Y-97536000D01*
D13*
X102870000Y-103936800D02*
X104952800Y-106019600D01*
X102870000Y-101041200D02*
X102870000Y-103936800D01*
D12*
X101803200Y-100584000D02*
X102108000Y-100279200D01*
X102108000Y-100279200D02*
X104190800Y-100279200D01*
X104495600Y-100584000D02*
X104495600Y-101193600D01*
X101803200Y-102565200D02*
X101803200Y-100584000D01*
X104190800Y-100279200D02*
X104495600Y-100584000D01*
X97167100Y-100567100D02*
X88600000Y-92000000D01*
X72800000Y-92000000D02*
X71800000Y-93000000D01*
X97167100Y-101400000D02*
X97167100Y-100567100D01*
X71800000Y-93000000D02*
X69200000Y-93000000D01*
X88600000Y-92000000D02*
X72800000Y-92000000D01*
X95402400Y-104444800D02*
X97891600Y-101955600D01*
X97891600Y-101955600D02*
X97891600Y-97536000D01*
G04 #@! TA.AperFunction,Conductor*
G36*
X68037621Y-92820002D02*
G01*
X68084114Y-92873658D01*
X68095500Y-92926000D01*
X68095501Y-93437379D01*
X68095501Y-93875066D01*
X68110266Y-93949301D01*
X68166516Y-94033484D01*
X68250699Y-94089734D01*
X68324933Y-94104500D01*
X69199858Y-94104500D01*
X70075066Y-94104499D01*
X70110818Y-94097388D01*
X70137126Y-94092156D01*
X70137128Y-94092155D01*
X70149301Y-94089734D01*
X70159621Y-94082839D01*
X70159622Y-94082838D01*
X70223168Y-94040377D01*
X70233484Y-94033484D01*
X70289734Y-93949301D01*
X70304500Y-93875067D01*
X70304500Y-93505500D01*
X70324502Y-93437379D01*
X70378158Y-93390886D01*
X70430500Y-93379500D01*
X71746080Y-93379500D01*
X71770028Y-93382049D01*
X71771693Y-93382128D01*
X71781876Y-93384320D01*
X71792217Y-93383096D01*
X71815223Y-93380373D01*
X71821154Y-93380023D01*
X71821146Y-93379928D01*
X71826324Y-93379500D01*
X71831524Y-93379500D01*
X71836653Y-93378646D01*
X71836656Y-93378646D01*
X71850565Y-93376331D01*
X71856443Y-93375494D01*
X71897001Y-93370694D01*
X71897002Y-93370694D01*
X71907341Y-93369470D01*
X71915593Y-93365507D01*
X71924626Y-93364004D01*
X71933795Y-93359057D01*
X71933797Y-93359056D01*
X71969732Y-93339666D01*
X71975025Y-93336969D01*
X72014082Y-93318215D01*
X72014086Y-93318212D01*
X72021232Y-93314781D01*
X72025508Y-93311186D01*
X72027431Y-93309263D01*
X72029363Y-93307491D01*
X72029442Y-93307448D01*
X72029555Y-93307572D01*
X72030095Y-93307096D01*
X72035814Y-93304010D01*
X72072417Y-93264413D01*
X72075846Y-93260848D01*
X72499789Y-92836905D01*
X72562101Y-92802879D01*
X72588884Y-92800000D01*
X87374000Y-92800000D01*
X87442121Y-92820002D01*
X87488614Y-92873658D01*
X87500000Y-92926000D01*
X87500000Y-107000000D01*
X108585500Y-107000000D01*
X108653621Y-107020002D01*
X108700114Y-107073658D01*
X108711500Y-107126000D01*
X108711500Y-129667500D01*
X108691498Y-129735621D01*
X108637842Y-129782114D01*
X108585500Y-129793500D01*
X62102500Y-129793500D01*
X62034379Y-129773498D01*
X61987886Y-129719842D01*
X61976500Y-129667500D01*
X61976500Y-92926000D01*
X61996502Y-92857879D01*
X62050158Y-92811386D01*
X62102500Y-92800000D01*
X67969500Y-92800000D01*
X68037621Y-92820002D01*
G37*
G04 #@! TD.AperFunction*
M02*
