M48
; DRILL file {KiCad (6.0.5)} date Tue Mar  7 22:57:52 2023
; FORMAT={-:-/ absolute / metric / decimal}
; #@! TF.CreationDate,2023-03-07T22:57:52-08:00
; #@! TF.GenerationSoftware,Kicad,Pcbnew,(6.0.5)
; #@! TF.FileFunction,Plated,1,2,PTH
FMAT,2
METRIC
; #@! TA.AperFunction,Plated,PTH,ViaDrill
T1C0.400
; #@! TA.AperFunction,Plated,PTH,ComponentDrill
T2C1.000
%
G90
G05
T1
X79.908Y-112.37
X79.908Y-114.148
X80.416Y-113.233
X80.924Y-112.37
X80.924Y-114.097
X81.432Y-113.233
X81.94Y-112.37
X81.94Y-114.097
X82.448Y-113.233
X82.956Y-112.37
X82.956Y-114.097
X84.023Y-114.097
X84.484Y-94.536
X84.484Y-96.314
X84.992Y-93.622
X84.992Y-95.4
X85.09Y-114.097
X85.5Y-94.536
X85.5Y-96.264
X86.008Y-93.571
X86.008Y-95.4
X86.157Y-114.097
X86.516Y-94.536
X86.516Y-96.314
X87.173Y-114.097
X95.402Y-104.445
X95.402Y-105.444
X97.167Y-101.4
X97.892Y-97.536
X98.958Y-97.536
X99.822Y-105.207
X101.803Y-102.565
X102.87Y-101.041
X104.496Y-101.194
X104.953Y-106.02
X105.562Y-101.194
X106.172Y-109.169
X106.172Y-110.947
X106.68Y-108.255
X106.68Y-110.033
X107.188Y-109.169
X107.188Y-110.896
X107.696Y-108.204
X107.696Y-110.033
X108.204Y-109.169
X108.204Y-110.947
T2
X69.2Y-93.0
T0
M30
